<svg width="797" height="797" viewBox="0 0 797 797" fill="none" xmlns="http://www.w3.org/2000/svg">
<path d="M516.217 759.222C524.793 759.222 533.132 758.84 541.235 758.075C595.941 753.03 639.194 731.463 667.958 701.352C683.173 685.659 694.68 666.756 701.631 646.032C708.179 626.413 710.088 605.543 707.21 585.062C687.333 443.881 520.393 512.535 590.378 426.666C660.362 340.797 523.358 231.584 470.788 257.431C418.218 283.278 476.192 338.558 346.281 312.424C216.37 286.29 243.252 401.114 243.252 401.114" stroke="white" stroke-width="3.84154" stroke-miterlimit="10"/>
<path d="M166.453 637.377C166.453 637.377 106.957 594.713 83.9879 641.896C83.9879 641.896 108.145 556.282 190.539 525.661C190.539 525.661 214.09 512.558 215.126 520.473C216.162 528.387 222.993 532.428 225.981 532.332C228.97 532.236 254.203 533.814 255.08 530.045C255.957 526.275 254.283 514.981 266.796 514.902C279.309 514.822 347.205 531.503 366.62 549.133C366.62 549.133 332.827 589.931 350.895 634.914L335.672 631.224C335.672 631.224 345.061 712.518 332.261 759.804H111.174C111.174 759.804 133.274 762.585 155.941 746.414L188.857 704.173C188.857 704.173 203.291 682.304 232.78 679.179C232.78 679.179 249.565 677.346 249.405 669.368C249.246 661.39 255.454 674.477 263.751 662.944C264.763 662.944 284.927 664.108 284.927 664.108C284.927 664.108 300.07 665.527 302.916 652.01C305.761 638.492 316.25 543.618 312.48 537.919C308.71 532.22 307.267 532.149 275.451 532.34C243.635 532.531 215.676 526.187 211.627 542.016C207.579 557.844 202.9 617.818 202.9 617.818C202.9 617.818 184.968 622.513 171.307 641.935C171.355 641.928 166.453 651.396 166.453 637.377Z" fill="white"/>
<path d="M166.453 608.565V645.913" stroke="black" stroke-width="3.84154" stroke-miterlimit="10"/>
<path d="M334.652 627.239C369.76 645.889 466.787 683.993 470.23 537.433C470.23 537.433 466.054 498.946 476.941 493.925C487.828 488.904 505.386 473.004 482.775 434.509L497.527 419.788C499.521 417.737 500.617 414.977 500.576 412.117C500.535 409.257 499.359 406.531 497.308 404.537C495.257 402.544 492.497 401.447 489.637 401.488C486.777 401.53 484.051 402.705 482.058 404.757L452.736 435.839C452.736 435.839 448.488 427.87 440.956 432.022C433.425 436.174 405.801 453.796 418.345 490.593L385.716 584.321" stroke="white" stroke-width="3.84154" stroke-miterlimit="10"/>
<path d="M452.696 435.823C452.696 435.823 460.515 447.723 443.873 459.885" stroke="black" stroke-width="3.84154" stroke-miterlimit="10"/>
<path d="M487.589 443.754C487.589 443.754 492.458 459.048 472.812 468.915C465.862 472.406 458.235 465.057 461.519 458.004C461.575 457.9 461.622 457.789 461.678 457.677" stroke="black" stroke-width="3.84154" stroke-miterlimit="10"/>
<path d="M493.534 462.643C493.534 462.643 489.238 477.578 477.483 478.296C467.082 478.925 468.827 468.317 468.827 468.317" stroke="black" stroke-width="3.84154" stroke-miterlimit="10"/>
<path d="M292.419 453.286C291.622 453.493 291.12 452.832 290.379 452.959C279.723 451.015 271.801 442.598 270.908 438.549C271.211 440.757 275.26 440.534 274.574 442.79C274.447 443.22 274.192 443.053 273.985 443.467C273.65 444.264 273.658 443.172 273.188 443.889C270.574 440.024 269.059 438.103 268.597 435.975C268.911 438.259 268.726 440.584 268.055 442.79C267.932 443.221 267.769 443.64 267.569 444.041C265.975 447.803 262.651 450.983 257.096 451.772C255.703 451.948 254.297 451.993 252.896 451.907C248.911 451.676 245.468 451.445 242.535 451.317C232.732 450.879 229.217 451.62 230.317 457.948C230.923 460.811 231.782 463.614 232.883 466.325C234.828 471.442 236.183 480.304 234.19 489.956V490.012C231.879 501.249 224.563 509.937 208.886 518.098C206.108 519.532 203.244 520.791 200.31 521.868C173.108 531.958 108.041 557.518 81.0708 651.245C78.2016 661.231 76.0577 670.317 74.5434 678.614L73.8022 678.183C55.3835 667.145 43.3727 642.382 47.023 621.078C48.8402 610.502 55.7262 603.122 64.557 597.567C70.7577 593.725 77.3887 590.577 82.9438 585.835C101.354 570.11 86.6339 545.658 96.8275 526.857C108.32 505.705 126.317 492.666 149.812 491.59C155.726 491.845 162.381 492.538 168.836 492.227C178.209 492.562 187.789 491.797 194.651 485.652C200.055 480.87 201.179 473.075 203.227 466.572C205.533 459.238 207.457 451.79 208.989 444.256C210.391 437.114 213.006 430.264 216.72 424.004C220.73 417.221 226.385 411.558 233.162 407.538C239.075 404.201 245.666 402.247 252.442 401.824C258.612 402.188 264.614 403.977 269.976 407.052C271.807 408.134 273.538 409.377 275.148 410.766C287.016 420.888 292.698 438.023 292.419 453.286Z" fill="white"/>
<path d="M472.478 477.403C472.478 477.403 468.676 482.121 470.756 486.6C472.836 491.079 478.001 492.123 483.022 490.163" stroke="black" stroke-width="3.84154" stroke-miterlimit="10"/>
<path d="M482.759 434.509L472.254 445.005" stroke="black" stroke-width="3.84154" stroke-miterlimit="10"/>
<path d="M202.94 616.79L211.492 543.068C211.838 540.085 213.268 537.333 215.511 535.336C217.753 533.339 220.651 532.236 223.654 532.237H302.191C303.909 532.236 305.608 532.597 307.178 533.296C308.748 533.995 310.153 535.017 311.301 536.295C312.45 537.573 313.317 539.079 313.845 540.714C314.374 542.349 314.552 544.077 314.369 545.786L302.924 652.018C302.599 655.021 301.177 657.799 298.929 659.817C296.681 661.836 293.767 662.952 290.746 662.953H262.643" stroke="#5AD5DE" stroke-width="3.84154" stroke-miterlimit="10"/>
<path d="M295.767 551.014C297.536 551.014 298.971 549.58 298.971 547.81C298.971 546.041 297.536 544.606 295.767 544.606C293.997 544.606 292.563 546.041 292.563 547.81C292.563 549.58 293.997 551.014 295.767 551.014Z" fill="black"/>
<path d="M242.878 633.894C251.167 635.759 252.824 635.791 260.866 636.986C265.935 637.743 277.523 638.373 277.731 630.507C277.922 623.597 270.167 619.54 264.692 617.332C258.372 614.929 251.759 613.382 245.03 612.734C242.256 612.415 239.469 612.197 236.669 612.08C217.262 611.283 194.874 615.977 181.509 631.16C150.545 666.292 109.372 688.879 109.372 688.879" stroke="white" stroke-width="3.84154" stroke-miterlimit="10"/>
<path d="M265.074 637.377C269.059 639.066 275.81 642.669 273.044 649.571C271.785 652.759 269.498 653.891 266.357 654.353C259.575 655.333 252.298 653.891 245.635 652.496C243.173 651.978 238.805 651.029 236.374 650.36" stroke="white" stroke-width="3.84154" stroke-miterlimit="10"/>
<path d="M257.989 654.513C257.989 654.513 265.234 654.425 263.488 661.16C260.611 672.318 238.255 667.265 227.799 664.922" stroke="white" stroke-width="3.84154" stroke-miterlimit="10"/>
<path d="M258.435 515.508C292.499 516.998 344.408 526.984 391.478 567.703" stroke="white" stroke-width="3.84154" stroke-miterlimit="10"/>
<path d="M516.217 759.23L111.174 759.836" stroke="white" stroke-width="3.84154" stroke-miterlimit="10"/>
<path d="M334.652 612C334.652 612 342.622 686.177 334.652 759.23" stroke="#32427C" stroke-width="3.84154" stroke-miterlimit="10"/>
<path opacity="0.54" d="M686.384 578.12L756.433 398.627C757.301 395.154 757.366 391.529 756.624 388.027C755.882 384.525 754.351 381.239 752.148 378.417C749.946 375.595 747.129 373.312 743.912 371.741C740.695 370.171 737.163 369.354 733.583 369.354H455.31C449.062 369.353 442.996 371.455 438.088 375.323C433.181 379.191 429.719 384.598 428.26 390.673L351.557 570.126C350.724 573.589 350.688 577.197 351.45 580.676C352.213 584.156 353.754 587.417 355.959 590.215C358.164 593.013 360.975 595.274 364.179 596.829C367.384 598.384 370.9 599.192 374.462 599.192H659.39C665.595 599.193 671.622 597.119 676.513 593.301C681.404 589.483 684.879 584.139 686.384 578.12Z" fill="white"/>
<path d="M686.384 578.12L756.433 398.627C757.301 395.154 757.366 391.529 756.624 388.027C755.882 384.525 754.351 381.239 752.148 378.417C749.946 375.595 747.129 373.312 743.912 371.741C740.695 370.171 737.163 369.354 733.583 369.354H455.31C449.062 369.353 442.996 371.455 438.088 375.323C433.181 379.191 429.719 384.598 428.26 390.673L351.557 570.126C350.724 573.589 350.688 577.197 351.45 580.676C352.213 584.156 353.754 587.417 355.959 590.215C358.164 593.013 360.975 595.274 364.179 596.829C367.384 598.384 370.9 599.192 374.462 599.192H659.39C665.595 599.193 671.622 597.119 676.513 593.301C681.404 589.483 684.879 584.139 686.384 578.12Z" fill="#5AD5DE"/>
<path d="M686.384 578.12L756.433 398.627C757.301 395.154 757.366 391.529 756.624 388.027C755.882 384.525 754.351 381.239 752.148 378.417C749.946 375.595 747.129 373.312 743.912 371.741C740.695 370.171 737.163 369.354 733.583 369.354H455.31C449.062 369.353 442.996 371.455 438.088 375.323C433.181 379.191 429.719 384.598 428.26 390.673L351.557 570.126C350.724 573.589 350.688 577.197 351.45 580.676C352.213 584.156 353.754 587.417 355.959 590.215C358.164 593.013 360.975 595.274 364.179 596.829C367.384 598.384 370.9 599.192 374.462 599.192H659.39C665.595 599.193 671.622 597.119 676.513 593.301C681.404 589.483 684.879 584.139 686.384 578.12Z" stroke="#5AD5DE" stroke-width="3.84154" stroke-linecap="square" stroke-linejoin="round"/>
<path d="M676.135 570.851L740.764 405.258C741.564 402.055 741.624 398.712 740.939 395.482C740.254 392.253 738.843 389.222 736.812 386.619C734.781 384.016 732.183 381.91 729.217 380.461C726.25 379.012 722.992 378.258 719.691 378.256H462.953C457.189 378.255 451.592 380.195 447.065 383.763C442.538 387.332 439.344 392.321 437.999 397.926L367.234 563.479C366.466 566.674 366.433 570.002 367.137 573.212C367.841 576.422 369.264 579.431 371.298 582.011C373.333 584.592 375.926 586.678 378.883 588.112C381.84 589.546 385.084 590.291 388.37 590.29H651.237C656.959 590.287 662.517 588.373 667.028 584.852C671.539 581.33 674.744 576.402 676.135 570.851Z" fill="#5AD5DE"/>
<path d="M481.476 408.702C484.879 403.593 490.45 401.321 493.917 403.625C497.384 405.928 497.432 411.945 494.028 417.054C493.5 417.839 492.903 418.576 492.243 419.254L517.468 472.509C521.453 469.824 525.916 469.162 529.088 471.274C531.137 472.637 532.276 474.956 532.635 477.65L549.866 471.832L564.938 466.795C566.532 466.245 568.213 465.719 569.855 465.201C570.474 463.351 571.334 461.59 572.413 459.965C577.195 452.792 585.014 449.604 589.876 452.792C594.737 455.98 594.801 464.324 590.155 471.457L618.847 510.694C625.103 505.561 632.475 503.975 637.584 507.37C644.534 511.993 644.638 524.059 637.815 534.317C637.544 534.723 637.233 535.058 636.946 535.449L656.074 561.582C656.13 561.662 656.202 561.758 656.25 561.837C656.733 562.567 657.068 563.384 657.236 564.243C657.404 565.102 657.4 565.986 657.226 566.844C657.052 567.702 656.711 568.517 656.222 569.243C655.733 569.968 655.106 570.591 654.377 571.075C653.647 571.558 652.83 571.893 651.971 572.061C651.112 572.228 650.228 572.225 649.37 572.051C648.513 571.877 647.697 571.536 646.972 571.047C646.246 570.558 645.623 569.931 645.14 569.202L628.156 543.578C622.784 546.694 617.077 547.292 612.893 544.503C606.246 540.087 605.927 528.897 611.849 518.999L584.344 477.499C580.288 480.256 575.809 480.958 572.597 478.83C570.803 477.564 569.58 475.643 569.193 473.482C568.508 473.665 567.831 473.864 567.145 474.056L551.819 478.24L532.205 483.524C531.604 485.875 530.613 488.109 529.272 490.131C524.49 497.304 516.679 500.492 511.809 497.264C506.94 494.036 506.868 485.58 511.642 478.399C512.354 477.358 513.154 476.379 514.033 475.474L490.02 421.175C487.126 423.143 483.93 423.653 481.643 422.131C478.128 419.836 478.072 413.818 481.476 408.702Z" fill="white"/>
<path d="M664.148 411.642H701.36C703.063 411.642 704.728 411.146 706.153 410.215C707.578 409.283 708.702 407.957 709.386 406.398C709.604 405.92 709.721 405.402 709.729 404.876C709.72 403.86 709.311 402.888 708.59 402.172C707.87 401.455 706.895 401.052 705.879 401.05H666.292C668.181 404.198 667.24 408.55 664.148 411.642Z" fill="#D7E8F0"/>
<path d="M640.087 407.825C640.089 408.838 640.493 409.809 641.21 410.525C641.927 411.24 642.899 411.642 643.912 411.642H664.148C667.24 408.55 668.181 404.198 666.324 401.05H648.455C646.754 401.049 645.09 401.543 643.665 402.471C642.24 403.4 641.116 404.723 640.429 406.279C640.213 406.766 640.096 407.292 640.087 407.825Z" fill="#1510F4"/>
<path d="M649.396 411.642C649.5 411.847 649.623 412.041 649.762 412.224C652.416 415.851 658.171 416.209 662.65 412.926C663.18 412.535 663.68 412.106 664.148 411.642C667.24 408.55 668.181 404.198 666.324 401.05C666.219 400.849 666.096 400.656 665.957 400.476C663.327 396.826 657.573 396.491 653.094 399.751C652.557 400.148 652.048 400.582 651.571 401.05C648.503 404.151 647.563 408.478 649.396 411.642Z" fill="white"/>
<path d="M630.73 431.177C630.738 432.192 631.148 433.163 631.869 433.878C632.59 434.593 633.564 434.995 634.579 434.995H673.632C671.743 431.807 672.684 427.503 675.784 424.41H639.122C637.42 424.411 635.754 424.907 634.329 425.838C632.904 426.77 631.781 428.096 631.096 429.655C630.874 430.132 630.749 430.65 630.73 431.177Z" fill="#1510F4"/>
<path d="M673.624 434.995H691.955C693.655 434.996 695.319 434.504 696.744 433.577C698.169 432.65 699.294 431.329 699.981 429.774C700.201 429.288 700.318 428.762 700.324 428.228C700.325 427.726 700.227 427.229 700.035 426.766C699.844 426.302 699.563 425.881 699.208 425.526C698.853 425.172 698.432 424.89 697.968 424.699C697.505 424.507 697.008 424.409 696.506 424.41H675.776C672.668 427.503 671.736 431.83 673.624 434.995Z" fill="#D7E8F0"/>
<path d="M673.624 434.995C673.707 435.204 673.819 435.4 673.959 435.577C676.597 439.227 682.352 439.561 686.823 436.302C687.365 435.908 687.874 435.471 688.345 434.995C691.413 431.902 692.33 427.575 690.521 424.411C690.419 424.206 690.299 424.012 690.162 423.829C687.5 420.202 681.746 419.844 677.275 423.127C676.741 423.514 676.24 423.943 675.776 424.411C672.668 427.503 671.736 431.831 673.624 434.995Z" fill="white"/>
<path d="M660.617 458.187H683.993C685.694 458.188 687.358 457.694 688.783 456.766C690.208 455.838 691.333 454.515 692.019 452.959C692.239 452.481 692.356 451.963 692.362 451.437C692.358 450.418 691.95 449.442 691.229 448.722C690.508 448.002 689.531 447.597 688.512 447.595H662.793C664.626 450.759 663.686 455.087 660.617 458.187Z" fill="#1510F4"/>
<path d="M622.728 454.386C622.732 455.397 623.137 456.365 623.855 457.078C624.572 457.79 625.542 458.189 626.554 458.187H660.617C663.686 455.087 664.602 450.759 662.793 447.595H631.097C629.394 447.596 627.728 448.092 626.303 449.023C624.878 449.954 623.755 451.28 623.071 452.839C622.852 453.326 622.735 453.852 622.728 454.386Z" fill="#D7E8F0"/>
<path d="M645.865 458.187C645.97 458.389 646.093 458.581 646.232 458.761C648.862 462.411 654.616 462.746 659.095 459.486C659.632 459.089 660.141 458.655 660.617 458.187C663.686 455.087 664.602 450.759 662.793 447.595C662.688 447.391 662.566 447.196 662.427 447.013C659.773 443.387 654.018 443.076 649.539 446.312C649.009 446.703 648.508 447.132 648.041 447.595C644.948 450.688 643.976 455.039 645.865 458.187Z" fill="white"/>
<path d="M509.49 567.575H532.866C534.567 567.576 536.231 567.083 537.656 566.154C539.081 565.226 540.206 563.903 540.892 562.347C541.159 561.765 541.274 561.125 541.226 560.487C541.179 559.848 540.97 559.233 540.62 558.697C540.269 558.161 539.789 557.723 539.223 557.423C538.658 557.123 538.025 556.972 537.385 556.983H511.674C513.499 560.147 512.559 564.475 509.49 567.575Z" fill="#1510F4"/>
<path d="M416.688 563.774C416.689 564.274 416.788 564.769 416.981 565.231C417.173 565.693 417.455 566.112 417.809 566.465C418.164 566.818 418.584 567.098 419.047 567.289C419.509 567.479 420.005 567.577 420.505 567.576H509.49C512.559 564.475 513.475 560.147 511.666 556.983H425.056C423.354 556.984 421.688 557.48 420.263 558.411C418.838 559.343 417.714 560.669 417.03 562.228C416.812 562.714 416.695 563.24 416.688 563.774Z" fill="#D7E8F0"/>
<path d="M494.738 567.576C494.843 567.777 494.965 567.969 495.104 568.149C497.735 571.808 503.489 572.134 507.968 568.875C508.505 568.478 509.014 568.044 509.49 567.576C512.559 564.475 513.475 560.147 511.666 556.983C511.561 556.779 511.439 556.584 511.299 556.402C508.637 552.775 502.883 552.464 498.412 555.7C497.882 556.091 497.381 556.52 496.914 556.983C493.821 560.076 492.881 564.427 494.738 567.576Z" fill="white"/>
<path d="M81.3532 682.232C78.4594 681.062 75.6608 679.658 72.9839 678.034C55.0097 667.002 43.2988 642.261 46.8657 620.961C48.6453 610.39 55.3594 603.022 64.0007 597.462C70.0387 593.623 76.5352 590.484 81.9283 585.745C99.8792 570.029 85.5184 545.582 95.4575 526.8C107.541 504.018 126.969 490.66 152.566 491.528C164.852 491.942 180.806 494.834 190.838 485.618C196.107 480.838 197.21 473.048 199.207 466.548C201.459 459.218 203.337 451.774 204.834 444.244C206.179 437.107 208.713 430.26 212.325 424.004C216.234 417.217 221.747 411.55 228.356 407.523C240.79 400.171 258.127 399.494 270.623 407.053C272.402 408.137 274.086 409.377 275.658 410.757C287.221 420.921 292.754 438.039 292.49 453.301" stroke="#32427C" stroke-width="3.84154" stroke-miterlimit="10"/>
<path d="M268.334 434.628C268.995 439.123 271.729 443.267 276.583 444.511C282.066 445.905 284.975 451.245 286.522 456.609C288.719 464.478 288.156 472.863 284.928 480.368C281.931 487.429 276.591 495.511 267.561 496.778C251.039 499.169 242.814 492.171 242.814 492.171" stroke="white" stroke-width="3.84154" stroke-miterlimit="10"/>
<path d="M254.57 458.642C256.137 458.642 257.407 457.371 257.407 455.804C257.407 454.237 256.137 452.967 254.57 452.967C253.003 452.967 251.732 454.237 251.732 455.804C251.732 457.371 253.003 458.642 254.57 458.642Z" fill="black"/>
<path d="M279.524 456.761C281.091 456.761 282.361 455.49 282.361 453.923C282.361 452.356 281.091 451.086 279.524 451.086C277.957 451.086 276.687 452.356 276.687 453.923C276.687 455.49 277.957 456.761 279.524 456.761Z" fill="black"/>
<path d="M247.987 668.085C252.115 670.62 248.784 674.796 245.787 676.207C240.638 678.598 233.983 679.02 228.372 679.689C185.709 684.711 171.467 743.274 144.687 754.161C117.908 765.048 46.0427 773.002 81.0948 651.237C108.081 557.525 173.148 531.966 200.35 521.875C203.278 520.799 206.137 519.543 208.91 518.114C224.587 509.968 231.927 501.249 234.23 490.003C234.23 490.003 234.23 490.003 234.23 489.956C236.223 480.304 234.884 471.441 232.931 466.317C231.811 463.61 230.942 460.806 230.333 457.94C228.882 449.787 235.179 450.935 252.856 451.907C260.97 452.385 265.56 448.719 267.537 444.048C267.731 443.644 267.888 443.222 268.007 442.789C268.839 440.145 268.938 437.324 268.294 434.628" stroke="white" stroke-width="3.84154" stroke-miterlimit="10"/>
<path d="M266.796 456.49C266.796 456.49 269.777 467.385 269.474 468.995C269.171 470.605 265.353 469.361 265.353 469.361" stroke="black" stroke-width="3.84154" stroke-miterlimit="10"/>
<path d="M264.74 479.339C259.025 482.416 252.418 480.479 249.836 475.354" stroke="black" stroke-width="3.84154" stroke-miterlimit="10"/>
<path d="M259.126 467.398C264.449 462.374 264.788 454.089 259.884 448.894C254.98 443.699 246.69 443.561 241.367 448.586C236.044 453.611 235.704 461.896 240.608 467.091C245.512 472.285 253.803 472.423 259.126 467.398Z" stroke="black" stroke-width="3.84154" stroke-miterlimit="10"/>
<path d="M292.226 464.376C297.549 459.352 297.889 451.067 292.985 445.872C288.081 440.677 279.79 440.539 274.467 445.564C269.144 450.589 268.804 458.874 273.708 464.069C278.612 469.263 286.903 469.401 292.226 464.376Z" stroke="black" stroke-width="3.84154" stroke-miterlimit="10"/>
<path d="M283.62 445.882C285.86 445.867 288.021 446.71 289.658 448.238C291.296 449.766 292.287 451.863 292.427 454.099C292.57 456.533 291.763 458.928 290.175 460.779C288.587 462.63 286.343 463.792 283.915 464.021C283.636 464.021 283.349 464.021 283.071 464.021C280.844 464.037 278.694 463.205 277.058 461.694C275.423 460.182 274.424 458.105 274.264 455.884C274.11 453.443 274.913 451.038 276.501 449.178C278.09 447.319 280.34 446.151 282.776 445.922C283.055 445.922 283.341 445.922 283.62 445.922V445.882ZM283.62 444.001C283.286 444.001 282.943 444.001 282.6 444.049C279.676 444.326 276.973 445.727 275.06 447.957C273.147 450.186 272.173 453.071 272.343 456.004C272.521 458.723 273.731 461.272 275.724 463.131C277.718 464.99 280.345 466.018 283.071 466.006C283.405 466.006 283.748 466.006 284.091 465.958C287.016 465.684 289.721 464.284 291.633 462.053C293.546 459.823 294.516 456.936 294.34 454.003C294.181 451.271 292.981 448.705 290.987 446.831C288.993 444.957 286.357 443.918 283.62 443.929V444.001Z" fill="white"/>
<path d="M263.321 456.808L270.271 456.171" stroke="black" stroke-width="3.84154" stroke-miterlimit="10"/>
<path d="M250.529 448.647C252.837 448.625 255.065 449.49 256.753 451.063C258.441 452.637 259.46 454.8 259.599 457.103C259.748 459.612 258.918 462.08 257.282 463.988C255.646 465.896 253.334 467.094 250.832 467.329C250.545 467.329 250.25 467.329 249.963 467.329C247.654 467.349 245.425 466.483 243.735 464.908C242.046 463.333 241.026 461.17 240.885 458.865C240.738 456.358 241.57 453.891 243.205 451.985C244.84 450.079 247.152 448.882 249.652 448.647C249.944 448.618 250.236 448.605 250.529 448.607V448.647ZM250.529 446.687C250.178 446.687 249.828 446.702 249.477 446.734C246.463 447.014 243.677 448.461 241.715 450.766C239.752 453.071 238.768 456.052 238.972 459.072C239.155 461.858 240.394 464.47 242.436 466.375C244.479 468.28 247.171 469.333 249.963 469.321C250.306 469.321 250.657 469.321 251.007 469.273C254.007 468.992 256.781 467.554 258.741 465.266C260.701 462.977 261.694 460.016 261.512 457.008C261.331 454.222 260.094 451.61 258.053 449.705C256.012 447.8 253.321 446.746 250.529 446.758V446.687Z" fill="white"/>
<path d="M290.968 463.044C295.532 458.735 295.82 451.628 291.611 447.169C287.402 442.71 280.29 442.589 275.725 446.897C271.161 451.206 270.873 458.313 275.082 462.772C279.291 467.231 286.403 467.353 290.968 463.044Z" fill="#5983E7"/>
<path d="M260.26 466.53C264.865 462.178 265.153 455.006 260.904 450.51C256.655 446.015 249.478 445.899 244.873 450.251C240.268 454.604 239.98 461.776 244.229 466.271C248.478 470.767 255.656 470.883 260.26 466.53Z" fill="#5983E7"/>
<path d="M222.148 532.332C218.641 528.674 215.596 523.294 213.596 515.508" stroke="white" stroke-width="3.84154" stroke-miterlimit="10"/>
<path d="M254.57 532.237L258.435 515.508L262.635 497.479" stroke="white" stroke-width="3.84154" stroke-miterlimit="10"/>
<path d="M270.37 598.848C271.856 591.559 267.837 584.585 261.393 583.272C254.949 581.959 248.521 586.803 247.036 594.092C245.55 601.381 249.57 608.355 256.013 609.668C262.457 610.981 268.885 606.137 270.37 598.848Z" fill="#5AD5DE"/>
<path d="M516.91 717.443L510.375 753.962C510.192 754.987 509.654 755.915 508.855 756.584C508.057 757.253 507.049 757.62 506.007 757.62H471.824C470.772 757.621 469.753 757.248 468.95 756.568C468.148 755.888 467.612 754.944 467.441 753.906L461.463 717.443H516.91Z" stroke="#CCDDE2" stroke-width="3.84154" stroke-miterlimit="10"/>
<path d="M523.127 713.363C523.035 714.473 522.529 715.509 521.71 716.265C520.891 717.021 519.818 717.441 518.704 717.443H459.726C458.626 717.443 457.566 717.036 456.749 716.3C455.932 715.564 455.417 714.552 455.302 713.458V713.458C455.243 712.842 455.314 712.221 455.509 711.633C455.705 711.046 456.021 710.506 456.438 710.048C456.854 709.591 457.362 709.225 457.928 708.975C458.494 708.725 459.107 708.596 459.726 708.597H518.704C519.314 708.597 519.917 708.724 520.476 708.968C521.036 709.212 521.538 709.569 521.954 710.016C522.369 710.463 522.687 710.991 522.889 711.567C523.091 712.143 523.172 712.754 523.127 713.363V713.363Z" stroke="#CCDDE2" stroke-width="3.84154" stroke-miterlimit="10"/>
<path d="M491.072 708.533C491.072 706.66 495.854 683.332 491.869 662.65C489.701 651.3 484.919 640.756 475.291 634.978" stroke="#CCDDE2" stroke-width="3.84154" stroke-miterlimit="10"/>
<path d="M491.884 662.682C491.884 662.682 492.976 646.965 506.557 645.881" stroke="#CCDDE2" stroke-width="3.84154" stroke-miterlimit="10"/>
<path d="M493.343 686.663C497.207 683.956 501.861 682.61 506.573 682.838" stroke="#CCDDE2" stroke-width="3.84154" stroke-miterlimit="10"/>
<path d="M493.343 675.498C493.343 675.498 483.476 663.814 467.711 673.059" stroke="#CCDDE2" stroke-width="3.84154" stroke-miterlimit="10"/>
<path d="M486.385 670.795C486.385 670.795 464.165 650.503 459.813 677.968C459.813 677.968 466.07 682.04 475.307 677.968C484.544 673.895 486.385 670.795 486.385 670.795Z" stroke="#CCDDE2" stroke-width="3.84154" stroke-miterlimit="10"/>
<path d="M496.77 650.663C496.77 650.663 495.973 641.529 506.557 638.54C517.141 635.552 523.143 648.057 523.143 648.057C523.143 648.057 514.974 657.087 496.77 650.663Z" stroke="#CCDDE2" stroke-width="3.84154" stroke-miterlimit="10"/>
<path d="M499.225 682.83C499.225 682.83 498.858 673.592 511.18 675.497C523.501 677.402 525.526 687.915 525.526 687.915C525.526 687.915 505.346 695.311 499.225 683.802" stroke="#CCDDE2" stroke-width="3.84154" stroke-miterlimit="10"/>
<path d="M484.377 643.553C484.377 644.207 475.116 642.756 474.526 642.549C470.039 641.21 466.851 638.102 464.755 633.989C464.109 632.714 460.371 625.565 461.431 624.322C461.463 624.322 483.476 617.228 484.377 643.553Z" stroke="#CCDDE2" stroke-width="3.84154" stroke-miterlimit="10"/>
<path d="M701.647 646.032C694.697 666.759 683.19 685.665 667.974 701.36C639.194 731.471 595.941 753.037 541.251 758.082V646.032H701.647Z" stroke="#CCDDE2" stroke-width="3.84154" stroke-miterlimit="10"/>
<path d="M667.974 701.36C639.194 731.471 595.941 753.037 541.251 758.082V701.36H667.974Z" stroke="#CCDDE2" stroke-width="3.84154" stroke-miterlimit="10"/>
<path d="M651.324 674.8C651.324 670.33 647.701 666.706 643.231 666.706C638.761 666.706 635.137 670.33 635.137 674.8C635.137 679.27 638.761 682.893 643.231 682.893C647.701 682.893 651.324 679.27 651.324 674.8Z" stroke="#CCDDE2" stroke-width="3.84154" stroke-miterlimit="10"/>
<ellipse cx="487.555" cy="413.546" rx="9" ry="11.8843" transform="rotate(24.5002 487.555 413.546)" fill="#F3AB04"/>
</svg>
