<svg width="28" height="45" viewBox="0 0 28 45" fill="none" xmlns="http://www.w3.org/2000/svg">
<path fill-rule="evenodd" clip-rule="evenodd" d="M13.0937 13.0945C13.0785 13.119 12.9164 13.1391 12.7336 13.1391C12.5419 13.1391 12.4013 13.158 12.4013 13.1838C12.4013 13.2084 12.312 13.2285 12.2029 13.2285C12.0938 13.2285 11.9921 13.2486 11.9769 13.2732C11.9617 13.2977 11.8901 13.3178 11.8179 13.3178C11.7456 13.3178 11.6866 13.3379 11.6866 13.3625C11.6866 13.3871 11.6263 13.4072 11.5525 13.4072C11.4788 13.4072 11.4185 13.4273 11.4185 13.4518C11.4185 13.4764 11.3695 13.4965 11.3095 13.4965C11.2496 13.4965 11.188 13.5166 11.1729 13.5412C11.1577 13.5657 11.1062 13.5858 11.0585 13.5858C11.0108 13.5858 10.9718 13.6059 10.9718 13.6305C10.9718 13.6551 10.9436 13.6752 10.9091 13.6752C10.8245 13.6752 10.4805 13.8611 10.4805 13.9068C10.4805 13.9268 10.4484 13.9432 10.4092 13.9432C10.3304 13.9432 10.0647 14.0802 10.0413 14.133C10.033 14.1515 10.0028 14.1665 9.97426 14.1665C9.94556 14.1667 9.8637 14.2169 9.79234 14.2782C9.72098 14.3396 9.64851 14.3899 9.63131 14.3899C9.55906 14.3899 8.38101 15.6129 8.38101 15.6879C8.38101 15.7114 8.32137 15.7932 8.24856 15.8695C8.17564 15.9457 8.09032 16.0661 8.05894 16.137C8.02756 16.2079 7.98669 16.266 7.96804 16.266C7.9495 16.266 7.93431 16.2945 7.93431 16.3293C7.93431 16.3641 7.91924 16.3992 7.90081 16.4075C7.84642 16.4316 7.57696 16.9861 7.57696 17.0738C7.57696 17.118 7.56065 17.1642 7.54066 17.1766C7.52078 17.1889 7.45802 17.3459 7.4014 17.5254C7.34467 17.7049 7.28225 17.892 7.2627 17.9411C7.07822 18.4044 7.03958 20.1809 7.19615 21.001C7.23601 21.2098 7.2799 21.446 7.29364 21.5259C7.30749 21.6057 7.33663 21.671 7.35852 21.671C7.38041 21.671 7.39828 21.7297 7.39828 21.8014C7.39828 21.8729 7.41927 21.9386 7.44496 21.9472C7.47064 21.9557 7.49499 22.0076 7.49912 22.0626C7.50325 22.1175 7.52246 22.1624 7.54178 22.1624C7.5611 22.1624 7.57696 22.2127 7.57696 22.2741C7.57696 22.3355 7.59706 22.3858 7.62162 22.3858C7.64619 22.3858 7.66629 22.4243 7.66629 22.4714C7.66629 22.5184 7.68137 22.5636 7.6998 22.5719C7.71822 22.5801 7.78355 22.6873 7.84486 22.8101C7.90628 22.933 7.99171 23.0724 8.03471 23.12C8.07781 23.1677 8.11299 23.2286 8.11299 23.2554C8.11299 23.2822 8.15319 23.3331 8.20233 23.3685C8.25147 23.4039 8.29167 23.4556 8.29167 23.4834C8.29167 23.5112 8.35197 23.597 8.42568 23.6741C8.49938 23.7513 8.55969 23.8332 8.55969 23.8562C8.55969 23.8983 9.26234 24.6189 9.44537 24.7646C9.68301 24.9536 9.99291 25.1553 10.0458 25.1553C10.0774 25.1553 10.1324 25.1955 10.1678 25.2446C10.2032 25.2937 10.268 25.3339 10.3116 25.3339C10.3554 25.3339 10.3911 25.354 10.3911 25.3786C10.3911 25.4032 10.4313 25.4233 10.4805 25.4233C10.5296 25.4233 10.5698 25.4434 10.5698 25.468C10.5698 25.4925 10.61 25.5126 10.6592 25.5126C10.7083 25.5126 10.7485 25.5327 10.7485 25.5573C10.7485 25.5819 10.7887 25.602 10.8378 25.602C10.887 25.602 10.9273 25.617 10.9275 25.6355C10.928 25.6808 11.149 25.7806 11.2488 25.7806C11.293 25.7806 11.3292 25.8007 11.3292 25.8253C11.3292 25.8499 11.3895 25.87 11.4632 25.87C11.5369 25.87 11.5972 25.8901 11.5972 25.9146C11.5972 25.9392 11.6563 25.9593 11.7285 25.9593C11.8008 25.9593 11.8724 25.9794 11.8876 26.004C11.9028 26.0286 11.9832 26.0487 12.0662 26.0487C12.1493 26.0487 12.2297 26.0688 12.2449 26.0933C12.2601 26.1179 12.382 26.138 12.5156 26.138C12.6493 26.138 12.7586 26.1581 12.7586 26.1827C12.7586 26.2412 14.5322 26.2438 14.5529 26.1851C14.561 26.162 14.6833 26.1384 14.8246 26.1329C14.9659 26.1273 15.0814 26.1061 15.0814 26.0857C15.0814 26.0653 15.1619 26.0487 15.2601 26.0487C15.3584 26.0487 15.4388 26.0286 15.4388 26.004C15.4388 25.9794 15.4991 25.9593 15.5728 25.9593C15.6465 25.9593 15.7068 25.9392 15.7068 25.9146C15.7068 25.8901 15.7558 25.87 15.8158 25.87C15.8758 25.87 15.9373 25.8499 15.9525 25.8253C15.9677 25.8007 16.0173 25.7806 16.0626 25.7806C16.1517 25.7806 16.5237 25.601 16.5481 25.5461C16.5563 25.5277 16.6016 25.5126 16.6486 25.5126C16.6957 25.5126 16.7342 25.4925 16.7342 25.468C16.7342 25.4434 16.7744 25.4233 16.8236 25.4233C16.8727 25.4233 16.9129 25.4032 16.9129 25.3786C16.9129 25.354 16.9393 25.3339 16.9715 25.3339C17.0037 25.3339 17.0733 25.2937 17.126 25.2446C17.1787 25.1955 17.2498 25.1553 17.2839 25.1553C17.3181 25.1553 17.3923 25.1151 17.4489 25.0659C17.5056 25.0168 17.5647 24.9766 17.5805 24.9766C17.5961 24.9766 17.6836 24.9062 17.7748 24.8202C17.8659 24.7343 17.9508 24.6639 17.9634 24.6639C18.0093 24.6639 18.655 23.994 18.655 23.9464C18.655 23.9195 18.7354 23.8203 18.8337 23.7258C18.932 23.6314 19.0124 23.5242 19.0124 23.4874C19.0124 23.4507 19.0288 23.4139 19.049 23.4057C19.1009 23.3846 19.4591 22.8471 19.4591 22.7902C19.4591 22.7643 19.4792 22.7431 19.5037 22.7431C19.5283 22.7431 19.5484 22.7161 19.5484 22.6829C19.5484 22.6499 19.5828 22.5544 19.6249 22.4707C19.6671 22.3872 19.7079 22.2785 19.7156 22.2294C19.7233 22.1803 19.7492 22.1334 19.7731 22.1252C19.7969 22.117 19.8164 22.0816 19.8164 22.0464C19.8164 22.0113 19.8345 21.9477 19.8567 21.905C19.879 21.8623 19.9214 21.7369 19.9512 21.6264C19.9809 21.5158 20.0217 21.3852 20.0418 21.336C20.2477 20.8326 20.2735 18.9281 20.0846 18.1868C20.0564 18.0763 20.0225 17.9202 20.0093 17.8402C19.996 17.7601 19.9673 17.6836 19.9455 17.6701C19.9236 17.6566 19.9058 17.6062 19.9058 17.5582C19.9058 17.4739 19.8897 17.4303 19.7787 17.2158C19.7503 17.1609 19.7271 17.0855 19.7271 17.0483C19.7271 17.0111 19.707 16.9807 19.6824 16.9807C19.6578 16.9807 19.6377 16.9511 19.6377 16.915C19.6377 16.8251 19.4499 16.4447 19.4055 16.4447C19.3858 16.4447 19.3697 16.4045 19.3697 16.3554C19.3697 16.3062 19.3496 16.266 19.3251 16.266C19.3005 16.266 19.2804 16.2397 19.2804 16.2074C19.2804 16.1752 19.2402 16.1057 19.1911 16.0529C19.1419 16.0002 19.1017 15.9406 19.1017 15.9204C19.1017 15.9002 19.0615 15.8547 19.0124 15.8193C18.9632 15.7839 18.923 15.7313 18.923 15.7024C18.923 15.6735 18.7773 15.4971 18.5992 15.3106C18.4211 15.1241 18.1849 14.8719 18.0743 14.7502C17.9638 14.6284 17.8482 14.5277 17.8175 14.5264C17.7868 14.525 17.7616 14.5038 17.7616 14.4792C17.7616 14.4547 17.7413 14.4346 17.7165 14.4346C17.6917 14.4346 17.6084 14.3743 17.5312 14.3006C17.4541 14.2268 17.3638 14.1665 17.3307 14.1665C17.2974 14.1665 17.2703 14.1501 17.2703 14.1301C17.2703 14.0857 16.9798 13.9432 16.889 13.9432C16.853 13.9432 16.8235 13.9281 16.8232 13.9097C16.8228 13.8705 16.6072 13.7645 16.5281 13.7645C16.4981 13.7645 16.467 13.7494 16.4587 13.731C16.434 13.6753 16.0617 13.4965 15.9706 13.4965C15.9238 13.4965 15.8855 13.4764 15.8855 13.4518C15.8855 13.4273 15.8252 13.4072 15.7515 13.4072C15.6778 13.4072 15.6175 13.3871 15.6175 13.3625C15.6175 13.3379 15.5471 13.3178 15.4611 13.3178C15.3751 13.3178 15.3048 13.2977 15.3048 13.2732C15.3048 13.2486 15.2143 13.2285 15.1038 13.2285C14.9932 13.2285 14.9028 13.2084 14.9028 13.1838C14.9028 13.158 14.7622 13.1391 14.5704 13.1391C14.3876 13.1391 14.2256 13.119 14.2104 13.0945C14.1945 13.0688 13.9577 13.0498 13.652 13.0498C13.3464 13.0498 13.1095 13.0688 13.0937 13.0945ZM14.3026 16.916C15.1161 17.1047 15.9792 17.8302 16.2395 18.5442C16.2709 18.6302 16.3124 18.7407 16.3317 18.7898C16.5487 19.3397 16.5065 20.2149 16.2376 20.7436C16.2159 20.7862 16.1982 20.8425 16.1982 20.8689C16.1982 20.8951 16.1182 21.0343 16.0205 21.1782C14.6678 23.17 11.8732 22.8123 10.9718 20.532C10.7646 20.0074 10.8092 19.0838 11.0664 18.5782C11.0881 18.5356 11.1059 18.4793 11.1059 18.4529C11.1059 18.3576 11.4858 17.8458 11.7379 17.6012C12.3787 16.9799 13.4009 16.7069 14.3026 16.916ZM13.2249 18.7582C12.2725 19.2894 12.589 20.6472 13.6641 20.6426C14.0563 20.641 14.5901 20.2777 14.5901 20.0123C14.5901 19.9688 14.6138 19.8811 14.6428 19.8176C14.9272 19.1932 13.8662 18.4006 13.2249 18.7582Z" fill="#5B27DE" fill-opacity="0.633438"/>
<path fill-rule="evenodd" clip-rule="evenodd" d="M13.1001 0.0723648C13.0632 0.109217 13.0015 0.139369 12.9629 0.139369C12.9243 0.139369 12.8927 0.15947 12.8927 0.184039C12.8927 0.208607 12.867 0.228708 12.8355 0.228708C12.8041 0.228708 12.7494 0.268911 12.714 0.318048C12.6786 0.367184 12.6183 0.407387 12.58 0.407387C12.5417 0.407387 12.4814 0.447589 12.446 0.496726C12.4106 0.545863 12.3503 0.586065 12.312 0.586065C12.2737 0.586065 12.2134 0.626268 12.178 0.675404C12.1426 0.724541 12.0852 0.764744 12.0506 0.764744C12.0158 0.764744 11.955 0.799921 11.9152 0.842915C11.8755 0.88591 11.7726 0.960173 11.6866 1.00797C11.6006 1.05577 11.47 1.15114 11.3963 1.21993C11.3226 1.28872 11.2416 1.34511 11.2162 1.34523C11.191 1.34534 11.1413 1.38565 11.1059 1.43479C11.0705 1.48392 11.0245 1.52413 11.0038 1.52413C10.9831 1.52413 10.8682 1.62463 10.7486 1.74748C10.629 1.87032 10.5081 1.97082 10.4802 1.97082C10.4152 1.97082 8.11305 4.27187 8.11305 4.33686C8.11305 4.36355 8.02762 4.47154 7.9232 4.57696C7.81879 4.68227 7.68311 4.83571 7.62169 4.9179C7.56027 4.99998 7.48488 5.09267 7.45417 5.12394C7.42346 5.1551 7.39834 5.19742 7.39834 5.21786C7.39834 5.23818 7.34808 5.30909 7.28666 5.37543C7.22524 5.44165 7.17499 5.51882 7.17499 5.54685C7.17499 5.57488 7.11469 5.65417 7.04098 5.72307C6.96728 5.79197 6.90697 5.87595 6.90697 5.90979C6.90697 5.94363 6.86677 6.00036 6.81763 6.03576C6.7685 6.07116 6.72829 6.13146 6.72829 6.16977C6.72829 6.20807 6.68809 6.26837 6.63895 6.30377C6.58982 6.33918 6.54961 6.39948 6.54961 6.43778C6.54961 6.47609 6.50941 6.53639 6.46028 6.57179C6.41114 6.60719 6.37094 6.66191 6.37094 6.69329C6.37094 6.72479 6.35396 6.75047 6.3333 6.75047C6.31253 6.75047 6.24731 6.84595 6.18813 6.96265C6.12905 7.07935 6.04552 7.21381 6.00252 7.26138C5.95942 7.30906 5.92424 7.37439 5.92424 7.40656C5.92424 7.43883 5.90414 7.46518 5.87957 7.46518C5.855 7.46518 5.8349 7.50539 5.8349 7.55452C5.8349 7.60366 5.8148 7.64386 5.79023 7.64386C5.76566 7.64386 5.74556 7.67491 5.74556 7.71276C5.74556 7.75062 5.70536 7.82477 5.65622 7.87748C5.60709 7.93019 5.56688 7.99977 5.56688 8.03193C5.56688 8.0642 5.54343 8.09056 5.51473 8.09056C5.48614 8.09056 5.47486 8.10284 5.48994 8.11781C5.5049 8.13277 5.4781 8.21787 5.43031 8.30698C5.38262 8.3961 5.34354 8.49437 5.34354 8.52542C5.34354 8.55646 5.32343 8.58192 5.29887 8.58192C5.2743 8.58192 5.2542 8.62213 5.2542 8.67126C5.2542 8.7204 5.2341 8.7606 5.20953 8.7606C5.18496 8.7606 5.16486 8.80081 5.16486 8.84994C5.16486 8.89908 5.14476 8.93928 5.12019 8.93928C5.09562 8.93928 5.07552 8.96887 5.07552 9.00494C5.07552 9.04102 5.03532 9.14219 4.98618 9.22963C4.93704 9.31707 4.89684 9.4283 4.89684 9.47666C4.89684 9.52501 4.87674 9.56466 4.85217 9.56466C4.8276 9.56466 4.8075 9.60486 4.8075 9.65399C4.8075 9.70313 4.7874 9.74333 4.76283 9.74333C4.73826 9.74333 4.71816 9.78231 4.71816 9.82999C4.71816 9.87768 4.69806 9.92916 4.67349 9.94435C4.64892 9.95953 4.62882 10.0211 4.62882 10.081C4.62882 10.141 4.60872 10.19 4.58415 10.19C4.55958 10.19 4.53948 10.2302 4.53948 10.2794C4.53948 10.3285 4.51938 10.3687 4.49481 10.3687C4.47024 10.3687 4.45014 10.419 4.45014 10.4804C4.45014 10.5418 4.43004 10.5921 4.40547 10.5921C4.38091 10.5921 4.3608 10.6524 4.3608 10.7261C4.3608 10.7998 4.3407 10.8601 4.31613 10.8601C4.29157 10.8601 4.27146 10.9204 4.27146 10.9941C4.27146 11.0678 4.25136 11.1281 4.2268 11.1281C4.20223 11.1281 4.18213 11.1685 4.18213 11.218C4.18213 11.2675 4.16202 11.3479 4.13746 11.3967C4.11289 11.4455 4.07269 11.5254 4.04812 11.5742C4.02355 11.623 4.00345 11.7235 4.00345 11.7976C4.00345 11.8716 3.98335 11.9321 3.95878 11.9321C3.93421 11.9321 3.91411 11.9759 3.91411 12.0295C3.91411 12.1323 3.8404 12.3931 3.77463 12.5235C3.75307 12.5661 3.73543 12.6616 3.73543 12.7356C3.73543 12.8097 3.71533 12.8702 3.69076 12.8702C3.66619 12.8702 3.64609 12.9494 3.64609 13.0462C3.64609 13.143 3.62867 13.233 3.60734 13.2462C3.58601 13.2594 3.55731 13.3561 3.54357 13.4611C3.52973 13.566 3.50616 13.7022 3.49098 13.7636C3.4759 13.825 3.45144 14.021 3.4367 14.1991C3.42196 14.3772 3.3927 14.523 3.3716 14.523C3.3506 14.523 3.3334 14.6637 3.3334 14.8357C3.3334 15.0143 3.31431 15.1484 3.28873 15.1484C3.26271 15.1484 3.24406 15.2963 3.24406 15.503C3.24406 15.6981 3.22396 15.8702 3.19939 15.8854C3.17337 15.9015 3.15472 16.1539 3.15472 16.4911C3.15472 16.8467 3.13753 17.0692 3.11005 17.0692C3.08147 17.0692 3.06539 17.4712 3.06539 18.1859C3.06539 18.8623 3.08214 19.3026 3.10782 19.3026C3.13183 19.3026 3.16053 19.5992 3.17371 19.9838C3.21213 21.1034 3.24741 21.6007 3.29164 21.6455C3.31464 21.6689 3.3334 21.8536 3.3334 22.0561C3.3334 22.2585 3.35038 22.4348 3.37115 22.4476C3.39192 22.4604 3.42308 22.6977 3.44039 22.975C3.4577 23.2523 3.48338 23.5395 3.49756 23.6132C3.51163 23.687 3.53241 23.8779 3.54357 24.0376C3.55485 24.1973 3.58244 24.3471 3.60499 24.3704C3.62766 24.3937 3.64609 24.5282 3.64609 24.6692C3.64609 24.8103 3.66619 24.9381 3.69076 24.9533C3.71533 24.9685 3.73543 25.0863 3.73543 25.2151C3.73543 25.3439 3.75374 25.4683 3.77619 25.4916C3.79853 25.5149 3.82823 25.6446 3.84219 25.7797C3.85604 25.9148 3.87949 26.1266 3.89434 26.2502L3.92137 26.4749L3.76145 26.5377C3.67345 26.5722 3.60142 26.6168 3.60142 26.6368C3.60142 26.6568 3.56122 26.6731 3.51208 26.6731C3.46294 26.6731 3.42274 26.6932 3.42274 26.7178C3.42274 26.7424 3.38254 26.7625 3.3334 26.7625C3.28427 26.7625 3.24406 26.7788 3.24406 26.7987C3.24406 26.8187 3.17371 26.8627 3.08772 26.8965C3.00173 26.9302 2.93138 26.972 2.93138 26.9892C2.93138 27.0065 2.86102 27.0337 2.77503 27.0499C2.68904 27.066 2.61869 27.0984 2.61869 27.1218C2.61869 27.1453 2.57849 27.1645 2.52935 27.1645C2.48021 27.1645 2.4399 27.1796 2.43968 27.198C2.43923 27.2381 2.22292 27.3432 2.14072 27.3432C2.10879 27.3432 2.08265 27.3633 2.08265 27.3878C2.08265 27.4124 2.04245 27.4325 1.99331 27.4325C1.94418 27.4325 1.90398 27.4488 1.90398 27.4688C1.90398 27.4888 1.83362 27.5328 1.74763 27.5665C1.66164 27.6002 1.59129 27.6442 1.59129 27.6642C1.59129 27.6842 1.55109 27.7005 1.50195 27.7005C1.45281 27.7005 1.41261 27.7206 1.41261 27.7452C1.41261 27.7698 1.37241 27.7899 1.32327 27.7899C1.27413 27.7899 1.23393 27.81 1.23393 27.8345C1.23393 27.8591 1.19373 27.8792 1.14459 27.8792C1.09546 27.8792 1.05525 27.8993 1.05525 27.9239C1.05525 27.9484 1.01505 27.9685 0.965914 27.9685C0.916778 27.9685 0.876575 27.9886 0.876575 28.0132C0.876575 28.0378 0.836373 28.0579 0.787236 28.0579C0.7381 28.0579 0.697897 28.078 0.697897 28.1025C0.697897 28.1271 0.657694 28.1472 0.608557 28.1472C0.55942 28.1472 0.519218 28.1673 0.519218 28.1919C0.519218 28.2164 0.488396 28.2366 0.450762 28.2366C0.36187 28.2366 0.0725223 28.5259 0.0725223 28.6148C0.0725223 28.6524 0.0537609 28.6832 0.0309794 28.6832C-0.0471924 28.6832 0.0373446 29.9555 0.121323 30.0434C0.143658 30.0668 0.161861 30.1711 0.161861 30.2753C0.161861 30.3795 0.181962 30.4772 0.206531 30.4924C0.231099 30.5076 0.251201 30.6093 0.251201 30.7184C0.251201 30.8275 0.271302 30.9167 0.29587 30.9167C0.320439 30.9167 0.34054 31.0261 0.34054 31.1597C0.34054 31.2934 0.360641 31.4152 0.385209 31.4304C0.409777 31.4456 0.429879 31.5574 0.429879 31.6788C0.429879 31.8002 0.44998 31.8995 0.474549 31.8995C0.499117 31.8995 0.519218 31.9887 0.519218 32.0978C0.519218 32.2069 0.53932 32.3086 0.563888 32.3238C0.588456 32.339 0.608557 32.4496 0.608557 32.5695C0.608557 32.6894 0.628659 32.8 0.653227 32.8152C0.677795 32.8304 0.697897 32.9422 0.697897 33.0635C0.697897 33.1849 0.717998 33.2842 0.742566 33.2842C0.767135 33.2842 0.787236 33.3847 0.787236 33.5076C0.787236 33.6304 0.807337 33.7309 0.831905 33.7309C0.856473 33.7309 0.876575 33.8302 0.876575 33.9516C0.876575 34.073 0.896676 34.1848 0.921245 34.1999C0.945813 34.2151 0.965914 34.3269 0.965914 34.4483C0.965914 34.5697 0.986016 34.669 1.01058 34.669C1.03515 34.669 1.05525 34.7695 1.05525 34.8923C1.05525 35.0152 1.07535 35.1157 1.09992 35.1157C1.12449 35.1157 1.14459 35.2162 1.14459 35.339C1.14459 35.4619 1.16469 35.5624 1.18926 35.5624C1.21383 35.5624 1.23393 35.6729 1.23393 35.808C1.23393 35.9432 1.25403 36.0537 1.2786 36.0537C1.30317 36.0537 1.32327 36.1542 1.32327 36.2771C1.32327 36.3999 1.34337 36.5004 1.36794 36.5004C1.39251 36.5004 1.41261 36.6009 1.41261 36.7238C1.41261 36.8466 1.43271 36.9471 1.45728 36.9471C1.48185 36.9471 1.50195 37.0326 1.50195 37.137C1.50206 37.2414 1.53076 37.4675 1.56583 37.6395C1.60089 37.8115 1.63506 38.0225 1.64165 38.1085C1.64824 38.1945 1.66767 38.285 1.68487 38.3095C1.70207 38.3341 1.72764 38.4547 1.74183 38.5776C1.80581 39.133 1.82592 39.2503 1.86366 39.29C1.88577 39.3134 1.90398 39.407 1.90398 39.498C1.90398 39.7723 2.20125 40.2527 2.371 40.2527C2.40897 40.2527 2.44001 40.2728 2.44001 40.2973C2.44001 40.324 2.61121 40.342 2.86437 40.342C3.11754 40.342 3.28873 40.324 3.28873 40.2973C3.28873 40.2728 3.32447 40.2527 3.36825 40.2527C3.41191 40.2527 3.47668 40.2125 3.51208 40.1633C3.54748 40.1142 3.6108 40.074 3.65279 40.074C3.69467 40.074 3.75564 40.0489 3.78803 40.0182C3.82052 39.9874 3.90238 39.9338 3.96995 39.8989C4.03751 39.864 4.09279 39.8188 4.09279 39.7984C4.09279 39.7781 4.12852 39.7613 4.1723 39.7613C4.21596 39.7613 4.28073 39.7211 4.31613 39.672C4.35154 39.6228 4.41184 39.5826 4.45014 39.5826C4.48845 39.5826 4.54875 39.5424 4.58415 39.4933C4.61955 39.4442 4.67048 39.4039 4.69728 39.4039C4.72408 39.4039 4.78494 39.3688 4.83263 39.3258C4.8802 39.2828 4.97445 39.2191 5.04202 39.1842C5.10958 39.1493 5.16486 39.1041 5.16486 39.0837C5.16486 39.0633 5.19054 39.0466 5.22203 39.0466C5.25341 39.0466 5.30813 39.0064 5.34354 38.9573C5.37894 38.9081 5.43924 38.8679 5.47754 38.8679C5.51585 38.8679 5.57615 38.8277 5.61155 38.7786C5.64695 38.7294 5.70726 38.6892 5.74556 38.6892C5.78387 38.6892 5.84417 38.649 5.87957 38.5999C5.91497 38.5508 5.97528 38.5106 6.01358 38.5106C6.05188 38.5106 6.11219 38.4704 6.14759 38.4212C6.18299 38.3721 6.24329 38.3319 6.2816 38.3319C6.3199 38.3319 6.3802 38.2917 6.41561 38.2425C6.45101 38.1934 6.50115 38.1532 6.52695 38.1532C6.55285 38.1532 6.68083 38.0829 6.81138 37.9969C6.94193 37.9109 7.06265 37.8405 7.07973 37.8405C7.09671 37.8405 7.13959 37.8003 7.17499 37.7512C7.23619 37.6662 7.29057 37.6618 8.27922 37.6618H9.31913V38.3739C9.31913 38.8005 9.337 39.0971 9.3638 39.1136C9.38837 39.1288 9.40847 39.2006 9.40847 39.2732C9.40847 39.3458 9.42623 39.44 9.44789 39.4827C9.48619 39.5578 9.51355 39.6217 9.63896 39.9288C9.67157 40.0087 9.71345 40.074 9.7321 40.074C9.75064 40.074 9.76583 40.1343 9.76583 40.208C9.76583 40.2817 9.78593 40.342 9.8105 40.342C9.83506 40.342 9.85517 40.3722 9.85517 40.409C9.85517 40.4459 9.87527 40.476 9.89983 40.476C9.9244 40.476 9.94451 40.5062 9.94451 40.543C9.94451 40.5799 9.96461 40.61 9.98917 40.61C10.0137 40.61 10.0338 40.6502 10.0338 40.6994C10.0338 40.7485 10.0539 40.7887 10.0785 40.7887C10.1031 40.7887 10.1232 40.8289 10.1232 40.878C10.1232 40.9272 10.1433 40.9674 10.1679 40.9674C10.1924 40.9674 10.2125 40.9937 10.2125 41.026C10.2125 41.0582 10.2527 41.1278 10.3019 41.1805C10.351 41.2332 10.3912 41.3029 10.3912 41.3354C10.3912 41.3679 10.4314 41.4234 10.4805 41.4588C10.5297 41.4942 10.5699 41.5541 10.5699 41.5919C10.5699 41.6297 10.6101 41.6857 10.6592 41.7164C10.7084 41.7471 10.7486 41.7948 10.7486 41.8224C10.7486 41.8501 10.7901 41.9087 10.8408 41.9527C10.8916 41.9967 10.9294 42.0462 10.9247 42.0626C10.9134 42.1028 11.1641 42.4391 11.2064 42.4405C11.2248 42.441 11.2399 42.4736 11.2399 42.513C11.2399 42.5522 11.296 42.6376 11.3644 42.7028C11.433 42.7679 11.5379 42.8915 11.5976 42.9775C11.6572 43.0635 11.7821 43.2077 11.875 43.2979C11.9679 43.388 12.044 43.4738 12.044 43.4883C12.044 43.5029 12.2098 43.6834 12.4125 43.8893C12.6152 44.0953 12.8658 44.3564 12.9693 44.4694L13.1575 44.675H13.6534H14.1493L14.3809 44.4312C14.5083 44.2971 14.7582 44.0361 14.9363 43.8511C15.1145 43.6662 15.2602 43.5046 15.2602 43.4921C15.2602 43.4796 15.3607 43.3667 15.4835 43.2412C15.6064 43.1158 15.7069 42.9935 15.7069 42.9695C15.7069 42.9455 15.7873 42.8486 15.8856 42.7542C15.9838 42.6597 16.0642 42.5606 16.0642 42.534C16.0642 42.5071 16.121 42.426 16.1903 42.3534C16.2597 42.2809 16.3547 42.1503 16.4015 42.0635C16.4483 41.9766 16.5021 41.9055 16.5211 41.9055C16.5401 41.9055 16.5556 41.8798 16.5556 41.8483C16.5556 41.8169 16.5958 41.7622 16.6449 41.7268C16.6941 41.6914 16.7343 41.6311 16.7343 41.5928C16.7343 41.5545 16.7745 41.4942 16.8236 41.4588C16.8728 41.4234 16.913 41.3679 16.913 41.3354C16.913 41.3029 16.9532 41.2332 17.0023 41.1805C17.0514 41.1278 17.0916 41.0582 17.0916 41.026C17.0916 40.9937 17.1117 40.9674 17.1363 40.9674C17.1609 40.9674 17.181 40.9272 17.181 40.878C17.181 40.8289 17.2011 40.7887 17.2256 40.7887C17.2502 40.7887 17.2703 40.7502 17.2703 40.7031C17.2703 40.656 17.2861 40.6108 17.3053 40.6025C17.3666 40.5765 17.5383 40.2509 17.5383 40.1608C17.5383 40.1131 17.5535 40.074 17.5721 40.074C17.5907 40.074 17.6326 40.0087 17.6652 39.9288C17.7906 39.6217 17.818 39.5578 17.8563 39.4827C17.8779 39.44 17.8957 39.3458 17.8957 39.2732C17.8957 39.2006 17.9158 39.1288 17.9404 39.1136C17.9672 39.0971 17.985 38.8005 17.985 38.3739V37.6618H19.0249C20.0136 37.6618 20.068 37.6662 20.1292 37.7512C20.1646 37.8003 20.2095 37.8405 20.2288 37.8405C20.2482 37.8405 20.3642 37.9109 20.4865 37.9969C20.6088 38.0829 20.7349 38.1532 20.7666 38.1532C20.7982 38.1532 20.8532 38.1934 20.8886 38.2425C20.924 38.2917 20.9843 38.3319 21.0226 38.3319C21.0609 38.3319 21.1212 38.3721 21.1566 38.4212C21.192 38.4704 21.2523 38.5106 21.2906 38.5106C21.3289 38.5106 21.3892 38.5508 21.4246 38.5999C21.46 38.649 21.5203 38.6892 21.5586 38.6892C21.5969 38.6892 21.6572 38.7294 21.6926 38.7786C21.728 38.8277 21.7883 38.8679 21.8266 38.8679C21.8649 38.8679 21.9252 38.9081 21.9606 38.9573C21.996 39.0064 22.0507 39.0466 22.0821 39.0466C22.1136 39.0466 22.1393 39.0633 22.1393 39.0837C22.1393 39.1041 22.1946 39.1493 22.2621 39.1842C22.3297 39.2191 22.424 39.2828 22.4715 39.3258C22.5192 39.3688 22.5801 39.4039 22.6069 39.4039C22.6337 39.4039 22.6846 39.4442 22.72 39.4933C22.7554 39.5424 22.8202 39.5826 22.8638 39.5826C22.9076 39.5826 22.9434 39.5994 22.9434 39.6197C22.9434 39.6401 22.9986 39.6854 23.0662 39.7202C23.1338 39.7552 23.228 39.8188 23.2756 39.8618C23.3233 39.9048 23.3886 39.94 23.4208 39.94C23.453 39.94 23.4794 39.9598 23.4794 39.9838C23.4794 40.0079 23.5347 40.0413 23.6022 40.0579C23.6698 40.0747 23.7555 40.1202 23.7925 40.1593C23.8297 40.1984 23.9048 40.2555 23.9595 40.2862C24.08 40.3539 24.8642 40.3636 24.8642 40.2973C24.8642 40.2728 24.9056 40.2527 24.9562 40.2527C25.0068 40.2527 25.0357 40.2326 25.0205 40.208C25.0053 40.1834 25.0156 40.1633 25.0434 40.1633C25.172 40.1633 25.4002 39.7338 25.4002 39.4917C25.4002 39.3973 25.4203 39.3075 25.4449 39.2923C25.4694 39.2771 25.4895 39.1665 25.4895 39.0466C25.4895 38.9267 25.5096 38.8161 25.5342 38.8009C25.5588 38.7857 25.5789 38.6752 25.5789 38.5552C25.5789 38.4353 25.599 38.3247 25.6235 38.3095C25.6481 38.2944 25.6682 38.1939 25.6682 38.0862C25.6682 37.9785 25.6867 37.879 25.7093 37.8651C25.732 37.851 25.7647 37.6388 25.7821 37.3934C25.7995 37.1479 25.8313 36.9471 25.8527 36.9471C25.874 36.9471 25.8916 36.8466 25.8916 36.7238C25.8916 36.6009 25.9117 36.5004 25.9362 36.5004C25.9608 36.5004 25.9809 36.3999 25.9809 36.2771C25.9809 36.1542 26.001 36.0537 26.0256 36.0537C26.0501 36.0537 26.0702 35.9432 26.0702 35.808C26.0702 35.6729 26.0903 35.5624 26.1149 35.5624C26.1395 35.5624 26.1596 35.4619 26.1596 35.339C26.1596 35.2162 26.1797 35.1157 26.2042 35.1157C26.2288 35.1157 26.2489 35.0152 26.2489 34.8923C26.2489 34.7695 26.269 34.669 26.2936 34.669C26.3181 34.669 26.3382 34.5697 26.3382 34.4483C26.3382 34.3269 26.3584 34.2151 26.3829 34.1999C26.4075 34.1848 26.4276 34.0742 26.4276 33.9543C26.4276 33.8343 26.4477 33.7238 26.4723 33.7086C26.4968 33.6934 26.5169 33.5917 26.5169 33.4825C26.5169 33.3734 26.537 33.2842 26.5616 33.2842C26.5862 33.2842 26.6063 33.1849 26.6063 33.0635C26.6063 32.9422 26.6264 32.8304 26.6509 32.8152C26.6755 32.8 26.6956 32.6894 26.6956 32.5695C26.6956 32.4496 26.7157 32.339 26.7403 32.3238C26.7648 32.3086 26.7849 32.2069 26.7849 32.0978C26.7849 31.9887 26.805 31.8995 26.8296 31.8995C26.8542 31.8995 26.8743 31.8002 26.8743 31.6788C26.8743 31.5574 26.8944 31.4456 26.919 31.4304C26.9435 31.4152 26.9636 31.2934 26.9636 31.1597C26.9636 31.0261 26.9837 30.9167 27.0083 30.9167C27.0329 30.9167 27.053 30.8275 27.053 30.7184C27.053 30.6093 27.0731 30.5076 27.0976 30.4924C27.1222 30.4772 27.1423 30.3795 27.1423 30.2753C27.1423 30.1711 27.1605 30.0668 27.1828 30.0434C27.2668 29.9555 27.3514 28.6832 27.2732 28.6832C27.2504 28.6832 27.2316 28.6524 27.2316 28.6148C27.2316 28.5259 26.9423 28.2366 26.8534 28.2366C26.8158 28.2366 26.7849 28.2164 26.7849 28.1919C26.7849 28.1673 26.7447 28.1472 26.6956 28.1472C26.6465 28.1472 26.6063 28.1271 26.6063 28.1025C26.6063 28.078 26.5661 28.0579 26.5169 28.0579C26.4678 28.0579 26.4276 28.0378 26.4276 28.0132C26.4276 27.9886 26.3874 27.9685 26.3382 27.9685C26.2891 27.9685 26.2489 27.9484 26.2489 27.9239C26.2489 27.8993 26.2087 27.8792 26.1596 27.8792C26.1104 27.8792 26.0702 27.8591 26.0702 27.8345C26.0702 27.81 26.03 27.7899 25.9809 27.7899C25.9318 27.7899 25.8914 27.7748 25.8914 27.7564C25.8913 27.7379 25.7808 27.6726 25.6459 27.6112C25.511 27.5498 25.4004 27.4844 25.4003 27.466C25.4003 27.4476 25.3741 27.4325 25.3421 27.4325C25.2599 27.4325 25.0436 27.3274 25.0432 27.2873C25.0429 27.2689 25.0108 27.2538 24.9716 27.2538C24.9324 27.2538 24.8457 27.215 24.7789 27.1675C24.7123 27.1199 24.6036 27.0675 24.5376 27.0509C24.4715 27.0344 24.4175 27.0029 24.4175 26.981C24.4175 26.959 24.3773 26.9411 24.3281 26.9411C24.279 26.9411 24.2388 26.921 24.2388 26.8965C24.2388 26.8719 24.1986 26.8518 24.1494 26.8518C24.1003 26.8518 24.0601 26.8317 24.0601 26.8071C24.0601 26.7826 24.0199 26.7625 23.9708 26.7625C23.9216 26.7625 23.8814 26.7461 23.8814 26.7262C23.8814 26.7062 23.8111 26.6622 23.7251 26.6284C23.6391 26.5947 23.5687 26.5507 23.5687 26.5307C23.5687 26.5107 23.5285 26.4944 23.4794 26.4944C23.402 26.4944 23.3901 26.4646 23.3901 26.2711C23.3901 26.1482 23.4102 26.0477 23.4347 26.0477C23.4595 26.0477 23.4794 25.9286 23.4794 25.7797C23.4794 25.6309 23.4993 25.5117 23.5241 25.5117C23.5489 25.5117 23.5687 25.3934 23.5687 25.2464C23.5687 25.1004 23.5888 24.9685 23.6134 24.9533C23.638 24.9381 23.6581 24.8103 23.6581 24.6692C23.6581 24.5282 23.6765 24.3937 23.6992 24.3704C23.7404 24.3277 23.749 24.2522 23.8388 23.1442C23.8657 22.8125 23.9063 22.5062 23.9292 22.4636C23.9521 22.4209 23.9708 22.2048 23.9708 21.9834C23.9708 21.7447 23.989 21.5808 24.0154 21.5808C24.0422 21.5808 24.0601 21.4021 24.0601 21.1341C24.0601 20.8661 24.078 20.6874 24.1048 20.6874C24.1326 20.6874 24.1494 20.4269 24.1494 19.995C24.1494 19.5632 24.1663 19.3026 24.1941 19.3026C24.2227 19.3026 24.2388 18.9006 24.2388 18.1859C24.2388 17.4712 24.2227 17.0692 24.1941 17.0692C24.1665 17.0692 24.1494 16.8383 24.1494 16.4661C24.1494 16.0939 24.1324 15.8631 24.1048 15.8631C24.0787 15.8631 24.0601 15.7142 24.0601 15.5057C24.0601 15.2972 24.0414 15.1484 24.0154 15.1484C23.9899 15.1484 23.9708 15.0143 23.9708 14.8357C23.9708 14.6637 23.9536 14.523 23.9325 14.523C23.9115 14.523 23.8803 14.3389 23.8633 14.114C23.8464 13.8891 23.8133 13.6693 23.79 13.6256C23.7665 13.5819 23.7474 13.4856 23.7474 13.4118C23.7474 13.3379 23.7273 13.2651 23.7027 13.2499C23.6782 13.2347 23.6581 13.1543 23.6581 13.0712C23.6581 12.9881 23.638 12.9077 23.6134 12.8925C23.5888 12.8774 23.5687 12.8055 23.5687 12.733C23.5687 12.6604 23.5511 12.5661 23.5295 12.5235C23.4638 12.3931 23.3901 12.1323 23.3901 12.0295C23.3901 11.9759 23.37 11.9321 23.3454 11.9321C23.3208 11.9321 23.3004 11.8869 23.3 11.8316C23.2993 11.7226 23.2022 11.4168 23.1526 11.3672C23.1358 11.3503 23.122 11.2897 23.122 11.2323C23.122 11.175 23.1019 11.1281 23.0774 11.1281C23.0528 11.1281 23.0327 11.0678 23.0327 10.9941C23.0327 10.9204 23.0126 10.8601 22.988 10.8601C22.9635 10.8601 22.9434 10.7998 22.9434 10.7261C22.9434 10.6524 22.9233 10.5921 22.8987 10.5921C22.8741 10.5921 22.854 10.5418 22.854 10.4804C22.854 10.419 22.8339 10.3687 22.8094 10.3687C22.7848 10.3687 22.7647 10.3285 22.7647 10.2794C22.7647 10.2302 22.7446 10.19 22.72 10.19C22.6954 10.19 22.6753 10.141 22.6753 10.081C22.6753 10.0211 22.6552 9.95953 22.6307 9.94435C22.6061 9.92916 22.586 9.87768 22.586 9.82999C22.586 9.78231 22.5659 9.74333 22.5413 9.74333C22.5168 9.74333 22.4967 9.70313 22.4967 9.65399C22.4967 9.60486 22.4766 9.56466 22.452 9.56466C22.4274 9.56466 22.4073 9.52501 22.4073 9.47666C22.4073 9.4283 22.3671 9.31707 22.318 9.22963C22.2688 9.14219 22.2286 9.04102 22.2286 9.00494C22.2286 8.96887 22.2135 8.93928 22.1949 8.93928C22.1763 8.93928 22.1348 8.87395 22.1028 8.7941C22.0707 8.71426 21.9951 8.54842 21.9348 8.42558C21.8745 8.30274 21.8255 8.17711 21.8259 8.1464C21.8263 8.11569 21.8065 8.09056 21.7819 8.09056C21.7574 8.09056 21.7373 8.0642 21.7373 8.03193C21.7373 7.99977 21.6971 7.93019 21.6479 7.87748C21.5988 7.82477 21.5586 7.75062 21.5586 7.71276C21.5586 7.67491 21.5385 7.64386 21.5139 7.64386C21.4894 7.64386 21.4693 7.60366 21.4693 7.55452C21.4693 7.50539 21.4492 7.46518 21.4246 7.46518C21.4 7.46518 21.3799 7.43883 21.3799 7.40656C21.3799 7.37439 21.3397 7.30482 21.2906 7.25211C21.2414 7.1994 21.2012 7.12525 21.2012 7.08739C21.2012 7.04953 21.1811 7.01849 21.1566 7.01849C21.132 7.01849 21.1119 6.99213 21.1119 6.95986C21.1119 6.9277 21.0717 6.85812 21.0226 6.80541C20.9734 6.7527 20.9332 6.69307 20.9332 6.67286C20.9332 6.65264 20.893 6.60719 20.8439 6.57179C20.7948 6.53639 20.7545 6.47609 20.7545 6.43778C20.7545 6.39948 20.7143 6.33918 20.6652 6.30377C20.6161 6.26837 20.5759 6.20807 20.5759 6.16977C20.5759 6.13146 20.5357 6.07116 20.4865 6.03576C20.4374 6.00036 20.3972 5.94296 20.3972 5.90834C20.3972 5.87361 20.36 5.81274 20.3144 5.77299C20.269 5.73323 20.2006 5.64043 20.1627 5.56661C20.1247 5.49291 20.0513 5.3943 19.9997 5.34751C19.948 5.30072 19.9058 5.2355 19.9058 5.20245C19.9058 5.16939 19.8857 5.14236 19.8612 5.14236C19.8366 5.14236 19.8165 5.1226 19.8165 5.09848C19.8165 5.05135 19.6842 4.89411 19.381 4.58132C19.2765 4.47355 19.1911 4.364 19.1911 4.33798C19.1911 4.31185 18.9901 4.09095 18.7444 3.84695C18.4987 3.60294 18.2977 3.39042 18.2977 3.37468C18.2977 3.33972 17.734 2.77488 17.6991 2.77488C17.6855 2.77488 17.4809 2.58391 17.2445 2.35051C17.0081 2.11712 16.797 1.92615 16.7756 1.92615C16.7542 1.92615 16.6462 1.8357 16.5356 1.72514C16.4251 1.61458 16.3231 1.52413 16.309 1.52413C16.2951 1.52413 16.2333 1.47387 16.1719 1.41245C16.1105 1.35103 16.046 1.30044 16.0287 1.30011C16.0114 1.29966 15.9269 1.23958 15.8409 1.16655C15.7549 1.09351 15.6603 1.01344 15.6306 0.988538C15.6009 0.963747 15.5501 0.943422 15.5176 0.943422C15.4851 0.943422 15.4296 0.903219 15.3942 0.854083C15.3588 0.804946 15.2985 0.764744 15.2602 0.764744C15.2219 0.764744 15.1616 0.724541 15.1262 0.675404C15.0908 0.626268 15.0305 0.586065 14.9922 0.586065C14.9539 0.586065 14.8936 0.545863 14.8582 0.496726C14.8228 0.447589 14.7625 0.407387 14.7242 0.407387C14.6858 0.407387 14.6255 0.367184 14.5901 0.318048C14.5547 0.268911 14.5 0.228708 14.4686 0.228708C14.4371 0.228708 14.4115 0.208607 14.4115 0.184039C14.4115 0.15947 14.3799 0.139369 14.3412 0.139369C14.3027 0.139369 14.2409 0.109217 14.2041 0.0723648C14.1076 -0.0241216 13.1966 -0.0241216 13.1001 0.0723648ZM13.8308 2.1495C13.8662 2.19864 13.9218 2.23884 13.9543 2.23884C13.9869 2.23884 14.0637 2.28909 14.1251 2.35051C14.1866 2.41194 14.253 2.46219 14.2727 2.46219C14.2923 2.46219 14.3559 2.50328 14.4138 2.55354C14.4718 2.60379 14.5853 2.68587 14.6663 2.7359C14.7473 2.78593 14.8135 2.84188 14.8135 2.86031C14.8135 2.87873 14.8681 2.92229 14.935 2.95713C15.0018 2.99208 15.1545 3.11604 15.2745 3.23274C15.3944 3.34944 15.5116 3.44492 15.5347 3.44492C15.5578 3.44492 15.7367 3.60662 15.9321 3.80418C16.1277 4.00184 16.2876 4.15483 16.2876 4.14433C16.2876 4.12613 16.4021 4.24149 17.3575 5.22221C17.5798 5.45047 17.7617 5.65595 17.7617 5.67896C17.7617 5.70196 17.8521 5.81118 17.9627 5.92174C18.0733 6.0323 18.1637 6.13839 18.1637 6.15737C18.1638 6.17647 18.2104 6.24615 18.2672 6.31226C18.3241 6.37837 18.4095 6.48614 18.457 6.5518C18.5045 6.61735 18.5635 6.69396 18.5882 6.72188C18.6128 6.74991 18.6831 6.84807 18.7445 6.93998C18.8058 7.032 18.8712 7.10738 18.8896 7.10749C18.908 7.10772 18.9231 7.14803 18.9231 7.19717C18.9231 7.2463 18.9432 7.28651 18.9678 7.28651C18.9923 7.28651 19.0124 7.30661 19.0124 7.33117C19.0124 7.36066 17.1958 7.37584 13.6521 7.37584C10.1083 7.37584 8.29173 7.36066 8.29173 7.33117C8.29173 7.30661 8.31183 7.28651 8.3364 7.28651C8.36097 7.28651 8.38107 7.25546 8.38107 7.21749C8.38107 7.17952 8.43132 7.09822 8.49274 7.0368C8.55416 6.97538 8.60442 6.90737 8.60442 6.8856C8.60442 6.86393 8.62999 6.8196 8.66137 6.78721C8.76958 6.67498 9.14045 6.18641 9.14045 6.15603C9.14045 6.13928 9.24096 6.02291 9.3638 5.89739C9.48664 5.77198 9.58715 5.6526 9.58715 5.63217C9.58715 5.5933 10.5096 4.61995 10.8098 4.342C10.9048 4.254 11.1508 4.01613 11.3563 3.81344C11.5619 3.61076 11.7484 3.44492 11.7708 3.44492C11.7933 3.44492 11.9142 3.34441 12.0396 3.22157C12.1651 3.09873 12.2853 2.99822 12.3067 2.99822C12.3282 2.99822 12.373 2.96539 12.4064 2.92519C12.4397 2.88499 12.5377 2.80693 12.624 2.75176C12.7103 2.69659 12.8294 2.60882 12.8883 2.55678C12.9474 2.50474 13.0119 2.46219 13.0315 2.46219C13.0512 2.46219 13.1176 2.41194 13.179 2.35051C13.2405 2.28909 13.3173 2.23884 13.3499 2.23884C13.3824 2.23884 13.438 2.19864 13.4734 2.1495C13.5089 2.10025 13.589 2.06016 13.6521 2.06016C13.7152 2.06016 13.7952 2.10025 13.8308 2.1495ZM20.2068 9.30781C20.5674 10.0624 20.6902 10.3042 20.7196 10.3166C20.7388 10.3248 20.7545 10.3789 20.7545 10.4368C20.7545 10.4947 20.7747 10.5545 20.7992 10.5697C20.8238 10.5849 20.8439 10.6364 20.8439 10.6841C20.8439 10.7318 20.864 10.7707 20.8886 10.7707C20.9131 10.7707 20.9332 10.831 20.9332 10.9047C20.9332 10.9784 20.9533 11.0388 20.9779 11.0388C21.0025 11.0388 21.0226 11.079 21.0226 11.1281C21.0226 11.1772 21.0427 11.2174 21.0672 11.2174C21.0918 11.2174 21.1119 11.2777 21.1119 11.3514C21.1119 11.4251 21.132 11.4854 21.1566 11.4854C21.1811 11.4854 21.2012 11.5259 21.2012 11.5753C21.2012 11.6622 21.2171 11.7053 21.3283 11.9204C21.3567 11.9754 21.3799 12.0708 21.3799 12.1326C21.3799 12.1944 21.4 12.2448 21.4246 12.2448C21.4492 12.2448 21.4693 12.3051 21.4693 12.3788C21.4693 12.4525 21.4894 12.5128 21.5139 12.5128C21.5385 12.5128 21.5586 12.582 21.5586 12.6665C21.5586 12.751 21.5787 12.8327 21.6033 12.8479C21.6278 12.8631 21.6479 12.9346 21.6479 13.0069C21.6479 13.0791 21.668 13.1382 21.6926 13.1382C21.7172 13.1382 21.7373 13.2186 21.7373 13.3169C21.7373 13.4152 21.7574 13.4956 21.7819 13.4956C21.8065 13.4956 21.8266 13.5748 21.8266 13.6716C21.8266 13.7684 21.8467 13.8601 21.8713 13.8753C21.8959 13.8905 21.916 13.9821 21.916 14.079C21.916 14.1758 21.9334 14.255 21.9547 14.255C21.976 14.255 22.0063 14.4007 22.0219 14.5788C22.0566 14.9729 22.077 15.1412 22.1106 15.3098C22.1248 15.3808 22.1403 15.5493 22.145 15.6844C22.1497 15.8195 22.1686 15.9502 22.1868 15.9747C22.3108 16.142 22.3112 20.4069 22.1871 20.5757C22.1691 20.6003 22.1491 20.8012 22.1427 21.0223C22.1362 21.2433 22.1208 21.4406 22.1084 21.4607C22.0847 21.499 22.0767 21.5906 22.0239 22.4183C22.0063 22.6947 21.9748 22.9209 21.9539 22.9209C21.933 22.9209 21.916 23.0503 21.916 23.2085C21.916 23.3668 21.8959 23.5087 21.8713 23.5239C21.8467 23.5391 21.8266 23.681 21.8266 23.8393C21.8266 24.0013 21.8071 24.1269 21.7819 24.1269C21.7564 24.1269 21.7373 24.261 21.7373 24.4396C21.7373 24.6183 21.7182 24.7523 21.6926 24.7523C21.6678 24.7523 21.6479 24.8715 21.6479 25.0203C21.6479 25.1692 21.6281 25.2884 21.6033 25.2884C21.5787 25.2884 21.5586 25.3989 21.5586 25.534C21.5586 25.6692 21.5385 25.7797 21.5139 25.7797C21.4891 25.7797 21.4693 25.8989 21.4693 26.0477C21.4693 26.1966 21.4494 26.3158 21.4246 26.3158C21.3998 26.3158 21.3799 26.4349 21.3799 26.5838C21.3799 26.7326 21.36 26.8518 21.3353 26.8518C21.3107 26.8518 21.2906 26.9511 21.2906 27.0725C21.2906 27.1939 21.2705 27.3056 21.2459 27.3208C21.2213 27.336 21.2012 27.4478 21.2012 27.5692C21.2012 27.6906 21.1811 27.7899 21.1566 27.7899C21.132 27.7899 21.1119 27.8891 21.1119 28.0105C21.1119 28.1319 21.0918 28.2437 21.0672 28.2589C21.0427 28.2741 21.0226 28.3746 21.0226 28.4822C21.0226 28.5899 21.0025 28.6904 20.9779 28.7056C20.9533 28.7208 20.9332 28.8225 20.9332 28.9316C20.9332 29.0407 20.9131 29.1299 20.8886 29.1299C20.864 29.1299 20.8439 29.2164 20.8439 29.322C20.8439 29.4277 20.8257 29.5332 20.8036 29.5565C20.7656 29.5965 20.7526 29.6691 20.6841 30.2243C20.6689 30.3472 20.6384 30.4668 20.6162 30.4901C20.5941 30.5135 20.5759 30.609 20.5759 30.7023C20.5759 30.7957 20.5597 30.8721 20.5399 30.8721C20.5201 30.8721 20.499 30.9557 20.493 31.0579C20.487 31.1601 20.463 31.2793 20.4396 31.3229C20.4163 31.3666 20.3972 31.4739 20.3972 31.5615C20.3972 31.6491 20.3812 31.7208 20.3617 31.7208C20.3421 31.7208 20.3211 31.794 20.3151 31.8835C20.3091 31.9729 20.2815 32.0885 20.2538 32.1403C20.2261 32.1922 20.208 32.2396 20.2136 32.2459C20.2424 32.278 20.1566 32.8822 20.1234 32.8822C20.102 32.8822 20.0845 32.9726 20.0845 33.0832C20.0845 33.1938 20.0644 33.2842 20.0398 33.2842C20.0153 33.2842 19.9952 33.3646 19.9952 33.4629C19.9952 33.5612 19.9751 33.6416 19.9505 33.6416C19.9259 33.6416 19.9058 33.7421 19.9058 33.8649C19.9058 33.9878 19.8857 34.0883 19.8612 34.0883C19.8366 34.0883 19.8165 34.1687 19.8165 34.2669C19.8165 34.3652 19.7964 34.4456 19.7718 34.4456C19.7472 34.4456 19.7271 34.5361 19.7271 34.6466C19.7271 34.7572 19.707 34.8477 19.6825 34.8477C19.6579 34.8477 19.6378 34.9281 19.6378 35.0263C19.6378 35.1246 19.6177 35.205 19.5931 35.205C19.5686 35.205 19.5485 35.2854 19.5485 35.3837C19.5485 35.482 19.5284 35.5624 19.5038 35.5624C19.4792 35.5624 19.4591 35.6026 19.4591 35.6517C19.4591 35.7406 19.4293 35.741 13.6521 35.741C7.87485 35.741 7.84503 35.7406 7.84503 35.6517C7.84503 35.6026 7.82493 35.5624 7.80036 35.5624C7.7758 35.5624 7.75569 35.482 7.75569 35.3837C7.75569 35.2854 7.73559 35.205 7.71103 35.205C7.68646 35.205 7.66635 35.1258 7.66635 35.029C7.66635 34.9322 7.64625 34.8405 7.62169 34.8253C7.59712 34.8101 7.57702 34.7184 7.57702 34.6216C7.57702 34.5248 7.55691 34.4456 7.53235 34.4456C7.50778 34.4456 7.48768 34.3652 7.48768 34.2669C7.48768 34.1687 7.46757 34.0883 7.44301 34.0883C7.41844 34.0883 7.39834 33.9878 7.39834 33.8649C7.39834 33.7421 7.37824 33.6416 7.35367 33.6416C7.3291 33.6416 7.309 33.5612 7.309 33.4629C7.309 33.3646 7.2889 33.2842 7.26433 33.2842C7.23976 33.2842 7.21966 33.1938 7.21966 33.0832C7.21966 32.9726 7.2028 32.8822 7.18214 32.8822C7.16159 32.8822 7.12094 32.7063 7.09179 32.4913C7.0048 31.8497 6.98872 31.766 6.94695 31.7402C6.92495 31.7266 6.90697 31.6274 6.90697 31.5198C6.90697 31.4121 6.88687 31.3116 6.8623 31.2964C6.83773 31.2812 6.81763 31.1936 6.81763 31.1017C6.81763 31.0098 6.79954 30.9155 6.77754 30.8922C6.75554 30.8688 6.72639 30.7693 6.71277 30.671C6.69926 30.5728 6.66587 30.3818 6.63862 30.2467C6.61137 30.1116 6.5782 29.9105 6.56502 29.8C6.55174 29.6894 6.52281 29.5799 6.50059 29.5565C6.47848 29.5332 6.46028 29.4277 6.46028 29.322C6.46028 29.2164 6.44017 29.1299 6.41561 29.1299C6.39104 29.1299 6.37094 29.0294 6.37094 28.9066C6.37094 28.7838 6.35083 28.6832 6.32627 28.6832C6.3017 28.6832 6.2816 28.5827 6.2816 28.4599C6.2816 28.3371 6.2615 28.2366 6.23693 28.2366C6.21236 28.2366 6.19226 28.136 6.19226 28.0132C6.19226 27.8904 6.17216 27.7899 6.14759 27.7899C6.12302 27.7899 6.10292 27.6793 6.10292 27.5442C6.10292 27.409 6.08282 27.2985 6.05825 27.2985C6.03368 27.2985 6.01358 27.198 6.01358 27.0751C6.01358 26.9523 5.99348 26.8518 5.96891 26.8518C5.94412 26.8518 5.92424 26.7326 5.92424 26.5838C5.92424 26.4349 5.90436 26.3158 5.87957 26.3158C5.85467 26.3158 5.8349 26.1957 5.8349 26.0451C5.8349 25.8761 5.81815 25.7849 5.79023 25.8021C5.76231 25.8193 5.74556 25.728 5.74556 25.5591C5.74556 25.4084 5.7258 25.2884 5.70089 25.2884C5.6761 25.2884 5.65622 25.1692 5.65622 25.0203C5.65622 24.8715 5.63634 24.7523 5.61155 24.7523C5.58598 24.7523 5.56688 24.6174 5.56688 24.437C5.56688 24.2382 5.55036 24.1319 5.52221 24.1493C5.49407 24.1667 5.47754 24.0604 5.47754 23.8616C5.47754 23.6811 5.45845 23.5462 5.43287 23.5462C5.4073 23.5462 5.38821 23.4122 5.38821 23.2336C5.38821 23.0616 5.37134 22.9209 5.35057 22.9209C5.32991 22.9209 5.28949 22.5942 5.26067 22.195C5.23186 21.7958 5.18786 21.2681 5.16285 21.0224C4.99679 19.3932 4.9701 16.2928 5.11941 15.9747C5.14252 15.9256 5.17167 15.7547 5.18429 15.5951C5.24191 14.8646 5.31796 14.255 5.35146 14.255C5.37168 14.255 5.38821 14.1758 5.38821 14.079C5.38821 13.9821 5.40831 13.8905 5.43287 13.8753C5.45744 13.8601 5.47754 13.7684 5.47754 13.6716C5.47754 13.5748 5.49765 13.4956 5.52221 13.4956C5.54678 13.4956 5.56688 13.4152 5.56688 13.3169C5.56688 13.2186 5.58698 13.1382 5.61155 13.1382C5.63612 13.1382 5.65622 13.0578 5.65622 12.9595C5.65622 12.8613 5.67632 12.7809 5.70089 12.7809C5.72546 12.7809 5.74556 12.7206 5.74556 12.6469C5.74556 12.5732 5.76566 12.5128 5.79023 12.5128C5.8148 12.5128 5.8349 12.4525 5.8349 12.3788C5.8349 12.3051 5.855 12.2448 5.87957 12.2448C5.90414 12.2448 5.92424 12.1845 5.92424 12.1108C5.92424 12.0371 5.94434 11.9768 5.96891 11.9768C5.99348 11.9768 6.01358 11.9278 6.01358 11.8678C6.01358 11.8079 6.03368 11.7463 6.05825 11.7311C6.08282 11.7159 6.10292 11.6544 6.10292 11.5944C6.10292 11.5345 6.12302 11.4854 6.14759 11.4854C6.17216 11.4854 6.19226 11.4251 6.19226 11.3514C6.19226 11.2777 6.21236 11.2174 6.23693 11.2174C6.2615 11.2174 6.2816 11.1785 6.2816 11.1308C6.2816 11.0831 6.3017 11.0316 6.32627 11.0164C6.35083 11.0012 6.37094 10.9397 6.37094 10.8797C6.37094 10.8198 6.39104 10.7707 6.41561 10.7707C6.44017 10.7707 6.46028 10.7305 6.46028 10.6814C6.46028 10.6323 6.48038 10.5921 6.50495 10.5921C6.52951 10.5921 6.54961 10.5602 6.54961 10.5213C6.54961 10.4823 6.6853 10.171 6.85114 9.82943L7.15266 9.20842L13.6557 9.20786L20.1588 9.2073L20.2068 9.30781ZM13.1384 16.9566C13.1138 16.9645 12.9832 17.0039 12.848 17.0441C12.2808 17.213 11.3293 17.9459 11.3293 18.2139C11.3293 18.2476 11.3139 18.2752 11.2951 18.2752C11.2255 18.2752 11.0061 18.8673 10.9474 19.2133C10.73 20.4969 11.4425 21.7131 12.7116 22.2245C13.1521 22.4019 14.1323 22.422 14.5231 22.2615C14.646 22.2111 14.8118 22.1434 14.8917 22.1111C14.9715 22.079 15.0368 22.0369 15.0368 22.0176C15.0368 21.9986 15.062 21.9828 15.0927 21.9828C15.1234 21.9827 15.2088 21.9304 15.2825 21.8664C15.3562 21.8026 15.4571 21.7171 15.5065 21.6767C15.6245 21.5802 15.9749 21.1605 15.9749 21.1158C15.9749 21.0966 16.0124 21.0275 16.0582 20.9623C16.6557 20.1119 16.4502 18.6305 15.6107 17.7362C15.0606 17.1501 13.7853 16.748 13.1384 16.9566ZM14.084 18.6745C14.7728 18.9873 14.9437 19.875 14.4166 20.4021C13.7338 21.0848 12.58 20.6077 12.58 19.6423C12.58 18.8968 13.4048 18.366 14.084 18.6745ZM4.29011 28.5317C4.34126 28.5512 4.3608 28.6193 4.3608 28.7774C4.3608 28.8976 4.38091 28.9959 4.40547 28.9959C4.43004 28.9959 4.45014 29.0964 4.45014 29.2193C4.45014 29.3421 4.47024 29.4426 4.49481 29.4426C4.51938 29.4426 4.53948 29.5431 4.53948 29.666C4.53948 29.7888 4.55958 29.8893 4.58415 29.8893C4.60872 29.8893 4.62882 29.9898 4.62882 30.1127C4.62882 30.2355 4.64892 30.336 4.67349 30.336C4.69806 30.336 4.71816 30.4265 4.71816 30.537C4.71816 30.6476 4.73826 30.7381 4.76283 30.7381C4.7874 30.7381 4.8075 30.8386 4.8075 30.9614C4.8075 31.0842 4.8276 31.1847 4.85217 31.1847C4.87674 31.1847 4.89684 31.2853 4.89684 31.4081C4.89684 31.5309 4.91694 31.6314 4.94151 31.6314C4.96608 31.6314 4.98618 31.7118 4.98618 31.8101C4.98618 31.9084 5.00628 31.9888 5.03085 31.9888C5.05542 31.9888 5.07552 32.078 5.07552 32.1871C5.07552 32.2962 5.09562 32.398 5.12019 32.4132C5.14476 32.4283 5.16486 32.5301 5.16486 32.6392C5.16486 32.7483 5.18217 32.8375 5.20327 32.8375C5.22438 32.8375 5.25598 32.9531 5.2734 33.0944C5.30657 33.3631 5.31059 33.3881 5.36185 33.6416C5.37916 33.7276 5.39926 33.8281 5.40641 33.8649C5.41356 33.9018 5.43098 33.9621 5.44516 33.9989C5.47609 34.0794 5.51931 34.3097 5.55192 34.5685C5.5651 34.6729 5.59391 34.7583 5.61602 34.7583C5.63813 34.7583 5.65622 34.8387 5.65622 34.937C5.65622 35.0353 5.67431 35.1157 5.69642 35.1157C5.71854 35.1157 5.74679 35.2011 5.75941 35.3055C5.77192 35.4099 5.80598 35.5858 5.8349 35.6964C5.9344 36.0764 5.94055 36.2613 5.85444 36.2943C5.72222 36.3451 5.34354 36.6027 5.34354 36.6419C5.34354 36.6624 5.3078 36.6791 5.26402 36.6791C5.22036 36.6791 5.15559 36.7193 5.12019 36.7684C5.08479 36.8176 5.02448 36.8578 4.98618 36.8578C4.94787 36.8578 4.88757 36.898 4.85217 36.9471C4.81677 36.9963 4.75646 37.0365 4.71816 37.0365C4.67986 37.0365 4.61955 37.0767 4.58415 37.1258C4.54875 37.1749 4.48845 37.2151 4.45014 37.2151C4.41184 37.2151 4.35154 37.2553 4.31613 37.3045C4.28073 37.3536 4.22333 37.3938 4.18871 37.3938C4.15398 37.3938 4.09312 37.4291 4.05337 37.4723C4.01361 37.5154 3.92583 37.5792 3.85827 37.6138C3.79071 37.6485 3.73543 37.6937 3.73543 37.7141C3.73543 37.7344 3.70695 37.7512 3.67211 37.7512C3.63738 37.7512 3.59874 37.7763 3.58634 37.807C3.57395 37.8377 3.56222 37.8176 3.56033 37.7623C3.55832 37.7071 3.53967 37.6618 3.51867 37.6618C3.49779 37.6618 3.46697 37.4685 3.45044 37.2321C3.4338 36.9958 3.40063 36.766 3.37684 36.7214C3.35295 36.6768 3.3334 36.5698 3.3334 36.4837C3.3334 36.3975 3.3133 36.3146 3.28873 36.2994C3.26416 36.2842 3.24406 36.1724 3.24406 36.0511C3.24406 35.9297 3.22754 35.8304 3.20732 35.8304C3.18722 35.8304 3.166 35.7249 3.1602 35.5959C3.15439 35.4669 3.13072 35.3423 3.10749 35.3189C3.08437 35.2956 3.06539 35.1941 3.06539 35.0933C3.06539 34.9926 3.04718 34.8911 3.02507 34.8678C3.00285 34.8444 2.97236 34.7248 2.95717 34.602C2.88861 34.0467 2.87565 33.9741 2.83768 33.9342C2.81557 33.9108 2.79737 33.7952 2.79737 33.6773C2.79737 33.5594 2.77727 33.4629 2.7527 33.4629C2.72813 33.4629 2.70803 33.3737 2.70803 33.2646C2.70803 33.1555 2.68793 33.0537 2.66336 33.0385C2.63879 33.0233 2.61869 32.9015 2.61869 32.7678C2.61869 32.6342 2.59859 32.5248 2.57402 32.5248C2.54945 32.5248 2.52935 32.4243 2.52935 32.3015C2.52935 32.1786 2.50925 32.0781 2.48468 32.0781C2.46011 32.0781 2.44001 31.9776 2.44001 31.8548C2.44001 31.7319 2.41991 31.6314 2.39534 31.6314C2.37077 31.6314 2.35067 31.5209 2.35067 31.3858C2.35067 31.2506 2.33057 31.1401 2.306 31.1401C2.28143 31.1401 2.26133 31.0396 2.26133 30.9167C2.26133 30.7939 2.24123 30.6934 2.21666 30.6934C2.19209 30.6934 2.17199 30.5929 2.17199 30.47C2.17199 30.3472 2.15189 30.2467 2.12732 30.2467C2.10276 30.2467 2.08265 30.1361 2.08265 30.001C2.08265 29.8659 2.06255 29.7553 2.03798 29.7553C2.01342 29.7553 1.99331 29.7338 1.99331 29.7074C1.99331 29.6363 2.11091 29.532 2.19109 29.532C2.22973 29.532 2.26133 29.5119 2.26133 29.4873C2.26133 29.4627 2.30154 29.4426 2.35067 29.4426C2.39981 29.4426 2.44001 29.4225 2.44001 29.398C2.44001 29.3734 2.48021 29.3533 2.52935 29.3533C2.57849 29.3533 2.61869 29.3332 2.61869 29.3086C2.61869 29.2841 2.65889 29.264 2.70803 29.264C2.75717 29.264 2.79737 29.2439 2.79737 29.2193C2.79737 29.1947 2.83757 29.1746 2.88671 29.1746C2.93584 29.1746 2.97605 29.1545 2.97605 29.1299C2.97605 29.1054 3.01625 29.0853 3.06539 29.0853C3.11452 29.0853 3.15472 29.069 3.15472 29.049C3.15472 29.029 3.22586 28.9847 3.31274 28.9506C3.42732 28.9056 4.11948 28.5659 4.21194 28.5091C4.21607 28.5067 4.25125 28.5167 4.29011 28.5317ZM23.4594 28.6998C23.6793 28.8072 23.9244 28.9227 24.0043 28.9564C24.0841 28.9901 24.1494 29.0329 24.1494 29.0515C24.1494 29.0701 24.1896 29.0853 24.2388 29.0853C24.2879 29.0853 24.3281 29.1054 24.3281 29.1299C24.3281 29.1545 24.3683 29.1746 24.4175 29.1746C24.4666 29.1746 24.5068 29.1947 24.5068 29.2193C24.5068 29.2439 24.547 29.264 24.5961 29.264C24.6453 29.264 24.6855 29.2841 24.6855 29.3086C24.6855 29.3332 24.7257 29.3533 24.7748 29.3533C24.8239 29.3533 24.8642 29.3734 24.8642 29.398C24.8642 29.4225 24.9044 29.4426 24.9535 29.4426C25.0026 29.4426 25.0428 29.4627 25.0428 29.4873C25.0428 29.5119 25.0744 29.532 25.1131 29.532C25.1933 29.532 25.3108 29.6363 25.3108 29.7074C25.3108 29.7338 25.2907 29.7553 25.2662 29.7553C25.2416 29.7553 25.2215 29.8659 25.2215 30.001C25.2215 30.1361 25.2014 30.2467 25.1768 30.2467C25.1523 30.2467 25.1322 30.3472 25.1322 30.47C25.1322 30.5929 25.1121 30.6934 25.0875 30.6934C25.0629 30.6934 25.0428 30.7939 25.0428 30.9167C25.0428 31.0396 25.0227 31.1401 24.9982 31.1401C24.9736 31.1401 24.9535 31.2506 24.9535 31.3858C24.9535 31.5209 24.9334 31.6314 24.9088 31.6314C24.8843 31.6314 24.8642 31.7307 24.8642 31.8521C24.8642 31.9735 24.8441 32.0853 24.8195 32.1005C24.7949 32.1157 24.7748 32.2174 24.7748 32.3265C24.7748 32.4356 24.7583 32.5248 24.7381 32.5248C24.718 32.5248 24.6968 32.6304 24.6909 32.7593C24.6851 32.8883 24.6615 33.013 24.6382 33.0363C24.6151 33.0596 24.5961 33.1652 24.5961 33.2708C24.5961 33.3765 24.5779 33.4629 24.5556 33.4629C24.5333 33.4629 24.5031 33.5735 24.4886 33.7086C24.4741 33.8437 24.4502 34.0648 24.4357 34.1999C24.4211 34.3351 24.3929 34.4456 24.373 34.4456C24.353 34.4456 24.3258 34.5411 24.3125 34.6578C24.2705 35.0245 24.2345 35.2243 24.1939 35.3167C24.1566 35.4012 24.133 35.5429 24.0784 36.0091C24.0655 36.1196 24.0429 36.2402 24.0283 36.2771C24.0136 36.3139 23.9939 36.3943 23.9843 36.4558C23.9748 36.5172 23.9456 36.688 23.9196 36.8354C23.8935 36.9829 23.8619 37.2291 23.8493 37.3827C23.8366 37.5362 23.8086 37.6618 23.7868 37.6618C23.7652 37.6618 23.7474 37.6913 23.7474 37.7274C23.7474 37.8094 23.6209 37.7686 23.5188 37.6538C23.4791 37.609 23.4182 37.5725 23.3835 37.5725C23.3488 37.5725 23.2914 37.5323 23.256 37.4832C23.2206 37.434 23.1603 37.3938 23.122 37.3938C23.0837 37.3938 23.0234 37.3536 22.988 37.3045C22.9526 37.2553 22.8923 37.2151 22.854 37.2151C22.8157 37.2151 22.7554 37.1749 22.72 37.1258C22.6846 37.0767 22.6349 37.0365 22.6097 37.0365C22.5843 37.0364 22.5053 36.9861 22.4339 36.9248C22.3625 36.8634 22.2885 36.8131 22.2695 36.8131C22.2505 36.8131 22.2084 36.788 22.176 36.7573C22.076 36.6627 21.4731 36.2771 21.4252 36.2771C21.3693 36.2771 21.3646 35.9345 21.4199 35.9003C21.4581 35.8766 21.4778 35.7849 21.5397 35.339C21.5551 35.2285 21.5858 35.1189 21.6078 35.0956C21.6298 35.0722 21.6479 34.9868 21.6479 34.9057C21.6479 34.8246 21.666 34.7583 21.6881 34.7583C21.7103 34.7583 21.7391 34.6729 21.7522 34.5685C21.7899 34.2703 21.8294 34.0735 21.8713 33.9766C21.9174 33.8697 21.9496 33.6979 22.0151 33.206C22.0423 33.0034 22.0812 32.8375 22.1018 32.8375C22.1224 32.8375 22.1393 32.7483 22.1393 32.6392C22.1393 32.5301 22.1594 32.4283 22.184 32.4132C22.2085 32.398 22.2286 32.2962 22.2286 32.1871C22.2286 32.078 22.2487 31.9888 22.2733 31.9888C22.2979 31.9888 22.318 31.9084 22.318 31.8101C22.318 31.7118 22.3381 31.6314 22.3627 31.6314C22.3872 31.6314 22.4073 31.5309 22.4073 31.4081C22.4073 31.2853 22.4274 31.1847 22.452 31.1847C22.4766 31.1847 22.4967 31.0842 22.4967 30.9614C22.4967 30.8386 22.5168 30.7381 22.5413 30.7381C22.5659 30.7381 22.586 30.6476 22.586 30.537C22.586 30.4265 22.6061 30.336 22.6307 30.336C22.6552 30.336 22.6753 30.2355 22.6753 30.1127C22.6753 29.9898 22.6954 29.8893 22.72 29.8893C22.7446 29.8893 22.7647 29.7888 22.7647 29.666C22.7647 29.5431 22.7848 29.4426 22.8094 29.4426C22.8339 29.4426 22.854 29.3421 22.854 29.2193C22.854 29.0964 22.8741 28.9959 22.8987 28.9959C22.9233 28.9959 22.9434 28.8971 22.9434 28.7763C22.9434 28.6424 22.9651 28.5479 22.9992 28.5342C23.0299 28.5218 23.0562 28.51 23.0574 28.5081C23.0587 28.5061 23.2396 28.5925 23.4594 28.6998ZM15.9749 37.7958C15.9749 37.8695 15.995 37.9299 16.0196 37.9299C16.0464 37.9299 16.0642 38.1094 16.0642 38.3792C16.0642 38.6674 16.0483 38.8187 16.0196 38.8009C15.9936 38.7848 15.9749 38.8303 15.9749 38.9099C15.9749 38.9851 15.9548 39.0466 15.9302 39.0466C15.9057 39.0466 15.8856 39.0868 15.8856 39.1359C15.8856 39.1851 15.8655 39.2253 15.8409 39.2253C15.8163 39.2253 15.7962 39.2577 15.7962 39.2974C15.7962 39.377 15.6148 39.7303 15.5617 39.7538C15.5433 39.7621 15.5282 39.8029 15.5282 39.8445C15.5282 39.8862 15.488 39.9493 15.4389 39.9847C15.3897 40.0201 15.3495 40.0762 15.3495 40.1094C15.3495 40.1426 15.3244 40.1962 15.2937 40.2285C15.1774 40.3509 15.0815 40.4783 15.0814 40.5101C15.0814 40.5282 15.0211 40.6134 14.9475 40.6994C14.8739 40.7854 14.8136 40.8774 14.8136 40.9037C14.8135 40.9302 14.7632 40.999 14.7018 41.0567C14.6404 41.1145 14.5901 41.1883 14.5901 41.2208C14.5901 41.2534 14.5097 41.3628 14.4115 41.4641C14.3132 41.5654 14.2328 41.6671 14.2328 41.6904C14.2328 41.7136 14.1323 41.8305 14.0094 41.9501C13.8866 42.0697 13.7861 42.1805 13.7861 42.1961C13.7861 42.2118 13.7559 42.2547 13.7191 42.2915C13.6539 42.3567 13.5181 42.2923 13.5181 42.1961C13.5181 42.1805 13.4176 42.0697 13.2947 41.9501C13.1719 41.8305 13.0714 41.7136 13.0714 41.6904C13.0714 41.6671 12.991 41.5654 12.8927 41.4641C12.7944 41.3628 12.714 41.2546 12.714 41.2237C12.714 41.1927 12.6638 41.1133 12.6023 41.047C12.5409 40.9808 12.4907 40.9107 12.4906 40.8911C12.4906 40.8717 12.4303 40.7854 12.3567 40.6994C12.2831 40.6134 12.2228 40.5265 12.2228 40.5063C12.2227 40.4862 12.1975 40.4432 12.1668 40.4108C12.0305 40.2672 11.9546 40.1581 11.9546 40.1057C11.9546 40.0746 11.9144 40.0201 11.8653 39.9847C11.8162 39.9493 11.776 39.8845 11.776 39.8408C11.776 39.797 11.7559 39.7613 11.7313 39.7613C11.7067 39.7613 11.6866 39.7303 11.6866 39.6924C11.6866 39.6545 11.6464 39.5804 11.5973 39.5277C11.5481 39.475 11.5079 39.3966 11.5079 39.3535C11.5079 39.3105 11.4878 39.2628 11.4633 39.2476C11.4387 39.2324 11.4186 39.1809 11.4186 39.1333C11.4186 39.0856 11.3985 39.0466 11.3739 39.0466C11.3494 39.0466 11.3293 38.9963 11.3293 38.9349C11.3293 38.8735 11.3092 38.8232 11.2846 38.8232C11.2578 38.8232 11.2399 38.6446 11.2399 38.3766C11.2399 38.1085 11.2578 37.9299 11.2846 37.9299C11.3092 37.9299 11.3293 37.8695 11.3293 37.7958V37.6618H13.6521H15.9749V37.7958Z" fill="#04048C"/>
<path fill-rule="evenodd" clip-rule="evenodd" d="M9.22825 3.12157L8.98413 3.37842L9.24098 3.1343C9.38225 2.99996 9.49783 2.88437 9.49783 2.87745C9.49783 2.84428 9.45517 2.88292 9.22825 3.12157ZM13.4623 16.9237C13.5667 16.9331 13.7375 16.9331 13.842 16.9237C13.9464 16.9143 13.8609 16.9066 13.6521 16.9066C13.4433 16.9066 13.3578 16.9143 13.4623 16.9237ZM12.9151 16.9803C12.8013 17.0292 12.9186 17.0292 13.0714 16.9803C13.1612 16.9516 13.1655 16.9442 13.0937 16.9432C13.0446 16.9426 12.9642 16.9592 12.9151 16.9803ZM14.2328 16.9803C14.3856 17.0292 14.5029 17.0292 14.3892 16.9803C14.34 16.9592 14.2596 16.9426 14.2105 16.9432C14.1387 16.9442 14.143 16.9516 14.2328 16.9803ZM12.1941 17.2895C12.1169 17.3366 12.0392 17.3986 12.0214 17.4275C12.0037 17.4562 12.0718 17.425 12.1729 17.3581C12.332 17.2528 12.3875 17.2032 12.3455 17.2038C12.3394 17.2039 12.2713 17.2425 12.1941 17.2895ZM14.9475 17.2196C14.9475 17.2285 15.0603 17.3105 15.1981 17.4021C15.336 17.4936 15.4355 17.5469 15.4192 17.5207C15.3626 17.429 14.9475 17.1641 14.9475 17.2196ZM11.6643 17.7397C11.5185 17.8871 11.4185 18.0055 11.4424 18.0027C11.4851 17.9977 11.9872 17.4717 11.9492 17.4717C11.9384 17.4717 11.8102 17.5923 11.6643 17.7397ZM15.7736 17.9185C15.9853 18.1661 15.9883 18.1687 15.9399 18.0747C15.9145 18.0256 15.8367 17.9352 15.7669 17.8738L15.6399 17.7624L15.7736 17.9185ZM13.3171 18.6331C13.2033 18.682 13.3207 18.682 13.4734 18.6331C13.5632 18.6044 13.5676 18.597 13.4958 18.596C13.4466 18.5953 13.3662 18.612 13.3171 18.6331ZM13.8308 18.6331C13.9836 18.682 14.1009 18.682 13.9871 18.6331C13.938 18.612 13.8576 18.5953 13.8084 18.596C13.7366 18.597 13.741 18.6044 13.8308 18.6331ZM13.0491 18.7671C12.9754 18.8159 12.9352 18.8555 12.9597 18.8551C13.0045 18.8544 13.2474 18.6803 13.2054 18.6791C13.1931 18.6787 13.1228 18.7183 13.0491 18.7671ZM14.0988 18.6916C14.0988 18.702 14.1842 18.7669 14.2886 18.8358C14.3931 18.9047 14.4549 18.9324 14.4261 18.8975C14.3706 18.8304 14.0988 18.6594 14.0988 18.6916ZM14.5273 19.1021C14.5675 19.1635 14.6077 19.2138 14.6166 19.2138C14.6256 19.2138 14.61 19.1635 14.582 19.1021C14.5541 19.0407 14.5138 18.9904 14.4927 18.9904C14.4715 18.9904 14.487 19.0407 14.5273 19.1021ZM16.3367 19.1058C16.3392 19.1775 16.3583 19.2864 16.3792 19.3478C16.4048 19.4231 16.4087 19.3868 16.3912 19.2361C16.3623 18.9849 16.3299 18.9077 16.3367 19.1058ZM10.911 19.2087C10.8938 19.3163 10.8891 19.4138 10.9006 19.4253C10.9306 19.4553 10.9848 19.1406 10.9615 19.0711C10.9509 19.0391 10.9282 19.101 10.911 19.2087ZM12.6099 19.3329C12.5694 19.3733 12.5731 19.8932 12.6142 19.9578C12.6323 19.9861 12.647 19.8504 12.647 19.6562C12.647 19.462 12.6454 19.3031 12.6434 19.3031C12.6412 19.3031 12.6262 19.3165 12.6099 19.3329ZM14.6642 19.4461C14.7018 19.6436 14.7242 19.6606 14.7242 19.4919C14.7242 19.4156 14.7044 19.3409 14.6802 19.3259C14.6527 19.3089 14.6467 19.3539 14.6642 19.4461ZM14.6862 19.7796C14.6825 19.8329 14.6666 19.9133 14.6506 19.9583C14.6284 20.0213 14.6343 20.0286 14.6764 19.9898C14.7065 19.9621 14.7225 19.8817 14.712 19.8111C14.6985 19.7207 14.6909 19.7114 14.6862 19.7796ZM10.891 19.9508C10.8922 20 10.9085 20.1005 10.9273 20.1742L10.9613 20.3082L10.9636 20.1742C10.9647 20.1005 10.9484 20 10.9273 19.9508L10.8888 19.8615L10.891 19.9508ZM16.3546 20.0625C16.3374 20.1641 16.3327 20.2566 16.3442 20.268C16.3557 20.2795 16.3784 20.2051 16.3948 20.1027C16.4112 20.0003 16.4158 19.9078 16.4052 19.8972C16.3946 19.8865 16.3718 19.9609 16.3546 20.0625ZM12.8026 20.3122C12.874 20.4271 13.25 20.6886 13.3403 20.6861C13.3767 20.6852 13.3432 20.6568 13.2659 20.6232C13.1887 20.5896 13.0398 20.4849 12.935 20.3905C12.8303 20.2961 12.7707 20.2608 12.8026 20.3122ZM14.1457 20.5573C14.0363 20.6292 13.9664 20.6879 13.9901 20.6879C14.0389 20.6879 14.3668 20.4726 14.3668 20.4406C14.3668 20.4119 14.3684 20.4112 14.1457 20.5573ZM13.5293 20.7199C13.5968 20.7301 13.7074 20.7301 13.7749 20.7199C13.8425 20.7097 13.7872 20.7013 13.6521 20.7013C13.517 20.7013 13.4617 20.7097 13.5293 20.7199ZM11.1908 20.9336C11.2661 21.0793 11.3279 21.16 11.3276 21.1123C11.3274 21.0877 11.2862 21.0173 11.2359 20.9559C11.1753 20.8818 11.1601 20.8743 11.1908 20.9336ZM16.0435 20.9822C16.0018 21.0457 15.9755 21.1053 15.9849 21.1147C15.9942 21.1242 16.0372 21.0722 16.0803 20.9992C16.1766 20.8362 16.1478 20.8229 16.0435 20.9822ZM11.4612 21.3553C11.6373 21.5777 12.022 21.925 12.1864 22.01C12.3801 22.1102 12.3355 22.0582 12.0925 21.9008C11.8747 21.7596 11.4186 21.2991 11.4186 21.2204C11.4186 21.1977 11.3968 21.1793 11.3702 21.1793C11.3436 21.1793 11.3846 21.2584 11.4612 21.3553ZM15.707 21.4694C15.6495 21.5308 15.6108 21.5884 15.6211 21.5976C15.6314 21.6067 15.6867 21.5565 15.7438 21.486C15.8717 21.3283 15.8492 21.3182 15.707 21.4694ZM15.4226 21.7413C15.3521 21.8032 15.3034 21.8627 15.3141 21.8734C15.3249 21.8843 15.3913 21.833 15.4617 21.7595C15.6171 21.5973 15.597 21.5879 15.4226 21.7413ZM13.1692 22.392C13.226 22.408 13.4433 22.4211 13.6521 22.4211C13.8609 22.4211 14.0783 22.408 14.135 22.392C14.1917 22.3761 13.9744 22.363 13.6521 22.363C13.3298 22.363 13.1125 22.3761 13.1692 22.392Z" fill="#4058B0"/>
<path fill-rule="evenodd" clip-rule="evenodd" d="M13.1161 16.8934C13.0408 16.919 13.0771 16.9229 13.2278 16.9055C13.3506 16.8913 13.4595 16.8723 13.4698 16.8632C13.505 16.8318 13.2277 16.8555 13.1161 16.8934ZM13.9872 16.8912C14.1761 16.9393 14.3383 16.9393 14.1882 16.8912C14.1268 16.8716 14.0262 16.8558 13.9648 16.8563C13.8645 16.857 13.8668 16.8606 13.9872 16.8912ZM14.5652 17.0262C14.6866 17.0736 14.793 17.1054 14.8016 17.0967C14.8229 17.0755 14.4681 16.9353 14.3995 16.938C14.3692 16.9391 14.4438 16.9789 14.5652 17.0262ZM12.5801 17.0476C12.4342 17.131 12.4853 17.1319 12.6754 17.0493C12.7581 17.0134 12.7956 16.984 12.7587 16.9839C12.7219 16.9838 12.6415 17.0125 12.5801 17.0476ZM12.0507 17.3382C11.9488 17.4121 11.8654 17.4834 11.8654 17.4968C11.8654 17.5178 12.1171 17.3465 12.2428 17.2399C12.3486 17.1502 12.2178 17.2171 12.0507 17.3382ZM15.0592 17.2335C15.1734 17.3416 15.4538 17.5245 15.3861 17.4467C15.3448 17.3991 15.2443 17.3222 15.1628 17.2757C15.0812 17.2292 15.0347 17.2103 15.0592 17.2335ZM11.6615 17.6618L11.5303 17.8069L11.6755 17.6757C11.8109 17.5534 11.8412 17.5166 11.8067 17.5166C11.799 17.5166 11.7337 17.5819 11.6615 17.6618ZM15.6843 17.7511C15.8043 17.8924 15.9105 18.008 15.9202 18.008C15.9507 18.008 15.6767 17.6769 15.5689 17.5836C15.5122 17.5345 15.5641 17.6098 15.6843 17.7511ZM13.5293 18.6654C13.5969 18.6755 13.7074 18.6755 13.775 18.6654C13.8425 18.6551 13.7873 18.6467 13.6521 18.6467C13.517 18.6467 13.4617 18.6551 13.5293 18.6654ZM14.0765 18.7524C14.1502 18.7913 14.2457 18.8539 14.2887 18.8915C14.3317 18.9292 14.3668 18.9403 14.3668 18.9165C14.3668 18.8715 14.0491 18.6767 13.9811 18.6798C13.9598 18.6808 14.0028 18.7134 14.0765 18.7524ZM16.3993 19.6384C16.3993 19.9683 16.4129 20.2037 16.4297 20.1616C16.4463 20.1195 16.4601 19.8841 16.4601 19.6384C16.4601 19.3927 16.4463 19.1573 16.4297 19.1152C16.4129 19.0731 16.3993 19.3085 16.3993 19.6384ZM10.8651 19.1507C10.8287 19.2456 10.8364 20.0652 10.8746 20.1616C10.8913 20.2037 10.905 19.9775 10.905 19.6591C10.905 19.3406 10.9021 19.08 10.8986 19.08C10.895 19.08 10.8799 19.1118 10.8651 19.1507ZM14.5965 19.3034C14.5965 19.3402 14.6138 19.4106 14.6349 19.4597C14.6591 19.516 14.6733 19.5243 14.6733 19.482C14.6733 19.4452 14.656 19.3748 14.6349 19.3257C14.6106 19.2694 14.5965 19.2612 14.5965 19.3034ZM12.6552 19.3651C12.6385 19.4089 12.626 19.4783 12.6275 19.5192C12.6294 19.5686 12.6449 19.5573 12.6735 19.4858C12.6972 19.4265 12.7097 19.3572 12.7012 19.3317C12.6927 19.3064 12.6721 19.3213 12.6552 19.3651ZM12.631 19.7947C12.631 19.8316 12.6483 19.9019 12.6694 19.9511C12.6936 20.0074 12.7078 20.0156 12.7078 19.9734C12.7078 19.9366 12.6905 19.8662 12.6694 19.8171C12.6452 19.7608 12.631 19.7525 12.631 19.7947ZM14.3921 20.3211C14.2345 20.5098 14.2315 20.5178 14.3624 20.3978C14.4865 20.2841 14.6224 20.1041 14.5806 20.1089C14.5736 20.1097 14.4888 20.2051 14.3921 20.3211ZM12.8034 20.2554C12.8034 20.2631 12.8674 20.3284 12.9457 20.4006L13.0881 20.5318L12.9792 20.3891C12.8868 20.2679 12.8034 20.2045 12.8034 20.2554ZM10.9304 20.4063C10.9287 20.4601 10.9474 20.5166 10.972 20.5318C11.0248 20.5644 11.0248 20.5207 10.972 20.3978C10.935 20.3117 10.9334 20.3119 10.9304 20.4063ZM13.3549 20.654C13.3832 20.672 13.517 20.6868 13.6521 20.6868C13.7873 20.6868 13.921 20.672 13.9494 20.654C13.9778 20.6359 13.844 20.6211 13.6521 20.6211C13.4603 20.6211 13.3265 20.6359 13.3549 20.654ZM11.9149 21.8712C12.1307 22.0425 12.5395 22.2697 12.7141 22.3152C12.7755 22.3313 12.685 22.2765 12.5131 22.1934C12.3411 22.1103 12.1047 21.9688 11.9879 21.8789C11.8709 21.789 11.7625 21.7155 11.747 21.7155C11.7315 21.7155 11.8071 21.7855 11.9149 21.8712ZM15.203 21.9576C14.9553 22.1292 14.8632 22.2183 15.0592 22.0969C15.3354 21.9258 15.5029 21.805 15.4605 21.8073C15.4364 21.8087 15.3204 21.8763 15.203 21.9576ZM14.6572 22.2548C14.5589 22.302 14.5288 22.3282 14.5902 22.3129C14.7167 22.2814 14.9489 22.165 14.8806 22.1674C14.856 22.1681 14.7555 22.2076 14.6572 22.2548ZM12.9598 22.3856C13.0089 22.4067 13.0792 22.424 13.1161 22.424C13.1583 22.424 13.1501 22.4098 13.0938 22.3856C13.0446 22.3645 12.9743 22.3472 12.9374 22.3472C12.8952 22.3472 12.9035 22.3613 12.9598 22.3856ZM14.2105 22.3856C14.1542 22.4098 14.146 22.424 14.1882 22.424C14.225 22.424 14.2954 22.4067 14.3445 22.3856C14.4008 22.3613 14.4091 22.3472 14.3668 22.3472C14.33 22.3472 14.2596 22.3645 14.2105 22.3856ZM13.4846 22.4627C13.5768 22.4725 13.7275 22.4725 13.8196 22.4627C13.9118 22.4531 13.8364 22.4452 13.6521 22.4452C13.4679 22.4452 13.3925 22.4531 13.4846 22.4627Z" fill="#6484C4"/>
<path fill-rule="evenodd" clip-rule="evenodd" d="M13.5745 16.8787C13.6425 16.889 13.743 16.8888 13.7978 16.8781C13.8528 16.8675 13.7973 16.859 13.6744 16.8594C13.5516 16.8597 13.5066 16.8684 13.5745 16.8787ZM11.6842 17.6842L11.5303 17.8517L11.6978 17.6978C11.8537 17.5544 11.8858 17.5167 11.8517 17.5167C11.8443 17.5167 11.7689 17.5921 11.6842 17.6842Z" fill="#5C7CC4"/>
</svg>
