<svg width="42" height="39" viewBox="0 0 42 39" fill="none" xmlns="http://www.w3.org/2000/svg">
<path d="M14.5413 6.02539C14.5413 9.34779 17.2443 12.0508 20.5667 12.0508C23.8891 12.0508 26.5921 9.34779 26.5921 6.02539C26.5921 2.70299 23.8891 0 20.5667 0C17.2443 0 14.5413 2.70299 14.5413 6.02539ZM24.1819 6.02539C24.1819 8.01883 22.5602 9.64062 20.5667 9.64062C18.5733 9.64062 16.9515 8.01883 16.9515 6.02539C16.9515 4.03195 18.5733 2.41016 20.5667 2.41016C22.5602 2.41016 24.1819 4.03195 24.1819 6.02539Z" fill="#5AD5DE"/>
<path d="M18.86 6.02734L20.564 4.32336L22.2679 6.02734L20.564 7.73132L18.86 6.02734Z" fill="#5AD5DE"/>
<path d="M31.4124 21.6914H33.8226V24.1016H31.4124V21.6914Z" fill="#040484"/>
<path d="M32.3292 15.4576C32.2226 13.6155 30.7055 12.0508 28.7177 12.0508H26.8765C25.3061 12.0508 23.9766 13.0355 23.4681 14.4609H15.7464C11.0687 14.4609 7.07341 17.4376 5.55469 21.596C3.78121 21.2003 2.41016 19.6102 2.41016 17.7725V16.8711H0V17.7725C0 20.81 2.18529 23.3076 4.98629 23.9414C4.92989 24.3887 4.90065 24.8443 4.90065 25.3066C4.90065 28.9554 6.7392 32.2758 9.72096 34.277V38.5625H16.9514V36.1523H26.5921V38.5625H33.8225V34.296C34.9809 33.5086 35.9831 32.4999 36.7673 31.332H41.1333V21.6914H37.9878C37.0126 18.9307 34.9722 16.6829 32.3292 15.4576ZM26.8765 14.4609H28.7177C29.612 14.4609 30.1969 15.4023 29.7956 16.2049L28.875 18.0461C28.6664 18.4632 28.2635 18.7123 27.7971 18.7123C27.3308 18.7123 26.9279 18.4632 26.7192 18.0461L25.7986 16.2049C25.3988 15.4051 25.9792 14.4609 26.8765 14.4609ZM38.7232 28.9219H35.4078L35.0592 29.5207C33.6766 31.8962 31.7002 32.7314 31.4123 32.9447V36.1523H29.0021V33.7422H14.5413V36.1523H12.1311V32.9173L11.5322 32.5687C8.8889 31.0303 7.31081 28.3156 7.31081 25.3066C7.31081 20.6553 11.095 16.8711 15.7464 16.8711H23.468C23.5177 17.0105 23.5756 17.148 23.643 17.2828L24.5636 19.124C25.1799 20.3567 26.4189 21.1224 27.7971 21.1224C29.1753 21.1224 30.4143 20.3567 31.0307 19.124L31.6801 17.8251C33.7709 18.9212 35.3257 20.8638 35.9304 23.1987L36.1642 24.1016H38.7232V28.9219Z" fill="#040484"/>
</svg>
