<svg width="35" height="38" viewBox="0 0 35 38" fill="none" xmlns="http://www.w3.org/2000/svg">
<path fill-rule="evenodd" clip-rule="evenodd" d="M20.3885 6.52882C20.1124 6.80835 19.8957 7.03713 19.9071 7.03713C19.9186 7.03713 19.9059 7.06089 19.8791 7.08997C19.8522 7.11904 19.8217 7.13864 19.8113 7.13343C19.8009 7.12832 19.4649 7.45396 19.0647 7.85707C18.6644 8.26027 18.3484 8.59009 18.3622 8.59009C18.376 8.59009 18.3478 8.61992 18.2995 8.65637C18.2512 8.69283 17.883 9.05247 17.4813 9.45568C17.0796 9.85878 16.7364 10.203 16.7187 10.2206C16.7009 10.2382 15.9237 11.0069 14.9916 11.929C14.0594 12.8511 13.3105 13.6191 13.3274 13.636C13.3441 13.6527 16.1697 13.662 19.6064 13.6566L25.8547 13.6467L26.5071 12.9934C27.2205 12.2789 27.2439 12.2382 27.0549 12.0405C26.9386 11.9187 26.7807 11.642 26.7807 11.5598C26.7807 11.5306 26.7636 11.5066 26.7428 11.5066C26.7219 11.5066 26.7049 11.4555 26.7049 11.393C26.7049 11.3305 26.6879 11.2794 26.667 11.2794C26.645 11.2794 26.6291 11.1539 26.6291 10.9786C26.6291 10.8132 26.6462 10.6673 26.667 10.6544C26.6879 10.6415 26.7049 10.5723 26.7049 10.5006C26.7049 10.4289 26.7219 10.3703 26.7428 10.3703C26.7636 10.3703 26.7807 10.3482 26.7807 10.3211C26.7807 10.2514 26.8698 10.068 26.9038 10.0676C26.9194 10.0674 26.9322 10.0501 26.9322 10.029C26.9322 10.008 26.9833 9.93738 27.0458 9.87195C27.2217 9.68786 27.1998 9.59023 26.9171 9.29905C26.7838 9.16184 26.6645 9.05976 26.652 9.07226C26.6394 9.08486 26.6291 9.06384 26.6291 9.02568C26.6291 8.98751 26.6194 8.96592 26.6076 8.97786C26.5863 8.99916 26.4848 8.89955 25.5212 7.91143C25.2556 7.63899 25.0383 7.42527 25.0383 7.43635C25.0383 7.44753 24.8721 7.28418 24.669 7.07339C23.554 5.91634 23.5788 5.93462 23.3746 6.12542C23.3092 6.18641 23.2052 6.25875 23.1433 6.28621C23.0815 6.31358 23.0308 6.3488 23.0308 6.36462C23.0308 6.38034 22.9967 6.39322 22.9551 6.39322C22.9134 6.39322 22.8793 6.41026 22.8793 6.43109C22.8793 6.45193 22.8282 6.46897 22.7657 6.46897C22.7032 6.46897 22.6521 6.48601 22.6521 6.50685C22.6521 6.52976 22.4879 6.54472 22.2354 6.54472C21.9829 6.54472 21.8188 6.52976 21.8188 6.50685C21.8188 6.48601 21.7676 6.46897 21.7051 6.46897C21.6426 6.46897 21.5915 6.45193 21.5915 6.43109C21.5915 6.41026 21.5574 6.39322 21.5157 6.39322C21.4741 6.39322 21.44 6.37617 21.44 6.35534C21.44 6.33451 21.4231 6.31746 21.4026 6.31746C21.3819 6.31746 21.3294 6.28763 21.2857 6.25118C21.2421 6.21472 21.1609 6.14654 21.1053 6.09967C20.9512 5.96965 20.9264 5.98443 20.3885 6.52882ZM25.8716 21.4304C25.8404 21.4506 25.7287 21.4675 25.6235 21.4677C25.5183 21.468 25.4158 21.4848 25.3956 21.505C25.3755 21.525 25.3026 21.5458 25.2337 21.5511C25.1647 21.5563 25.1 21.5739 25.09 21.5902C25.08 21.6065 25.0418 21.6198 25.0054 21.6198C24.945 21.6198 24.7034 21.7183 24.5369 21.8106C24.5007 21.8307 24.4453 21.8471 24.4138 21.8471C24.3823 21.8471 24.3565 21.8641 24.3565 21.885C24.3565 21.9058 24.3224 21.9228 24.2808 21.9228C24.2391 21.9228 24.205 21.9399 24.205 21.9607C24.205 21.9815 24.1827 21.9986 24.1553 21.9986C24.128 21.9986 24.069 22.0327 24.0243 22.0743C23.9796 22.116 23.9254 22.1501 23.9039 22.1501C23.8824 22.1501 23.8159 22.2012 23.7562 22.2637C23.6964 22.3262 23.6277 22.3774 23.6034 22.3774C23.542 22.3774 22.9551 22.9825 22.9551 23.0459C22.9551 23.0591 22.9039 23.1187 22.8414 23.1785C22.7789 23.2382 22.7278 23.3047 22.7278 23.3262C22.7278 23.3477 22.6937 23.4019 22.6521 23.4466C22.6104 23.4913 22.5763 23.5503 22.5763 23.5776C22.5763 23.605 22.5593 23.6273 22.5384 23.6273C22.5176 23.6273 22.5005 23.6614 22.5005 23.7031C22.5005 23.7447 22.4835 23.7788 22.4627 23.7788C22.4418 23.7788 22.4248 23.8129 22.4248 23.8546C22.4248 23.8962 22.4077 23.9303 22.3869 23.9303C22.3661 23.9303 22.349 23.9644 22.349 24.0061C22.349 24.0477 22.332 24.0818 22.3112 24.0818C22.2903 24.0818 22.2733 24.133 22.2733 24.1955C22.2733 24.258 22.2562 24.3091 22.2354 24.3091C22.2146 24.3091 22.1975 24.3592 22.1975 24.4205C22.1975 24.4817 22.1805 24.5424 22.1596 24.5553C22.1388 24.5682 22.1218 24.6255 22.1218 24.6826C22.1218 24.7397 22.1062 24.8025 22.0872 24.8223C21.9998 24.9134 21.9664 26.1195 22.0401 26.5249C22.0628 26.6499 22.0923 26.8163 22.1058 26.8946C22.1192 26.9729 22.1454 27.0463 22.1638 27.0577C22.1824 27.0692 22.1975 27.1119 22.1975 27.1526C22.1975 27.1933 22.2124 27.2562 22.2307 27.2924C22.3725 27.5741 22.4248 27.6946 22.4248 27.7406C22.4248 27.7698 22.4386 27.7938 22.4556 27.7938C22.4725 27.7938 22.5098 27.8534 22.5384 27.9264C22.567 27.9993 22.6043 28.0589 22.6213 28.0589C22.6382 28.0589 22.6521 28.0847 22.6521 28.1161C22.6521 28.1476 22.7032 28.2267 22.7657 28.2922C22.8282 28.3576 22.8793 28.425 22.8793 28.4421C22.8793 28.5392 23.5891 29.2361 23.7978 29.3437C23.8551 29.3733 23.902 29.4116 23.902 29.4289C23.902 29.4462 23.9243 29.4604 23.9517 29.4604C23.979 29.4604 24.038 29.4945 24.0827 29.5361C24.1274 29.5778 24.1902 29.6119 24.2223 29.6119C24.2544 29.6119 24.2808 29.6289 24.2808 29.6498C24.2808 29.6706 24.3149 29.6876 24.3565 29.6876C24.3982 29.6876 24.4323 29.7047 24.4323 29.7255C24.4323 29.7464 24.4664 29.7634 24.508 29.7634C24.5497 29.7634 24.5838 29.7804 24.5838 29.8013C24.5838 29.8221 24.6264 29.8392 24.6785 29.8392C24.7306 29.8392 24.7732 29.8562 24.7732 29.877C24.7732 29.8979 24.8062 29.9149 24.8467 29.9149C24.8871 29.9149 24.9307 29.932 24.9436 29.9528C24.9565 29.9736 25.0247 29.9907 25.0951 29.9907C25.1656 29.9907 25.2338 30.0077 25.2466 30.0285C25.2595 30.0494 25.3338 30.0664 25.4118 30.0664C25.4897 30.0664 25.5708 30.0837 25.592 30.105C25.6177 30.1307 26.6799 30.1371 28.8096 30.1241C33.1025 30.098 33.312 30.098 34.214 30.1239L35 30.1465V25.7926C35 21.8572 34.9942 21.4363 34.9401 21.4156C34.7652 21.3484 33.561 21.3922 33.4849 21.4683C33.4146 21.5386 33.3587 21.5441 32.7084 21.5441C32.0582 21.5441 32.0022 21.5386 31.9319 21.4683C31.8469 21.3833 26.0011 21.3467 25.8716 21.4304ZM27.1784 23.3415C27.8193 23.4548 28.1723 23.6239 28.5627 24.0048C29.8371 25.2484 29.5063 27.2854 27.9072 28.041C26.5486 28.6831 25.0743 28.0384 24.4791 26.5418C23.9561 25.2267 24.9751 23.6109 26.4966 23.3427C26.8503 23.2804 26.8326 23.2804 27.1784 23.3415ZM26.686 24.875C25.9511 25.0004 25.6606 25.9252 26.1911 26.4499C26.435 26.6911 26.7345 26.7912 27.0174 26.7259C28.2385 26.4447 27.9197 24.6643 26.686 24.875Z" fill="#FE8B38"/>
<path fill-rule="evenodd" clip-rule="evenodd" d="M21.5252 0.0177109C21.4575 0.0270855 21.4021 0.050664 21.4021 0.0701707C21.4021 0.0896775 21.368 0.105681 21.3264 0.105681C21.2847 0.105681 21.2506 0.122725 21.2506 0.143558C21.2506 0.16439 21.2165 0.181435 21.1749 0.181435C21.1332 0.181435 21.0991 0.198479 21.0991 0.219312C21.0991 0.240144 21.0688 0.257189 21.0317 0.257189C20.9947 0.257189 20.9397 0.291278 20.9097 0.332943C20.8797 0.374608 20.8323 0.408698 20.8043 0.408698C20.7765 0.408698 17.7796 3.38281 14.1448 7.01778L7.53596 13.6268L4.91449 13.6414C2.39007 13.6556 1.93327 13.6715 1.93327 13.7452C1.93327 13.764 1.88214 13.7793 1.81964 13.7793C1.75714 13.7793 1.70601 13.7964 1.70601 13.8172C1.70601 13.838 1.67296 13.8551 1.63253 13.8551C1.59209 13.8551 1.54844 13.8721 1.53556 13.893C1.52268 13.9138 1.47903 13.9308 1.4386 13.9308C1.39816 13.9308 1.36512 13.9479 1.36512 13.9687C1.36512 13.9895 1.33955 14.0066 1.3083 14.0066C1.27705 14.0066 1.25148 14.0236 1.25148 14.0445C1.25148 14.0653 1.22942 14.0823 1.20234 14.0823C1.17535 14.0823 1.08662 14.1505 1.00528 14.2338C0.923941 14.3172 0.83815 14.3854 0.814571 14.3854C0.791087 14.3854 0.747718 14.4322 0.718174 14.4895C0.688535 14.5468 0.617516 14.6388 0.560226 14.6941C0.502937 14.7494 0.456064 14.818 0.456064 14.8467C0.456064 14.8754 0.421975 14.9235 0.38031 14.9535C0.338645 14.9835 0.304556 15.0385 0.304556 15.0755C0.304556 15.1126 0.287511 15.1429 0.266679 15.1429C0.245846 15.1429 0.228802 15.1687 0.228802 15.2002C0.228802 15.2559 0.212988 15.2961 0.121041 15.4738C0.0969891 15.5204 0.077293 15.6174 0.077293 15.6894C0.077293 15.7613 0.0602483 15.8307 0.0394159 15.8436C-0.0131386 15.8761 -0.0131386 35.7481 0.0394159 35.7481C0.0602483 35.7481 0.077293 35.8162 0.077293 35.8996C0.077293 35.9829 0.0943376 36.0511 0.11517 36.0511C0.136002 36.0511 0.153047 36.1022 0.153047 36.1647C0.153047 36.2272 0.170092 36.2783 0.190924 36.2783C0.211757 36.2783 0.228802 36.3124 0.228802 36.3541C0.228802 36.3958 0.245846 36.4298 0.266679 36.4298C0.287511 36.4298 0.304556 36.4639 0.304556 36.5056C0.304556 36.5473 0.3216 36.5814 0.342433 36.5814C0.363265 36.5814 0.38031 36.6117 0.38031 36.6488C0.38031 36.6858 0.414399 36.7407 0.456064 36.7707C0.497729 36.8008 0.531818 36.8403 0.531818 36.8587C0.531818 36.8965 1.0103 37.3768 1.04789 37.3768C1.06125 37.3768 1.09988 37.4066 1.13378 37.4431C1.16778 37.4795 1.23595 37.5323 1.28548 37.5603C1.335 37.5882 1.43329 37.6436 1.50403 37.6834C1.57477 37.7231 1.66472 37.7555 1.70402 37.7555C1.74332 37.7555 1.78252 37.7768 1.79123 37.8029C1.80383 37.8407 4.83172 37.8502 16.7622 37.8502C28.6926 37.8502 31.7205 37.8407 31.7331 37.8029C31.7418 37.7768 31.781 37.7555 31.8203 37.7555C31.8596 37.7555 31.9496 37.7231 32.0203 37.6834C32.091 37.6436 32.1893 37.5882 32.2389 37.5603C32.2884 37.5323 32.3566 37.4795 32.3906 37.4431C32.4245 37.4066 32.4631 37.3768 32.4764 37.3768C32.514 37.3768 32.9925 36.8965 32.9925 36.8587C32.9925 36.8403 33.0266 36.8008 33.0683 36.7707C33.1099 36.7407 33.144 36.6858 33.144 36.6488C33.144 36.6117 33.1611 36.5814 33.1819 36.5814C33.2027 36.5814 33.2198 36.5473 33.2198 36.5056C33.2198 36.4639 33.2368 36.4298 33.2577 36.4298C33.2785 36.4298 33.2955 36.3958 33.2955 36.3541C33.2955 36.3124 33.3126 36.2783 33.3334 36.2783C33.3542 36.2783 33.3713 36.2272 33.3713 36.1647C33.3713 36.1022 33.3883 36.0511 33.4092 36.0511C33.43 36.0511 33.447 35.9829 33.447 35.8996C33.447 35.8162 33.4641 35.7481 33.4849 35.7481C33.5098 35.7481 33.5228 34.7885 33.5228 32.9451V30.1422H32.7084H31.8941V32.8126C31.8941 34.5675 31.8811 35.4829 31.8562 35.4829C31.8354 35.4829 31.8183 35.5255 31.8183 35.5776C31.8183 35.6297 31.8013 35.6723 31.7804 35.6723C31.7596 35.6723 31.7426 35.6983 31.7426 35.7302C31.7426 35.9041 31.1971 36.2783 30.9436 36.2783C30.8622 36.2783 30.7956 36.2954 30.7956 36.3162C30.7956 36.3414 26.6734 36.3541 18.5045 36.3541H6.21339V25.8053V15.2565H18.6159C26.8434 15.2565 31.0263 15.2693 31.0418 15.2944C31.0547 15.3152 31.0984 15.3323 31.1388 15.3323C31.1792 15.3323 31.2123 15.3493 31.2123 15.3702C31.2123 15.391 31.2377 15.408 31.2686 15.408C31.4175 15.408 31.8183 15.8634 31.8183 16.0325C31.8183 16.0641 31.8354 16.0898 31.8562 16.0898C31.8811 16.0898 31.8941 17.0052 31.8941 18.7602V21.4305H32.7089H33.5237L33.5096 18.6371C33.4961 15.9655 33.4812 15.5217 33.4052 15.5217C33.3865 15.5217 33.3713 15.4791 33.3713 15.427C33.3713 15.3749 33.3542 15.3323 33.3334 15.3323C33.3126 15.3323 33.2955 15.2897 33.2955 15.2376C33.2955 15.1855 33.2785 15.1429 33.2577 15.1429C33.2368 15.1429 33.2198 15.1126 33.2198 15.0755C33.2198 15.0385 33.1857 14.9835 33.144 14.9535C33.1024 14.9235 33.0683 14.8754 33.0683 14.8467C33.0683 14.818 33.0214 14.7494 32.9641 14.6941C32.9068 14.6388 32.8367 14.5487 32.8084 14.4937C32.7801 14.4387 32.7127 14.3705 32.6585 14.3422C32.6045 14.3139 32.515 14.2438 32.4598 14.1865C32.4046 14.1292 32.3399 14.0823 32.3161 14.0823C32.2924 14.0823 32.2729 14.0653 32.2729 14.0445C32.2729 14.0236 32.2515 14.0062 32.2255 14.0057C32.1995 14.0053 32.1355 13.9715 32.0835 13.9308C32.0314 13.8901 31.9504 13.8564 31.9035 13.8559C31.8567 13.8555 31.8183 13.838 31.8183 13.8172C31.8183 13.7964 31.7745 13.7793 31.7209 13.7793C31.5145 13.7793 31.4929 13.6797 31.6654 13.5233C31.834 13.3704 32.3963 12.8097 32.7179 12.4736C32.8273 12.3592 32.9168 12.2398 32.9168 12.2082C32.9168 12.1766 32.9338 12.1506 32.9546 12.1506C32.9755 12.1506 32.9925 12.1165 32.9925 12.0749C32.9925 12.0332 33.0096 11.9991 33.0304 11.9991C33.0512 11.9991 33.0683 11.965 33.0683 11.9233C33.0683 11.8817 33.0853 11.8476 33.1061 11.8476C33.127 11.8476 33.144 11.805 33.144 11.7529C33.144 11.7008 33.1611 11.6582 33.1819 11.6582C33.2027 11.6582 33.2198 11.5911 33.2198 11.509C33.2198 11.4269 33.2368 11.3491 33.2577 11.3362C33.2788 11.3232 33.2955 11.1465 33.2955 10.9363C33.2955 10.7105 33.2804 10.5598 33.2577 10.5598C33.2368 10.5598 33.2198 10.4916 33.2198 10.4083C33.2198 10.3249 33.2027 10.2568 33.1819 10.2568C33.1611 10.2568 33.144 10.2056 33.144 10.1431C33.144 10.0806 33.127 10.0295 33.1061 10.0295C33.0853 10.0295 33.0683 9.9954 33.0683 9.95373C33.0683 9.91207 33.0512 9.87798 33.0304 9.87798C33.0096 9.87798 32.9925 9.84389 32.9925 9.80222C32.9925 9.76056 32.9755 9.72647 32.9546 9.72647C32.9338 9.72647 32.9168 9.70403 32.9168 9.67647C32.9168 9.6243 32.4871 9.1443 32.2017 8.87764C32.1105 8.79242 31.7403 8.42444 31.3789 8.05988C31.0175 7.69531 30.6894 7.36502 30.6499 7.32601C30.6103 7.2869 30.2626 6.93957 29.8772 6.55417C29.4918 6.16877 29.1401 5.81727 29.0957 5.77305C29.0513 5.72873 28.6827 5.36019 28.2765 4.95395C27.8704 4.54772 27.523 4.20058 27.5046 4.18258C27.4647 4.14357 26.0084 2.68748 25.9612 2.63928C25.2409 1.9056 23.6311 0.332943 23.6003 0.332943C23.577 0.332943 23.5213 0.298854 23.4766 0.257189C23.4319 0.215524 23.373 0.181435 23.3457 0.181435C23.3183 0.181435 23.296 0.16439 23.296 0.143558C23.296 0.122725 23.2463 0.105681 23.1855 0.105681C23.1248 0.105681 23.068 0.0843747 23.0592 0.0583341C23.0434 0.0107036 21.8121 -0.0218707 21.5252 0.0177109ZM22.5006 1.62077C22.5006 1.6416 22.5256 1.65864 22.5564 1.65864C22.6623 1.65864 31.5911 10.6238 31.5911 10.7301C31.5911 10.7823 31.6081 10.8249 31.6289 10.8249C31.6498 10.8249 31.6668 10.875 31.6668 10.9363C31.6668 10.9975 31.6498 11.0582 31.6289 11.0711C31.6081 11.084 31.5911 11.1275 31.5911 11.1678C31.5911 11.2601 31.2558 11.6261 30.5648 12.2884C30.4314 12.4162 30.0787 12.7699 29.7813 13.0743L29.2403 13.6278H27.5545C25.9434 13.6278 25.8621 13.6311 25.7201 13.7036C25.5734 13.7784 25.4968 13.7793 19.4884 13.7793C13.5105 13.7793 13.2107 13.7737 13.2786 13.6638C13.2925 13.6413 12.6692 13.6278 11.6131 13.6278C10.6849 13.6278 9.92534 13.6201 9.92534 13.6108C9.92534 13.5636 21.8679 1.65864 21.9152 1.65864C21.9455 1.65864 21.9703 1.6416 21.9703 1.62077C21.9703 1.59908 22.0839 1.58289 22.2354 1.58289C22.3869 1.58289 22.5006 1.59908 22.5006 1.62077ZM4.58467 25.8053V36.3541H3.65668C3.06324 36.3541 2.72869 36.3405 2.72869 36.3162C2.72869 36.2954 2.64347 36.2783 2.53931 36.2783C2.43514 36.2783 2.34992 36.2655 2.34992 36.2497C2.34992 36.2339 2.29538 36.197 2.22881 36.1674C2.08061 36.1019 1.78176 35.8095 1.78176 35.7302C1.78176 35.6983 1.76472 35.6723 1.74389 35.6723C1.72305 35.6723 1.70601 35.6297 1.70601 35.5776C1.70601 35.5255 1.68896 35.4829 1.66813 35.4829C1.64294 35.4829 1.63026 32.2255 1.63026 25.7864C1.63026 19.3473 1.64294 16.0898 1.66813 16.0898C1.68896 16.0898 1.70601 16.0641 1.70601 16.0325C1.70601 15.8562 2.02702 15.4972 2.29367 15.3753C2.35589 15.3468 2.4323 15.3095 2.46355 15.2922C2.4948 15.2751 2.98484 15.2599 3.55252 15.2588L4.58467 15.2565V25.8053ZM26.2693 23.4472C25.6172 23.6709 25.1992 23.9508 24.9253 24.347C24.8749 24.42 24.8233 24.4881 24.8107 24.4985C24.7632 24.5377 24.5459 25.0269 24.5459 25.0946C24.5459 25.1335 24.5266 25.1845 24.503 25.2081C24.4404 25.2707 24.4432 26.219 24.5065 26.4113C24.7189 27.0564 25.0303 27.4833 25.5307 27.8155C25.7255 27.9449 25.8087 27.9846 26.2125 28.1404C26.4184 28.2199 27.315 28.2068 27.5571 28.1207C28.721 27.7074 29.3984 26.6572 29.2464 25.5023C29.1724 24.9412 29.0348 24.6349 28.6366 24.1448C28.466 23.9347 27.9447 23.6028 27.6518 23.5175C27.5581 23.4903 27.4423 23.4527 27.3944 23.434C27.277 23.3883 26.4116 23.3984 26.2693 23.4472ZM27.0837 24.8127C27.5566 24.9394 27.8791 25.3494 27.8791 25.8238C27.8791 25.9258 27.8642 26.0184 27.8461 26.0295C27.828 26.0407 27.8035 26.0972 27.7918 26.1549C27.6323 26.9395 26.2918 27.0025 25.9607 26.2409C25.9291 26.168 25.8875 26.0787 25.8684 26.0425C25.5684 25.4738 26.4021 24.6301 27.0837 24.8127Z" fill="#04048C"/>
<path fill-rule="evenodd" clip-rule="evenodd" d="M16.4337 13.6955C18.1488 13.701 20.9442 13.701 22.6456 13.6955C24.3469 13.69 22.9437 13.6855 19.5272 13.6855C16.1107 13.6855 14.7186 13.69 16.4337 13.6955ZM31.9486 21.4866C32.0571 21.5736 33.3597 21.5736 33.4682 21.4866C33.5392 21.4297 33.5389 21.4291 33.459 21.4677C33.3492 21.5207 32.0676 21.5207 31.9579 21.4677C31.878 21.4291 31.8776 21.4297 31.9486 21.4866ZM26.6291 23.3244C26.5408 23.342 26.6166 23.3511 26.8564 23.3515C27.1341 23.3521 27.1817 23.3453 27.0647 23.3222C26.8891 23.2875 26.8117 23.2879 26.6291 23.3244ZM27.6518 23.4773C27.6831 23.4974 27.7342 23.514 27.7654 23.514C27.8159 23.514 27.8159 23.5099 27.7654 23.4773C27.7342 23.4571 27.6831 23.4405 27.6518 23.4405C27.6013 23.4405 27.6013 23.4446 27.6518 23.4773ZM25.4736 23.7397C25.3487 23.8217 25.1784 23.9617 25.0951 24.051L24.9436 24.2133L25.1388 24.0366C25.2461 23.9394 25.4209 23.8064 25.527 23.7411C25.6921 23.6395 25.7514 23.5909 25.7103 23.5909C25.7049 23.5909 25.5984 23.6578 25.4736 23.7397ZM28.2576 23.7683C28.3303 23.827 28.4752 23.9511 28.5795 24.0442L28.7692 24.2133L28.6224 24.0566C28.5416 23.9704 28.3968 23.8464 28.3005 23.7808C28.1508 23.679 28.1445 23.6772 28.2576 23.7683ZM24.7934 24.4147C24.7208 24.5137 24.6609 24.6103 24.6605 24.6294C24.6599 24.6484 24.6648 24.6569 24.6712 24.6483C24.8 24.4745 24.958 24.2348 24.9439 24.2348C24.9338 24.2348 24.866 24.3158 24.7934 24.4147ZM26.4303 24.9191C26.3522 24.9604 26.2882 25.0027 26.2882 25.0132C26.2882 25.0236 26.3436 25.0029 26.4113 24.9672C26.479 24.9315 26.6026 24.8905 26.686 24.8763L26.8375 24.8503L26.7049 24.8473C26.632 24.8456 26.5084 24.878 26.4303 24.9191ZM27.0458 24.878C27.1187 24.8936 27.2124 24.9184 27.2541 24.9331C27.3037 24.9505 27.2972 24.9397 27.2352 24.9016C27.1831 24.8696 27.0893 24.8449 27.0268 24.8465C26.9152 24.8494 26.9155 24.85 27.0458 24.878ZM27.3488 24.9663C27.3488 24.9757 27.4114 25.0311 27.4878 25.0894C27.5643 25.1477 27.615 25.1761 27.6003 25.1525C27.5704 25.104 27.3488 24.94 27.3488 24.9663ZM24.4558 25.1263C24.4429 25.1602 24.4337 25.2164 24.4355 25.2511C24.4373 25.2859 24.4538 25.264 24.4721 25.2026C24.5078 25.0831 24.4952 25.0239 24.4558 25.1263ZM26.0989 25.1817C26.0543 25.2442 26.0248 25.2954 26.0332 25.2954C26.0416 25.2954 26.094 25.2442 26.1497 25.1817C26.2054 25.1192 26.2349 25.0681 26.2153 25.0681C26.1958 25.0681 26.1434 25.1192 26.0989 25.1817ZM29.2995 25.7837C29.2995 26.0133 29.311 26.172 29.3252 26.1365C29.3577 26.055 29.3569 25.5706 29.3241 25.454C29.3106 25.4058 29.2995 25.5542 29.2995 25.7837ZM27.7816 25.7878C27.7816 26.0761 27.7853 26.093 27.8169 25.9487C27.8385 25.8498 27.8385 25.7257 27.8169 25.6268C27.7853 25.4826 27.7816 25.4994 27.7816 25.7878ZM25.8955 25.6078C25.8656 25.7193 25.8699 25.9024 25.9044 25.9899C25.9196 26.0288 25.9317 25.9407 25.9317 25.7911C25.9317 25.4965 25.929 25.4827 25.8955 25.6078ZM24.3686 25.7878C24.3686 25.9232 24.3755 25.9786 24.3839 25.9109C24.3923 25.8432 24.3923 25.7324 24.3839 25.6647C24.3755 25.597 24.3686 25.6523 24.3686 25.7878ZM27.6522 26.2984C27.6073 26.3711 27.5266 26.465 27.4728 26.5073C27.4191 26.5497 27.3838 26.5929 27.3945 26.6036C27.4175 26.6266 27.665 26.3591 27.7258 26.2456C27.7948 26.1166 27.7405 26.1556 27.6522 26.2984ZM24.4328 26.359C24.4331 26.4094 24.4502 26.4762 24.4707 26.5074C24.4968 26.5474 24.5007 26.5249 24.4836 26.4317C24.4536 26.2683 24.4321 26.2375 24.4328 26.359ZM26.061 26.3523C26.061 26.3669 26.1206 26.4368 26.1935 26.5074C26.2665 26.5781 26.3261 26.6258 26.3261 26.6133C26.3261 26.6009 26.2665 26.5311 26.1935 26.4582C26.1206 26.3853 26.061 26.3376 26.061 26.3523ZM29.247 26.3623C29.2446 26.397 29.2328 26.4567 29.2209 26.4948C29.2002 26.5606 29.2013 26.5607 29.2424 26.4967C29.2661 26.4597 29.278 26.4 29.2685 26.3642C29.2532 26.3055 29.251 26.3054 29.247 26.3623ZM26.5913 26.7347C26.6225 26.7549 26.6907 26.77 26.7428 26.7682L26.8375 26.765L26.7428 26.7347C26.5968 26.6879 26.5189 26.6879 26.5913 26.7347ZM26.97 26.7347L26.8753 26.765L26.97 26.7682C27.0221 26.77 27.0903 26.7549 27.1215 26.7347C27.1939 26.6879 27.116 26.6879 26.97 26.7347ZM28.812 27.2744C28.7289 27.3871 28.7043 27.4373 28.7552 27.3903C28.8352 27.3164 28.9998 27.0755 28.9702 27.0756C28.9638 27.0757 28.8926 27.1652 28.812 27.2744ZM24.9654 27.4053C25.0892 27.5435 25.1182 27.5717 25.2483 27.6808C25.3099 27.7324 25.2586 27.6685 25.1342 27.5387C24.9091 27.3039 24.7905 27.2101 24.9654 27.4053ZM28.1961 27.8458C28.131 27.8909 28.0457 27.9493 28.0067 27.9755C27.9678 28.0019 28.0052 27.9903 28.09 27.95C28.1746 27.9095 28.2663 27.8497 28.2935 27.8169C28.3566 27.7408 28.3416 27.7453 28.1961 27.8458ZM25.6065 27.9292C25.6065 27.9568 25.9894 28.1412 26.0208 28.1288C26.0371 28.1224 25.9505 28.0713 25.8284 28.0151C25.7064 27.959 25.6065 27.9203 25.6065 27.9292ZM27.7086 28.101C27.6253 28.1411 27.5997 28.1632 27.6518 28.1503C27.7591 28.1235 27.956 28.0249 27.898 28.0269C27.8772 28.0275 27.792 28.061 27.7086 28.101ZM26.6954 28.2775C26.784 28.2855 26.9288 28.2855 27.0174 28.2775C27.1059 28.2696 27.0335 28.263 26.8564 28.263C26.6793 28.263 26.6069 28.2696 26.6954 28.2775ZM32.36 30.0961C32.5642 30.103 32.888 30.1029 33.0797 30.0961C33.2713 30.0892 33.1042 30.0836 32.7084 30.0837C32.3126 30.0837 32.1558 30.0893 32.36 30.0961Z" fill="#5C85AC"/>
<path fill-rule="evenodd" clip-rule="evenodd" d="M16.4338 13.7707C18.128 13.7762 20.8893 13.7762 22.5699 13.7707C24.2504 13.7652 22.8642 13.7607 19.4893 13.7607C16.1145 13.7607 14.7394 13.7652 16.4338 13.7707ZM32.3391 21.4596C32.5527 21.4664 32.9021 21.4664 33.1156 21.4596C33.3291 21.4528 33.1544 21.4473 32.7274 21.4473C32.3003 21.4473 32.1256 21.4528 32.3391 21.4596ZM26.6386 23.3911C26.7584 23.3986 26.9544 23.3986 27.0742 23.3911C27.194 23.3835 27.096 23.3774 26.8564 23.3774C26.6168 23.3774 26.5188 23.3835 26.6386 23.3911ZM26.2125 23.4388C26.1345 23.4638 26.1312 23.4697 26.1936 23.4723C26.2352 23.4741 26.2949 23.459 26.3261 23.4388C26.3925 23.3959 26.3464 23.3959 26.2125 23.4388ZM27.3867 23.4371C27.4179 23.4582 27.4762 23.4758 27.5161 23.4761C27.613 23.4769 27.5828 23.4552 27.4435 23.4241C27.3606 23.4055 27.3452 23.409 27.3867 23.4371ZM25.7726 23.6076C25.6291 23.6795 25.4521 23.791 25.3792 23.8554C25.2565 23.9636 25.2611 23.9623 25.4409 23.8379C25.5478 23.764 25.7438 23.6532 25.8764 23.5918C26.0092 23.5304 26.0988 23.4794 26.0756 23.4784C26.0523 23.4775 25.9159 23.5356 25.7726 23.6076ZM28.1821 23.7537C28.1821 23.7631 28.2447 23.8184 28.3211 23.8768C28.3976 23.9351 28.4483 23.9635 28.4336 23.9398C28.4037 23.8914 28.1821 23.7274 28.1821 23.7537ZM24.8853 24.35C24.8399 24.4138 24.8091 24.4722 24.8168 24.4799C24.8246 24.4876 24.8692 24.4356 24.916 24.3641C25.0216 24.2031 24.9977 24.1922 24.8853 24.35ZM28.9397 24.542C28.9397 24.5749 29.0568 24.8024 29.0738 24.8024C29.0821 24.8024 29.078 24.7726 29.0648 24.7361C29.0375 24.6609 28.9397 24.5091 28.9397 24.542ZM26.6879 24.7987C26.6419 24.8167 26.7057 24.8277 26.8564 24.8277C27.0072 24.8277 27.0709 24.8167 27.025 24.7987C26.9843 24.7829 26.9085 24.7698 26.8564 24.7698C26.8043 24.7698 26.7285 24.7829 26.6879 24.7987ZM29.1675 25.0896C29.1678 25.1296 29.1854 25.1878 29.2065 25.219C29.2346 25.2605 29.2381 25.2452 29.2196 25.1622C29.1884 25.0229 29.1667 24.9927 29.1675 25.0896ZM29.2594 25.7872C29.2601 26.2108 29.2636 26.2358 29.2927 26.0239C29.3109 25.8907 29.3105 25.6837 29.2918 25.5505C29.262 25.3384 29.2587 25.363 29.2594 25.7872ZM24.412 25.6157C24.3976 25.7505 24.4008 25.9422 24.4192 26.0418C24.4474 26.1953 24.4528 26.1581 24.4547 25.7967C24.4572 25.3075 24.4489 25.2722 24.412 25.6157ZM25.8567 25.582C25.8241 25.6671 25.8281 26.0066 25.8621 26.0274C25.8778 26.037 25.8906 25.9273 25.8906 25.7834C25.8906 25.4975 25.8901 25.495 25.8567 25.582ZM27.8223 25.7872C27.8223 25.9291 27.8351 26.0372 27.8507 26.0275C27.8872 26.005 27.8868 25.6306 27.8501 25.573C27.8348 25.549 27.8223 25.6454 27.8223 25.7872ZM25.9852 26.3038C25.9852 26.3481 26.3427 26.6963 26.3882 26.6963C26.4032 26.6963 26.3444 26.6354 26.2574 26.5609C26.1705 26.4865 26.0736 26.3889 26.0422 26.3442C26.0109 26.2994 25.9852 26.2812 25.9852 26.3038ZM27.4056 26.6063C27.3431 26.6595 27.3261 26.6857 27.3678 26.6645C27.481 26.6071 27.6004 26.5092 27.5571 26.5094C27.5363 26.5095 27.4681 26.5531 27.4056 26.6063ZM29.0911 26.7155C29.0712 26.7677 29.0286 26.8614 28.9964 26.9238C28.9641 26.9861 28.9462 27.0372 28.9566 27.0372C28.9784 27.0372 29.0757 26.8553 29.129 26.7155C29.1488 26.6632 29.1565 26.6205 29.1461 26.6205C29.1357 26.6205 29.111 26.6632 29.0911 26.7155ZM26.7333 26.7994C26.801 26.8078 26.9118 26.8078 26.9795 26.7994C27.0472 26.791 26.9918 26.7841 26.8564 26.7841C26.721 26.7841 26.6656 26.791 26.7333 26.7994ZM28.8259 27.1981C28.7702 27.2743 28.761 27.3008 28.8019 27.2675C28.864 27.2171 28.9579 27.075 28.9292 27.075C28.922 27.075 28.8755 27.1304 28.8259 27.1981ZM24.9517 27.3212C25.0695 27.4726 25.3414 27.7489 25.3412 27.7169C25.3412 27.7076 25.227 27.5807 25.0876 27.4349C24.948 27.289 24.8869 27.2379 24.9517 27.3212ZM28.5492 27.5156C28.4491 27.6112 28.3734 27.6956 28.3811 27.7032C28.3887 27.7109 28.4786 27.6324 28.5807 27.5287C28.8135 27.2923 28.7925 27.2836 28.5492 27.5156ZM26.4848 28.217C26.5329 28.2306 26.7002 28.2416 26.8564 28.2416C27.0127 28.2416 27.1799 28.2306 27.228 28.217C27.2761 28.2035 27.1089 28.1924 26.8564 28.1924C26.604 28.1924 26.4367 28.2035 26.4848 28.217ZM32.3391 30.1334C32.5527 30.1402 32.9021 30.1402 33.1156 30.1334C33.3291 30.1267 33.1544 30.1212 32.7274 30.1212C32.3003 30.1212 32.1256 30.1267 32.3391 30.1334Z" fill="#38569F"/>
<path fill-rule="evenodd" clip-rule="evenodd" d="M16.4148 13.7326C18.1195 13.7381 20.8978 13.7381 22.5888 13.7326C24.2797 13.7271 22.885 13.7227 19.4893 13.7227C16.0936 13.7227 14.7101 13.7271 16.4148 13.7326ZM32.3601 21.4972C32.5642 21.5041 32.8881 21.504 33.0797 21.4972C33.2713 21.4903 33.1043 21.4847 32.7084 21.4848C32.3126 21.4848 32.1558 21.4904 32.3601 21.4972Z" fill="#4C74A4"/>
</svg>
