<svg width="120" height="120" viewBox="0 0 187 222" fill="none" xmlns="http://www.w3.org/2000/svg">
<g filter="url(#filter0_d)">
<path d="M95.9861 190.24C96.6179 191.822 98.4149 192.597 99.9755 191.915C111.189 187.008 121.358 179.976 129.915 171.197C139.191 161.681 146.366 150.325 150.977 137.862C155.588 125.399 157.533 112.107 156.686 98.8461C155.838 85.5846 152.217 72.6487 146.056 60.8744C139.896 49.1002 131.333 38.7498 120.922 30.4922C110.51 22.2347 98.4821 16.2539 85.6143 12.9365C72.7466 9.61905 59.3259 9.03881 46.2199 11.2333C34.1287 13.2578 22.5536 17.6024 12.1291 24.0173C10.6784 24.91 10.2904 26.8281 11.2298 28.2491C12.1692 29.6701 14.08 30.0556 15.5328 29.1661C25.2358 23.2254 35.9987 19.1992 47.2386 17.3172C59.4934 15.2653 72.0424 15.8079 84.0743 18.9098C96.1063 22.0118 107.353 27.6041 117.089 35.3253C126.824 43.0465 134.83 52.7247 140.591 63.7342C146.351 74.7437 149.737 86.8394 150.529 99.2395C151.322 111.64 149.504 124.068 145.192 135.721C140.88 147.375 134.171 157.993 125.498 166.891C117.543 175.052 108.099 181.599 97.6861 186.183C96.1271 186.869 95.3543 188.659 95.9861 190.24Z" fill="url(#paint0_linear)"/>
</g>
<defs>
<filter id="filter0_d" x="0.935929" y="0.146501" width="185.291" height="221.366" filterUnits="userSpaceOnUse" color-interpolation-filters="sRGB">
<feFlood flood-opacity="0" result="BackgroundImageFix"/>
<feColorMatrix in="SourceAlpha" type="matrix" values="0 0 0 0 0 0 0 0 0 0 0 0 0 0 0 0 0 0 127 0"/>
<feOffset dx="9.78282" dy="9.78282"/>
<feGaussianBlur stdDeviation="9.78282"/>
<feColorMatrix type="matrix" values="0 0 0 0 0.0862745 0 0 0 0 0.882353 0 0 0 0 0.898039 0 0 0 0.15 0"/>
<feBlend mode="normal" in2="BackgroundImageFix" result="effect1_dropShadow"/>
<feBlend mode="normal" in="SourceGraphic" in2="effect1_dropShadow" result="shape"/>
</filter>
<linearGradient id="paint0_linear" x1="138.064" y1="48.1596" x2="-14.2555" y2="161.649" gradientUnits="userSpaceOnUse">
<stop stop-color="#37F1D0" stop-opacity="0.76"/>
<stop offset="1" stop-color="#1510F4"/>
</linearGradient>
</defs>
</svg>
