<svg width="32" height="32" viewBox="0 0 32 32" fill="none" xmlns="http://www.w3.org/2000/svg">
<circle cx="15.8862" cy="15.7871" r="15.7871" fill="white"/>
<path fill-rule="evenodd" clip-rule="evenodd" d="M15.1526 13.017C15.1431 13.0263 15.0422 13.034 14.9284 13.034C14.809 13.034 14.7215 13.0412 14.7215 13.051C14.7215 13.0603 14.6659 13.068 14.598 13.068C14.5301 13.068 14.4667 13.0756 14.4573 13.085C14.4478 13.0943 14.4033 13.102 14.3583 13.102C14.3133 13.102 14.2765 13.1096 14.2765 13.119C14.2765 13.1283 14.239 13.136 14.1931 13.136C14.1472 13.136 14.1096 13.1436 14.1096 13.153C14.1096 13.1623 14.0791 13.17 14.0418 13.17C14.0044 13.17 13.9661 13.1776 13.9567 13.187C13.9472 13.1963 13.9152 13.204 13.8855 13.204C13.8558 13.204 13.8315 13.2116 13.8315 13.221C13.8315 13.2303 13.8139 13.238 13.7924 13.238C13.7398 13.238 13.5256 13.3087 13.5256 13.3261C13.5256 13.3337 13.5056 13.34 13.4812 13.34C13.4321 13.34 13.2667 13.3921 13.2521 13.4122C13.247 13.4192 13.2282 13.4249 13.2104 13.4249C13.1925 13.425 13.1416 13.4441 13.0971 13.4674C13.0527 13.4908 13.0076 13.5099 12.9969 13.5099C12.9519 13.5099 12.2184 13.9753 12.2184 14.0039C12.2184 14.0128 12.1813 14.0439 12.136 14.073C12.0906 14.102 12.0374 14.1478 12.0179 14.1748C11.9984 14.2018 11.9729 14.2239 11.9613 14.2239C11.9498 14.2239 11.9403 14.2347 11.9403 14.2479C11.9403 14.2612 11.9309 14.2745 11.9194 14.2777C11.8856 14.2869 11.7178 14.4979 11.7178 14.5312C11.7178 14.548 11.7077 14.5656 11.6952 14.5704C11.6828 14.575 11.6438 14.6348 11.6085 14.7031C11.5732 14.7714 11.5343 14.8426 11.5222 14.8613C11.4073 15.0375 11.3832 15.7136 11.4807 16.0256C11.5055 16.1051 11.5329 16.195 11.5414 16.2254C11.55 16.2557 11.5682 16.2806 11.5818 16.2806C11.5954 16.2806 11.6066 16.3029 11.6066 16.3302C11.6066 16.3574 11.6196 16.3824 11.6356 16.3857C11.6516 16.3889 11.6668 16.4087 11.6693 16.4296C11.6719 16.4505 11.6839 16.4676 11.6959 16.4676C11.7079 16.4676 11.7178 16.4867 11.7178 16.5101C11.7178 16.5335 11.7303 16.5526 11.7456 16.5526C11.7609 16.5526 11.7734 16.5672 11.7734 16.5852C11.7734 16.6031 11.7828 16.6203 11.7943 16.6234C11.8058 16.6265 11.8464 16.6673 11.8846 16.7141C11.9229 16.7608 11.976 16.8139 12.0028 16.832C12.0297 16.8501 12.0516 16.8733 12.0516 16.8835C12.0516 16.8937 12.0766 16.9131 12.1072 16.9265C12.1378 16.94 12.1628 16.9597 12.1628 16.9703C12.1628 16.9808 12.2003 17.0135 12.2462 17.0428C12.2921 17.0722 12.3297 17.1033 12.3297 17.1121C12.3297 17.1281 12.7672 17.4023 12.8811 17.4578C13.0291 17.5297 13.222 17.6064 13.255 17.6064C13.2747 17.6064 13.3089 17.6217 13.3309 17.6404C13.3529 17.6591 13.3933 17.6744 13.4205 17.6744C13.4477 17.6744 13.47 17.6821 13.47 17.6914C13.47 17.7008 13.495 17.7084 13.5256 17.7084C13.5562 17.7084 13.5812 17.7161 13.5812 17.7254C13.5812 17.7348 13.6062 17.7424 13.6368 17.7424C13.6674 17.7424 13.6925 17.7501 13.6925 17.7594C13.6925 17.7688 13.7175 17.7764 13.7481 17.7764C13.7787 17.7764 13.8038 17.7822 13.8039 17.7892C13.8042 17.8064 13.9418 17.8444 14.004 17.8444C14.0315 17.8444 14.054 17.8521 14.054 17.8614C14.054 17.8708 14.0916 17.8784 14.1375 17.8784C14.1833 17.8784 14.2209 17.8861 14.2209 17.8954C14.2209 17.9048 14.2577 17.9124 14.3027 17.9124C14.3476 17.9124 14.3922 17.9201 14.4017 17.9294C14.4111 17.9388 14.4612 17.9464 14.5129 17.9464C14.5646 17.9464 14.6147 17.9541 14.6242 17.9634C14.6336 17.9728 14.7095 17.9804 14.7927 17.9804C14.8759 17.9804 14.944 17.9881 14.944 17.9974C14.944 18.0197 16.0483 18.0206 16.0611 17.9983C16.0662 17.9895 16.1423 17.9806 16.2303 17.9784C16.3183 17.9763 16.3902 17.9682 16.3902 17.9605C16.3902 17.9527 16.4403 17.9464 16.5015 17.9464C16.5627 17.9464 16.6127 17.9388 16.6127 17.9294C16.6127 17.9201 16.6503 17.9124 16.6962 17.9124C16.742 17.9124 16.7796 17.9048 16.7796 17.8954C16.7796 17.8861 16.8101 17.8784 16.8475 17.8784C16.8848 17.8784 16.9231 17.8708 16.9326 17.8614C16.942 17.8521 16.9729 17.8444 17.0011 17.8444C17.0566 17.8444 17.2882 17.776 17.3034 17.7552C17.3085 17.7482 17.3367 17.7424 17.3659 17.7424C17.3953 17.7424 17.4193 17.7348 17.4193 17.7254C17.4193 17.7161 17.4443 17.7084 17.4749 17.7084C17.5055 17.7084 17.5305 17.7008 17.5305 17.6914C17.5305 17.6821 17.5469 17.6744 17.567 17.6744C17.587 17.6744 17.6304 17.6591 17.6632 17.6404C17.696 17.6217 17.7403 17.6064 17.7615 17.6064C17.7828 17.6064 17.829 17.5911 17.8643 17.5725C17.8995 17.5538 17.9364 17.5385 17.9462 17.5385C17.9559 17.5385 18.0103 17.5117 18.0671 17.479C18.1239 17.4462 18.1767 17.4195 18.1846 17.4195C18.2132 17.4195 18.6152 17.1645 18.6152 17.1464C18.6152 17.1362 18.6652 17.0985 18.7264 17.0625C18.7876 17.0266 18.8377 16.9858 18.8377 16.9718C18.8377 16.9578 18.8479 16.9438 18.8605 16.9407C18.8928 16.9326 19.1158 16.7281 19.1158 16.7065C19.1158 16.6966 19.1283 16.6886 19.1436 16.6886C19.1589 16.6886 19.1714 16.6783 19.1714 16.6657C19.1714 16.6531 19.1928 16.6167 19.2191 16.5849C19.2453 16.5531 19.2707 16.5118 19.2755 16.4931C19.2803 16.4744 19.2964 16.4565 19.3113 16.4534C19.3261 16.4503 19.3383 16.4368 19.3383 16.4234C19.3383 16.4101 19.3496 16.3859 19.3634 16.3696C19.3772 16.3534 19.4037 16.3057 19.4222 16.2636C19.4407 16.2215 19.4661 16.1718 19.4786 16.1531C19.6068 15.9616 19.6229 15.2368 19.5052 14.9548C19.4877 14.9127 19.4666 14.8533 19.4584 14.8229C19.4501 14.7924 19.4322 14.7633 19.4187 14.7581C19.405 14.753 19.3939 14.7338 19.3939 14.7156C19.3939 14.6835 19.3839 14.6669 19.3148 14.5853C19.2971 14.5644 19.2827 14.5357 19.2827 14.5215C19.2827 14.5074 19.2702 14.4958 19.2549 14.4958C19.2396 14.4958 19.227 14.4846 19.227 14.4708C19.227 14.4366 19.1101 14.2918 19.0824 14.2918C19.0702 14.2918 19.0602 14.2765 19.0602 14.2578C19.0602 14.2392 19.0477 14.2239 19.0324 14.2239C19.0171 14.2239 19.0045 14.2138 19.0045 14.2015C19.0045 14.1893 18.9795 14.1628 18.9489 14.1428C18.9183 14.1227 18.8933 14.1 18.8933 14.0923C18.8933 14.0846 18.8683 14.0673 18.8377 14.0539C18.8071 14.0404 18.7821 14.0204 18.7821 14.0094C18.7821 13.9984 18.6913 13.9313 18.5804 13.8603C18.4695 13.7893 18.3225 13.6933 18.2536 13.647C18.1848 13.6007 18.1128 13.5624 18.0937 13.5619C18.0746 13.5614 18.0589 13.5533 18.0589 13.5439C18.0589 13.5346 18.0463 13.5269 18.0309 13.5269C18.0154 13.5269 17.9635 13.504 17.9155 13.4759C17.8675 13.4479 17.8113 13.4249 17.7906 13.4249C17.7699 13.4249 17.753 13.4187 17.753 13.4111C17.753 13.3942 17.5722 13.34 17.5156 13.34C17.4932 13.34 17.4748 13.3342 17.4747 13.3272C17.4744 13.3123 17.3402 13.272 17.2909 13.272C17.2723 13.272 17.2529 13.2662 17.2477 13.2592C17.2324 13.238 17.0006 13.17 16.9438 13.17C16.9147 13.17 16.8908 13.1623 16.8908 13.153C16.8908 13.1436 16.8533 13.136 16.8074 13.136C16.7615 13.136 16.724 13.1283 16.724 13.119C16.724 13.1096 16.6802 13.102 16.6266 13.102C16.5731 13.102 16.5293 13.0943 16.5293 13.085C16.5293 13.0756 16.473 13.068 16.4041 13.068C16.3353 13.068 16.279 13.0603 16.279 13.051C16.279 13.0412 16.1914 13.034 16.0721 13.034C15.9582 13.034 15.8573 13.0263 15.8479 13.017C15.838 13.0072 15.6905 13 15.5002 13C15.3099 13 15.1625 13.0072 15.1526 13.017ZM15.9053 14.4712C16.4118 14.543 16.9492 14.8191 17.1112 15.0907C17.1308 15.1235 17.1567 15.1655 17.1687 15.1842C17.3038 15.3935 17.2775 15.7265 17.1101 15.9277C17.0966 15.9439 17.0855 15.9653 17.0855 15.9754C17.0855 15.9854 17.0357 16.0383 16.9749 16.0931C16.1327 16.851 14.3927 16.7149 13.8315 15.8472C13.7025 15.6476 13.7303 15.2961 13.8904 15.1037C13.9039 15.0875 13.915 15.0661 13.915 15.056C13.915 15.0197 14.1515 14.825 14.3085 14.7319C14.7075 14.4955 15.3439 14.3916 15.9053 14.4712ZM15.2343 15.1722C14.6413 15.3743 14.8384 15.891 15.5077 15.8893C15.7519 15.8886 16.0843 15.7504 16.0843 15.6494C16.0843 15.6329 16.099 15.5995 16.1171 15.5753C16.2942 15.3377 15.6336 15.0361 15.2343 15.1722Z" fill="#FEA803"/>
<path fill-rule="evenodd" clip-rule="evenodd" d="M15.1563 7.03078C15.1334 7.04645 15.0949 7.05927 15.0709 7.05927C15.0469 7.05927 15.0272 7.06782 15.0272 7.07827C15.0272 7.08872 15.0112 7.09727 14.9916 7.09727C14.9721 7.09727 14.938 7.11437 14.9159 7.13526C14.8939 7.15616 14.8564 7.17326 14.8325 7.17326C14.8087 7.17326 14.7711 7.19036 14.7491 7.21125C14.727 7.23215 14.6895 7.24925 14.6656 7.24925C14.6418 7.24925 14.6042 7.26635 14.5822 7.28725C14.5602 7.30814 14.5244 7.32524 14.5029 7.32524C14.4812 7.32524 14.4434 7.3402 14.4186 7.35849C14.3938 7.37677 14.3298 7.40836 14.2763 7.42868C14.2227 7.44901 14.1414 7.48957 14.0955 7.51883C14.0496 7.54808 13.9992 7.57207 13.9834 7.57212C13.9677 7.57216 13.9368 7.58931 13.9147 7.61021C13.8927 7.6311 13.864 7.6482 13.8512 7.6482C13.8382 7.6482 13.7667 7.69095 13.6922 7.74319C13.6178 7.79543 13.5425 7.83818 13.5251 7.83818C13.4847 7.83818 12.0513 8.8168 12.0513 8.84444C12.0513 8.85579 11.9981 8.90172 11.9331 8.94655C11.8681 8.99134 11.7836 9.0566 11.7454 9.09155C11.7071 9.12646 11.6602 9.16588 11.6411 9.17918C11.622 9.19243 11.6063 9.21043 11.6063 9.21912C11.6063 9.22777 11.575 9.25793 11.5368 9.28614C11.4985 9.3143 11.4673 9.34712 11.4673 9.35904C11.4673 9.37096 11.4297 9.40468 11.3838 9.43399C11.3379 9.46329 11.3004 9.49901 11.3004 9.5134C11.3004 9.52779 11.2754 9.55192 11.2448 9.56697C11.2142 9.58203 11.1891 9.60767 11.1891 9.62397C11.1891 9.64026 11.1641 9.6659 11.1335 9.68096C11.1029 9.69601 11.0779 9.72166 11.0779 9.73795C11.0779 9.75424 11.0529 9.77989 11.0223 9.79494C10.9917 9.81 10.9666 9.83327 10.9666 9.84662C10.9666 9.86001 10.9561 9.87094 10.9432 9.87094C10.9303 9.87094 10.8897 9.91154 10.8528 9.96117C10.816 10.0108 10.764 10.068 10.7373 10.0882C10.7104 10.1085 10.6885 10.1363 10.6885 10.15C10.6885 10.1637 10.676 10.1749 10.6607 10.1749C10.6454 10.1749 10.6329 10.192 10.6329 10.2129C10.6329 10.2338 10.6204 10.2509 10.6051 10.2509C10.5898 10.2509 10.5773 10.2641 10.5773 10.2802C10.5773 10.2963 10.5522 10.3278 10.5217 10.3502C10.4911 10.3727 10.466 10.4023 10.466 10.4159C10.466 10.4297 10.4514 10.4409 10.4336 10.4409C10.4158 10.4409 10.4087 10.4461 10.4181 10.4525C10.4274 10.4588 10.4108 10.495 10.381 10.5329C10.3513 10.5708 10.327 10.6126 10.327 10.6258C10.327 10.639 10.3145 10.6498 10.2992 10.6498C10.2839 10.6498 10.2713 10.6669 10.2713 10.6878C10.2713 10.7087 10.2588 10.7258 10.2435 10.7258C10.2282 10.7258 10.2157 10.7429 10.2157 10.7638C10.2157 10.7847 10.2032 10.8018 10.1879 10.8018C10.1726 10.8018 10.1601 10.8144 10.1601 10.8298C10.1601 10.8451 10.1351 10.8881 10.1045 10.9253C10.0739 10.9625 10.0488 11.0098 10.0488 11.0304C10.0488 11.0509 10.0363 11.0678 10.021 11.0678C10.0057 11.0678 9.99323 11.0849 9.99323 11.1058C9.99323 11.1267 9.98071 11.1438 9.96541 11.1438C9.95012 11.1438 9.9376 11.1604 9.9376 11.1806C9.9376 11.2009 9.92509 11.2228 9.90979 11.2293C9.89449 11.2357 9.88198 11.2619 9.88198 11.2874C9.88198 11.3129 9.86946 11.3338 9.85417 11.3338C9.83887 11.3338 9.82635 11.3509 9.82635 11.3718C9.82635 11.3927 9.81384 11.4098 9.79854 11.4098C9.78324 11.4098 9.77073 11.4311 9.77073 11.4572C9.77073 11.4834 9.75821 11.5047 9.74292 11.5047C9.72762 11.5047 9.71511 11.5304 9.71511 11.5617C9.71511 11.5931 9.70259 11.6187 9.68729 11.6187C9.672 11.6187 9.65948 11.6444 9.65948 11.6757C9.65948 11.7071 9.64697 11.7327 9.63167 11.7327C9.61637 11.7327 9.60386 11.7499 9.60386 11.7709C9.60386 11.792 9.59134 11.8262 9.57605 11.8469C9.56075 11.8677 9.53572 11.9017 9.52042 11.9225C9.50512 11.9432 9.49261 11.986 9.49261 12.0174C9.49261 12.0489 9.48009 12.0747 9.4648 12.0747C9.4495 12.0747 9.43699 12.0933 9.43699 12.1161C9.43699 12.1598 9.3911 12.2707 9.35014 12.3262C9.33672 12.3443 9.32574 12.3849 9.32574 12.4164C9.32574 12.4479 9.31322 12.4736 9.29793 12.4736C9.28263 12.4736 9.27011 12.5073 9.27011 12.5485C9.27011 12.5897 9.25927 12.6279 9.24599 12.6335C9.23271 12.6391 9.21484 12.6803 9.20628 12.7249C9.19766 12.7696 9.18299 12.8275 9.17354 12.8536C9.16415 12.8797 9.14892 12.9631 9.13974 13.0388C9.13057 13.1146 9.11235 13.1765 9.09921 13.1765C9.08614 13.1765 9.07543 13.2364 9.07543 13.3095C9.07543 13.3855 9.06354 13.4425 9.04762 13.4425C9.03142 13.4425 9.01981 13.5054 9.01981 13.5933C9.01981 13.6763 9.00729 13.7495 8.99199 13.756C8.97579 13.7628 8.96418 13.8701 8.96418 14.0136C8.96418 14.1648 8.95347 14.2594 8.93637 14.2594C8.91857 14.2594 8.90856 14.4304 8.90856 14.7344C8.90856 15.022 8.91899 15.2093 8.93498 15.2093C8.94993 15.2093 8.9678 15.3354 8.976 15.499C8.99992 15.9751 9.02189 16.1866 9.04942 16.2057C9.06375 16.2157 9.07543 16.2942 9.07543 16.3803C9.07543 16.4664 9.086 16.5414 9.09893 16.5468C9.11186 16.5523 9.13126 16.6532 9.14204 16.7711C9.15282 16.8891 9.16881 17.0112 9.17764 17.0426C9.1864 17.0739 9.19933 17.1551 9.20628 17.2231C9.21331 17.291 9.23048 17.3547 9.24453 17.3646C9.25864 17.3745 9.27011 17.4317 9.27011 17.4917C9.27011 17.5517 9.28263 17.606 9.29793 17.6125C9.31322 17.619 9.32574 17.6691 9.32574 17.7238C9.32574 17.7786 9.33714 17.8315 9.35112 17.8414C9.36502 17.8514 9.38352 17.9065 9.39221 17.964C9.40083 18.0214 9.41543 18.1115 9.42468 18.1641L9.4415 18.2596L9.34194 18.2863C9.28715 18.301 9.2423 18.32 9.2423 18.3285C9.2423 18.337 9.21727 18.3439 9.18668 18.3439C9.15608 18.3439 9.13105 18.3525 9.13105 18.3629C9.13105 18.3734 9.10602 18.3819 9.07543 18.3819C9.04484 18.3819 9.01981 18.3888 9.01981 18.3974C9.01981 18.4059 8.976 18.4246 8.92246 18.4389C8.86893 18.4533 8.82512 18.471 8.82512 18.4783C8.82512 18.4857 8.78132 18.4973 8.72778 18.5042C8.67424 18.511 8.63044 18.5248 8.63044 18.5348C8.63044 18.5447 8.60541 18.5529 8.57481 18.5529C8.54422 18.5529 8.51912 18.5593 8.51898 18.5671C8.5187 18.5842 8.38402 18.6289 8.33285 18.6289C8.31296 18.6289 8.29669 18.6374 8.29669 18.6479C8.29669 18.6583 8.27166 18.6669 8.24107 18.6669C8.21048 18.6669 8.18545 18.6738 8.18545 18.6823C8.18545 18.6908 8.14164 18.7095 8.0881 18.7239C8.03457 18.7382 7.99076 18.7569 7.99076 18.7654C7.99076 18.7739 7.96573 18.7809 7.93514 18.7809C7.90454 18.7809 7.87951 18.7894 7.87951 18.7999C7.87951 18.8103 7.85448 18.8189 7.82389 18.8189C7.7933 18.8189 7.76827 18.8274 7.76827 18.8379C7.76827 18.8483 7.74323 18.8569 7.71264 18.8569C7.68205 18.8569 7.65702 18.8654 7.65702 18.8759C7.65702 18.8863 7.63199 18.8949 7.60139 18.8949C7.5708 18.8949 7.54577 18.9034 7.54577 18.9139C7.54577 18.9243 7.52074 18.9328 7.49015 18.9328C7.45955 18.9328 7.43452 18.9414 7.43452 18.9518C7.43452 18.9623 7.40949 18.9708 7.3789 18.9708C7.3483 18.9708 7.32327 18.9794 7.32327 18.9898C7.32327 19.0003 7.30408 19.0088 7.28065 19.0088C7.22531 19.0088 7.04515 19.1319 7.04515 19.1697C7.04515 19.1857 7.03347 19.1988 7.01929 19.1988C6.97062 19.1988 7.02325 19.7399 7.07554 19.7773C7.08944 19.7872 7.10078 19.8316 7.10078 19.8759C7.10078 19.9202 7.11329 19.9618 7.12859 19.9682C7.14389 19.9747 7.1564 20.018 7.1564 20.0644C7.1564 20.1108 7.16892 20.1487 7.18421 20.1487C7.19951 20.1487 7.21203 20.1952 7.21203 20.2521C7.21203 20.3089 7.22454 20.3607 7.23984 20.3672C7.25513 20.3736 7.26765 20.4212 7.26765 20.4728C7.26765 20.5244 7.28016 20.5667 7.29546 20.5667C7.31076 20.5667 7.32327 20.6046 7.32327 20.651C7.32327 20.6974 7.33579 20.7407 7.35109 20.7471C7.36638 20.7536 7.3789 20.8006 7.3789 20.8516C7.3789 20.9026 7.39141 20.9496 7.40671 20.9561C7.42201 20.9626 7.43452 21.0101 7.43452 21.0617C7.43452 21.1134 7.44704 21.1556 7.46233 21.1556C7.47763 21.1556 7.49015 21.1983 7.49015 21.2506C7.49015 21.3028 7.50266 21.3456 7.51796 21.3456C7.53325 21.3456 7.54577 21.3878 7.54577 21.4394C7.54577 21.491 7.55828 21.5386 7.57358 21.545C7.58888 21.5515 7.60139 21.599 7.60139 21.6507C7.60139 21.7023 7.61391 21.7445 7.62921 21.7445C7.6445 21.7445 7.65702 21.7873 7.65702 21.8395C7.65702 21.8917 7.66953 21.9345 7.68483 21.9345C7.70013 21.9345 7.71264 21.9772 7.71264 22.0295C7.71264 22.0817 7.72516 22.1245 7.74045 22.1245C7.75575 22.1245 7.76827 22.1715 7.76827 22.229C7.76827 22.2864 7.78078 22.3334 7.79608 22.3334C7.81137 22.3334 7.82389 22.3762 7.82389 22.4284C7.82389 22.4807 7.8364 22.5234 7.8517 22.5234C7.867 22.5234 7.87951 22.5662 7.87951 22.6184C7.87951 22.6706 7.89203 22.7134 7.90733 22.7134C7.92262 22.7134 7.93514 22.7497 7.93514 22.7941C7.93521 22.8385 7.95308 22.9347 7.97491 23.0079C7.99674 23.081 8.01802 23.1708 8.02212 23.2073C8.02622 23.2439 8.03832 23.2824 8.04903 23.2928C8.05973 23.3033 8.07566 23.3546 8.08449 23.4068C8.12433 23.643 8.13684 23.6929 8.16035 23.7098C8.17411 23.7198 8.18545 23.7596 8.18545 23.7983C8.18545 23.9149 8.37053 24.1192 8.47622 24.1192C8.49986 24.1192 8.51919 24.1278 8.51919 24.1382C8.51919 24.1496 8.62578 24.1572 8.7834 24.1572C8.94103 24.1572 9.04762 24.1496 9.04762 24.1382C9.04762 24.1278 9.06987 24.1192 9.09712 24.1192C9.12431 24.1192 9.16464 24.1021 9.18668 24.0812C9.20872 24.0603 9.24814 24.0432 9.27428 24.0432C9.30036 24.0432 9.33832 24.0325 9.35849 24.0195C9.37872 24.0064 9.42968 23.9836 9.47175 23.9688C9.51382 23.9539 9.54823 23.9347 9.54823 23.926C9.54823 23.9174 9.57048 23.9102 9.59774 23.9102C9.62492 23.9102 9.66525 23.8932 9.68729 23.8723C9.70933 23.8514 9.74688 23.8343 9.77073 23.8343C9.79458 23.8343 9.83212 23.8172 9.85417 23.7963C9.87621 23.7754 9.90791 23.7583 9.9246 23.7583C9.94129 23.7583 9.97918 23.7433 10.0089 23.725C10.0385 23.7067 10.0972 23.6797 10.1392 23.6648C10.1813 23.65 10.2157 23.6307 10.2157 23.6221C10.2157 23.6134 10.2317 23.6063 10.2513 23.6063C10.2709 23.6063 10.3049 23.5892 10.327 23.5683C10.349 23.5474 10.3866 23.5303 10.4104 23.5303C10.4343 23.5303 10.4718 23.5132 10.4938 23.4923C10.5159 23.4714 10.5534 23.4543 10.5773 23.4543C10.6011 23.4543 10.6387 23.4372 10.6607 23.4163C10.6828 23.3954 10.7203 23.3783 10.7441 23.3783C10.768 23.3783 10.8055 23.3612 10.8276 23.3403C10.8496 23.3194 10.8872 23.3023 10.911 23.3023C10.9349 23.3023 10.9724 23.2852 10.9945 23.2643C11.0165 23.2434 11.0477 23.2263 11.0638 23.2263C11.0799 23.2263 11.1596 23.1964 11.2409 23.1598C11.3222 23.1233 11.3973 23.0933 11.408 23.0933C11.4185 23.0933 11.4452 23.0763 11.4673 23.0554C11.5054 23.0192 11.5392 23.0174 12.1548 23.0174H12.8022V23.3202C12.8022 23.5016 12.8134 23.6278 12.83 23.6348C12.8453 23.6412 12.8579 23.6718 12.8579 23.7027C12.8579 23.7335 12.8689 23.7736 12.8824 23.7918C12.9063 23.8237 12.9233 23.8509 13.0014 23.9815C13.0217 24.0155 13.0477 24.0432 13.0594 24.0432C13.0709 24.0432 13.0804 24.0689 13.0804 24.1002C13.0804 24.1316 13.0929 24.1572 13.1082 24.1572C13.1235 24.1572 13.136 24.17 13.136 24.1857C13.136 24.2014 13.1485 24.2142 13.1638 24.2142C13.1791 24.2142 13.1916 24.227 13.1916 24.2427C13.1916 24.2584 13.2041 24.2712 13.2194 24.2712C13.2347 24.2712 13.2472 24.2883 13.2472 24.3092C13.2472 24.3301 13.2597 24.3472 13.275 24.3472C13.2903 24.3472 13.3029 24.3643 13.3029 24.3852C13.3029 24.4061 13.3154 24.4232 13.3307 24.4232C13.346 24.4232 13.3585 24.4344 13.3585 24.4481C13.3585 24.4618 13.3835 24.4914 13.4141 24.5138C13.4447 24.5362 13.4697 24.5659 13.4697 24.5797C13.4697 24.5935 13.4948 24.6171 13.5253 24.6322C13.5559 24.6472 13.581 24.6727 13.581 24.6888C13.581 24.7049 13.606 24.7287 13.6366 24.7417C13.6672 24.7548 13.6922 24.7751 13.6922 24.7868C13.6922 24.7986 13.7181 24.8235 13.7497 24.8422C13.7813 24.8609 13.8048 24.882 13.8019 24.889C13.7948 24.9061 13.9509 25.0491 13.9773 25.0497C13.9888 25.0499 13.9982 25.0638 13.9982 25.0805C13.9982 25.0972 14.0331 25.1335 14.0757 25.1613C14.1184 25.1889 14.1837 25.2415 14.2209 25.2781C14.258 25.3147 14.3357 25.376 14.3936 25.4143C14.4514 25.4527 14.4988 25.4892 14.4988 25.4953C14.4988 25.5015 14.602 25.5783 14.7282 25.6659C14.8544 25.7535 15.0104 25.8645 15.0749 25.9126L15.1921 26H15.5008H15.8095L15.9538 25.8963C16.0331 25.8393 16.1887 25.7283 16.2996 25.6496C16.4105 25.571 16.5012 25.5023 16.5012 25.4969C16.5012 25.4916 16.5638 25.4436 16.6403 25.3902C16.7168 25.3369 16.7794 25.2849 16.7794 25.2747C16.7794 25.2645 16.8294 25.2233 16.8906 25.1831C16.9518 25.1429 17.0018 25.1008 17.0018 25.0894C17.0018 25.078 17.0372 25.0435 17.0803 25.0126C17.1235 24.9818 17.1827 24.9263 17.2118 24.8893C17.241 24.8524 17.2745 24.8221 17.2863 24.8221C17.2981 24.8221 17.3078 24.8112 17.3078 24.7978C17.3078 24.7845 17.3328 24.7612 17.3634 24.7462C17.394 24.7311 17.419 24.7054 17.419 24.6892C17.419 24.6729 17.4441 24.6472 17.4747 24.6322C17.5052 24.6171 17.5303 24.5935 17.5303 24.5797C17.5303 24.5659 17.5553 24.5362 17.5859 24.5138C17.6165 24.4914 17.6415 24.4618 17.6415 24.4481C17.6415 24.4344 17.654 24.4232 17.6693 24.4232C17.6846 24.4232 17.6971 24.4061 17.6971 24.3852C17.6971 24.3643 17.7097 24.3472 17.725 24.3472C17.7403 24.3472 17.7528 24.3308 17.7528 24.3108C17.7528 24.2908 17.7626 24.2715 17.7745 24.268C17.8127 24.257 17.9196 24.1185 17.9196 24.0801C17.9196 24.0599 17.9291 24.0432 17.9406 24.0432C17.9523 24.0432 17.9783 24.0155 17.9986 23.9815C18.0767 23.8509 18.0937 23.8237 18.1176 23.7918C18.1311 23.7736 18.1421 23.7335 18.1421 23.7027C18.1421 23.6718 18.1547 23.6412 18.17 23.6348C18.1866 23.6278 18.1978 23.5016 18.1978 23.3202V23.0174H18.8452C19.4608 23.0174 19.4946 23.0192 19.5327 23.0554C19.5548 23.0763 19.5827 23.0933 19.5948 23.0933C19.6069 23.0933 19.6791 23.1233 19.7552 23.1598C19.8314 23.1964 19.9099 23.2263 19.9296 23.2263C19.9493 23.2263 19.9835 23.2434 20.0055 23.2643C20.0276 23.2852 20.0651 23.3023 20.089 23.3023C20.1128 23.3023 20.1504 23.3194 20.1724 23.3403C20.1945 23.3612 20.232 23.3783 20.2559 23.3783C20.2797 23.3783 20.3172 23.3954 20.3393 23.4163C20.3613 23.4372 20.3989 23.4543 20.4227 23.4543C20.4466 23.4543 20.4841 23.4714 20.5062 23.4923C20.5282 23.5132 20.5657 23.5303 20.5896 23.5303C20.6134 23.5303 20.651 23.5474 20.673 23.5683C20.6951 23.5892 20.7291 23.6063 20.7487 23.6063C20.7683 23.6063 20.7843 23.6134 20.7843 23.6221C20.7843 23.6307 20.8187 23.65 20.8608 23.6648C20.9028 23.6797 20.9615 23.7067 20.9911 23.725C21.0208 23.7433 21.0587 23.7583 21.0754 23.7583C21.0921 23.7583 21.1238 23.7754 21.1458 23.7963C21.1679 23.8172 21.2082 23.8343 21.2354 23.8343C21.2626 23.8343 21.2849 23.8414 21.2849 23.85C21.2849 23.8587 21.3193 23.878 21.3614 23.8928C21.4034 23.9076 21.4621 23.9347 21.4917 23.953C21.5214 23.9713 21.5621 23.9862 21.5821 23.9862C21.6022 23.9862 21.6186 23.9946 21.6186 24.0049C21.6186 24.0151 21.6531 24.0293 21.6951 24.0364C21.7372 24.0435 21.7905 24.0629 21.8136 24.0795C21.8368 24.0961 21.8835 24.1204 21.9175 24.1335C21.9926 24.1623 22.4808 24.1664 22.4808 24.1382C22.4808 24.1278 22.5066 24.1192 22.5381 24.1192C22.5696 24.1192 22.5876 24.1107 22.5782 24.1002C22.5687 24.0898 22.5751 24.0812 22.5924 24.0812C22.6725 24.0812 22.8146 23.8986 22.8146 23.7956C22.8146 23.7554 22.8271 23.7172 22.8424 23.7108C22.8577 23.7043 22.8702 23.6573 22.8702 23.6063C22.8702 23.5553 22.8827 23.5083 22.898 23.5018C22.9133 23.4953 22.9258 23.4483 22.9258 23.3973C22.9258 23.3463 22.9383 23.2993 22.9536 23.2928C22.9689 23.2864 22.9814 23.2436 22.9814 23.1978C22.9814 23.1521 22.993 23.1097 23.007 23.1038C23.0211 23.0978 23.0415 23.0076 23.0523 22.9032C23.0632 22.7988 23.0829 22.7134 23.0963 22.7134C23.1096 22.7134 23.1205 22.6706 23.1205 22.6184C23.1205 22.5662 23.133 22.5234 23.1483 22.5234C23.1636 22.5234 23.1761 22.4807 23.1761 22.4284C23.1761 22.3762 23.1886 22.3334 23.2039 22.3334C23.2192 22.3334 23.2317 22.2864 23.2317 22.229C23.2317 22.1715 23.2442 22.1245 23.2595 22.1245C23.2748 22.1245 23.2874 22.0817 23.2874 22.0295C23.2874 21.9772 23.2999 21.9345 23.3152 21.9345C23.3305 21.9345 23.343 21.8917 23.343 21.8395C23.343 21.7873 23.3555 21.7445 23.3708 21.7445C23.3861 21.7445 23.3986 21.7023 23.3986 21.6507C23.3986 21.599 23.4111 21.5515 23.4264 21.545C23.4417 21.5386 23.4542 21.4916 23.4542 21.4405C23.4542 21.3895 23.4667 21.3425 23.482 21.3361C23.4973 21.3296 23.5099 21.2863 23.5099 21.2399C23.5099 21.1935 23.5224 21.1556 23.5377 21.1556C23.553 21.1556 23.5655 21.1134 23.5655 21.0617C23.5655 21.0101 23.578 20.9626 23.5933 20.9561C23.6086 20.9496 23.6211 20.9026 23.6211 20.8516C23.6211 20.8006 23.6336 20.7536 23.6489 20.7471C23.6642 20.7407 23.6767 20.6974 23.6767 20.651C23.6767 20.6046 23.6892 20.5667 23.7045 20.5667C23.7198 20.5667 23.7323 20.5244 23.7323 20.4728C23.7323 20.4212 23.7449 20.3736 23.7602 20.3672C23.7755 20.3607 23.788 20.3089 23.788 20.2521C23.788 20.1952 23.8005 20.1487 23.8158 20.1487C23.8311 20.1487 23.8436 20.1108 23.8436 20.0644C23.8436 20.018 23.8561 19.9747 23.8714 19.9682C23.8867 19.9618 23.8992 19.9202 23.8992 19.8759C23.8992 19.8316 23.9106 19.7872 23.9245 19.7773C23.9767 19.7399 24.0294 19.1988 23.9807 19.1988C23.9665 19.1988 23.9548 19.1857 23.9548 19.1697C23.9548 19.1319 23.7747 19.0088 23.7193 19.0088C23.6959 19.0088 23.6767 19.0003 23.6767 18.9898C23.6767 18.9794 23.6517 18.9708 23.6211 18.9708C23.5905 18.9708 23.5655 18.9623 23.5655 18.9518C23.5655 18.9414 23.5404 18.9328 23.5099 18.9328C23.4793 18.9328 23.4542 18.9243 23.4542 18.9139C23.4542 18.9034 23.4292 18.8949 23.3986 18.8949C23.368 18.8949 23.343 18.8863 23.343 18.8759C23.343 18.8654 23.318 18.8569 23.2874 18.8569C23.2568 18.8569 23.2317 18.8483 23.2317 18.8379C23.2317 18.8274 23.2067 18.8189 23.1761 18.8189C23.1455 18.8189 23.1204 18.8124 23.1204 18.8046C23.1203 18.7968 23.0515 18.769 22.9675 18.7429C22.8835 18.7167 22.8147 18.689 22.8146 18.6811C22.8146 18.6733 22.7983 18.6669 22.7784 18.6669C22.7272 18.6669 22.5925 18.6222 22.5923 18.6051C22.5921 18.5973 22.5721 18.5909 22.5477 18.5909C22.5233 18.5909 22.4693 18.5744 22.4278 18.5542C22.3862 18.5339 22.3186 18.5117 22.2775 18.5046C22.2363 18.4976 22.2027 18.4842 22.2027 18.4749C22.2027 18.4655 22.1777 18.4579 22.1471 18.4579C22.1165 18.4579 22.0914 18.4494 22.0914 18.4389C22.0914 18.4285 22.0664 18.4199 22.0358 18.4199C22.0052 18.4199 21.9802 18.4114 21.9802 18.4009C21.9802 18.3905 21.9552 18.3819 21.9246 18.3819C21.894 18.3819 21.8689 18.375 21.8689 18.3665C21.8689 18.358 21.8251 18.3393 21.7716 18.3249C21.7181 18.3106 21.6743 18.2919 21.6743 18.2834C21.6743 18.2749 21.6492 18.2679 21.6186 18.2679C21.5705 18.2679 21.563 18.2552 21.563 18.1729C21.563 18.1207 21.5755 18.078 21.5908 18.078C21.6063 18.078 21.6186 18.0273 21.6186 17.964C21.6186 17.9007 21.631 17.85 21.6465 17.85C21.6619 17.85 21.6743 17.7997 21.6743 17.7371C21.6743 17.6751 21.6868 17.619 21.7021 17.6125C21.7174 17.606 21.7299 17.5517 21.7299 17.4917C21.7299 17.4317 21.7414 17.3745 21.7555 17.3646C21.7811 17.3464 21.7865 17.3143 21.8424 16.8431C21.8591 16.702 21.8845 16.5718 21.8987 16.5536C21.913 16.5355 21.9246 16.4436 21.9246 16.3494C21.9246 16.2479 21.9359 16.1782 21.9524 16.1782C21.9691 16.1782 21.9802 16.1022 21.9802 15.9882C21.9802 15.8742 21.9913 15.7982 22.008 15.7982C22.0253 15.7982 22.0358 15.6874 22.0358 15.5038C22.0358 15.3201 22.0463 15.2093 22.0636 15.2093C22.0814 15.2093 22.0914 15.0383 22.0914 14.7344C22.0914 14.4304 22.0814 14.2594 22.0636 14.2594C22.0465 14.2594 22.0358 14.1612 22.0358 14.0029C22.0358 13.8446 22.0252 13.7465 22.008 13.7465C21.9918 13.7465 21.9802 13.6832 21.9802 13.5945C21.9802 13.5058 21.9686 13.4425 21.9524 13.4425C21.9365 13.4425 21.9246 13.3855 21.9246 13.3095C21.9246 13.2364 21.9139 13.1765 21.9007 13.1765C21.8877 13.1765 21.8683 13.0983 21.8577 13.0026C21.8471 12.907 21.8265 12.8135 21.812 12.7949C21.7974 12.7763 21.7855 12.7354 21.7855 12.704C21.7855 12.6725 21.773 12.6416 21.7577 12.6351C21.7424 12.6286 21.7299 12.5944 21.7299 12.5591C21.7299 12.5238 21.7174 12.4896 21.7021 12.4831C21.6868 12.4767 21.6743 12.4461 21.6743 12.4153C21.6743 12.3844 21.6633 12.3443 21.6499 12.3262C21.6089 12.2707 21.563 12.1598 21.563 12.1161C21.563 12.0933 21.5505 12.0747 21.5352 12.0747C21.5199 12.0747 21.5072 12.0554 21.507 12.0319C21.5065 11.9856 21.4461 11.8555 21.4152 11.8344C21.4047 11.8272 21.3961 11.8014 21.3961 11.777C21.3961 11.7527 21.3836 11.7327 21.3683 11.7327C21.353 11.7327 21.3405 11.7071 21.3405 11.6757C21.3405 11.6444 21.328 11.6187 21.3127 11.6187C21.2974 11.6187 21.2849 11.5931 21.2849 11.5617C21.2849 11.5304 21.2724 11.5047 21.2571 11.5047C21.2418 11.5047 21.2293 11.4834 21.2293 11.4572C21.2293 11.4311 21.2168 11.4098 21.2015 11.4098C21.1862 11.4098 21.1736 11.3927 21.1736 11.3718C21.1736 11.3509 21.1611 11.3338 21.1458 11.3338C21.1305 11.3338 21.118 11.3129 21.118 11.2874C21.118 11.2619 21.1055 11.2357 21.0902 11.2293C21.0749 11.2228 21.0624 11.2009 21.0624 11.1806C21.0624 11.1604 21.0499 11.1438 21.0346 11.1438C21.0193 11.1438 21.0068 11.1267 21.0068 11.1058C21.0068 11.0849 20.9943 11.0678 20.979 11.0678C20.9637 11.0678 20.9511 11.0509 20.9511 11.0304C20.9511 11.0098 20.9261 10.9625 20.8955 10.9253C20.8649 10.8881 20.8399 10.8451 20.8399 10.8298C20.8399 10.8144 20.8304 10.8018 20.8189 10.8018C20.8073 10.8018 20.7815 10.774 20.7615 10.7401C20.7416 10.7061 20.6945 10.6356 20.657 10.5833C20.6194 10.5311 20.5889 10.4777 20.5892 10.4646C20.5894 10.4516 20.5771 10.4409 20.5618 10.4409C20.5465 10.4409 20.534 10.4297 20.534 10.4159C20.534 10.4023 20.5089 10.3727 20.4783 10.3502C20.4478 10.3278 20.4227 10.2963 20.4227 10.2802C20.4227 10.2641 20.4102 10.2509 20.3949 10.2509C20.3796 10.2509 20.3671 10.2338 20.3671 10.2129C20.3671 10.192 20.3546 10.1749 20.3393 10.1749C20.324 10.1749 20.3115 10.1637 20.3115 10.15C20.3115 10.1363 20.2864 10.1067 20.2559 10.0843C20.2253 10.0619 20.2002 10.0303 20.2002 10.0142C20.2002 9.99813 20.1877 9.98492 20.1724 9.98492C20.1571 9.98492 20.1446 9.97371 20.1446 9.95999C20.1446 9.94631 20.1196 9.91672 20.089 9.8943C20.0584 9.87189 20.0334 9.84652 20.0334 9.83793C20.0334 9.82933 20.0083 9.81 19.9777 9.79494C19.9471 9.77989 19.9221 9.75424 19.9221 9.73795C19.9221 9.72166 19.8971 9.69601 19.8665 9.68096C19.8359 9.6659 19.8109 9.64026 19.8109 9.62397C19.8109 9.60767 19.7858 9.58203 19.7552 9.56697C19.7246 9.55192 19.6996 9.5275 19.6996 9.51278C19.6996 9.49801 19.6765 9.47213 19.6481 9.45522C19.6198 9.43831 19.5772 9.39884 19.5536 9.36745C19.53 9.3361 19.4843 9.29416 19.4522 9.27426C19.42 9.25436 19.3937 9.22663 19.3937 9.21257C19.3937 9.19851 19.3812 9.18702 19.3659 9.18702C19.3506 9.18702 19.3381 9.17861 19.3381 9.16835C19.3381 9.14831 19.2557 9.08144 19.0669 8.94841C19.0019 8.90257 18.9487 8.85598 18.9487 8.84492C18.9487 8.8338 18.8235 8.73986 18.6706 8.63608C18.5176 8.53231 18.3924 8.44193 18.3924 8.43523C18.3924 8.42036 18.0415 8.18014 18.0198 8.18014C18.0113 8.18014 17.8839 8.09892 17.7367 7.99966C17.5895 7.9004 17.4581 7.81918 17.4448 7.81918C17.4314 7.81918 17.3642 7.78071 17.2953 7.73369C17.2265 7.68667 17.163 7.6482 17.1543 7.6482C17.1456 7.6482 17.1071 7.62683 17.0689 7.60071C17.0306 7.57459 16.9905 7.55307 16.9797 7.55293C16.969 7.55274 16.9163 7.52719 16.8628 7.49613C16.8092 7.46506 16.7504 7.43101 16.7319 7.42042C16.7134 7.40988 16.6817 7.40123 16.6615 7.40123C16.6413 7.40123 16.6067 7.38413 16.5847 7.36324C16.5626 7.34234 16.5251 7.32524 16.5012 7.32524C16.4774 7.32524 16.4398 7.30814 16.4178 7.28725C16.3958 7.26635 16.3582 7.24925 16.3344 7.24925C16.3105 7.24925 16.273 7.23215 16.2509 7.21125C16.2289 7.19036 16.1913 7.17326 16.1675 7.17326C16.1436 7.17326 16.1061 7.15616 16.0841 7.13526C16.062 7.11437 16.0279 7.09727 16.0084 7.09727C15.9888 7.09727 15.9728 7.08872 15.9728 7.07827C15.9728 7.06782 15.9531 7.05927 15.9291 7.05927C15.9051 7.05927 15.8666 7.04645 15.8437 7.03078C15.7836 6.98974 15.2164 6.98974 15.1563 7.03078ZM15.6112 7.91417C15.6333 7.93507 15.6679 7.95217 15.6881 7.95217C15.7085 7.95217 15.7563 7.97354 15.7945 7.99966C15.8328 8.02578 15.8741 8.04715 15.8864 8.04715C15.8986 8.04715 15.9382 8.06463 15.9743 8.086C16.0103 8.10738 16.0811 8.14229 16.1315 8.16356C16.1819 8.18484 16.2231 8.20863 16.2231 8.21647C16.2231 8.22431 16.2571 8.24283 16.2988 8.25765C16.3403 8.27251 16.4355 8.32523 16.5101 8.37486C16.5848 8.4245 16.6577 8.4651 16.6721 8.4651C16.6865 8.4651 16.7979 8.53388 16.9196 8.61789C17.0413 8.70196 17.1409 8.76703 17.1409 8.76256C17.1409 8.75482 17.2122 8.80388 17.8071 9.22098C17.9454 9.31805 18.0587 9.40544 18.0587 9.41523C18.0587 9.42501 18.115 9.47146 18.1839 9.51848C18.2527 9.5655 18.309 9.61062 18.309 9.61869C18.3091 9.62681 18.3381 9.65645 18.3735 9.68457C18.4089 9.71268 18.462 9.75852 18.4916 9.78644C18.5212 9.81432 18.5579 9.8469 18.5733 9.85878C18.5886 9.8707 18.6324 9.91245 18.6706 9.95153C18.7088 9.99067 18.7495 10.0227 18.761 10.0228C18.7724 10.0229 18.7818 10.04 18.7818 10.0609C18.7818 10.0818 18.7943 10.0989 18.8096 10.0989C18.8249 10.0989 18.8374 10.1075 18.8374 10.1179C18.8374 10.1304 17.7064 10.1369 15.5 10.1369C13.2936 10.1369 12.1626 10.1304 12.1626 10.1179C12.1626 10.1075 12.1751 10.0989 12.1904 10.0989C12.2057 10.0989 12.2182 10.0857 12.2182 10.0696C12.2182 10.0534 12.2495 10.0188 12.2877 9.99271C12.326 9.96659 12.3572 9.93766 12.3572 9.9284C12.3572 9.91919 12.3732 9.90033 12.3927 9.88656C12.4601 9.83883 12.691 9.63104 12.691 9.61812C12.691 9.611 12.7536 9.56151 12.83 9.50813C12.9065 9.45479 12.9691 9.40402 12.9691 9.39533C12.9691 9.3788 13.5434 8.96484 13.7303 8.84663C13.7895 8.8092 13.9427 8.70804 14.0706 8.62184C14.1986 8.53563 14.3147 8.4651 14.3287 8.4651C14.3427 8.4651 14.418 8.42236 14.4961 8.37012C14.5742 8.31787 14.649 8.27513 14.6624 8.27513C14.6757 8.27513 14.7036 8.26116 14.7244 8.24407C14.7452 8.22697 14.8062 8.19377 14.8599 8.17031C14.9137 8.14684 14.9878 8.10951 15.0245 8.08738C15.0613 8.06525 15.1014 8.04715 15.1136 8.04715C15.1259 8.04715 15.1672 8.02578 15.2055 7.99966C15.2437 7.97354 15.2915 7.95217 15.3119 7.95217C15.3321 7.95217 15.3667 7.93507 15.3888 7.91417C15.4109 7.89323 15.4607 7.87617 15.5 7.87617C15.5393 7.87617 15.5891 7.89323 15.6112 7.91417ZM19.5811 10.9586C19.8056 11.2795 19.8821 11.3823 19.9003 11.3876C19.9123 11.3911 19.9221 11.4141 19.9221 11.4387C19.9221 11.4633 19.9346 11.4888 19.9499 11.4952C19.9652 11.5017 19.9777 11.5236 19.9777 11.5439C19.9777 11.5642 19.9902 11.5807 20.0055 11.5807C20.0208 11.5807 20.0334 11.6064 20.0334 11.6377C20.0334 11.6691 20.0459 11.6947 20.0612 11.6947C20.0765 11.6947 20.089 11.7118 20.089 11.7327C20.089 11.7536 20.1015 11.7707 20.1168 11.7707C20.1321 11.7707 20.1446 11.7964 20.1446 11.8277C20.1446 11.859 20.1571 11.8847 20.1724 11.8847C20.1877 11.8847 20.2002 11.9019 20.2002 11.9229C20.2002 11.9599 20.2101 11.9782 20.2794 12.0697C20.297 12.0931 20.3115 12.1337 20.3115 12.1599C20.3115 12.1862 20.324 12.2077 20.3393 12.2077C20.3546 12.2077 20.3671 12.2333 20.3671 12.2646C20.3671 12.296 20.3796 12.3216 20.3949 12.3216C20.4102 12.3216 20.4227 12.351 20.4227 12.387C20.4227 12.4229 20.4352 12.4577 20.4505 12.4641C20.4658 12.4706 20.4783 12.501 20.4783 12.5318C20.4783 12.5625 20.4909 12.5876 20.5062 12.5876C20.5215 12.5876 20.534 12.6218 20.534 12.6636C20.534 12.7054 20.5465 12.7396 20.5618 12.7396C20.5771 12.7396 20.5896 12.7733 20.5896 12.8144C20.5896 12.8556 20.6021 12.8946 20.6174 12.9011C20.6327 12.9075 20.6452 12.9465 20.6452 12.9877C20.6452 13.0289 20.6561 13.0626 20.6693 13.0626C20.6826 13.0626 20.7015 13.1245 20.7112 13.2003C20.7328 13.3679 20.7455 13.4395 20.7664 13.5112C20.7752 13.5413 20.7849 13.613 20.7878 13.6705C20.7907 13.7279 20.8025 13.7835 20.8138 13.794C20.8911 13.8651 20.8913 15.6789 20.814 15.7507C20.8028 15.7612 20.7904 15.8466 20.7864 15.9407C20.7823 16.0347 20.7727 16.1186 20.765 16.1271C20.7503 16.1434 20.7453 16.1824 20.7125 16.5344C20.7015 16.6519 20.6819 16.7481 20.6689 16.7481C20.6559 16.7481 20.6452 16.8032 20.6452 16.8705C20.6452 16.9378 20.6327 16.9981 20.6174 17.0046C20.6021 17.011 20.5896 17.0714 20.5896 17.1387C20.5896 17.2076 20.5774 17.261 20.5618 17.261C20.5459 17.261 20.534 17.318 20.534 17.394C20.534 17.47 20.5221 17.527 20.5062 17.527C20.4907 17.527 20.4783 17.5777 20.4783 17.641C20.4783 17.7043 20.466 17.755 20.4505 17.755C20.4352 17.755 20.4227 17.802 20.4227 17.8595C20.4227 17.9169 20.4102 17.964 20.3949 17.964C20.3795 17.964 20.3671 18.0146 20.3671 18.078C20.3671 18.1413 20.3547 18.1919 20.3393 18.1919C20.3239 18.1919 20.3115 18.2426 20.3115 18.3059C20.3115 18.3692 20.2991 18.4199 20.2837 18.4199C20.2684 18.4199 20.2559 18.4621 20.2559 18.5138C20.2559 18.5654 20.2433 18.6129 20.228 18.6194C20.2127 18.6258 20.2002 18.6734 20.2002 18.725C20.2002 18.7766 20.1877 18.8189 20.1724 18.8189C20.1571 18.8189 20.1446 18.8611 20.1446 18.9127C20.1446 18.9643 20.1321 19.0119 20.1168 19.0183C20.1015 19.0248 20.089 19.0675 20.089 19.1133C20.089 19.1591 20.0765 19.2019 20.0612 19.2083C20.0459 19.2148 20.0334 19.258 20.0334 19.3044C20.0334 19.3508 20.0208 19.3888 20.0055 19.3888C19.9902 19.3888 19.9777 19.4256 19.9777 19.4705C19.9777 19.5154 19.9664 19.5603 19.9526 19.5702C19.929 19.5872 19.9209 19.6181 19.8782 19.8542C19.8688 19.9065 19.8498 19.9573 19.836 19.9673C19.8222 19.9772 19.8109 20.0178 19.8109 20.0575C19.8109 20.0972 19.8008 20.1297 19.7885 20.1297C19.7762 20.1297 19.763 20.1653 19.7593 20.2087C19.7555 20.2522 19.7406 20.3029 19.726 20.3214C19.7115 20.34 19.6996 20.3857 19.6996 20.4229C19.6996 20.4602 19.6897 20.4907 19.6775 20.4907C19.6653 20.4907 19.6523 20.5218 19.6485 20.5599C19.6448 20.5979 19.6276 20.6471 19.6103 20.6691C19.5931 20.6911 19.5818 20.7113 19.5853 20.714C19.6032 20.7277 19.5498 20.9846 19.5291 20.9846C19.5158 20.9846 19.5049 21.0231 19.5049 21.0701C19.5049 21.1171 19.4924 21.1556 19.4771 21.1556C19.4618 21.1556 19.4493 21.1898 19.4493 21.2316C19.4493 21.2734 19.4368 21.3076 19.4215 21.3076C19.4062 21.3076 19.3937 21.3503 19.3937 21.4026C19.3937 21.4548 19.3812 21.4975 19.3659 21.4975C19.3506 21.4975 19.3381 21.5317 19.3381 21.5735C19.3381 21.6153 19.3255 21.6495 19.3102 21.6495C19.2949 21.6495 19.2824 21.688 19.2824 21.735C19.2824 21.782 19.2699 21.8205 19.2546 21.8205C19.2393 21.8205 19.2268 21.8547 19.2268 21.8965C19.2268 21.9383 19.2143 21.9725 19.199 21.9725C19.1837 21.9725 19.1712 22.0067 19.1712 22.0485C19.1712 22.0903 19.1587 22.1245 19.1434 22.1245C19.1281 22.1245 19.1156 22.1416 19.1156 22.1625C19.1156 22.2003 19.097 22.2005 15.5 22.2005C11.903 22.2005 11.8844 22.2003 11.8844 22.1625C11.8844 22.1416 11.8719 22.1245 11.8566 22.1245C11.8413 22.1245 11.8288 22.0903 11.8288 22.0485C11.8288 22.0067 11.8163 21.9725 11.801 21.9725C11.7857 21.9725 11.7732 21.9388 11.7732 21.8976C11.7732 21.8565 11.7607 21.8175 11.7454 21.811C11.7301 21.8045 11.7176 21.7656 11.7176 21.7244C11.7176 21.6832 11.7051 21.6495 11.6898 21.6495C11.6745 21.6495 11.6619 21.6153 11.6619 21.5735C11.6619 21.5317 11.6494 21.4975 11.6341 21.4975C11.6188 21.4975 11.6063 21.4548 11.6063 21.4026C11.6063 21.3503 11.5938 21.3076 11.5785 21.3076C11.5632 21.3076 11.5507 21.2734 11.5507 21.2316C11.5507 21.1898 11.5382 21.1556 11.5229 21.1556C11.5076 21.1556 11.4951 21.1171 11.4951 21.0701C11.4951 21.0231 11.4846 20.9846 11.4717 20.9846C11.4589 20.9846 11.4336 20.9098 11.4155 20.8184C11.3613 20.5455 11.3513 20.5099 11.3253 20.4989C11.3116 20.4931 11.3004 20.451 11.3004 20.4052C11.3004 20.3594 11.2879 20.3166 11.2726 20.3102C11.2573 20.3037 11.2448 20.2664 11.2448 20.2274C11.2448 20.1883 11.2335 20.1482 11.2198 20.1383C11.2061 20.1283 11.188 20.086 11.1795 20.0442C11.1711 20.0024 11.1503 19.9212 11.1333 19.8637C11.1163 19.8063 11.0957 19.7208 11.0875 19.6738C11.0792 19.6267 11.0612 19.5801 11.0474 19.5702C11.0336 19.5603 11.0223 19.5154 11.0223 19.4705C11.0223 19.4256 11.0098 19.3888 10.9945 19.3888C10.9792 19.3888 10.9666 19.346 10.9666 19.2938C10.9666 19.2416 10.9541 19.1988 10.9388 19.1988C10.9235 19.1988 10.911 19.1561 10.911 19.1038C10.911 19.0516 10.8985 19.0088 10.8832 19.0088C10.8679 19.0088 10.8554 18.9661 10.8554 18.9139C10.8554 18.8616 10.8429 18.8189 10.8276 18.8189C10.8123 18.8189 10.7998 18.7718 10.7998 18.7144C10.7998 18.6569 10.7873 18.6099 10.772 18.6099C10.7567 18.6099 10.7441 18.5671 10.7441 18.5149C10.7441 18.4627 10.7316 18.4199 10.7163 18.4199C10.7009 18.4199 10.6885 18.3692 10.6885 18.3059C10.6885 18.2426 10.6761 18.1919 10.6607 18.1919C10.6452 18.1919 10.6329 18.1409 10.6329 18.0768C10.6329 18.005 10.6225 17.9661 10.6051 17.9735C10.5877 17.9808 10.5773 17.942 10.5773 17.8701C10.5773 17.806 10.565 17.755 10.5495 17.755C10.534 17.755 10.5217 17.7043 10.5217 17.641C10.5217 17.5777 10.5093 17.527 10.4938 17.527C10.4779 17.527 10.466 17.4696 10.466 17.3929C10.466 17.3084 10.4557 17.2631 10.4382 17.2705C10.4207 17.278 10.4104 17.2327 10.4104 17.1482C10.4104 17.0715 10.3985 17.0141 10.3826 17.0141C10.3667 17.0141 10.3548 16.9571 10.3548 16.8811C10.3548 16.808 10.3443 16.7481 10.3313 16.7481C10.3185 16.7481 10.2933 16.6092 10.2754 16.4394C10.2574 16.2696 10.23 16.0452 10.2145 15.9407C10.1111 15.2478 10.0945 13.9292 10.1874 13.794C10.2018 13.7731 10.22 13.7004 10.2278 13.6325C10.2637 13.3218 10.311 13.0626 10.3319 13.0626C10.3445 13.0626 10.3548 13.0289 10.3548 12.9877C10.3548 12.9465 10.3673 12.9075 10.3826 12.9011C10.3979 12.8946 10.4104 12.8556 10.4104 12.8144C10.4104 12.7733 10.4229 12.7396 10.4382 12.7396C10.4535 12.7396 10.466 12.7054 10.466 12.6636C10.466 12.6218 10.4785 12.5876 10.4938 12.5876C10.5091 12.5876 10.5217 12.5534 10.5217 12.5116C10.5217 12.4698 10.5342 12.4356 10.5495 12.4356C10.5648 12.4356 10.5773 12.41 10.5773 12.3786C10.5773 12.3473 10.5898 12.3216 10.6051 12.3216C10.6204 12.3216 10.6329 12.296 10.6329 12.2646C10.6329 12.2333 10.6454 12.2077 10.6607 12.2077C10.676 12.2077 10.6885 12.182 10.6885 12.1507C10.6885 12.1193 10.701 12.0937 10.7163 12.0937C10.7316 12.0937 10.7441 12.0728 10.7441 12.0473C10.7441 12.0218 10.7567 11.9956 10.772 11.9892C10.7873 11.9827 10.7998 11.9566 10.7998 11.931C10.7998 11.9055 10.8123 11.8847 10.8276 11.8847C10.8429 11.8847 10.8554 11.859 10.8554 11.8277C10.8554 11.7964 10.8679 11.7707 10.8832 11.7707C10.8985 11.7707 10.911 11.7541 10.911 11.7339C10.911 11.7136 10.9235 11.6917 10.9388 11.6852C10.9541 11.6788 10.9666 11.6526 10.9666 11.6271C10.9666 11.6016 10.9792 11.5807 10.9945 11.5807C11.0098 11.5807 11.0223 11.5636 11.0223 11.5427C11.0223 11.5218 11.0348 11.5047 11.0501 11.5047C11.0654 11.5047 11.0779 11.4912 11.0779 11.4746C11.0779 11.4581 11.1624 11.3257 11.2656 11.1804L11.4534 10.9163L15.5022 10.916L19.5512 10.9158L19.5811 10.9586ZM15.1802 14.2115C15.1649 14.2149 15.0835 14.2317 14.9994 14.2488C14.6462 14.3206 14.0538 14.6323 14.0538 14.7463C14.0538 14.7606 14.0442 14.7723 14.0325 14.7723C13.9892 14.7723 13.8526 15.0242 13.8161 15.1713C13.6807 15.7172 14.1243 16.2345 14.9144 16.4519C15.1887 16.5274 15.799 16.536 16.0423 16.4677C16.1188 16.4462 16.2221 16.4175 16.2718 16.4037C16.3215 16.3901 16.3622 16.3721 16.3622 16.364C16.3622 16.3559 16.3778 16.3492 16.3969 16.3492C16.4161 16.3491 16.4692 16.3269 16.5151 16.2997C16.561 16.2725 16.6238 16.2362 16.6546 16.219C16.728 16.1779 16.9462 15.9995 16.9462 15.9804C16.9462 15.9722 16.9696 15.9429 16.9981 15.9152C17.3701 15.5535 17.2421 14.9234 16.7195 14.5431C16.377 14.2938 15.5829 14.1228 15.1802 14.2115ZM15.7689 14.9421C16.1978 15.0752 16.3042 15.4527 15.976 15.6769C15.5509 15.9673 14.8325 15.7643 14.8325 15.3538C14.8325 15.0367 15.3461 14.811 15.7689 14.9421ZM9.67109 19.1344C9.70294 19.1427 9.71511 19.1716 9.71511 19.2389C9.71511 19.29 9.72762 19.3318 9.74292 19.3318C9.75821 19.3318 9.77073 19.3745 9.77073 19.4268C9.77073 19.479 9.78324 19.5218 9.79854 19.5218C9.81384 19.5218 9.82635 19.5645 9.82635 19.6168C9.82635 19.669 9.83887 19.7118 9.85417 19.7118C9.86946 19.7118 9.88198 19.7545 9.88198 19.8067C9.88198 19.859 9.89449 19.9017 9.90979 19.9017C9.92509 19.9017 9.9376 19.9402 9.9376 19.9872C9.9376 20.0342 9.95012 20.0727 9.96541 20.0727C9.98071 20.0727 9.99323 20.1155 9.99323 20.1677C9.99323 20.2199 10.0057 20.2627 10.021 20.2627C10.0363 20.2627 10.0488 20.3054 10.0488 20.3577C10.0488 20.4099 10.0614 20.4527 10.0767 20.4527C10.092 20.4527 10.1045 20.4869 10.1045 20.5287C10.1045 20.5705 10.117 20.6046 10.1323 20.6046C10.1476 20.6046 10.1601 20.6426 10.1601 20.689C10.1601 20.7354 10.1726 20.7787 10.1879 20.7851C10.2032 20.7916 10.2157 20.8349 10.2157 20.8813C10.2157 20.9277 10.2265 20.9656 10.2396 20.9656C10.2528 20.9656 10.2725 21.0148 10.2833 21.0748C10.304 21.1891 10.3065 21.1998 10.3384 21.3076C10.3491 21.3441 10.3617 21.3869 10.3661 21.4026C10.3706 21.4182 10.3814 21.4439 10.3902 21.4595C10.4095 21.4938 10.4364 21.5917 10.4567 21.7018C10.4649 21.7462 10.4829 21.7825 10.4966 21.7825C10.5104 21.7825 10.5217 21.8167 10.5217 21.8585C10.5217 21.9003 10.5329 21.9345 10.5467 21.9345C10.5605 21.9345 10.578 21.9708 10.5859 22.0152C10.5937 22.0596 10.6149 22.1344 10.6329 22.1815C10.6949 22.3431 10.6987 22.4217 10.6451 22.4357C10.5627 22.4574 10.327 22.5669 10.327 22.5836C10.327 22.5923 10.3047 22.5994 10.2775 22.5994C10.2503 22.5994 10.2099 22.6165 10.1879 22.6374C10.1659 22.6583 10.1283 22.6754 10.1045 22.6754C10.0806 22.6754 10.0431 22.6925 10.021 22.7134C9.999 22.7343 9.96145 22.7514 9.9376 22.7514C9.91375 22.7514 9.87621 22.7685 9.85417 22.7894C9.83212 22.8103 9.79458 22.8274 9.77073 22.8274C9.74688 22.8274 9.70933 22.8445 9.68729 22.8654C9.66525 22.8863 9.62951 22.9034 9.60796 22.9034C9.58634 22.9034 9.54844 22.9184 9.52369 22.9368C9.49894 22.9551 9.44429 22.9822 9.40222 22.9969C9.36015 23.0117 9.32574 23.0309 9.32574 23.0396C9.32574 23.0482 9.30801 23.0554 9.28631 23.0554C9.26469 23.0554 9.24063 23.066 9.23291 23.0791C9.2252 23.0922 9.2179 23.0836 9.21671 23.0601C9.21546 23.0366 9.20385 23.0174 9.19078 23.0174C9.17778 23.0174 9.15859 22.9351 9.1483 22.8346C9.13794 22.7341 9.11729 22.6364 9.10248 22.6174C9.0876 22.5984 9.07543 22.5529 9.07543 22.5163C9.07543 22.4796 9.06291 22.4444 9.04762 22.4379C9.03232 22.4315 9.01981 22.3839 9.01981 22.3323C9.01981 22.2807 9.00951 22.2385 8.99693 22.2385C8.98441 22.2385 8.9712 22.1936 8.96759 22.1387C8.96397 22.0839 8.94923 22.0309 8.93477 22.0209C8.92038 22.011 8.90856 21.9678 8.90856 21.925C8.90856 21.8821 8.89722 21.839 8.88346 21.8291C8.86962 21.8191 8.85064 21.7683 8.84118 21.716C8.79849 21.4799 8.79043 21.449 8.76679 21.432C8.75302 21.4221 8.74169 21.3729 8.74169 21.3228C8.74169 21.2726 8.72917 21.2316 8.71387 21.2316C8.69858 21.2316 8.68606 21.1936 8.68606 21.1472C8.68606 21.1008 8.67355 21.0576 8.65825 21.0511C8.64295 21.0446 8.63044 20.9928 8.63044 20.936C8.63044 20.8791 8.61792 20.8326 8.60263 20.8326C8.58733 20.8326 8.57481 20.7899 8.57481 20.7376C8.57481 20.6854 8.5623 20.6426 8.547 20.6426C8.5317 20.6426 8.51919 20.5999 8.51919 20.5477C8.51919 20.4954 8.50667 20.4527 8.49138 20.4527C8.47608 20.4527 8.46357 20.4056 8.46357 20.3482C8.46357 20.2907 8.45105 20.2437 8.43575 20.2437C8.42046 20.2437 8.40794 20.2009 8.40794 20.1487C8.40794 20.0965 8.39543 20.0537 8.38013 20.0537C8.36483 20.0537 8.35232 20.011 8.35232 19.9587C8.35232 19.9065 8.3398 19.8637 8.32451 19.8637C8.30921 19.8637 8.29669 19.8167 8.29669 19.7592C8.29669 19.7018 8.28418 19.6548 8.26888 19.6548C8.25358 19.6548 8.24107 19.6456 8.24107 19.6344C8.24107 19.6041 8.31428 19.5598 8.36421 19.5598C8.38826 19.5598 8.40794 19.5512 8.40794 19.5408C8.40794 19.5303 8.43297 19.5218 8.46357 19.5218C8.49416 19.5218 8.51919 19.5132 8.51919 19.5028C8.51919 19.4923 8.54422 19.4838 8.57481 19.4838C8.60541 19.4838 8.63044 19.4752 8.63044 19.4648C8.63044 19.4543 8.65547 19.4458 8.68606 19.4458C8.71665 19.4458 8.74169 19.4372 8.74169 19.4268C8.74169 19.4163 8.76672 19.4078 8.79731 19.4078C8.8279 19.4078 8.85293 19.3992 8.85293 19.3888C8.85293 19.3783 8.87796 19.3698 8.90856 19.3698C8.93915 19.3698 8.96418 19.3629 8.96418 19.3544C8.96418 19.3459 9.00847 19.327 9.06257 19.3125C9.1339 19.2934 9.56485 19.1489 9.62242 19.1248C9.62499 19.1237 9.6469 19.128 9.67109 19.1344ZM21.6062 19.2058C21.7431 19.2515 21.8957 19.3006 21.9454 19.315C21.9951 19.3293 22.0358 19.3475 22.0358 19.3555C22.0358 19.3633 22.0608 19.3698 22.0914 19.3698C22.122 19.3698 22.1471 19.3783 22.1471 19.3888C22.1471 19.3992 22.1721 19.4078 22.2027 19.4078C22.2333 19.4078 22.2583 19.4163 22.2583 19.4268C22.2583 19.4372 22.2833 19.4458 22.3139 19.4458C22.3445 19.4458 22.3696 19.4543 22.3696 19.4648C22.3696 19.4752 22.3946 19.4838 22.4252 19.4838C22.4558 19.4838 22.4808 19.4923 22.4808 19.5028C22.4808 19.5132 22.5058 19.5218 22.5364 19.5218C22.567 19.5218 22.5921 19.5303 22.5921 19.5408C22.5921 19.5512 22.6117 19.5598 22.6358 19.5598C22.6857 19.5598 22.7589 19.6041 22.7589 19.6344C22.7589 19.6456 22.7464 19.6548 22.7311 19.6548C22.7158 19.6548 22.7033 19.7018 22.7033 19.7592C22.7033 19.8167 22.6908 19.8637 22.6755 19.8637C22.6602 19.8637 22.6477 19.9065 22.6477 19.9587C22.6477 20.011 22.6352 20.0537 22.6199 20.0537C22.6046 20.0537 22.5921 20.0965 22.5921 20.1487C22.5921 20.2009 22.5795 20.2437 22.5642 20.2437C22.549 20.2437 22.5364 20.2907 22.5364 20.3482C22.5364 20.4056 22.5239 20.4527 22.5086 20.4527C22.4933 20.4527 22.4808 20.4949 22.4808 20.5465C22.4808 20.5981 22.4683 20.6457 22.453 20.6521C22.4377 20.6586 22.4252 20.7019 22.4252 20.7483C22.4252 20.7947 22.4149 20.8326 22.4023 20.8326C22.3898 20.8326 22.3766 20.8775 22.373 20.9324C22.3694 20.9872 22.3546 21.0402 22.3402 21.0501C22.3258 21.0601 22.3139 21.105 22.3139 21.1499C22.3139 21.1948 22.3026 21.2316 22.2887 21.2316C22.2748 21.2316 22.256 21.2786 22.247 21.3361C22.2379 21.3935 22.2231 21.4876 22.214 21.545C22.205 21.6025 22.1874 21.6495 22.175 21.6495C22.1626 21.6495 22.1456 21.6901 22.1373 21.7398C22.1112 21.8957 22.0888 21.9807 22.0635 22.02C22.0403 22.0559 22.0256 22.1162 21.9916 22.3144C21.9835 22.3615 21.9695 22.4128 21.9604 22.4284C21.9513 22.4441 21.939 22.4783 21.933 22.5044C21.9271 22.5305 21.9089 22.6032 21.8927 22.6659C21.8765 22.7286 21.8568 22.8333 21.8489 22.8986C21.8411 22.9639 21.8236 23.0174 21.8101 23.0174C21.7966 23.0174 21.7855 23.0299 21.7855 23.0452C21.7855 23.0801 21.7067 23.0628 21.6432 23.0139C21.6184 22.9949 21.5805 22.9794 21.5589 22.9794C21.5374 22.9794 21.5016 22.9623 21.4796 22.9414C21.4575 22.9205 21.42 22.9034 21.3961 22.9034C21.3723 22.9034 21.3347 22.8863 21.3127 22.8654C21.2907 22.8445 21.2531 22.8274 21.2293 22.8274C21.2054 22.8274 21.1679 22.8103 21.1458 22.7894C21.1238 22.7685 21.0929 22.7514 21.0771 22.7514C21.0614 22.7513 21.0121 22.73 20.9677 22.7039C20.9233 22.6778 20.8772 22.6564 20.8653 22.6564C20.8535 22.6564 20.8273 22.6457 20.8072 22.6327C20.7449 22.5924 20.3695 22.4284 20.3396 22.4284C20.3049 22.4284 20.302 22.2827 20.3364 22.2682C20.3601 22.2581 20.3724 22.2191 20.411 22.0295C20.4206 21.9825 20.4397 21.9359 20.4534 21.9259C20.4671 21.916 20.4783 21.8797 20.4783 21.8452C20.4783 21.8107 20.4896 21.7825 20.5034 21.7825C20.5171 21.7825 20.5351 21.7462 20.5433 21.7018C20.5667 21.575 20.5913 21.4913 20.6174 21.45C20.6461 21.4046 20.6661 21.3315 20.707 21.1223C20.7239 21.0361 20.7481 20.9656 20.7609 20.9656C20.7738 20.9656 20.7843 20.9277 20.7843 20.8813C20.7843 20.8349 20.7968 20.7916 20.8121 20.7851C20.8274 20.7787 20.8399 20.7354 20.8399 20.689C20.8399 20.6426 20.8524 20.6046 20.8677 20.6046C20.883 20.6046 20.8955 20.5705 20.8955 20.5287C20.8955 20.4869 20.908 20.4527 20.9233 20.4527C20.9386 20.4527 20.9511 20.4099 20.9511 20.3577C20.9511 20.3054 20.9637 20.2627 20.979 20.2627C20.9943 20.2627 21.0068 20.2199 21.0068 20.1677C21.0068 20.1155 21.0193 20.0727 21.0346 20.0727C21.0499 20.0727 21.0624 20.0342 21.0624 19.9872C21.0624 19.9402 21.0749 19.9017 21.0902 19.9017C21.1055 19.9017 21.118 19.859 21.118 19.8067C21.118 19.7545 21.1305 19.7118 21.1458 19.7118C21.1611 19.7118 21.1736 19.669 21.1736 19.6168C21.1736 19.5645 21.1862 19.5218 21.2015 19.5218C21.2168 19.5218 21.2293 19.479 21.2293 19.4268C21.2293 19.3745 21.2418 19.3318 21.2571 19.3318C21.2724 19.3318 21.2849 19.2898 21.2849 19.2384C21.2849 19.1814 21.2985 19.1413 21.3197 19.1354C21.3388 19.1301 21.3559 19.1243 21.3559 19.1243C21.3559 19.1243 21.4694 19.1602 21.6062 19.2058ZM16.9462 23.0744C16.9462 23.1057 16.9587 23.1313 16.974 23.1313C16.9907 23.1313 17.0018 23.2077 17.0018 23.3225C17.0018 23.445 16.9919 23.5093 16.974 23.5018C16.9578 23.495 16.9462 23.5143 16.9462 23.5482C16.9462 23.5801 16.9337 23.6063 16.9184 23.6063C16.9031 23.6063 16.8906 23.6234 16.8906 23.6443C16.8906 23.6652 16.8781 23.6823 16.8628 23.6823C16.8475 23.6823 16.835 23.6961 16.835 23.713C16.835 23.7468 16.722 23.897 16.689 23.9071C16.6775 23.9106 16.6681 23.9279 16.6681 23.9456C16.6681 23.9633 16.6431 23.9902 16.6125 24.0052C16.5819 24.0203 16.5569 24.0442 16.5569 24.0583C16.5569 24.0724 16.5412 24.0952 16.5221 24.109C16.4497 24.161 16.39 24.2152 16.3899 24.2287C16.3899 24.2364 16.3524 24.2726 16.3065 24.3092C16.2607 24.3458 16.2232 24.3849 16.2232 24.3961C16.2231 24.4074 16.1918 24.4366 16.1536 24.4612C16.1153 24.4857 16.0841 24.5171 16.0841 24.531C16.0841 24.5448 16.034 24.5914 15.9728 24.6344C15.9116 24.6775 15.8616 24.7208 15.8616 24.7307C15.8616 24.7405 15.799 24.7903 15.7225 24.8411C15.646 24.892 15.5834 24.9391 15.5834 24.9458C15.5834 24.9524 15.5647 24.9707 15.5417 24.9863C15.5011 25.0141 15.4166 24.9867 15.4166 24.9458C15.4166 24.9391 15.354 24.892 15.2775 24.8411C15.201 24.7903 15.1384 24.7405 15.1384 24.7307C15.1384 24.7208 15.0884 24.6775 15.0272 24.6344C14.966 24.5914 14.9159 24.5453 14.9159 24.5322C14.9159 24.519 14.8847 24.4853 14.8464 24.4571C14.8082 24.4289 14.7769 24.3991 14.7768 24.3908C14.7768 24.3825 14.7393 24.3458 14.6935 24.3092C14.6476 24.2726 14.6101 24.2357 14.6101 24.2271C14.61 24.2185 14.5944 24.2003 14.5753 24.1865C14.4904 24.1254 14.4431 24.079 14.4431 24.0567C14.4431 24.0435 14.4181 24.0203 14.3875 24.0052C14.3569 23.9902 14.3319 23.9626 14.3319 23.9441C14.3319 23.9254 14.3194 23.9102 14.3041 23.9102C14.2888 23.9102 14.2763 23.897 14.2763 23.8809C14.2763 23.8648 14.2512 23.8333 14.2206 23.8109C14.1901 23.7885 14.165 23.7551 14.165 23.7368C14.165 23.7185 14.1525 23.6982 14.1372 23.6918C14.1219 23.6853 14.1094 23.6634 14.1094 23.6431C14.1094 23.6229 14.0969 23.6063 14.0816 23.6063C14.0663 23.6063 14.0538 23.5849 14.0538 23.5588C14.0538 23.5327 14.0413 23.5113 14.026 23.5113C14.0093 23.5113 13.9982 23.4353 13.9982 23.3213C13.9982 23.2073 14.0093 23.1313 14.026 23.1313C14.0413 23.1313 14.0538 23.1057 14.0538 23.0744V23.0174H15.5H16.9462V23.0744Z" fill="#04048C"/>
<path fill-rule="evenodd" clip-rule="evenodd" d="M12.7457 8.18774L12.5938 8.28548L12.7537 8.19259C12.8416 8.14146 12.9136 8.09748 12.9136 8.09485C12.9136 8.08223 12.887 8.09693 12.7457 8.18774ZM15.3819 13.4398C15.4469 13.4434 15.5533 13.4434 15.6183 13.4398C15.6833 13.4362 15.6301 13.4333 15.5001 13.4333C15.3701 13.4333 15.3169 13.4362 15.3819 13.4398ZM15.0412 13.4614C14.9704 13.48 15.0434 13.48 15.1385 13.4614C15.1945 13.4504 15.1972 13.4476 15.1525 13.4472C15.1219 13.447 15.0718 13.4533 15.0412 13.4614ZM15.8617 13.4614C15.9568 13.48 16.0299 13.48 15.959 13.4614C15.9284 13.4533 15.8783 13.447 15.8478 13.4472C15.803 13.4476 15.8058 13.4504 15.8617 13.4614ZM14.5923 13.579C14.5443 13.5969 14.4959 13.6205 14.4848 13.6315C14.4738 13.6424 14.5162 13.6306 14.5791 13.6051C14.6782 13.565 14.7127 13.5462 14.6866 13.5464C14.6828 13.5464 14.6404 13.5611 14.5923 13.579ZM16.3067 13.5524C16.3067 13.5558 16.3769 13.587 16.4627 13.6219C16.5485 13.6567 16.6105 13.677 16.6003 13.667C16.5651 13.6321 16.3067 13.5313 16.3067 13.5524ZM14.2625 13.7503C14.1717 13.8064 14.1094 13.8515 14.1243 13.8504C14.1509 13.8485 14.4635 13.6483 14.4398 13.6483C14.4331 13.6483 14.3533 13.6942 14.2625 13.7503ZM16.821 13.8184C16.9528 13.9126 16.9547 13.9136 16.9245 13.8778C16.9087 13.8591 16.8602 13.8247 16.8168 13.8014L16.7377 13.7589L16.821 13.8184ZM15.2915 14.0903C15.2207 14.1089 15.2937 14.1089 15.3889 14.0903C15.4448 14.0794 15.4475 14.0766 15.4028 14.0762C15.3722 14.0759 15.3221 14.0823 15.2915 14.0903ZM15.6114 14.0903C15.7065 14.1089 15.7795 14.1089 15.7087 14.0903C15.6781 14.0823 15.628 14.0759 15.5974 14.0762C15.5527 14.0766 15.5554 14.0794 15.6114 14.0903ZM15.1246 14.1413C15.0788 14.1598 15.0537 14.1749 15.069 14.1748C15.0969 14.1745 15.2481 14.1083 15.222 14.1078C15.2143 14.1076 15.1705 14.1227 15.1246 14.1413ZM15.7782 14.1125C15.7782 14.1165 15.8314 14.1412 15.8964 14.1674C15.9614 14.1936 16 14.2042 15.982 14.1909C15.9475 14.1654 15.7782 14.1003 15.7782 14.1125ZM16.045 14.2688C16.07 14.2921 16.0951 14.3113 16.1006 14.3113C16.1062 14.3113 16.0965 14.2921 16.0791 14.2688C16.0617 14.2454 16.0366 14.2263 16.0235 14.2263C16.0102 14.2263 16.0199 14.2454 16.045 14.2688ZM17.1716 14.2702C17.1731 14.2974 17.185 14.3389 17.198 14.3622C17.2139 14.3909 17.2164 14.3771 17.2055 14.3198C17.1875 14.2241 17.1674 14.1948 17.1716 14.2702ZM13.7934 14.3093C13.7827 14.3503 13.7798 14.3874 13.787 14.3917C13.8057 14.4032 13.8394 14.2834 13.8249 14.2569C13.8183 14.2448 13.8041 14.2683 13.7934 14.3093ZM14.8512 14.3566C14.826 14.3719 14.8283 14.5698 14.8539 14.5944C14.8652 14.6052 14.8743 14.5535 14.8743 14.4796C14.8743 14.4057 14.8733 14.3453 14.872 14.3453C14.8707 14.3453 14.8613 14.3504 14.8512 14.3566ZM16.1303 14.3996C16.1537 14.4748 16.1676 14.4813 16.1676 14.4171C16.1676 14.388 16.1553 14.3596 16.1402 14.3539C16.1231 14.3475 16.1193 14.3646 16.1303 14.3996ZM16.144 14.5266C16.1417 14.5468 16.1317 14.5774 16.1218 14.5946C16.1079 14.6185 16.1116 14.6213 16.1378 14.6066C16.1566 14.596 16.1665 14.5654 16.16 14.5386C16.1516 14.5041 16.1469 14.5006 16.144 14.5266ZM13.781 14.5917C13.7817 14.6104 13.7919 14.6487 13.8036 14.6767L13.8248 14.7277L13.8262 14.6767C13.8269 14.6487 13.8167 14.6104 13.8036 14.5917L13.7797 14.5577L13.781 14.5917ZM17.1827 14.6342C17.172 14.6729 17.1691 14.7081 17.1763 14.7124C17.1834 14.7168 17.1975 14.6885 17.2078 14.6495C17.218 14.6105 17.2208 14.5754 17.2142 14.5713C17.2076 14.5672 17.1934 14.5955 17.1827 14.6342ZM14.9712 14.7292C15.0156 14.773 15.2497 14.8724 15.306 14.8715C15.3286 14.8712 15.3078 14.8604 15.2597 14.8476C15.2116 14.8348 15.1189 14.7949 15.0537 14.759C14.9884 14.7231 14.9513 14.7097 14.9712 14.7292ZM15.8074 14.8225C15.7393 14.8498 15.6958 14.8722 15.7106 14.8722C15.741 14.8722 15.9451 14.7903 15.9451 14.7781C15.9451 14.7672 15.9461 14.7669 15.8074 14.8225ZM15.4236 14.8844C15.4657 14.8883 15.5345 14.8883 15.5766 14.8844C15.6187 14.8805 15.5842 14.8773 15.5001 14.8773C15.416 14.8773 15.3816 14.8805 15.4236 14.8844ZM13.9677 14.9657C14.0145 15.0211 14.053 15.0519 14.0528 15.0337C14.0527 15.0243 14.027 14.9975 13.9958 14.9742C13.958 14.946 13.9485 14.9431 13.9677 14.9657ZM16.989 14.9842C16.9631 15.0083 16.9467 15.031 16.9525 15.0346C16.9584 15.0382 16.9851 15.0184 17.012 14.9907C17.0719 14.9286 17.054 14.9236 16.989 14.9842ZM14.136 15.1261C14.2456 15.2108 14.4852 15.3429 14.5875 15.3753C14.7082 15.4134 14.6803 15.3936 14.529 15.3337C14.3935 15.28 14.1095 15.1048 14.1095 15.0748C14.1095 15.0662 14.0959 15.0592 14.0793 15.0592C14.0628 15.0592 14.0883 15.0893 14.136 15.1261ZM16.7795 15.1696C16.7437 15.1929 16.7196 15.2149 16.7261 15.2184C16.7325 15.2218 16.7669 15.2027 16.8024 15.1759C16.8821 15.1159 16.868 15.112 16.7795 15.1696ZM16.6024 15.273C16.5586 15.2966 16.5282 15.3192 16.5349 15.3233C16.5416 15.3274 16.583 15.3079 16.6268 15.28C16.7236 15.2182 16.711 15.2147 16.6024 15.273ZM15.1995 15.5207C15.2348 15.5267 15.3701 15.5317 15.5001 15.5317C15.6301 15.5317 15.7654 15.5267 15.8008 15.5207C15.8361 15.5146 15.7008 15.5096 15.5001 15.5096C15.2994 15.5096 15.1641 15.5146 15.1995 15.5207Z" fill="#4058B0"/>
<path fill-rule="evenodd" clip-rule="evenodd" d="M15.1662 13.4283C15.1193 13.438 15.1419 13.4395 15.2357 13.4329C15.3122 13.4275 15.38 13.4203 15.3864 13.4168C15.4083 13.4049 15.2357 13.4139 15.1662 13.4283ZM15.7085 13.4275C15.8262 13.4458 15.9271 13.4458 15.8337 13.4275C15.7955 13.42 15.7329 13.414 15.6946 13.4142C15.6322 13.4145 15.6336 13.4158 15.7085 13.4275ZM16.0684 13.4788C16.144 13.4969 16.2103 13.509 16.2156 13.5056C16.2289 13.4976 16.008 13.4442 15.9652 13.4453C15.9464 13.4457 15.9928 13.4608 16.0684 13.4788ZM14.8325 13.487C14.7417 13.5187 14.7734 13.519 14.8918 13.4876C14.9433 13.4739 14.9667 13.4628 14.9437 13.4627C14.9208 13.4627 14.8707 13.4736 14.8325 13.487ZM14.5029 13.5976C14.4394 13.6257 14.3875 13.6528 14.3875 13.6579C14.3875 13.6659 14.5442 13.6007 14.6225 13.5601C14.6883 13.526 14.6069 13.5515 14.5029 13.5976ZM16.376 13.5577C16.4471 13.5988 16.6217 13.6684 16.5795 13.6388C16.5538 13.6207 16.4912 13.5914 16.4405 13.5738C16.3897 13.5561 16.3607 13.5489 16.376 13.5577ZM14.2606 13.7207L14.1789 13.7759L14.2693 13.726C14.3535 13.6795 14.3725 13.6654 14.351 13.6654C14.3462 13.6654 14.3055 13.6903 14.2606 13.7207ZM16.7652 13.7547C16.8399 13.8084 16.9061 13.8524 16.9121 13.8524C16.9311 13.8524 16.7605 13.7265 16.6934 13.6909C16.658 13.6722 16.6904 13.7009 16.7652 13.7547ZM15.4235 14.1026C15.4655 14.1064 15.5344 14.1064 15.5764 14.1026C15.6185 14.0987 15.5841 14.0955 15.5 14.0955C15.4158 14.0955 15.3814 14.0987 15.4235 14.1026ZM15.7642 14.1357C15.8101 14.1505 15.8695 14.1743 15.8963 14.1886C15.923 14.2029 15.9449 14.2072 15.9449 14.1981C15.9449 14.181 15.7471 14.1069 15.7048 14.1081C15.6915 14.1084 15.7183 14.1208 15.7642 14.1357ZM17.2104 14.4728C17.2104 14.5984 17.2189 14.6879 17.2293 14.6719C17.2397 14.6559 17.2482 14.5663 17.2482 14.4728C17.2482 14.3793 17.2397 14.2898 17.2293 14.2737C17.2189 14.2577 17.2104 14.3473 17.2104 14.4728ZM13.7647 14.2873C13.742 14.3234 13.7468 14.6352 13.7706 14.6719C13.781 14.6879 13.7895 14.6019 13.7895 14.4807C13.7895 14.3595 13.7877 14.2604 13.7856 14.2604C13.7833 14.2604 13.7739 14.2725 13.7647 14.2873ZM16.0879 14.3453C16.0879 14.3594 16.0987 14.3861 16.1118 14.4048C16.1269 14.4263 16.1357 14.4294 16.1357 14.4133C16.1357 14.3993 16.125 14.3725 16.1118 14.3538C16.0967 14.3324 16.0879 14.3293 16.0879 14.3453ZM14.8793 14.3688C14.8688 14.3855 14.861 14.4119 14.862 14.4275C14.8632 14.4463 14.8729 14.442 14.8907 14.4148C14.9054 14.3922 14.9132 14.3658 14.9079 14.3561C14.9026 14.3465 14.8898 14.3522 14.8793 14.3688ZM14.8642 14.5323C14.8642 14.5463 14.8749 14.5731 14.8881 14.5918C14.9032 14.6132 14.912 14.6164 14.912 14.6003C14.912 14.5863 14.9012 14.5595 14.8881 14.5408C14.873 14.5194 14.8642 14.5163 14.8642 14.5323ZM15.9607 14.7326C15.8626 14.8044 15.8607 14.8075 15.9422 14.7618C16.0194 14.7185 16.104 14.65 16.078 14.6519C16.0736 14.6522 16.0209 14.6885 15.9607 14.7326ZM14.9715 14.7076C14.9715 14.7105 15.0114 14.7354 15.0601 14.7629L15.1488 14.8128L15.081 14.7585C15.0235 14.7124 14.9715 14.6882 14.9715 14.7076ZM13.8054 14.765C13.8043 14.7855 13.8159 14.807 13.8312 14.8128C13.8641 14.8252 13.8641 14.8086 13.8312 14.7618C13.8082 14.729 13.8072 14.7291 13.8054 14.765ZM15.3149 14.8593C15.3325 14.8662 15.4158 14.8718 15.5 14.8718C15.5841 14.8718 15.6674 14.8662 15.685 14.8593C15.7027 14.8524 15.6194 14.8468 15.5 14.8468C15.3805 14.8468 15.2972 14.8524 15.3149 14.8593ZM14.4183 15.3225C14.5527 15.3877 14.8072 15.4741 14.9159 15.4914C14.9541 15.4976 14.8978 15.4767 14.7907 15.4451C14.6837 15.4135 14.5365 15.3596 14.4637 15.3254C14.3909 15.2912 14.3234 15.2632 14.3138 15.2632C14.3041 15.2632 14.3512 15.2899 14.4183 15.3225ZM16.4655 15.3554C16.3113 15.4206 16.254 15.4545 16.376 15.4084C16.548 15.3433 16.6523 15.2973 16.6259 15.2982C16.6108 15.2987 16.5387 15.3244 16.4655 15.3554ZM16.1257 15.4684C16.0645 15.4864 16.0458 15.4964 16.084 15.4905C16.1628 15.4786 16.3073 15.4343 16.2648 15.4352C16.2495 15.4355 16.1869 15.4505 16.1257 15.4684ZM15.0689 15.5182C15.0995 15.5262 15.1433 15.5328 15.1662 15.5328C15.1925 15.5328 15.1873 15.5274 15.1523 15.5182C15.1217 15.5102 15.0779 15.5036 15.055 15.5036C15.0287 15.5036 15.0338 15.509 15.0689 15.5182ZM15.8476 15.5182C15.8126 15.5274 15.8074 15.5328 15.8337 15.5328C15.8566 15.5328 15.9004 15.5262 15.931 15.5182C15.9661 15.509 15.9712 15.5036 15.9449 15.5036C15.922 15.5036 15.8782 15.5102 15.8476 15.5182ZM15.3957 15.5476C15.453 15.5513 15.5469 15.5513 15.6042 15.5476C15.6616 15.5439 15.6147 15.5409 15.5 15.5409C15.3852 15.5409 15.3383 15.5439 15.3957 15.5476Z" fill="#6484C4"/>
<path fill-rule="evenodd" clip-rule="evenodd" d="M15.4515 13.4226C15.4938 13.4265 15.5564 13.4265 15.5905 13.4224C15.6247 13.4184 15.5902 13.4152 15.5137 13.4153C15.4372 13.4154 15.4092 13.4187 15.4515 13.4226ZM14.2745 13.7292L14.1787 13.7929L14.283 13.7343C14.3801 13.6798 14.4001 13.6654 14.3788 13.6654C14.3742 13.6654 14.3273 13.6941 14.2745 13.7292Z" fill="#5C7CC4"/>
</svg>
