<svg width="32" height="32" viewBox="0 0 32 32" fill="none" xmlns="http://www.w3.org/2000/svg">
<circle cx="15.8862" cy="15.7871" r="15.7871" fill="white"/>
<path fill-rule="evenodd" clip-rule="evenodd" d="M12.4 7.02947C12.4072 7.05193 12.4026 7.05758 12.384 7.0491C12.3645 7.04017 12.3601 7.04729 12.3667 7.07721C12.373 7.10578 12.365 7.12117 12.3386 7.13111C12.3184 7.13873 12.3062 7.15014 12.3114 7.15644C12.3294 7.17769 12.2851 7.21973 12.2579 7.20731C12.2393 7.19889 12.2349 7.20282 12.2438 7.21983C12.2587 7.24849 12.2231 7.36335 12.1994 7.36335C12.1906 7.36335 12.1878 7.35488 12.1932 7.34458C12.1986 7.33423 12.1968 7.32121 12.1892 7.31566C12.1817 7.31011 12.1744 7.32222 12.1731 7.34256C12.1718 7.36366 12.1849 7.38394 12.2036 7.38975C12.2359 7.39979 12.2364 7.46595 12.2364 11.4807C12.2364 13.7251 12.2305 15.557 12.2232 15.5516C12.2054 15.5386 12.2096 15.6353 12.2277 15.6547C12.2355 15.6632 12.2356 15.6573 12.228 15.6417C12.2181 15.6214 12.2204 15.6179 12.2364 15.6296C12.254 15.6425 12.2527 15.6509 12.2305 15.6703C12.1857 15.7092 12.1955 15.7471 12.2464 15.7319C12.2727 15.7241 12.2862 15.7266 12.2802 15.7383C12.2746 15.7489 12.2813 15.7709 12.2949 15.7871C12.3086 15.8034 12.3155 15.8216 12.3104 15.8278C12.2885 15.8537 12.3245 15.8838 12.3488 15.8599C12.3622 15.8467 12.3785 15.8422 12.385 15.8499C12.3915 15.8577 12.3856 15.8724 12.3719 15.8828C12.3511 15.8984 12.3521 15.9016 12.3776 15.9019C12.3965 15.9021 12.4037 15.9111 12.3963 15.9255C12.3887 15.94 12.3916 15.9433 12.404 15.9342C12.415 15.9261 12.4194 15.9088 12.4139 15.8957C12.4084 15.8826 12.414 15.8862 12.4263 15.9037C12.448 15.9343 12.5326 15.9729 12.5185 15.9457C12.5147 15.9384 15.0209 15.9348 18.0878 15.9376C21.8571 15.9411 23.6676 15.9495 23.6748 15.9634C23.6812 15.9755 23.7051 15.9624 23.7334 15.9313C23.7707 15.8902 23.7844 15.8846 23.7956 15.9055C23.8067 15.9263 23.81 15.9247 23.8102 15.8983C23.8103 15.8796 23.8193 15.8577 23.8301 15.8498C23.8409 15.8419 23.8452 15.844 23.8397 15.8546C23.8342 15.8652 23.836 15.8859 23.8437 15.9008C23.8544 15.9212 23.8604 15.9176 23.869 15.8857C23.8753 15.862 23.89 15.8481 23.9026 15.8539C23.9149 15.8595 23.9296 15.85 23.9352 15.8327C23.9425 15.8101 23.9347 15.8011 23.9076 15.8009C23.8781 15.8007 23.8753 15.7966 23.8946 15.7821C23.9082 15.7719 23.9249 15.7676 23.9317 15.7726C23.9385 15.7776 23.9486 15.7731 23.954 15.7626C23.9595 15.7521 23.955 15.7369 23.9441 15.7289C23.9308 15.7191 23.9288 15.7231 23.9379 15.7407C23.9471 15.7583 23.945 15.7622 23.9318 15.7525C23.9016 15.7304 23.9248 15.7027 23.9634 15.7146C23.9832 15.7208 23.9974 15.7152 23.9974 15.7015C23.9974 15.6884 23.9898 15.6833 23.9804 15.6902C23.9711 15.6971 23.9634 15.6931 23.9634 15.6813C23.9634 15.6696 23.971 15.6599 23.9803 15.6599C24.0118 15.6599 24.0031 7.36467 23.9715 7.35028C23.9489 7.33999 23.9494 7.33469 23.9757 7.31047C24.0044 7.28397 24.0044 7.28155 23.9762 7.26141C23.9598 7.24976 23.9464 7.23219 23.9464 7.22235C23.9464 7.16058 23.9106 7.09785 23.888 7.12006C23.8685 7.13929 23.8658 7.1359 23.8733 7.10179C23.8807 7.06808 23.8767 7.06263 23.8522 7.07378C23.8303 7.08377 23.8256 7.08049 23.8352 7.06197C23.8453 7.04264 23.8407 7.04088 23.8168 7.05486C23.7802 7.0761 23.7591 7.07615 23.7312 7.05506C23.7203 7.04688 21.2022 7.04022 18.1354 7.04032C14.4183 7.04042 12.5593 7.03376 12.5593 7.02024C12.5593 7.00913 12.5512 7 12.5413 7C12.5314 7 12.5275 7.00807 12.5326 7.01792C12.5454 7.04249 12.497 7.08731 12.4751 7.07121C12.4653 7.06404 12.4574 7.0485 12.4574 7.03669C12.4574 7.02402 12.469 7.0266 12.4856 7.04295C12.5097 7.06656 12.5127 7.06636 12.5058 7.04163C12.4922 6.99288 12.4582 6.99399 12.4414 7.04375C12.4303 7.07676 12.4252 7.08064 12.4244 7.05672C12.4238 7.03795 12.4158 7.01701 12.4066 7.01024C12.3969 7.00313 12.3941 7.0113 12.4 7.02947ZM12.2622 7.13853C12.2448 7.16593 12.2396 7.18173 12.2505 7.1737C12.2614 7.16568 12.2704 7.16926 12.2704 7.18168C12.2704 7.19409 12.2789 7.19803 12.2892 7.19046C12.3024 7.18077 12.3013 7.17168 12.2855 7.16013C12.2691 7.14807 12.2755 7.13802 12.3092 7.12278C12.3623 7.09881 12.3694 7.08201 12.3246 7.08599C12.3077 7.08751 12.2796 7.11118 12.2622 7.13853ZM23.3176 11.4713V15.1149H18.1085H12.8994L12.8951 11.4662L12.8907 7.81755L18.1042 7.82264L23.3176 7.82779V11.4713ZM12.2364 15.7878C12.2364 15.8026 12.2472 15.8147 12.2603 15.8147C12.2734 15.8147 12.2803 15.8026 12.2755 15.7878C12.2707 15.773 12.2599 15.7609 12.2516 15.7609C12.2433 15.7609 12.2364 15.773 12.2364 15.7878ZM22.4336 17.3303C22.4333 17.3605 22.4309 17.3613 22.4168 17.3354C22.4039 17.3118 22.4003 17.3112 22.4001 17.3327C22.3999 17.35 22.3875 17.3565 22.3669 17.3501C22.3483 17.3443 22.3302 17.3516 22.3253 17.3669C22.3194 17.3851 22.326 17.3902 22.3454 17.3827C22.3613 17.3766 22.3514 17.3895 22.3233 17.4115C22.2953 17.4335 22.2657 17.4443 22.2575 17.4354C22.2494 17.4265 22.2321 17.4241 22.2191 17.4301C22.202 17.4378 22.1988 17.4306 22.2074 17.4039C22.218 17.3711 22.2164 17.3703 22.1924 17.3966C22.1727 17.4184 22.1698 17.437 22.1816 17.4666C22.194 17.4974 22.1888 17.495 22.16 17.4565C22.1352 17.4234 22.1259 17.4182 22.133 17.4414C22.1395 17.4627 22.1356 17.4768 22.1231 17.477C22.1075 17.4773 22.1073 17.481 22.1224 17.4924C22.1357 17.5025 22.1287 17.5151 22.1011 17.5306C22.067 17.5497 22.057 17.5479 22.0434 17.5203C22.0327 17.4984 22.0268 17.496 22.0264 17.5132C22.0261 17.528 22.0173 17.5333 22.0063 17.5252C21.9949 17.5168 21.9912 17.5196 21.9977 17.532C22.0113 17.5581 21.9622 17.583 21.9352 17.5638C21.9204 17.5532 21.9202 17.557 21.9346 17.5788C21.9722 17.636 21.9123 17.7056 21.8654 17.6593C21.8407 17.6349 21.822 17.6517 21.822 17.6981C21.822 17.7545 21.7805 17.8406 21.7582 17.8306C21.7457 17.825 21.737 17.8375 21.737 17.8609C21.737 17.8827 21.7288 17.9006 21.7188 17.9006C21.7083 17.9006 21.7053 17.8833 21.7118 17.859C21.7218 17.8216 21.7195 17.8199 21.6892 17.8424C21.6706 17.8561 21.659 17.8785 21.6634 17.892C21.6677 17.9056 21.6574 17.9289 21.6404 17.9439C21.6234 17.9589 21.608 17.9985 21.606 18.0318C21.6027 18.089 21.6039 18.0903 21.6273 18.0532C21.6409 18.0316 21.652 18.0237 21.652 18.0356C21.652 18.0603 21.6176 18.0981 21.5925 18.101C21.5832 18.1021 21.5754 18.1152 21.5753 18.1302C21.5751 18.1453 21.5656 18.171 21.5542 18.1874C21.5427 18.2038 21.539 18.2247 21.5459 18.2337C21.5529 18.2428 21.5493 18.244 21.538 18.2363C21.5268 18.2286 21.5218 18.209 21.5271 18.1927C21.5324 18.1764 21.5278 18.163 21.5169 18.163C21.506 18.163 21.5015 18.1716 21.5069 18.182C21.5123 18.1924 21.5032 18.2103 21.4866 18.2217C21.4701 18.2332 21.4661 18.2428 21.4778 18.2432C21.509 18.2441 21.5038 18.2842 21.4725 18.2842C21.458 18.2842 21.451 18.2936 21.457 18.3052C21.4631 18.3168 21.4587 18.3395 21.4474 18.3557C21.4362 18.3719 21.4321 18.3851 21.4385 18.3851C21.4448 18.3851 21.4364 18.4123 21.4199 18.4456C21.4033 18.4789 21.3837 18.5062 21.3764 18.5062C21.3691 18.5062 21.3631 18.5201 21.3631 18.5372C21.3631 18.5619 21.3562 18.5638 21.3291 18.5466C21.2938 18.5241 21.2792 18.5527 21.3132 18.5777C21.3252 18.5865 21.3223 18.6027 21.3047 18.6259C21.29 18.6451 21.2838 18.6684 21.2908 18.6776C21.2979 18.6868 21.2905 18.6887 21.2744 18.6819C21.2584 18.6751 21.24 18.6795 21.2335 18.6919C21.2265 18.7054 21.2296 18.7086 21.2415 18.6999C21.2523 18.692 21.2611 18.6929 21.2611 18.702C21.2611 18.7111 21.2455 18.7301 21.2264 18.7442C21.2074 18.7584 21.1965 18.779 21.2022 18.79C21.208 18.801 21.2025 18.8075 21.1902 18.8045C21.1777 18.8014 21.1698 18.8114 21.1726 18.8266C21.1757 18.8442 21.168 18.85 21.1513 18.8424C21.1275 18.8316 21.122 18.8412 21.1268 18.8847C21.1278 18.893 21.1373 18.8974 21.1481 18.8945C21.1588 18.8916 21.1557 18.9006 21.1411 18.9147C21.1265 18.9287 21.1096 18.956 21.1035 18.9752C21.0963 18.9981 21.0825 19.0056 21.0635 18.997C21.044 18.988 21.0386 18.9914 21.0469 19.0074C21.0541 19.0214 21.0489 19.031 21.0341 19.031C21.0203 19.031 21.006 19.0417 21.0024 19.0548C20.9986 19.0681 20.9864 19.0718 20.9746 19.0631C20.9583 19.0511 20.9581 19.0411 20.9738 19.0187C20.998 18.984 20.9887 18.9694 20.9391 18.965C20.913 18.9627 20.9045 18.9514 20.9099 18.9267C20.9141 18.9074 20.9064 18.8753 20.8926 18.8554C20.8777 18.8336 20.8723 18.8312 20.8792 18.8494C20.8855 18.866 20.8702 18.85 20.8451 18.8138C20.82 18.7777 20.7933 18.7526 20.7858 18.7581C20.7783 18.7636 20.7626 18.7546 20.7511 18.7381C20.7395 18.7216 20.7358 18.7081 20.7427 18.7081C20.7497 18.7081 20.7469 18.6958 20.7365 18.681C20.726 18.6661 20.7232 18.6464 20.7301 18.6374C20.7371 18.6283 20.7351 18.6254 20.7257 18.6309C20.7164 18.6366 20.6954 18.6244 20.679 18.604C20.6627 18.5835 20.654 18.5668 20.6598 18.5668C20.6657 18.5668 20.6619 18.5545 20.6515 18.5397C20.6411 18.5248 20.6376 18.5066 20.6437 18.4993C20.6499 18.492 20.6419 18.486 20.626 18.486C20.6019 18.486 20.6003 18.4931 20.616 18.5281C20.6265 18.5513 20.6306 18.5755 20.6251 18.5819C20.6197 18.5884 20.6153 18.5848 20.6153 18.5739C20.6153 18.5631 20.5997 18.5343 20.5806 18.51C20.5599 18.4835 20.5544 18.4658 20.567 18.4658C20.5838 18.4658 20.5837 18.4607 20.567 18.4407C20.5502 18.4208 20.5432 18.4209 20.5326 18.4412C20.5224 18.4609 20.513 18.4585 20.492 18.431C20.4651 18.3956 20.4623 18.3873 20.4623 18.3416C20.4623 18.3277 20.4498 18.3317 20.4313 18.3517C20.3932 18.3925 20.3656 18.396 20.3932 18.3564C20.4098 18.3326 20.4065 18.3298 20.3741 18.3397C20.3407 18.3499 20.338 18.3472 20.3558 18.3213C20.3728 18.2967 20.372 18.2909 20.3516 18.2909C20.3377 18.2909 20.3264 18.2969 20.3264 18.3043C20.3264 18.3118 20.3149 18.3178 20.3009 18.3178C20.2868 18.3178 20.2752 18.308 20.2751 18.2959C20.275 18.2839 20.2674 18.2877 20.2584 18.3043C20.2451 18.3288 20.2418 18.3257 20.2416 18.2885C20.2414 18.2469 20.2452 18.2447 20.2796 18.2665C20.3134 18.2879 20.3153 18.2871 20.2961 18.2594C20.2733 18.2266 20.2008 18.1946 20.2161 18.2241C20.221 18.2334 20.2172 18.2467 20.2077 18.2537C20.1982 18.2606 20.1904 18.2521 20.1904 18.2346C20.1904 18.2103 20.1782 18.2054 20.139 18.2136C20.1016 18.2214 20.0847 18.2155 20.0772 18.192C20.0687 18.166 20.0639 18.165 20.0523 18.1866C20.0406 18.2086 20.0379 18.2087 20.0377 18.1869C20.0375 18.1689 20.0256 18.1647 20.0008 18.1741C19.9716 18.1851 19.9664 18.1813 19.975 18.1548C19.9839 18.1271 19.9801 18.1252 19.9516 18.1434C19.9316 18.1561 19.9226 18.175 19.9298 18.1893C19.9392 18.208 19.9363 18.2081 19.9169 18.1894C19.9007 18.1738 19.883 18.172 19.8669 18.1841C19.8272 18.2139 19.7976 18.2064 19.803 18.1681C19.8087 18.1277 18.9445 18.1038 18.9237 18.1438C18.9175 18.1557 18.292 18.1649 17.2789 18.1679L15.644 18.1728L17.2841 18.1833L18.9242 18.1937L17.2841 18.1935C15.7204 18.1933 15.6442 18.1916 15.6465 18.1573C15.6483 18.1312 15.6433 18.1268 15.6283 18.1416C15.5956 18.1739 14.5329 18.18 14.5433 18.1479C14.5478 18.134 14.54 18.1227 14.526 18.1227C14.512 18.1227 14.4961 18.1363 14.4907 18.1529C14.4853 18.1696 14.4721 18.1832 14.4613 18.1832C14.4472 18.1832 14.4476 18.1747 14.4628 18.1529C14.492 18.1112 14.4755 18.115 14.4317 18.1601C14.4118 18.1806 14.4004 18.2033 14.4065 18.2105C14.4126 18.2177 14.4086 18.2236 14.3977 18.2236C14.3868 18.2236 14.3779 18.21 14.3779 18.1933C14.3779 18.1767 14.3694 18.163 14.359 18.163C14.347 18.163 14.3443 18.1832 14.3516 18.2185C14.362 18.2688 14.3609 18.2706 14.34 18.2372C14.3177 18.2016 14.3154 18.2017 14.2752 18.2405C14.2522 18.2626 14.2396 18.288 14.2471 18.297C14.2546 18.306 14.268 18.2999 14.2769 18.2835C14.2889 18.2613 14.2914 18.2666 14.2869 18.3043C14.2822 18.3427 14.272 18.3533 14.2443 18.3485C14.2243 18.345 14.2079 18.3518 14.2079 18.3636C14.2079 18.3754 14.1956 18.3851 14.1806 18.3851C14.1629 18.3851 14.1568 18.3961 14.1634 18.4164C14.1692 18.4344 14.1664 18.4425 14.1567 18.4354C14.1475 18.4286 14.1399 18.4316 14.1399 18.442C14.1399 18.4524 14.117 18.4722 14.0889 18.486C14.0609 18.4998 14.038 18.5194 14.038 18.5295C14.038 18.5396 14.0207 18.5561 13.9997 18.5662C13.9689 18.5808 13.9675 18.5846 13.9922 18.5857C14.0286 18.5872 14.0163 18.618 13.967 18.6494C13.9421 18.6652 13.9352 18.6653 13.9433 18.6497C13.9505 18.6359 13.9447 18.6324 13.9276 18.6401C13.9127 18.6469 13.904 18.6567 13.9084 18.6618C13.9127 18.6669 13.9035 18.6887 13.8879 18.7103C13.8611 18.7475 13.8586 18.7477 13.8378 18.7139C13.8173 18.6807 13.8153 18.6811 13.8064 18.7216C13.8012 18.7454 13.7823 18.7694 13.7644 18.775C13.7423 18.7818 13.7354 18.7959 13.7428 18.8187C13.7509 18.8438 13.7455 18.8507 13.7216 18.8458C13.702 18.8418 13.6914 18.8497 13.6942 18.866C13.6968 18.8807 13.6922 18.8878 13.684 18.8818C13.6758 18.8758 13.6545 18.8838 13.6368 18.8997C13.6059 18.9274 13.6062 18.9282 13.6428 18.9204C13.6871 18.9109 13.6907 18.9215 13.6568 18.9619C13.6284 18.9956 13.5961 18.9998 13.5961 18.9697C13.5961 18.9576 13.586 18.9597 13.5723 18.9747C13.5571 18.9913 13.5542 19.009 13.5642 19.0236C13.5809 19.0479 13.5375 19.0812 13.4986 19.0738C13.4869 19.0716 13.4817 19.0825 13.4869 19.0984C13.4933 19.1184 13.4831 19.1269 13.4527 19.1269C13.4053 19.1269 13.3578 19.1639 13.3587 19.2001C13.359 19.2126 13.3694 19.2069 13.3818 19.1875C13.3942 19.1681 13.4188 19.1529 13.4365 19.1538C13.4605 19.1549 13.4622 19.1583 13.4434 19.1671C13.4295 19.1736 13.4075 19.1915 13.3945 19.207C13.3814 19.2226 13.36 19.2303 13.3468 19.2243C13.3336 19.2183 13.3185 19.2269 13.3132 19.2434C13.3079 19.2598 13.2895 19.2733 13.2723 19.2733C13.2552 19.2733 13.2368 19.2818 13.2314 19.2921C13.2164 19.3209 13.2566 19.3414 13.278 19.3159C13.2884 19.3036 13.3045 19.2935 13.3138 19.2935C13.347 19.2935 13.2634 19.3538 13.2016 19.3744C13.1569 19.3894 13.1414 19.4041 13.1482 19.4252C13.1541 19.4435 13.1477 19.455 13.1315 19.455C13.117 19.455 13.0997 19.4655 13.0931 19.4783C13.0863 19.4913 13.0884 19.4961 13.0978 19.4892C13.107 19.4825 13.1145 19.4901 13.1145 19.5063C13.1145 19.542 13.0998 19.5438 13.0726 19.5115C13.0514 19.4863 13.0446 19.5064 13.0509 19.5761C13.0525 19.5942 13.0482 19.5983 13.0402 19.5862C13.0218 19.5586 12.9832 19.5511 12.9885 19.5762C12.9912 19.5894 12.8246 19.5982 12.5142 19.6014C12.251 19.6041 12.0394 19.5992 12.0439 19.5906C12.0504 19.578 12.0544 19.3341 12.0503 19.1954C12.0498 19.1804 12.0388 19.1729 12.0256 19.1789C12.0015 19.1899 11.9979 19.1462 12.0207 19.1191C12.0441 19.0912 12.0317 19.0689 11.9994 19.0812C11.9741 19.0907 11.967 19.0845 11.9689 19.0544C11.9706 19.0293 11.9802 19.0193 11.9958 19.0264C12.0114 19.0335 12.0173 19.0273 12.0121 19.009C12.0077 18.9934 11.9933 18.9806 11.9801 18.9806C11.9668 18.9806 11.9462 18.9696 11.9342 18.9562C11.9223 18.9428 11.8993 18.9368 11.8832 18.943C11.8593 18.9521 11.8584 18.9504 11.8787 18.9333C11.8922 18.9219 11.9095 18.9171 11.9169 18.9225C11.9244 18.928 11.9305 18.9231 11.9305 18.9116C11.9305 18.8989 11.909 18.8958 11.8753 18.9037C11.8252 18.9155 11.8222 18.9136 11.8433 18.883C11.8562 18.8645 11.8638 18.8487 11.8603 18.8479C11.7856 18.8301 11.7764 18.831 11.7882 18.8544C11.7958 18.8692 11.7879 18.8671 11.769 18.8494C11.7504 18.8317 11.7423 18.8296 11.7498 18.8443C11.7599 18.8644 11.6062 18.8696 11.0034 18.8696C10.3123 18.8696 10.2452 18.8666 10.2548 18.837C10.2623 18.8137 10.258 18.8078 10.2396 18.8162C10.2239 18.8234 10.2139 18.8164 10.2139 18.7982C10.2139 18.7819 10.2273 18.7685 10.2437 18.7683C10.2668 18.7681 10.2683 18.7642 10.2503 18.7507C10.2335 18.738 10.2326 18.7294 10.2469 18.7189C10.2618 18.708 10.2617 18.6976 10.2468 18.6762C10.2359 18.6607 10.2191 18.6538 10.2094 18.6609C10.1991 18.6685 10.1968 18.6642 10.2038 18.6506C10.2106 18.6376 10.2062 18.6272 10.1937 18.627C10.1775 18.6268 10.1784 18.6214 10.1969 18.6071C10.2189 18.5903 10.2184 18.5875 10.1935 18.5872C10.1756 18.587 10.1506 18.5505 10.1278 18.4911C10.1077 18.4383 10.0874 18.407 10.0828 18.4215C10.0766 18.4411 10.0682 18.4386 10.0497 18.4114C10.0326 18.3864 10.0222 18.3826 10.0163 18.3991C10.0098 18.4175 9.69705 18.4224 8.68746 18.4197L7.36715 18.4162L8.64608 18.4106C9.48422 18.4069 9.925 18.3981 9.925 18.3848C9.925 18.3715 9.48456 18.3664 8.62908 18.3698C7.65553 18.3737 7.33316 18.3808 7.33316 18.3986C7.33316 18.4115 7.32742 18.4289 7.32041 18.4372C7.3134 18.4455 7.30767 18.4435 7.30767 18.4327C7.30767 18.4219 7.27401 18.4135 7.23284 18.4142C7.19171 18.4148 7.16095 18.421 7.16456 18.428C7.16813 18.4349 7.15207 18.4649 7.12891 18.4946C7.10572 18.5243 7.08672 18.5584 7.08672 18.5703C7.08672 18.5852 7.07967 18.5849 7.06391 18.5694C7.03569 18.5416 7.01759 18.5599 7.03132 18.6023C7.03803 18.6232 7.03476 18.629 7.02163 18.6193C7.01071 18.6113 7.00174 18.6143 7.00174 18.6261C7.00174 18.6379 7.01092 18.6475 7.02214 18.6475C7.03799 18.6475 7.03799 18.6529 7.02214 18.6717C6.99299 18.7063 6.99244 23.4115 7.02159 23.4115C7.03246 23.4115 7.03637 23.4174 7.03021 23.4247C7.02405 23.4321 7.02698 23.4494 7.03671 23.4634C7.04912 23.4811 7.04827 23.4931 7.03395 23.5036C7.0201 23.5138 7.01793 23.5101 7.02724 23.4922C7.03603 23.4753 7.03433 23.4707 7.02244 23.4794C6.99677 23.4982 7.00378 23.5696 7.03259 23.5827C7.04559 23.5887 7.05209 23.6064 7.04699 23.6221C7.03659 23.6544 7.07478 23.7015 7.09344 23.6794C7.10006 23.6715 7.10049 23.6807 7.09429 23.6997C7.08519 23.728 7.09293 23.7345 7.13588 23.7345C7.16494 23.7345 7.1887 23.7435 7.1887 23.7546C7.1887 23.7657 7.19953 23.7748 7.21279 23.7748C7.226 23.7748 7.24007 23.7816 7.24397 23.79C7.24788 23.7983 7.24869 23.7935 7.24576 23.7794C7.24164 23.7594 7.24839 23.7588 7.2761 23.7764C7.30146 23.7925 7.30843 23.7926 7.30023 23.7768C7.29386 23.7646 7.29675 23.7546 7.30665 23.7546C7.31655 23.7546 7.32466 23.773 7.32466 23.7955C7.32466 23.8406 9.97841 23.8595 10.0019 23.8145C10.0073 23.804 9.99987 23.8009 9.98538 23.8075C9.9708 23.8141 9.95899 23.8089 9.95899 23.796C9.95899 23.7831 9.95015 23.7789 9.93936 23.7868C9.92785 23.7953 9.92432 23.7924 9.93091 23.7798C9.93702 23.7681 9.95738 23.7632 9.97611 23.769C9.99481 23.7748 10.0203 23.7696 10.0327 23.7574C10.0497 23.7406 10.0553 23.7423 10.0553 23.7642C10.0553 23.7802 10.0478 23.7877 10.0385 23.7809C10.0291 23.774 10.0271 23.7789 10.0339 23.7919C10.0428 23.8091 10.0552 23.8095 10.0808 23.7932C10.1063 23.777 10.1105 23.7651 10.0968 23.7487C10.0682 23.7148 10.0743 23.6855 10.1038 23.7147C10.1258 23.7363 10.1279 23.7344 10.1176 23.702C10.107 23.6682 10.1089 23.667 10.1343 23.6915C10.1545 23.711 10.1629 23.7122 10.1629 23.6953C10.1629 23.6822 10.1708 23.6773 10.1804 23.6843C10.1917 23.6926 10.1944 23.6735 10.188 23.63C10.1789 23.5679 10.18 23.5658 10.2026 23.6023C10.2259 23.6399 10.2268 23.6393 10.2221 23.5885C10.2185 23.5498 10.2236 23.5383 10.241 23.5462C10.2542 23.5522 10.2649 23.547 10.2649 23.5348C10.2649 23.5224 10.2528 23.5124 10.238 23.5124C10.2232 23.5124 10.2146 23.5011 10.2189 23.4872C10.2232 23.4733 10.2339 23.4637 10.2427 23.4658C10.2515 23.4678 10.2554 23.4429 10.2514 23.4103L10.2441 23.3509L10.9726 23.3495C11.3732 23.3487 11.7237 23.3447 11.7512 23.3404C11.7788 23.3361 11.8128 23.3435 11.8267 23.3569C11.845 23.3744 11.8487 23.3746 11.8401 23.3576C11.8325 23.3425 11.8467 23.3292 11.8795 23.3206C11.9077 23.3133 11.9264 23.2988 11.921 23.2884C11.9156 23.278 11.9041 23.2747 11.8955 23.281C11.8869 23.2873 11.8844 23.2783 11.89 23.2611C11.8956 23.2439 11.9074 23.2298 11.9163 23.2298C11.9252 23.2298 11.9278 23.2389 11.922 23.25C11.9162 23.2611 11.923 23.2702 11.937 23.2702C11.9706 23.2702 11.9875 23.2361 11.9603 23.223C11.9438 23.2151 11.944 23.2124 11.9613 23.2112C11.9736 23.2103 11.9781 23.1993 11.9714 23.1863C11.9638 23.1719 11.9667 23.1685 11.9788 23.1774C12.0097 23.2 12.0376 23.1707 12.0155 23.139C11.9943 23.1087 12.0207 23.0774 12.0495 23.0986C12.0588 23.1054 12.0665 23.0977 12.0665 23.0815C12.0665 23.0622 12.055 23.0554 12.0337 23.062C12.0125 23.0687 12.0022 23.0627 12.0045 23.045C12.0105 22.9977 12.0342 22.9662 12.0532 22.9802C12.0644 22.9884 12.0668 22.9844 12.0593 22.97C12.0525 22.9569 12.0463 22.8687 12.0456 22.774L12.0442 22.6018L12.577 22.6035C12.87 22.6044 13.1133 22.6093 13.1177 22.6145C13.122 22.6196 13.1351 22.6145 13.1466 22.6031C13.1619 22.588 13.1769 22.5962 13.2012 22.6328C13.2196 22.6606 13.2376 22.681 13.2412 22.678C13.2447 22.6751 13.2641 22.6929 13.2841 22.7177C13.3181 22.7598 13.3184 22.7625 13.2883 22.7598C13.2706 22.7582 13.2562 22.7483 13.2562 22.7377C13.2562 22.7271 13.251 22.7246 13.2446 22.7321C13.2276 22.7523 13.3053 22.8312 13.3308 22.8196C13.3462 22.8126 13.351 22.8257 13.3467 22.8633C13.3416 22.9086 13.343 22.9107 13.3555 22.8765C13.3687 22.8406 13.3716 22.8433 13.3825 22.9015C13.3892 22.9375 13.403 22.973 13.4131 22.9803C13.4235 22.988 13.4265 22.9844 13.4199 22.9719C13.4137 22.9599 13.4159 22.9446 13.4248 22.9381C13.4337 22.9315 13.4472 22.9387 13.4548 22.9539C13.4624 22.9692 13.486 22.9926 13.5073 23.0058C13.5286 23.0191 13.5416 23.0386 13.5361 23.0491C13.5305 23.0597 13.5361 23.0685 13.5483 23.0686C13.5645 23.0689 13.5636 23.0743 13.5451 23.0885C13.5311 23.0992 13.5272 23.1096 13.5366 23.1115C13.5459 23.1133 13.5612 23.117 13.5706 23.1195C13.5799 23.1221 13.5947 23.1252 13.6035 23.1265C13.6124 23.1278 13.6047 23.1417 13.5866 23.1575C13.5509 23.1885 13.5624 23.2244 13.5992 23.197C13.6358 23.1699 13.664 23.171 13.664 23.1996C13.664 23.2144 13.6545 23.2318 13.6428 23.2384C13.6311 23.245 13.6388 23.2467 13.6598 23.242C13.6884 23.2357 13.698 23.2431 13.698 23.2714C13.698 23.2984 13.7062 23.3056 13.7263 23.2964C13.7489 23.2861 13.7525 23.2926 13.7445 23.3289C13.7371 23.3627 13.7407 23.3715 13.7585 23.3633C13.7718 23.3573 13.7818 23.3588 13.7808 23.3668C13.7707 23.4472 13.8171 23.5134 13.8716 23.4965C13.8783 23.4944 13.8798 23.5048 13.8751 23.5195C13.8703 23.5343 13.8782 23.5579 13.8925 23.572C13.9069 23.5861 13.9146 23.6054 13.9097 23.6148C13.9048 23.6242 13.9274 23.6294 13.9599 23.6264C13.9924 23.6234 14.0156 23.6275 14.0114 23.6355C14.0072 23.6437 14.0095 23.6541 14.0166 23.6588C14.0237 23.6635 14.0201 23.6646 14.0088 23.6614C13.9974 23.6582 13.9835 23.6642 13.978 23.6748C13.9725 23.6854 13.9837 23.6952 14.0029 23.6966C14.0588 23.7006 14.0684 23.7033 14.0811 23.7184C14.0877 23.7263 14.0711 23.7286 14.0443 23.7236C13.9964 23.7147 13.9966 23.7153 14.0549 23.7539C14.0877 23.7756 14.1078 23.7937 14.0996 23.7942C14.0809 23.7952 14.122 23.8556 14.1415 23.8556C14.1494 23.8556 14.151 23.8404 14.145 23.822C14.1374 23.7983 14.1405 23.793 14.1555 23.8041C14.1672 23.8127 14.1731 23.8369 14.1685 23.8578C14.1639 23.8788 14.1682 23.9019 14.1781 23.9091C14.1892 23.9173 14.1911 23.9126 14.183 23.8971C14.174 23.8797 14.1797 23.8742 14.2017 23.8793C14.2244 23.8847 14.2318 23.9009 14.2278 23.9368C14.2226 23.983 14.2239 23.9841 14.2453 23.9502C14.2672 23.9157 14.3609 23.9295 14.3609 23.9673C14.3609 23.9738 14.3532 23.9735 14.3439 23.9666C14.3345 23.9597 14.3269 23.9637 14.3269 23.9755C14.3269 24.0017 14.3307 24.0018 14.3847 23.9774C14.4122 23.965 14.4313 23.965 14.4377 23.9774C14.4535 24.0076 14.6167 24.0022 14.6116 23.9716C14.6051 23.9331 14.6968 23.9287 14.7282 23.966C14.7521 23.9944 14.758 23.9948 14.7749 23.9688C14.8049 23.9229 14.9146 23.917 14.9082 23.9617C14.9029 23.9996 15.0457 24.0161 15.0646 23.9798C15.0695 23.9704 15.1081 23.9689 15.1504 23.9765C15.2119 23.9876 15.2237 23.9852 15.2092 23.9646C15.1888 23.9354 15.2838 23.9046 15.3407 23.922C15.358 23.9273 15.3434 23.9327 15.3084 23.934C15.1985 23.938 15.2389 23.9713 15.3715 23.9861C15.5049 24.0009 15.5418 23.991 15.5268 23.9444C15.515 23.908 15.6698 23.9043 15.7001 23.9404C15.716 23.9592 15.7205 23.9592 15.7205 23.9404C15.7205 23.9256 15.7468 23.9161 15.788 23.9161C15.8445 23.9161 15.8539 23.9218 15.8459 23.9515C15.84 23.973 15.8419 23.9781 15.8506 23.9646C15.8691 23.9361 16.0434 23.9113 16.0434 23.9373C16.0434 23.9478 16.0707 23.9565 16.1039 23.9565C16.1435 23.9565 16.1605 23.9488 16.1529 23.9343C16.1402 23.91 16.3508 23.9144 16.3664 23.9387C16.3801 23.9602 16.4984 23.9733 16.5138 23.955C16.5308 23.9348 16.6201 23.9321 16.7213 23.9489C16.7763 23.958 16.7925 23.955 16.7833 23.9373C16.7758 23.923 16.78 23.9152 16.7938 23.9179C16.8064 23.9205 16.8282 23.9172 16.8422 23.9109C16.8896 23.8892 16.9602 23.8815 16.9512 23.8989C16.9463 23.9084 16.9178 23.9173 16.888 23.9187C16.7762 23.9239 16.9833 23.9526 17.1227 23.9513C17.2226 23.9503 17.2429 23.9462 17.1991 23.9357L17.1397 23.9214L17.2109 23.9188C17.25 23.9173 17.287 23.9255 17.293 23.937C17.299 23.9485 17.3335 23.9558 17.3698 23.9533C17.4226 23.9496 17.432 23.9433 17.417 23.9218C17.3916 23.8855 17.3983 23.8834 17.4966 23.8976C17.5563 23.9061 17.5654 23.9107 17.5273 23.913C17.3785 23.9217 17.4851 23.9469 17.6842 23.95C17.8874 23.9532 17.9099 23.9502 17.9003 23.9208C17.8935 23.8997 17.8873 23.8966 17.8829 23.9121C17.8737 23.9448 17.76 23.9439 17.76 23.9111C17.76 23.8856 17.901 23.875 17.9212 23.8989C17.9265 23.9053 17.9609 23.904 17.9976 23.896C18.0514 23.8843 18.0658 23.8878 18.0717 23.914C18.0778 23.9414 18.0793 23.9409 18.081 23.9111C18.0825 23.8836 18.0971 23.8764 18.1467 23.8784L18.2104 23.8811L18.1509 23.8959L18.0914 23.9108L18.1518 23.9135C18.1849 23.9149 18.2204 23.926 18.2306 23.9381C18.2439 23.9539 18.2523 23.9537 18.2607 23.9376C18.2672 23.9252 18.2632 23.9176 18.252 23.9207C18.2408 23.9238 18.2287 23.9168 18.225 23.9053C18.2208 23.8916 18.2806 23.8846 18.3971 23.8851C18.4954 23.8855 18.5758 23.8927 18.5758 23.901C18.5758 23.9093 18.6026 23.9161 18.6353 23.9161C18.668 23.9161 18.6948 23.9066 18.6948 23.8949C18.6948 23.8821 18.7316 23.8755 18.7875 23.8781C18.8385 23.8806 18.8763 23.89 18.8716 23.8991C18.8669 23.9081 18.8854 23.9102 18.9128 23.9037C18.9401 23.8972 18.9769 23.9001 18.9944 23.9102C19.0119 23.9203 19.0529 23.922 19.0857 23.9139L19.1452 23.8993L19.0823 23.9021C19.0478 23.9036 19.0141 23.8985 19.0075 23.8906C19.0009 23.8828 19.0675 23.8797 19.1553 23.8837C19.2432 23.8877 19.2883 23.8848 19.2556 23.8773L19.1961 23.8637L19.2587 23.8538C19.2931 23.8483 19.3177 23.8505 19.3134 23.8588C19.3037 23.8774 19.4111 23.9026 19.4536 23.8916C19.4709 23.8871 19.483 23.872 19.4804 23.8579C19.4778 23.8439 19.4832 23.8379 19.4924 23.8446C19.5016 23.8513 19.5048 23.8702 19.4995 23.8865C19.4871 23.9247 19.6216 23.929 19.6366 23.8909C19.6445 23.8707 19.6485 23.8707 19.6564 23.8909C19.6619 23.9048 19.6929 23.9161 19.7254 23.9161C19.7579 23.9161 19.7808 23.9091 19.7763 23.9004C19.7718 23.8918 19.813 23.8897 19.8678 23.896C19.9555 23.9059 19.965 23.9036 19.9475 23.8764C19.9342 23.8559 19.9393 23.8573 19.9626 23.8808C20.0099 23.9285 20.1306 23.9303 20.1153 23.883C20.1064 23.8554 20.1089 23.8541 20.1303 23.8752C20.1463 23.8909 20.1784 23.8958 20.2156 23.8881C20.2485 23.8813 20.304 23.8718 20.3391 23.8669L20.4028 23.8581L20.3433 23.8744C20.2917 23.8885 20.2898 23.891 20.3286 23.8933C20.3533 23.8947 20.3954 23.8824 20.4221 23.8658C20.4809 23.8294 20.5501 23.8266 20.5779 23.8596C20.5937 23.8784 20.5983 23.8773 20.5985 23.8546C20.5987 23.8297 20.6013 23.8298 20.6153 23.8556C20.627 23.877 20.6318 23.8782 20.632 23.8598C20.6323 23.831 20.7639 23.8308 20.7788 23.8596C20.7909 23.8828 20.8832 23.8796 20.8957 23.8556C20.9174 23.8138 21.0621 23.8311 21.0526 23.8742C21.0466 23.9015 21.051 23.9099 21.0676 23.9024C21.0805 23.8965 21.0912 23.879 21.0912 23.8635C21.0912 23.8436 21.1138 23.8354 21.1687 23.8354C21.2168 23.8354 21.2421 23.8432 21.2354 23.8559C21.2296 23.8672 21.2165 23.8703 21.2063 23.8629C21.195 23.8545 21.1928 23.8588 21.2007 23.8739C21.2104 23.8927 21.2205 23.891 21.2429 23.867C21.2591 23.8496 21.2874 23.8354 21.3058 23.8354C21.3242 23.8354 21.3485 23.8245 21.3597 23.8112C21.3755 23.7923 21.3801 23.7923 21.3801 23.8112C21.3801 23.8245 21.387 23.8354 21.3955 23.8354C21.404 23.8354 21.4069 23.8172 21.402 23.795C21.3956 23.7658 21.4019 23.7538 21.4248 23.7516C21.4423 23.7499 21.4642 23.7464 21.4736 23.7438C21.4829 23.7412 21.4982 23.7374 21.5076 23.7354C21.5169 23.7333 21.5093 23.7245 21.4906 23.7159C21.4603 23.7019 21.464 23.6953 21.5246 23.6556C21.562 23.6311 21.5788 23.616 21.5619 23.622C21.5441 23.6284 21.5356 23.6247 21.5417 23.6131C21.5474 23.6021 21.564 23.5932 21.5786 23.5932C21.6007 23.5932 21.6015 23.5879 21.5832 23.5617C21.5651 23.5358 21.5655 23.5314 21.5854 23.5365C21.5988 23.54 21.6096 23.5273 21.6097 23.5081C21.6098 23.4891 21.6205 23.4619 21.6335 23.4476C21.6529 23.4261 21.6554 23.4271 21.6476 23.4535C21.6421 23.4725 21.6477 23.4855 21.6614 23.4855C21.6741 23.4855 21.6804 23.4777 21.6755 23.4681C21.6705 23.4586 21.6825 23.4351 21.7021 23.416C21.7426 23.3765 21.7628 23.2905 21.7318 23.2901C21.7194 23.2899 21.7212 23.2824 21.7365 23.2709C21.7525 23.259 21.7655 23.2597 21.7724 23.2729C21.7784 23.2844 21.7873 23.2756 21.7922 23.2533C21.7994 23.2206 21.7941 23.2144 21.7649 23.2211C21.7325 23.2285 21.7336 23.2245 21.7751 23.1821C21.8006 23.1561 21.8164 23.129 21.8103 23.1218C21.8043 23.1146 21.8121 23.1087 21.8276 23.1087C21.8432 23.1087 21.856 23.0999 21.856 23.0891C21.856 23.0784 21.8667 23.0745 21.8798 23.0804C21.9105 23.0944 21.9348 23.0484 21.9073 23.0282C21.8921 23.0171 21.8916 23.0089 21.9054 22.9988C21.9159 22.9911 21.9205 22.9772 21.9157 22.9679C21.9109 22.9585 21.9241 22.9554 21.9451 22.9609C21.9759 22.9689 21.9784 22.9666 21.9579 22.9493C21.943 22.9366 21.9406 22.9275 21.9522 22.9273C21.9632 22.9272 21.9698 22.9043 21.9672 22.8759C21.9646 22.8478 21.9664 22.8295 21.9713 22.8352C21.9761 22.8409 21.9901 22.8299 22.0025 22.8106C22.0149 22.7911 22.0251 22.7863 22.0254 22.7996C22.0257 22.8128 22.0183 22.8293 22.0089 22.8362C21.9996 22.843 21.9919 22.8576 21.9919 22.8686C21.9919 22.9227 22.0805 22.7756 22.0874 22.7101C22.0955 22.6325 22.1161 22.6048 22.1661 22.6043C22.1928 22.6041 22.1991 22.5921 22.1944 22.5508C22.1936 22.5437 22.2019 22.5313 22.2128 22.5233C22.2266 22.5132 22.2239 22.5047 22.2037 22.4955C22.181 22.4851 22.1767 22.491 22.1837 22.523C22.1887 22.5454 22.1858 22.5586 22.1773 22.5524C22.153 22.5346 22.1593 22.4828 22.1873 22.4701C22.2012 22.4637 22.2077 22.4489 22.2017 22.4373C22.1952 22.4248 22.1988 22.4221 22.2105 22.4307C22.2215 22.4387 22.2268 22.4523 22.2224 22.4607C22.218 22.4692 22.2243 22.4762 22.2365 22.4762C22.2495 22.4762 22.2568 22.4569 22.2542 22.4291C22.2518 22.4032 22.2573 22.382 22.2664 22.382C22.2754 22.382 22.2775 22.3716 22.2708 22.3589C22.2626 22.343 22.2724 22.3388 22.3023 22.3456C22.3339 22.3528 22.3434 22.3481 22.337 22.3284C22.3319 22.3127 22.3395 22.3012 22.355 22.3012C22.3718 22.3012 22.3781 22.29 22.372 22.2709C22.3666 22.2541 22.3715 22.2407 22.3831 22.2407C22.3985 22.2407 22.3991 22.2337 22.3853 22.2139C22.3717 22.1944 22.372 22.1808 22.3867 22.1635C22.4124 22.1329 22.4395 22.1326 22.4237 22.1631C22.4161 22.1776 22.419 22.1809 22.4315 22.1717C22.4424 22.1637 22.4469 22.1487 22.4416 22.1383C22.4362 22.128 22.4399 22.1195 22.4498 22.1195C22.4725 22.1195 22.4735 22.0655 22.451 22.049C22.4414 22.042 22.4385 22.0501 22.4443 22.068C22.4499 22.0853 22.446 22.0994 22.4356 22.0994C22.4045 22.0994 22.4145 22.0417 22.4496 22.0194C22.4676 22.008 22.4934 22.0036 22.5069 22.0097C22.5207 22.0161 22.5362 22.0061 22.5425 21.9866C22.5513 21.9594 22.5488 21.957 22.5303 21.9752C22.5006 22.0045 22.4791 21.9804 22.5037 21.9452C22.5165 21.927 22.5317 21.9244 22.5517 21.9372C22.5731 21.9508 22.5819 21.9479 22.5839 21.9267C22.5855 21.9106 22.5881 21.8839 22.5896 21.8672C22.5912 21.8506 22.6007 21.8368 22.6109 21.8366C22.6228 21.8364 22.6233 21.8311 22.6123 21.8215C22.5855 21.7981 22.589 21.7692 22.6232 21.731C22.6585 21.6915 22.6632 21.6998 22.6377 21.7563C22.6262 21.7818 22.6264 21.7983 22.6381 21.8069C22.6477 21.814 22.6545 21.8123 22.6532 21.8031C22.6472 21.7619 22.6562 21.7347 22.6722 21.7464C22.6817 21.7534 22.6885 21.7517 22.6872 21.7426C22.6858 21.7334 22.6865 21.7168 22.6887 21.7057C22.6909 21.6946 22.6943 21.6765 22.6964 21.6654C22.7227 21.5211 22.7502 21.4741 22.7907 21.5038C22.7983 21.5094 22.8005 21.4958 22.7957 21.4736C22.7905 21.4501 22.7951 21.4332 22.8067 21.4332C22.8177 21.4332 22.8229 21.4259 22.8183 21.4171C22.8138 21.4082 22.817 21.3878 22.8256 21.3717C22.8387 21.3472 22.8412 21.3479 22.8415 21.3765C22.8416 21.3953 22.849 21.416 22.8578 21.4225C22.8667 21.429 22.8709 21.4157 22.8672 21.3928C22.8635 21.37 22.8666 21.3559 22.874 21.3613C22.8947 21.3764 22.983 21.2579 22.9699 21.2327C22.9635 21.2205 22.9512 21.2158 22.9425 21.2221C22.9338 21.2285 22.9267 21.2241 22.9267 21.2124C22.9267 21.2006 22.9458 21.191 22.9692 21.191C22.9941 21.191 23.0099 21.1805 23.0074 21.1657C23.0051 21.1519 23.0125 21.1427 23.0238 21.1453C23.0352 21.148 23.0405 21.1378 23.0356 21.1227C23.0304 21.1066 23.0411 21.0909 23.0617 21.0845C23.0809 21.0785 23.0966 21.06 23.0966 21.0434C23.0966 21.0223 23.0855 21.0165 23.06 21.0244C23.0349 21.0323 23.0272 21.0285 23.0355 21.0125C23.0422 20.9996 23.0644 20.9888 23.0849 20.9885C23.1299 20.9877 23.1905 20.9374 23.1671 20.9203C23.158 20.9136 23.1475 20.9191 23.1437 20.9324C23.1394 20.9479 23.1328 20.9443 23.1259 20.9228C23.119 20.9015 23.1226 20.8905 23.1355 20.8935C23.1468 20.8961 23.1545 20.8878 23.1525 20.8751C23.1503 20.8616 23.1623 20.8561 23.1811 20.862C23.2065 20.8699 23.2115 20.8635 23.2045 20.8319C23.1996 20.8099 23.2039 20.7858 23.214 20.7784C23.2252 20.7701 23.2284 20.777 23.2221 20.7963C23.2165 20.8135 23.2196 20.8276 23.2288 20.8276C23.238 20.8276 23.2496 20.8098 23.2544 20.788C23.2592 20.7661 23.2553 20.7502 23.2459 20.7526C23.2364 20.755 23.2263 20.7403 23.2234 20.7198C23.2205 20.6993 23.2226 20.6879 23.2281 20.6944C23.2335 20.7009 23.2497 20.6949 23.2641 20.6811C23.2848 20.6611 23.2875 20.6611 23.2774 20.6813C23.2703 20.6952 23.2727 20.7065 23.2826 20.7065C23.2925 20.7065 23.3006 20.6923 23.3006 20.675C23.3006 20.6577 23.3082 20.6492 23.3176 20.656C23.3271 20.663 23.3345 20.6479 23.3343 20.6219C23.3341 20.5833 23.3309 20.5805 23.3157 20.6056C23.3005 20.6308 23.2991 20.6296 23.3075 20.5989C23.313 20.5785 23.3177 20.5558 23.3178 20.5484C23.318 20.541 23.3248 20.5474 23.3329 20.5627C23.3414 20.5787 23.3568 20.5839 23.369 20.575C23.3842 20.5638 23.3794 20.5526 23.3519 20.5351C23.3186 20.514 23.3173 20.5091 23.3421 20.4978C23.3579 20.4906 23.3672 20.4778 23.3629 20.4695C23.3586 20.461 23.3658 20.4425 23.3789 20.4281C23.3919 20.4139 23.4026 20.4076 23.4026 20.4145C23.4026 20.4212 23.4147 20.4124 23.4294 20.3949C23.4442 20.3773 23.4645 20.369 23.4745 20.3764C23.4851 20.3841 23.4879 20.3803 23.4811 20.3673C23.4747 20.355 23.4563 20.3498 23.4403 20.3557C23.414 20.3653 23.4141 20.3641 23.4411 20.3435C23.4577 20.3308 23.4874 20.3168 23.5072 20.3123C23.5639 20.2993 23.569 20.279 23.5127 20.2906C23.4679 20.2998 23.4655 20.2979 23.4918 20.2744C23.5082 20.2598 23.5215 20.2339 23.5215 20.2169C23.5215 20.1902 23.5639 20.1525 23.5895 20.1563C23.5942 20.157 23.6091 20.1433 23.6226 20.1259C23.6445 20.0976 23.643 20.0955 23.6089 20.106C23.5774 20.1158 23.5741 20.1129 23.5905 20.0895C23.6014 20.0738 23.6164 20.0654 23.6237 20.0707C23.631 20.0761 23.655 20.0614 23.677 20.038L23.717 19.9956L23.6702 20.0286C23.6197 20.0642 23.6141 20.0586 23.6408 19.9994C23.6519 19.9749 23.6681 19.9657 23.6862 19.9739C23.7081 19.9839 23.7118 19.9786 23.7025 19.9502C23.6934 19.9218 23.6957 19.9184 23.7126 19.9351C23.7299 19.9522 23.735 19.9371 23.7367 19.8632C23.7382 19.7973 23.7486 19.7603 23.7717 19.7381C23.7898 19.7207 23.8015 19.6953 23.7976 19.6816C23.7938 19.668 23.7989 19.6568 23.8091 19.6568C23.8192 19.6568 23.8276 19.6682 23.8277 19.6821C23.8279 19.6994 23.8329 19.6981 23.8436 19.678C23.8522 19.6619 23.8551 19.6408 23.8501 19.6312C23.8451 19.6216 23.8571 19.6087 23.8767 19.6026C23.8964 19.5966 23.9124 19.5844 23.9124 19.5755C23.9124 19.5567 23.8806 19.5603 23.8445 19.5833C23.8304 19.5922 23.8392 19.5773 23.8639 19.5502C23.8904 19.5212 23.9037 19.491 23.8963 19.4768C23.8804 19.4462 23.9282 19.2699 23.9483 19.2848C23.9566 19.2908 23.9556 19.2715 23.946 19.2418C23.9318 19.1972 23.9331 19.1899 23.9541 19.1994C23.968 19.2058 23.9834 19.2031 23.9884 19.1935C24.0005 19.1703 23.9803 19.1095 23.9645 19.1211C23.9576 19.1261 23.9521 19.1166 23.9521 19.0999C23.9521 19.0833 23.9609 19.0737 23.9716 19.0786C23.9852 19.0847 23.9915 19.0405 23.9924 18.9331C23.9932 18.8349 23.9886 18.7934 23.9797 18.8191C23.9685 18.8518 23.9656 18.853 23.9646 18.8253C23.964 18.8066 23.9711 18.7856 23.9804 18.7787C23.9898 18.7719 23.9974 18.7526 23.9974 18.736C23.9974 18.7191 23.9891 18.7117 23.9787 18.7194C23.9667 18.7283 23.9674 18.7167 23.9809 18.6869C23.9985 18.6478 23.9971 18.6366 23.9719 18.6148C23.9417 18.5885 23.9473 18.5264 23.9799 18.5264C23.9895 18.5264 23.9974 18.5173 23.9974 18.5062C23.9974 18.4951 23.9855 18.486 23.9709 18.486C23.9563 18.486 23.949 18.4773 23.9545 18.4666C23.96 18.456 23.9569 18.431 23.9476 18.4111C23.8916 18.2918 23.8504 18.1526 23.877 18.1721C23.8856 18.1784 23.8841 18.1567 23.8737 18.1241C23.8541 18.0624 23.822 18.0571 23.8381 18.1183C23.8459 18.1477 23.8433 18.1472 23.8209 18.1146C23.8064 18.0936 23.7977 18.0702 23.8016 18.0628C23.8055 18.0553 23.7942 18.0369 23.7765 18.0218C23.7465 17.9961 23.7463 17.9925 23.7732 17.9683C23.7927 17.9506 23.7948 17.942 23.7797 17.9416C23.7675 17.9413 23.7617 17.9329 23.7669 17.9229C23.7768 17.9039 23.7282 17.8709 23.7014 17.8784C23.6928 17.8807 23.6966 17.8671 23.7098 17.848C23.7322 17.8159 23.7309 17.8152 23.6931 17.8391C23.6574 17.8618 23.6536 17.8609 23.6629 17.8323C23.6687 17.8144 23.666 17.7997 23.6569 17.7997C23.6479 17.7997 23.6414 17.7929 23.6425 17.7845C23.6509 17.7216 23.6394 17.6949 23.6146 17.7193C23.6004 17.7334 23.5838 17.739 23.5778 17.7319C23.5718 17.7248 23.5757 17.7189 23.5865 17.7189C23.5983 17.7189 23.5944 17.7027 23.5771 17.6786C23.5442 17.633 23.52 17.6256 23.5278 17.6634C23.5306 17.6773 23.5297 17.6818 23.5258 17.6734C23.5219 17.665 23.5097 17.6645 23.4988 17.6722C23.488 17.68 23.4897 17.6707 23.5027 17.6517C23.5157 17.6326 23.5211 17.6107 23.5145 17.603C23.508 17.5952 23.4956 17.6023 23.4869 17.6186C23.4762 17.6387 23.471 17.6402 23.4708 17.623C23.4707 17.6092 23.4572 17.5969 23.4408 17.5958C23.421 17.5945 23.4252 17.5884 23.4536 17.5776C23.4785 17.5681 23.4855 17.5594 23.4706 17.5564C23.4565 17.5536 23.4374 17.5492 23.4281 17.5466C23.4187 17.544 23.3977 17.5409 23.3813 17.5396C23.365 17.5383 23.3516 17.5276 23.3516 17.5159C23.3516 17.5041 23.3611 17.5013 23.3728 17.5097C23.3874 17.5201 23.3868 17.5142 23.3709 17.4909C23.3428 17.4497 23.3148 17.4646 23.33 17.5127C23.3392 17.5417 23.3367 17.5433 23.315 17.5223C23.3007 17.5085 23.2839 17.5032 23.2778 17.5105C23.2716 17.5178 23.2666 17.5136 23.2666 17.5013C23.2666 17.4889 23.28 17.4694 23.2963 17.4581C23.3127 17.4468 23.3223 17.4366 23.3176 17.4354C23.2637 17.4217 23.2496 17.4229 23.2496 17.4412C23.2496 17.4531 23.2335 17.4455 23.2137 17.4243C23.1754 17.3832 23.0963 17.3727 23.0757 17.406C23.0688 17.4171 23.063 17.4035 23.0627 17.3758C23.0622 17.3357 23.0587 17.3316 23.0457 17.3556C23.0347 17.3758 23.0291 17.3774 23.0289 17.3606C23.0288 17.3467 23.0205 17.3354 23.0106 17.3354C23.0007 17.3354 22.9982 17.346 23.005 17.359C23.0133 17.3751 23.0078 17.3783 22.9876 17.3691C22.9713 17.3617 22.9547 17.3556 22.9508 17.3556C22.9469 17.3556 22.9437 17.3423 22.9437 17.326C22.9437 17.3084 22.9337 17.3009 22.9193 17.3074C22.9052 17.3138 22.899 17.3329 22.9046 17.3522C22.9119 17.3778 22.9073 17.3762 22.8851 17.3455C22.8637 17.3159 22.8582 17.3138 22.8644 17.3378C22.8716 17.3654 22.8669 17.367 22.8333 17.3482C22.8115 17.3359 22.797 17.3195 22.801 17.3117C22.8051 17.3039 22.793 17.2989 22.7741 17.3005C22.7552 17.3022 22.7397 17.3108 22.7397 17.3195C22.7397 17.3282 22.7244 17.3354 22.7057 17.3354C22.687 17.3354 22.6718 17.3258 22.6718 17.314C22.6718 17.3022 22.6624 17.2995 22.651 17.3079C22.6231 17.3283 22.4511 17.3311 22.4616 17.3109C22.4661 17.3021 22.4617 17.295 22.4518 17.295C22.4419 17.295 22.4337 17.3109 22.4336 17.3303ZM23.1857 17.4233C23.1965 17.4153 23.1989 17.4194 23.1917 17.4332C23.1851 17.446 23.169 17.4565 23.1561 17.4565C23.1432 17.4565 23.1272 17.446 23.1205 17.4332C23.113 17.4188 23.1159 17.4154 23.128 17.4243C23.1389 17.4323 23.1482 17.4269 23.149 17.4123C23.15 17.3918 23.1523 17.3916 23.1589 17.4112C23.1637 17.4252 23.1757 17.4306 23.1857 17.4233ZM21.9022 17.6122C21.9098 17.6357 21.9064 17.6402 21.8902 17.6283C21.8749 17.617 21.8718 17.6195 21.8803 17.6361C21.89 17.6546 21.8986 17.6548 21.917 17.6367C21.9468 17.6074 21.9467 17.6048 21.9163 17.5909C21.899 17.583 21.8948 17.5894 21.9022 17.6122ZM21.7375 17.7582C21.7242 17.7877 21.7261 17.795 21.7459 17.7916C21.7885 17.7842 21.811 17.7462 21.7809 17.7325C21.765 17.7252 21.7478 17.7354 21.7375 17.7582ZM21.686 17.9826C21.686 17.993 21.6748 18.0015 21.6611 18.0015C21.6459 18.0015 21.6399 17.9897 21.6458 17.9714C21.6559 17.9403 21.686 17.9487 21.686 17.9826ZM22.7388 18.0924C22.7396 18.0813 22.7477 18.0858 22.7567 18.1025C22.7677 18.1227 22.7733 18.1243 22.7735 18.1075C22.7739 18.0646 22.825 18.0798 22.8412 18.1277C22.8548 18.1678 22.8675 18.1481 22.8607 18.0974C22.856 18.0623 22.8869 18.0875 22.9224 18.1479C22.9491 18.1932 22.9607 18.2023 22.9607 18.1779C22.9607 18.1586 22.9686 18.1428 22.9783 18.1428C23.013 18.1428 23.0774 18.207 23.069 18.2332C23.0584 18.2657 23.09 18.293 23.105 18.2643C23.1239 18.2278 23.1519 18.2425 23.1427 18.2842C23.1312 18.3363 23.1581 18.3555 23.1951 18.3215C23.2156 18.3028 23.2141 18.3092 23.1901 18.3435C23.1714 18.3702 23.1657 18.3854 23.1774 18.3773C23.1906 18.3681 23.1986 18.3744 23.1986 18.394C23.1986 18.4113 23.2067 18.4255 23.2166 18.4255C23.2265 18.4255 23.2296 18.4157 23.2233 18.4038C23.2171 18.3918 23.228 18.3939 23.2474 18.4083C23.2771 18.4303 23.2787 18.4372 23.2573 18.4514C23.2213 18.4753 23.2454 18.5105 23.287 18.4948C23.3119 18.4855 23.3192 18.4895 23.3132 18.5091C23.3086 18.5242 23.2969 18.5345 23.2873 18.532C23.2572 18.5245 23.2759 18.5904 23.3104 18.613C23.3398 18.6323 23.3407 18.631 23.3194 18.6002C23.2989 18.5704 23.2993 18.5674 23.3219 18.5777C23.3474 18.5894 23.3492 18.6463 23.3277 18.7641C23.3226 18.7925 23.326 18.8052 23.3368 18.7972C23.3557 18.7835 23.3472 18.9501 23.3271 18.9887C23.321 19.0004 23.324 19.0278 23.3339 19.0496C23.3457 19.0759 23.3459 19.0934 23.3346 19.1016C23.3252 19.1086 23.3174 19.1023 23.3171 19.0878C23.3168 19.0725 23.3088 19.0773 23.2981 19.0991C23.2841 19.1276 23.2853 19.1414 23.3028 19.1559C23.3191 19.1692 23.3144 19.1711 23.2872 19.162C23.2524 19.1503 23.2494 19.1543 23.259 19.1996C23.2668 19.2367 23.2601 19.2601 23.2342 19.2865C23.1994 19.3218 23.1837 19.3674 23.2138 19.3452C23.2222 19.3391 23.2336 19.3481 23.2392 19.3653C23.2449 19.3831 23.242 19.3912 23.2324 19.3842C23.2232 19.3774 23.2156 19.3804 23.2156 19.3909C23.2156 19.4013 23.1987 19.4151 23.1781 19.4215C23.1436 19.4322 23.1467 19.4617 23.183 19.4676C23.1916 19.469 23.2039 19.4713 23.2103 19.4726C23.2168 19.474 23.2073 19.488 23.1892 19.5038C23.1651 19.5247 23.1502 19.5265 23.134 19.5105C23.1158 19.4926 23.1154 19.4981 23.1317 19.5406C23.1494 19.5865 23.1464 19.5996 23.1072 19.6498C23.0827 19.6812 23.0627 19.7143 23.0627 19.7234C23.0627 19.7325 23.0559 19.7349 23.0475 19.7288C23.0392 19.7227 23.0202 19.7397 23.0055 19.7665C22.9852 19.8033 22.9837 19.818 22.9993 19.8261C23.0108 19.832 22.9972 19.8316 22.9692 19.8252C22.9196 19.8138 22.9191 19.8144 22.9522 19.8475C22.9762 19.8715 22.98 19.8845 22.9649 19.8919C22.9532 19.8977 22.9437 19.919 22.9437 19.9393C22.9437 19.9667 22.9327 19.9748 22.9013 19.9707C22.878 19.9677 22.8503 19.9776 22.8398 19.9927C22.8273 20.0105 22.8268 20.0202 22.8382 20.0202C22.8479 20.0202 22.8598 20.0109 22.8645 19.9995C22.8693 19.9881 22.8713 19.9904 22.8691 20.0045C22.8668 20.0187 22.8483 20.0392 22.8279 20.0502C22.7913 20.0698 22.7772 20.1009 22.8049 20.1009C22.8127 20.1009 22.8191 20.1133 22.8191 20.1284C22.8191 20.1435 22.807 20.1549 22.7921 20.1536C22.7773 20.1524 22.7674 20.1638 22.7702 20.1791C22.7732 20.1962 22.7656 20.2025 22.7501 20.1954C22.7325 20.1874 22.7269 20.1953 22.7312 20.2221C22.7353 20.2472 22.719 20.2749 22.6834 20.3035C22.6536 20.3274 22.6424 20.3419 22.6585 20.3358C22.6745 20.3297 22.6922 20.3334 22.6977 20.344C22.7032 20.3547 22.6967 20.3633 22.6832 20.3633C22.6698 20.3633 22.6545 20.3824 22.6494 20.4057C22.6443 20.429 22.6324 20.4425 22.6231 20.4357C22.6138 20.4288 22.6006 20.4339 22.5938 20.4469C22.5871 20.4599 22.5888 20.4652 22.5977 20.4586C22.6066 20.4521 22.625 20.4551 22.6386 20.4653C22.659 20.4807 22.6582 20.4839 22.6335 20.4842C22.6172 20.4843 22.6036 20.4958 22.6035 20.5097C22.6033 20.5267 22.5981 20.5253 22.5874 20.5052C22.5739 20.4798 22.57 20.4805 22.5604 20.5101C22.5543 20.5292 22.5424 20.5398 22.5341 20.5337C22.5258 20.5276 22.51 20.5458 22.4991 20.5741C22.4882 20.6025 22.4716 20.6258 22.4622 20.6258C22.4528 20.6258 22.45 20.6316 22.4561 20.6387C22.4621 20.6458 22.4788 20.64 22.4933 20.6258C22.5154 20.604 22.5179 20.6051 22.5088 20.633C22.503 20.6512 22.4921 20.6661 22.4846 20.6661C22.4771 20.6661 22.4747 20.683 22.4793 20.7037C22.4842 20.7259 22.4769 20.7462 22.4616 20.7531C22.4437 20.7613 22.4385 20.7558 22.445 20.7358C22.4502 20.7197 22.446 20.7065 22.4356 20.7065C22.4112 20.7065 22.4112 20.7606 22.4356 20.7785C22.4488 20.7882 22.4477 20.7973 22.4318 20.8089C22.4186 20.8186 22.4043 20.816 22.3973 20.8026C22.3719 20.7538 22.3304 20.8292 22.3383 20.91C22.3442 20.9719 22.3408 20.9842 22.32 20.9747C22.306 20.9683 22.2877 20.9757 22.2794 20.9912C22.2668 21.0148 22.2643 21.0144 22.2639 20.9891C22.2634 20.9622 22.2615 20.9622 22.2469 20.9891C22.2249 21.0295 22.2257 21.0419 22.2528 21.074C22.2721 21.0969 22.2721 21.1054 22.2528 21.1267C22.2304 21.1516 22.2211 21.136 22.2279 21.085C22.229 21.0767 22.2216 21.0699 22.2115 21.0699C22.2003 21.0699 22.1972 21.0917 22.2036 21.1262C22.2119 21.1709 22.2045 21.1929 22.1682 21.2322C22.143 21.2595 22.1287 21.269 22.1363 21.2535C22.1457 21.2341 22.1437 21.2298 22.1301 21.2398C22.119 21.248 22.1111 21.2653 22.1125 21.2783C22.1182 21.3339 22.1095 21.3562 22.086 21.3454C22.0722 21.3391 22.0557 21.3441 22.0493 21.3565C22.0423 21.37 22.0454 21.3732 22.0573 21.3645C22.0699 21.3552 22.0769 21.3663 22.0769 21.3957C22.0769 21.4311 22.0724 21.4359 22.0565 21.4171C22.0272 21.3822 22.0082 21.3872 22.0209 21.4265C22.0289 21.4514 22.0255 21.4558 22.0076 21.4437C21.9887 21.4309 21.9878 21.4329 22.0034 21.4529C22.0253 21.4811 22.0153 21.5341 21.988 21.5341C21.9785 21.5341 21.9813 21.5182 21.9941 21.4988C22.015 21.4671 22.0145 21.4662 21.9887 21.4902C21.9722 21.5056 21.9644 21.5306 21.9704 21.5492C21.9785 21.5745 21.9737 21.5783 21.9481 21.5667C21.9219 21.5549 21.9197 21.557 21.9367 21.5773C21.9627 21.6084 21.9642 21.6351 21.9399 21.6351C21.93 21.6351 21.9267 21.626 21.9324 21.6149C21.9382 21.6038 21.9354 21.5947 21.9261 21.5947C21.8976 21.5947 21.8839 21.6787 21.9094 21.6979C21.9275 21.7115 21.9261 21.7158 21.9027 21.718C21.8863 21.7196 21.8653 21.7231 21.856 21.7259C21.8466 21.7287 21.8313 21.7321 21.822 21.7335C21.8126 21.7349 21.805 21.7455 21.805 21.7572C21.805 21.7688 21.7849 21.7988 21.7604 21.8239C21.7186 21.8666 21.7176 21.8716 21.7444 21.9035C21.7795 21.9451 21.7053 22.0464 21.6562 22.024C21.6358 22.0147 21.6319 22.0202 21.6404 22.0464C21.6471 22.0672 21.6448 22.0763 21.6348 22.0689C21.6254 22.062 21.618 22.0794 21.618 22.1082C21.618 22.1367 21.6175 22.1667 21.6168 22.1751C21.6147 22.201 21.5678 22.2234 21.5472 22.2083C21.5333 22.1981 21.531 22.2133 21.5392 22.2621C21.5493 22.3219 21.5479 22.3257 21.5282 22.2936C21.5075 22.26 21.503 22.264 21.4737 22.3412C21.4464 22.4132 21.4453 22.428 21.4662 22.4437C21.4831 22.4565 21.4841 22.4622 21.4693 22.4624C21.4576 22.4626 21.4481 22.4752 21.4481 22.4905C21.4481 22.5058 21.4366 22.5296 21.4226 22.5435C21.4049 22.5608 21.3971 22.5616 21.3971 22.5459C21.3971 22.5335 21.4047 22.5233 21.4141 22.5233C21.4234 22.5233 21.4311 22.5097 21.4311 22.493C21.4311 22.447 21.4055 22.4568 21.3804 22.5125C21.3681 22.5399 21.3515 22.5575 21.3435 22.5517C21.3356 22.5458 21.3291 22.5502 21.3291 22.5613C21.3291 22.5724 21.3367 22.5871 21.3461 22.5939C21.3714 22.6125 21.3667 22.6447 21.3403 22.6327C21.3278 22.627 21.3093 22.6342 21.2993 22.6485C21.2812 22.6744 21.2781 22.6856 21.2781 22.7251C21.2781 22.7362 21.2671 22.7453 21.2536 22.7453C21.2402 22.7453 21.2236 22.756 21.2168 22.7689C21.2084 22.7852 21.2141 22.7882 21.2352 22.7786C21.2598 22.7674 21.262 22.7701 21.2467 22.7922C21.2361 22.8073 21.2306 22.8235 21.2345 22.8281C21.2384 22.8328 21.2231 22.847 21.2004 22.8597C21.1777 22.8724 21.1633 22.8747 21.1685 22.8648C21.1737 22.8548 21.167 22.8517 21.1536 22.8578C21.1402 22.8639 21.1295 22.8797 21.1299 22.8929C21.1324 22.9898 21.1233 23.0314 21.1017 23.0216C21.068 23.0062 21.0365 23.0488 21.0584 23.0802C21.0703 23.0973 21.0701 23.1093 21.0576 23.1185C21.0475 23.1258 21.0404 23.1244 21.0417 23.1152C21.0472 23.0781 21.0372 23.0744 20.9708 23.0888C20.9327 23.0971 20.9078 23.0966 20.9156 23.0876C20.9234 23.0787 20.9488 23.0674 20.9722 23.0626C20.9956 23.0578 20.9688 23.0581 20.9127 23.0634C20.8566 23.0687 20.8082 23.081 20.8051 23.0908C20.8019 23.1007 20.7919 23.1087 20.7828 23.1087C20.7737 23.1087 20.7704 23.1007 20.7754 23.091C20.7805 23.0813 20.7484 23.0763 20.7042 23.0799C20.6308 23.0858 20.629 23.0849 20.6833 23.0699C20.7362 23.0552 20.7377 23.0532 20.6971 23.0508C20.672 23.0493 20.6318 23.057 20.6079 23.0678C20.5816 23.0797 20.5643 23.0801 20.5643 23.0688C20.5643 23.0583 20.4932 23.0513 20.4039 23.053C20.3157 23.0547 20.2463 23.0615 20.2498 23.0682C20.2533 23.0749 20.2499 23.0923 20.2423 23.1069C20.2198 23.1502 19.9808 23.1158 19.994 23.0712C20.0006 23.0489 19.994 23.0521 19.9739 23.0808C19.9354 23.1356 19.5386 23.1417 19.5099 23.0879C19.4966 23.063 19.494 23.0639 19.4938 23.0935C19.4935 23.1366 19.3585 23.1465 19.3562 23.1036C19.3552 23.0834 19.3532 23.0834 19.3463 23.1036C19.3413 23.1185 19.3067 23.1289 19.2617 23.1289C19.2198 23.1289 19.1899 23.1207 19.195 23.1108C19.2002 23.1009 19.1934 23.0877 19.1799 23.0815C19.1638 23.0742 19.1585 23.0801 19.1646 23.0988C19.1722 23.1224 19.15 23.1255 19.0363 23.1171C18.9606 23.1115 18.8987 23.1141 18.8987 23.1229C18.8987 23.1317 18.8605 23.1417 18.8137 23.145C18.767 23.1483 18.7288 23.1424 18.7288 23.1318C18.7288 23.0892 18.5613 23.0958 18.549 23.139C18.538 23.1775 18.5371 23.1773 18.53 23.1339C18.5237 23.0958 18.5114 23.0885 18.4538 23.0885C18.3988 23.0885 18.3872 23.0947 18.3953 23.1198C18.4011 23.1378 18.3983 23.1459 18.3886 23.1388C18.3794 23.132 18.3713 23.1384 18.3705 23.1529C18.3695 23.1732 18.3672 23.1735 18.3606 23.1541C18.3504 23.1241 18.2594 23.1201 18.2444 23.1491C18.2253 23.1856 18.1996 23.1717 18.2166 23.1339C18.2308 23.1023 18.2246 23.0993 18.1577 23.1056C18.1078 23.1104 18.0829 23.1222 18.0829 23.141C18.0829 23.1773 18.0553 23.1777 18.0436 23.1415C18.0285 23.0949 17.9258 23.0881 17.894 23.1316C17.8625 23.1747 17.7945 23.181 17.7609 23.144C17.7426 23.1238 17.7404 23.1238 17.75 23.144C17.7589 23.1626 17.7414 23.1692 17.6835 23.1692C17.6404 23.1692 17.6093 23.161 17.6146 23.1508C17.6237 23.1333 17.587 23.1356 17.4574 23.1607C17.41 23.1698 17.402 23.1658 17.4064 23.135C17.4105 23.1061 17.3993 23.0979 17.3521 23.0954L17.2926 23.0922L17.3521 23.1079L17.4116 23.1236L17.3479 23.1262C17.3128 23.1277 17.2841 23.1377 17.2841 23.1485C17.2841 23.1788 17.0096 23.1564 16.9927 23.1248C16.9827 23.106 16.9786 23.11 16.9782 23.139C16.9779 23.1612 16.9721 23.1702 16.9652 23.1591C16.9508 23.1359 16.8252 23.1313 16.8252 23.1541C16.8252 23.174 16.6597 23.1738 16.6493 23.1538C16.6329 23.1223 16.4855 23.1513 16.4834 23.1864C16.4816 23.2162 16.4806 23.2163 16.4741 23.1873C16.4682 23.1611 16.4538 23.1576 16.4 23.1693C16.3633 23.1773 16.3369 23.1769 16.3413 23.1684C16.3457 23.16 16.3149 23.1499 16.2728 23.1459C16.1778 23.1369 16.1658 23.1832 16.2601 23.1949L16.3239 23.2028L16.2586 23.2062C16.2073 23.2089 16.1914 23.2013 16.1848 23.1714C16.1748 23.1258 16.0486 23.1336 16.0161 23.1817C15.9918 23.2176 15.9739 23.2177 15.9855 23.1818C15.9927 23.1596 15.9806 23.157 15.9255 23.169C15.8626 23.1827 15.8513 23.1795 15.853 23.1491C15.8534 23.1435 15.7893 23.139 15.7106 23.139C15.5821 23.139 15.5676 23.1428 15.5676 23.1768C15.5676 23.2097 15.5639 23.211 15.5388 23.1869C15.5184 23.1672 15.5138 23.1666 15.523 23.1848C15.5329 23.2044 15.5156 23.2096 15.4498 23.2068C15.4024 23.2048 15.3636 23.1979 15.3636 23.1913C15.3636 23.1847 15.3254 23.1793 15.2786 23.1793C15.2319 23.1793 15.1937 23.1861 15.1937 23.1945C15.1937 23.2028 15.1631 23.2096 15.1257 23.2096C15.0883 23.2096 15.0577 23.2005 15.0577 23.1894C15.0577 23.1646 14.9613 23.1624 14.9486 23.1868C14.936 23.211 14.7972 23.1902 14.7818 23.1618C14.7742 23.1479 14.7691 23.1547 14.7688 23.1793C14.7684 23.2097 14.7646 23.2129 14.7536 23.1923C14.7434 23.1732 14.7355 23.1717 14.7274 23.1873C14.721 23.1996 14.689 23.2096 14.6563 23.2096C14.6209 23.2096 14.6011 23.2014 14.6073 23.1894C14.6131 23.1783 14.6093 23.1692 14.5988 23.1692C14.5884 23.1692 14.5853 23.1587 14.5919 23.1459C14.5995 23.1314 14.5966 23.1281 14.5842 23.1372C14.5732 23.1453 14.5687 23.1603 14.574 23.1707C14.5794 23.1809 14.5681 23.1894 14.5488 23.1894C14.5269 23.1894 14.5137 23.1762 14.5136 23.1541C14.5134 23.1236 14.5108 23.1229 14.4951 23.1491C14.4805 23.1733 14.4786 23.1702 14.4854 23.1336C14.4945 23.0843 14.4591 23.0279 14.4191 23.0279C14.4058 23.0279 14.3949 23.0189 14.3949 23.0077C14.3949 22.9966 14.384 22.9876 14.3707 22.9876C14.3574 22.9876 14.3416 22.9608 14.3356 22.9282C14.328 22.887 14.3169 22.8722 14.2997 22.8801C14.2787 22.8897 14.2793 22.8953 14.3035 22.9162C14.326 22.9358 14.3274 22.9444 14.3098 22.9573C14.2952 22.9681 14.2917 22.9657 14.2998 22.9503C14.307 22.9365 14.3011 22.927 14.2854 22.927C14.2708 22.927 14.2589 22.9137 14.2589 22.8974C14.2589 22.8812 14.2417 22.857 14.2207 22.8436C14.196 22.8279 14.1902 22.8162 14.2044 22.8106C14.2199 22.8045 14.2161 22.7915 14.1914 22.766C14.1702 22.7441 14.1606 22.7171 14.167 22.6973C14.1728 22.6793 14.1691 22.6646 14.1587 22.6646C14.1484 22.6646 14.1389 22.685 14.1376 22.71L14.1353 22.7554L14.128 22.711C14.124 22.6865 14.1041 22.6604 14.0836 22.6531C14.0328 22.6347 13.9915 22.5888 13.9613 22.5169C13.9296 22.4414 13.9297 22.4354 13.9624 22.4503C13.9775 22.4571 13.9843 22.4537 13.9783 22.4423C13.9726 22.4313 13.9569 22.4223 13.9435 22.4223C13.93 22.4223 13.9209 22.411 13.9232 22.3971C13.9259 22.3812 13.9126 22.3744 13.8874 22.3786C13.8622 22.3828 13.8515 22.3772 13.8585 22.3637C13.8654 22.3504 13.8596 22.3467 13.8434 22.3541C13.8177 22.3658 13.8156 22.3599 13.8111 22.2659C13.8086 22.214 13.7641 22.1799 13.7284 22.2026C13.7053 22.2173 13.701 22.2147 13.7088 22.1905C13.716 22.1681 13.7112 22.163 13.6915 22.1719C13.6759 22.179 13.664 22.1743 13.664 22.1609C13.664 22.148 13.6717 22.143 13.681 22.1498C13.6904 22.1567 13.698 22.1484 13.698 22.1315C13.698 22.1122 13.6884 22.105 13.6723 22.1123C13.6427 22.1259 13.5919 22.0834 13.6058 22.0567C13.6215 22.0265 13.6466 22.0369 13.6361 22.0693C13.629 22.0915 13.634 22.0963 13.655 22.0867C13.6813 22.0748 13.6814 22.0709 13.6566 22.0415C13.6356 22.0166 13.6227 22.0143 13.5993 22.0317C13.5742 22.0503 13.5686 22.0473 13.5665 22.0145C13.5648 21.9875 13.5718 21.9784 13.5885 21.986C13.619 21.9998 13.6201 21.9837 13.591 21.9492C13.5789 21.9348 13.5443 21.9253 13.5141 21.9281C13.466 21.9326 13.4618 21.9293 13.4809 21.9014C13.4986 21.8755 13.4985 21.8725 13.4806 21.8853C13.4533 21.9048 13.4082 21.8632 13.4194 21.8287C13.4295 21.7973 13.3716 21.7938 13.3541 21.8249C13.346 21.8393 13.3414 21.8364 13.3408 21.8168C13.3402 21.7936 13.3342 21.7957 13.3151 21.8256C13.2932 21.8601 13.2901 21.8607 13.2901 21.8304C13.2901 21.7986 13.2448 21.7965 12.674 21.8014C12.1735 21.8057 12.0588 21.8117 12.0626 21.8334C12.0652 21.8481 12.0614 21.8558 12.0541 21.8505C12.0469 21.8452 12.0448 21.5152 12.0495 21.1172L12.058 20.3936H12.5978C13.0341 20.3936 13.1359 20.3886 13.1291 20.3673C13.1244 20.3529 13.1281 20.3466 13.1374 20.3534C13.1466 20.3602 13.1542 20.3557 13.1542 20.3436C13.1542 20.3293 13.1626 20.3306 13.1779 20.3474C13.1909 20.3617 13.1985 20.3794 13.1948 20.3868C13.1911 20.3942 13.2001 20.3981 13.2149 20.3955C13.2298 20.3929 13.2479 20.3793 13.2552 20.3653C13.2625 20.3512 13.2733 20.3405 13.2793 20.3414C13.3109 20.3464 13.3241 20.3412 13.3241 20.3236C13.3241 20.3128 13.3134 20.3089 13.3003 20.3149C13.2873 20.3208 13.2715 20.316 13.2654 20.3041C13.2556 20.2854 13.2888 20.2728 13.3284 20.2802C13.3354 20.2815 13.3411 20.269 13.3411 20.2523C13.3411 20.2155 13.3774 20.2128 13.4067 20.2473C13.4239 20.2675 13.4259 20.2655 13.4168 20.2372C13.4078 20.2091 13.4146 20.2018 13.4498 20.2018C13.4946 20.2018 13.511 20.1715 13.4741 20.1569C13.4481 20.1466 13.4689 20.1075 13.5163 20.0776C13.5512 20.0554 13.552 20.0563 13.5281 20.0916C13.5045 20.1265 13.506 20.1264 13.5476 20.0899C13.5723 20.0682 13.5895 20.0445 13.5858 20.0372C13.5821 20.0299 13.594 20.0286 13.6123 20.0343C13.6374 20.0421 13.6482 20.0318 13.6566 19.9922C13.6628 19.9628 13.6755 19.9455 13.6855 19.9528C13.6953 19.96 13.6984 19.9565 13.6925 19.9451C13.6785 19.9182 13.7609 19.8122 13.7831 19.8285C13.7924 19.8353 13.8 19.8252 13.8 19.806C13.8 19.7869 13.8047 19.7768 13.8106 19.7837C13.8163 19.7906 13.8322 19.7829 13.8459 19.7667C13.8595 19.7505 13.879 19.7432 13.889 19.7506C13.8999 19.7586 13.9023 19.7545 13.8949 19.7403C13.8882 19.7274 13.8756 19.7219 13.867 19.7282C13.8583 19.7346 13.8564 19.724 13.8628 19.7043C13.8691 19.6849 13.8769 19.6785 13.8802 19.6902C13.8866 19.7128 13.97 19.7021 13.97 19.6787C13.97 19.6711 13.963 19.6563 13.9544 19.6457C13.9449 19.634 13.9494 19.615 13.9661 19.5969C13.9904 19.5706 13.9922 19.5712 13.9822 19.602C13.9761 19.621 13.9784 19.6366 13.9875 19.6366C13.9966 19.6366 14.004 19.6282 14.004 19.6178C14.004 19.6075 14.0193 19.5932 14.038 19.5862C14.0566 19.5791 14.0719 19.5646 14.0719 19.5538C14.0719 19.5419 14.0586 19.5427 14.038 19.5559C14.0193 19.5677 14.004 19.5696 14.004 19.5598C14.004 19.5501 14.0231 19.5318 14.0464 19.5192C14.0698 19.5065 14.0889 19.4887 14.0889 19.4795C14.0889 19.4702 14.1122 19.4646 14.1406 19.467C14.1801 19.4702 14.1882 19.4653 14.1749 19.4462C14.1483 19.4082 14.2271 19.3246 14.2568 19.3592C14.274 19.3793 14.2772 19.3784 14.2729 19.355C14.2695 19.3371 14.2807 19.3253 14.3014 19.3247C14.3276 19.3239 14.3354 19.31 14.3354 19.2632C14.3354 19.217 14.3427 19.2033 14.3663 19.2057C14.3856 19.2076 14.3939 19.1986 14.3885 19.1819C14.3722 19.1314 14.4266 19.1009 14.456 19.1441C14.4806 19.1802 14.4816 19.179 14.4723 19.1219C14.4642 19.0728 14.4659 19.0681 14.4806 19.0971C14.4997 19.1343 14.531 19.127 14.5306 19.0853C14.5304 19.0709 14.5237 19.0734 14.5138 19.0916C14.4998 19.1175 14.4973 19.1167 14.4971 19.0866C14.4969 19.0607 14.5105 19.0512 14.5478 19.0512C14.5982 19.0512 14.5999 19.0483 14.6057 18.952C14.6082 18.9112 14.6498 18.8997 14.6498 18.9397C14.6498 18.958 14.6576 18.9672 14.6671 18.9602C14.6766 18.9532 14.6799 18.939 14.6746 18.9287C14.6685 18.9171 15.4841 18.9099 16.7936 18.9099C18.2057 18.9099 18.9168 18.9167 18.9056 18.93C18.8947 18.943 18.3107 18.952 17.2579 18.9555C15.6561 18.9608 15.6641 18.9609 17.7125 18.9648C19.4249 18.9681 19.7963 18.9641 19.7893 18.9424C19.7833 18.9238 19.7969 18.9166 19.8355 18.918C19.8658 18.9191 19.8936 18.9325 19.898 18.9481C19.9025 18.9642 19.8982 18.9705 19.8879 18.9629C19.8779 18.9556 19.8652 18.9585 19.8595 18.9694C19.8535 18.9809 19.8707 18.9874 19.9008 18.9849C19.9292 18.9825 19.9524 18.9756 19.9524 18.9695C19.9524 18.9634 19.9711 18.9584 19.9938 18.9584C20.0166 18.9584 20.0306 18.9672 20.0251 18.978C20.0192 18.9891 20.0265 18.9922 20.042 18.9852C20.0621 18.976 20.0674 18.983 20.0627 19.012C20.0587 19.0368 20.0658 19.0512 20.0819 19.0512C20.0959 19.0512 20.1029 19.0425 20.0973 19.0319C20.0913 19.0204 20.1083 19.0212 20.1388 19.0338C20.2048 19.0612 20.2201 19.0912 20.184 19.1225C20.1591 19.1442 20.1587 19.1489 20.1812 19.1591C20.1954 19.1656 20.2052 19.1644 20.2029 19.1565C20.2007 19.1486 20.2065 19.1402 20.2159 19.1379C20.2252 19.1357 20.2306 19.1506 20.2279 19.1712C20.2245 19.196 20.2325 19.2075 20.2515 19.2056C20.2673 19.2039 20.2839 19.2152 20.2885 19.2307C20.2942 19.2501 20.2896 19.2536 20.2733 19.2419C20.2534 19.2277 20.2534 19.2303 20.2732 19.2593C20.286 19.2781 20.3101 19.2935 20.3266 19.2935C20.3432 19.2935 20.3613 19.3075 20.3668 19.3248C20.3724 19.342 20.3699 19.3509 20.3613 19.3446C20.3527 19.3383 20.3402 19.3438 20.3334 19.3568C20.3266 19.3698 20.3284 19.3751 20.3373 19.3686C20.3462 19.362 20.3646 19.365 20.3781 19.3752C20.392 19.3857 20.3943 19.3939 20.3834 19.3941C20.3727 19.3942 20.3651 19.4171 20.3664 19.4449C20.3691 19.5 20.378 19.5066 20.4057 19.4738C20.4185 19.4585 20.4268 19.4615 20.434 19.4839C20.4398 19.5018 20.4353 19.5158 20.4235 19.5161C20.4121 19.5165 20.4172 19.5266 20.4346 19.5387C20.4603 19.5564 20.4619 19.564 20.4431 19.5781C20.4262 19.5909 20.4256 19.5957 20.4411 19.596C20.4528 19.5961 20.4623 19.6059 20.4623 19.6177C20.4623 19.6294 20.4539 19.6328 20.4436 19.6253C20.4313 19.6162 20.4318 19.6269 20.4453 19.6568C20.4588 19.6867 20.4594 19.6974 20.447 19.6884C20.4367 19.6808 20.4283 19.679 20.4283 19.6843C20.4283 19.6896 20.4237 19.7083 20.4179 19.7261C20.4099 19.7508 20.4148 19.755 20.4392 19.7441C20.467 19.7317 20.4681 19.734 20.4476 19.764C20.4348 19.7826 20.4283 19.8161 20.4332 19.8384C20.4394 19.8665 20.4338 19.8789 20.415 19.8789C20.3922 19.8789 20.3928 19.8832 20.4192 19.9061C20.4389 19.9232 20.4454 19.9431 20.4368 19.9597C20.4277 19.9771 20.4297 19.9812 20.4427 19.9716C20.4535 19.9637 20.4623 19.9657 20.4623 19.9761C20.4623 19.9865 20.4375 20.0009 20.4071 20.0082C20.3658 20.0181 20.358 20.0259 20.3761 20.0394C20.3895 20.0492 20.4022 20.0717 20.4044 20.0893C20.4066 20.1069 20.4022 20.1168 20.3947 20.1113C20.3871 20.1057 20.376 20.1247 20.3699 20.1534C20.3626 20.1881 20.3507 20.2017 20.3341 20.1942C20.3205 20.188 20.3094 20.1923 20.3094 20.2037C20.3094 20.2151 20.3005 20.2179 20.2897 20.21C20.2779 20.2013 20.2747 20.2045 20.2817 20.2179C20.2881 20.2302 20.2773 20.2503 20.2577 20.2628C20.2294 20.2808 20.2262 20.2912 20.2422 20.314C20.2532 20.3298 20.2702 20.3368 20.2799 20.3297C20.2899 20.3224 20.2926 20.3264 20.2859 20.3392C20.2795 20.3515 20.263 20.3565 20.2493 20.3502C20.2345 20.3435 20.2244 20.3506 20.2244 20.3679C20.2244 20.3838 20.2033 20.4098 20.1776 20.4255C20.1519 20.4413 20.1181 20.4723 20.1025 20.4946L20.074 20.5349L20.077 20.4946C20.0786 20.4723 20.0876 20.4475 20.0969 20.4393C20.108 20.4297 20.1077 20.4244 20.0959 20.4242C20.0619 20.4236 20.0189 20.4752 20.0161 20.5202C20.0145 20.5449 20.0021 20.5652 19.9885 20.5652C19.9749 20.5652 19.9685 20.5596 19.9743 20.5527C19.9841 20.5411 19.9474 20.4845 19.9301 20.4845C19.9259 20.4845 19.918 20.5045 19.9126 20.529C19.9072 20.5535 19.8975 20.5672 19.891 20.5595C19.8844 20.5517 19.8688 20.5555 19.8563 20.5678C19.8438 20.5802 19.8335 20.5836 19.8335 20.5753C19.8335 20.567 19.8229 20.5707 19.81 20.5834C19.7918 20.6013 19.7841 20.5994 19.7762 20.5747C19.7695 20.5541 19.7727 20.5479 19.7853 20.5572C19.7973 20.566 19.8001 20.5625 19.7926 20.5481C19.7728 20.5101 16.9251 20.5151 16.9374 20.5531C16.9424 20.5686 16.9372 20.5882 16.9257 20.5965C16.9125 20.6063 16.9093 20.6034 16.9171 20.5885C16.9238 20.5757 16.9207 20.5652 16.9102 20.5652C16.8998 20.5652 16.8955 20.557 16.9007 20.5469C16.906 20.5368 16.8943 20.5336 16.8748 20.5396C16.8553 20.5457 16.8354 20.563 16.8305 20.5781C16.8256 20.5932 16.8105 20.6056 16.7969 20.6056C16.7828 20.6056 16.7768 20.6163 16.783 20.6308C16.7889 20.6447 16.7836 20.6415 16.7712 20.6237C16.7559 20.6017 16.7379 20.5964 16.7148 20.6072C16.6903 20.6185 16.6883 20.6233 16.7077 20.6243C16.7225 20.6251 16.7346 20.6392 16.7346 20.6557C16.7346 20.6765 16.7284 20.6796 16.7145 20.6659C16.6857 20.6375 16.6312 20.7102 16.6578 20.7417C16.6717 20.7583 16.6696 20.763 16.6495 20.7595C16.6345 20.7569 16.6171 20.7486 16.6107 20.7411C16.5852 20.7107 16.5165 20.8295 16.5398 20.8637C16.5585 20.891 16.5575 20.8938 16.5329 20.8829C16.5113 20.8733 16.5067 20.8782 16.5146 20.9026C16.5211 20.9227 16.5182 20.9301 16.5071 20.922C16.4892 20.9088 16.4449 20.9545 16.4592 20.9716C16.4634 20.9765 16.4507 20.9924 16.4311 21.007C16.3998 21.0302 16.3967 21.0294 16.4062 21.0002C16.4125 20.9806 16.41 20.972 16.4001 20.9792C16.3909 20.9859 16.3834 21.0043 16.3834 21.02C16.3834 21.0371 16.3731 21.0437 16.3576 21.0367C16.3401 21.0287 16.335 21.0343 16.3415 21.0543C16.3466 21.0704 16.3391 21.0952 16.3246 21.1095C16.3102 21.1237 16.2984 21.1469 16.2984 21.161C16.2984 21.1957 16.2518 21.215 16.2411 21.1848C16.2364 21.1715 16.234 21.1834 16.2357 21.2112C16.2381 21.2491 16.2315 21.2602 16.2091 21.2557C16.1755 21.249 16.1681 21.284 16.2004 21.2969C16.2143 21.3024 16.2057 21.3272 16.1749 21.3707C16.1455 21.4123 16.1284 21.4249 16.1284 21.4051C16.1284 21.3624 16.0776 21.3873 16.0769 21.4303C16.0762 21.4725 16.0194 21.5543 15.9907 21.5543C15.9783 21.5543 15.983 21.542 16.002 21.5253C16.0345 21.4968 16.0344 21.4964 16.001 21.5023C15.9755 21.5067 15.967 21.5235 15.967 21.5697C15.9671 21.6036 15.9622 21.6277 15.9562 21.6233C15.9383 21.6102 15.915 21.6612 15.9093 21.7259C15.9064 21.7592 15.8975 21.801 15.8895 21.8187C15.8807 21.8385 15.8827 21.86 15.8947 21.8742C15.9095 21.8918 15.9091 21.8975 15.8933 21.8975C15.8775 21.8975 15.8768 21.9076 15.8907 21.9384C15.9009 21.9609 15.9175 21.9733 15.9278 21.9657C15.9405 21.9563 15.9427 21.9695 15.9348 22.0072C15.9283 22.0375 15.9296 22.0576 15.9376 22.0517C15.9544 22.0394 16.0479 22.1074 16.0352 22.1227C16.0304 22.1283 16.0469 22.1548 16.0717 22.1817C16.0966 22.2086 16.1126 22.2215 16.1073 22.2104C16.1017 22.1984 16.1281 22.1892 16.1723 22.1877C16.2195 22.1861 16.2428 22.1928 16.236 22.2059C16.2293 22.2188 16.2336 22.2205 16.2473 22.2104C16.2613 22.2001 16.278 22.2079 16.2925 22.2313C16.3146 22.2673 16.3154 22.2672 16.3159 22.2294C16.3162 22.2078 16.3353 22.1739 16.3584 22.1539C16.3815 22.134 16.4004 22.1272 16.4004 22.1388C16.4004 22.1504 16.3908 22.1601 16.3791 22.1602C16.365 22.1604 16.3664 22.167 16.3834 22.1801C16.4096 22.2001 16.4581 22.1088 16.44 22.0736C16.4355 22.065 16.4381 22.0593 16.4458 22.0609C16.4857 22.0691 16.5189 22.0561 16.5151 22.0338C16.5127 22.0199 16.5199 22.0106 16.531 22.0132C16.5423 22.0157 16.5486 22.0015 16.5452 21.9808C16.5419 21.9605 16.5539 21.929 16.5718 21.9108C16.5896 21.8926 16.6043 21.8864 16.6043 21.897C16.6043 21.9077 16.6157 21.9112 16.6297 21.9049C16.6436 21.8985 16.6509 21.8851 16.6457 21.8752C16.6405 21.8653 16.6468 21.8571 16.6596 21.8571C16.6854 21.8571 16.7655 21.7391 16.7513 21.7222C16.7463 21.7163 16.7569 21.693 16.7747 21.6703C16.7925 21.6475 16.8036 21.6223 16.7994 21.6141C16.7951 21.606 16.803 21.588 16.8169 21.5743C16.8323 21.5592 16.8422 21.5576 16.8422 21.5704C16.8422 21.5819 16.8327 21.5959 16.821 21.6015C16.8083 21.6076 16.8117 21.6124 16.8295 21.6133C16.8458 21.6142 16.8592 21.6013 16.8592 21.5846C16.8592 21.568 16.866 21.5543 16.8742 21.5543C16.8825 21.5543 16.8933 21.5362 16.8982 21.514C16.9033 21.4904 16.9214 21.4736 16.9412 21.4736C16.9926 21.4736 17.0303 21.4517 17.0185 21.4289C17.0119 21.4163 17.003 21.4182 16.9947 21.4342C16.9865 21.4499 16.9825 21.4399 16.9841 21.4077C16.9855 21.3792 17.0012 21.3452 17.0189 21.332C17.0467 21.3113 17.0495 21.313 17.0394 21.3443C17.0284 21.3784 17.0295 21.3785 17.0595 21.3463C17.1137 21.2881 20.3603 21.2942 20.3603 21.3525C20.3603 21.3749 20.3717 21.3928 20.3858 21.3928C20.3999 21.3928 20.4113 21.3803 20.4113 21.365C20.4113 21.3219 20.4563 21.2842 20.4719 21.3142C20.4799 21.3296 20.4774 21.3332 20.4649 21.3241C20.4542 21.3162 20.4453 21.3193 20.4453 21.3311C20.4453 21.3627 20.489 21.357 20.5133 21.3222C20.5249 21.3055 20.5278 21.2916 20.5196 21.2913C20.5115 21.2909 20.5185 21.2782 20.5354 21.2631C20.5521 21.248 20.5808 21.2403 20.5991 21.2459C20.6212 21.2528 20.6323 21.2461 20.6323 21.2258C20.6323 21.209 20.6446 21.1897 20.6597 21.1828C20.6771 21.1749 20.6839 21.1556 20.6783 21.1302C20.6702 21.0936 20.6844 21.0803 20.7228 21.0882C20.7305 21.0897 20.7321 21.0821 20.7265 21.0712C20.7208 21.0604 20.7033 21.0573 20.6875 21.0645C20.6621 21.0761 20.6617 21.0739 20.6838 21.0455C20.6975 21.0279 20.7164 21.0189 20.7257 21.0254C20.7351 21.0319 20.7313 21.0201 20.7173 20.9992C20.7024 20.9771 20.7006 20.9675 20.713 20.9763C20.7263 20.9858 20.7342 20.98 20.7342 20.9607C20.7342 20.9401 20.7438 20.9342 20.7627 20.9428C20.7842 20.9526 20.7885 20.9475 20.7803 20.9222C20.7724 20.8979 20.781 20.8852 20.8112 20.8761C20.8342 20.8693 20.8488 20.8556 20.8436 20.8456C20.8384 20.8358 20.8476 20.8276 20.864 20.8276C20.8909 20.8276 20.8906 20.8246 20.8607 20.7958C20.8426 20.7784 20.8386 20.7708 20.8519 20.779C20.8691 20.7896 20.8731 20.7849 20.8659 20.7626C20.8583 20.7392 20.8642 20.7339 20.8892 20.7416C20.9076 20.7474 20.9214 20.7441 20.9199 20.7343C20.9133 20.6918 20.9233 20.6681 20.9523 20.6571C20.9829 20.6456 20.9972 20.5854 20.9693 20.5854C20.9366 20.5854 20.9593 20.5422 21.0145 20.4998C21.0471 20.4747 21.0738 20.446 21.0739 20.4359C21.0741 20.4259 21.0589 20.4341 21.0402 20.4542C21.0215 20.4743 21.0062 20.4816 21.0062 20.4705C21.0062 20.4594 21.0213 20.4341 21.0398 20.4143C21.0582 20.3944 21.0685 20.3687 21.0625 20.3572C21.0559 20.3445 21.0624 20.3412 21.079 20.3488C21.0976 20.3572 21.1036 20.3525 21.0976 20.334C21.0921 20.317 21.1001 20.3079 21.1191 20.3098C21.1363 20.3116 21.1522 20.2966 21.1559 20.2752C21.1604 20.249 21.1559 20.2422 21.1412 20.253C21.1273 20.2632 21.1242 20.2604 21.1322 20.245C21.139 20.232 21.1507 20.226 21.1584 20.2316C21.166 20.2372 21.1811 20.2291 21.192 20.2135C21.2058 20.1938 21.2063 20.1812 21.1937 20.172C21.167 20.1524 21.188 20.1242 21.2536 20.0916C21.2945 20.0713 21.3087 20.0535 21.3016 20.0315C21.2956 20.0129 21.3029 19.9951 21.3198 19.9875C21.3353 19.9804 21.344 19.9621 21.3391 19.9469C21.3339 19.9309 21.3411 19.9192 21.3561 19.9192C21.3716 19.9192 21.3772 19.9097 21.3698 19.8956C21.3617 19.8801 21.3665 19.8761 21.3839 19.884C21.4039 19.8932 21.4083 19.8855 21.4022 19.8521C21.3955 19.816 21.3975 19.8136 21.4131 19.8385C21.428 19.8622 21.4296 19.8559 21.4205 19.8099C21.4108 19.7606 21.4135 19.7532 21.437 19.7639C21.4524 19.7709 21.4651 19.7679 21.4651 19.7571C21.4651 19.7463 21.4574 19.7376 21.4481 19.7376C21.4387 19.7376 21.4311 19.7234 21.4311 19.7061C21.4311 19.6888 21.4388 19.6803 21.4482 19.6872C21.4576 19.6941 21.4699 19.6855 21.4755 19.6682C21.4811 19.6508 21.4963 19.6366 21.5094 19.6366C21.5224 19.6366 21.533 19.627 21.533 19.6152C21.533 19.6035 21.5243 19.6003 21.5136 19.6082C21.5029 19.616 21.5081 19.5943 21.5252 19.56C21.5423 19.5256 21.5616 19.5015 21.5682 19.5063C21.5748 19.5111 21.5791 19.4995 21.5779 19.4805C21.5766 19.4615 21.587 19.4448 21.601 19.4434C21.6521 19.4384 21.6558 19.4342 21.6352 19.4047C21.6099 19.3685 21.6505 19.3413 21.6978 19.3628C21.724 19.3748 21.7239 19.3725 21.6967 19.3367C21.6792 19.3137 21.6737 19.2924 21.6835 19.2852C21.6926 19.2785 21.7028 19.2827 21.7061 19.2945C21.7095 19.3063 21.7303 19.2868 21.7525 19.2511C21.7857 19.1979 21.7893 19.1796 21.773 19.1485C21.7551 19.1144 21.7575 19.112 21.7978 19.1241C21.8353 19.1353 21.8412 19.1314 21.8354 19.0993C21.8316 19.0784 21.8176 19.0642 21.8044 19.0679C21.7877 19.0724 21.7901 19.0617 21.8123 19.0326C21.8299 19.0095 21.8603 18.9898 21.8798 18.9887C21.9112 18.9869 21.9104 18.9847 21.873 18.9705C21.8322 18.955 21.832 18.9542 21.8687 18.9523C21.8897 18.9512 21.9069 18.9407 21.9069 18.9289C21.9069 18.9171 21.9146 18.9132 21.9239 18.92C21.9333 18.9269 21.9409 18.9178 21.9409 18.8998C21.9409 18.8803 21.9331 18.8729 21.9213 18.8816C21.9095 18.8903 21.9063 18.8871 21.9134 18.8735C21.9198 18.8612 21.937 18.8566 21.9517 18.8633C21.9663 18.87 21.9851 18.8627 21.9934 18.8472C22.0157 18.8054 22.0121 18.7887 21.9834 18.8017C21.9694 18.8081 21.9579 18.8032 21.9579 18.791C21.9579 18.7787 21.9655 18.7686 21.9746 18.7686C21.9838 18.7686 21.996 18.7462 22.0018 18.7189C22.0076 18.6915 22.0264 18.6638 22.0437 18.6573C22.0642 18.6496 22.0715 18.634 22.0647 18.6129C22.058 18.5921 22.0609 18.5853 22.0729 18.5941C22.0831 18.6016 22.1024 18.5896 22.1155 18.5672C22.1287 18.5449 22.1445 18.531 22.1508 18.5364C22.157 18.5418 22.1544 18.5354 22.145 18.5222C22.1191 18.4858 22.1244 18.4453 22.1533 18.4585C22.1672 18.4649 22.1738 18.4805 22.1678 18.4932C22.1618 18.5059 22.1675 18.5046 22.1805 18.4902C22.2 18.4687 22.2001 18.4612 22.1816 18.4476C22.1637 18.4345 22.1648 18.4284 22.187 18.4183C22.204 18.4106 22.21 18.3955 22.2022 18.3802C22.1946 18.3652 22.2024 18.3673 22.221 18.3851C22.2509 18.4137 22.252 18.4117 22.2415 18.3489C22.2337 18.302 22.2366 18.2835 22.2514 18.2857C22.293 18.2921 22.3148 18.2837 22.3148 18.2615C22.3148 18.2466 22.3047 18.2481 22.2851 18.2662C22.2622 18.2872 22.2631 18.2828 22.2887 18.2472C22.3084 18.2198 22.3344 18.2048 22.3524 18.2104C22.3691 18.2156 22.3828 18.2116 22.3828 18.2015C22.3828 18.1914 22.3694 18.1823 22.3531 18.1812C22.3343 18.1799 22.339 18.174 22.3658 18.1651C22.4098 18.1505 22.4544 18.1793 22.4379 18.2116C22.4328 18.2216 22.4378 18.2231 22.449 18.2148C22.4649 18.2032 22.4649 18.1932 22.4488 18.1702C22.4374 18.1539 22.4351 18.143 22.4437 18.146C22.4523 18.149 22.477 18.1398 22.4987 18.1255C22.5308 18.1044 22.543 18.1045 22.5656 18.1263C22.581 18.1412 22.5881 18.1427 22.5816 18.1298C22.5752 18.1171 22.5818 18.1013 22.5962 18.0947C22.6107 18.0881 22.6186 18.0904 22.6137 18.0998C22.6088 18.1091 22.6268 18.1158 22.6536 18.1147C22.6805 18.1135 22.6989 18.1058 22.6946 18.0974C22.6903 18.0891 22.6923 18.0715 22.6992 18.0584C22.7077 18.042 22.7156 18.0467 22.7245 18.0736C22.7315 18.095 22.738 18.1035 22.7388 18.0924ZM23.007 18.2046C23.0159 18.245 23.0373 18.2559 23.0521 18.2276C23.0567 18.2187 23.0465 18.2011 23.0294 18.1885C23.0028 18.1687 22.9996 18.1711 23.007 18.2046ZM21.3788 18.4103C21.3642 18.4668 21.3681 18.486 21.3898 18.4647C21.4029 18.4517 21.4095 18.433 21.4044 18.4232C21.3956 18.4063 21.3816 18.3993 21.3788 18.4103ZM21.839 19.031C21.8184 19.0469 21.8208 19.0507 21.8517 19.0509C21.8727 19.0511 21.89 19.0421 21.89 19.031C21.89 19.0058 21.8719 19.0058 21.839 19.031ZM21.0062 19.1219C21.0062 19.1385 20.9985 19.1522 20.9892 19.1522C20.9798 19.1522 20.9722 19.1385 20.9722 19.1219C20.9722 19.1052 20.9798 19.0916 20.9892 19.0916C20.9985 19.0916 21.0062 19.1052 21.0062 19.1219ZM9.60208 19.1757C9.60208 19.185 9.59363 19.1925 9.58326 19.1925C9.57293 19.1925 9.56898 19.2066 9.57451 19.2237C9.58007 19.2408 9.58492 20.1061 9.58534 21.1464L9.58611 23.038L8.63384 23.0432C7.66989 23.0485 7.67078 23.0486 7.67957 22.9825C7.68068 22.9742 7.67392 22.9674 7.66458 22.9674C7.64605 22.9674 7.63946 19.2816 7.6579 19.2245C7.66712 19.1959 7.76685 19.1925 8.60966 19.1925C9.12744 19.1925 9.55109 19.185 9.55109 19.1757C9.55109 19.1664 9.56257 19.1589 9.57659 19.1589C9.59061 19.1589 9.60208 19.1664 9.60208 19.1757ZM21.7654 19.2059C21.7604 19.2119 21.7473 19.2102 21.7363 19.2021C21.7215 19.1913 21.7223 19.1831 21.7394 19.1705C21.7621 19.1537 21.7841 19.1838 21.7654 19.2059ZM9.55925 21.1001C9.55925 22.1327 9.56133 22.5521 9.56384 22.0322C9.56635 21.5123 9.56635 20.6675 9.56384 20.1549C9.56129 19.6422 9.55925 20.0676 9.55925 21.1001ZM11.4036 21.0939C11.4036 22.4964 11.403 22.524 11.3696 22.5636C11.3369 22.6026 11.3157 22.6039 10.7875 22.5994L10.2394 22.5948L10.7918 22.5838L11.3441 22.5729L10.8045 22.5683L10.2649 22.5636V21.122C10.2649 20.3291 10.2624 19.6682 10.2592 19.6534C10.2561 19.6387 10.2567 19.6334 10.2606 19.6417C10.2771 19.6766 11.336 19.6591 11.3474 19.6237C11.3961 19.4731 11.4036 19.6708 11.4036 21.0939ZM23.0572 19.6106C23.0521 19.6204 23.0541 19.6404 23.0616 19.6549C23.0721 19.675 23.0784 19.6755 23.0879 19.6572C23.0948 19.6439 23.0928 19.624 23.0835 19.6129C23.074 19.6017 23.0624 19.6006 23.0572 19.6106ZM20.3111 20.2885C20.2893 20.3145 20.2672 20.2945 20.2834 20.2634C20.2896 20.2514 20.3025 20.2473 20.312 20.2543C20.3236 20.2628 20.3233 20.2741 20.3111 20.2885ZM23.4366 20.4205C23.4366 20.4335 23.4251 20.4441 23.4111 20.4441C23.397 20.4441 23.3856 20.4581 23.3856 20.4752C23.3856 20.5001 23.3929 20.4981 23.4226 20.4653C23.4429 20.4428 23.4544 20.4182 23.4481 20.4107C23.4417 20.4032 23.4366 20.4076 23.4366 20.4205ZM22.9437 21.2631C22.9437 21.2825 22.8916 21.3377 22.883 21.3275C22.8679 21.3096 22.8962 21.2515 22.92 21.2515C22.933 21.2515 22.9437 21.2567 22.9437 21.2631ZM16.0187 21.452C16.0071 21.4743 16.0339 21.4984 16.0496 21.4797C16.0657 21.4606 16.0627 21.4332 16.0445 21.4332C16.0357 21.4332 16.0241 21.4417 16.0187 21.452ZM16.7204 21.749C16.7173 21.758 16.7048 21.7671 16.6926 21.7693C16.6751 21.7723 16.6747 21.7669 16.6908 21.744C16.7112 21.7148 16.7311 21.7182 16.7204 21.749ZM15.9641 22.1092C15.9641 22.1257 15.9778 22.1443 15.9944 22.1506C16.0136 22.1578 16.0213 22.1746 16.0155 22.1963C16.008 22.224 16.0095 22.2251 16.0234 22.2019C16.0356 22.1814 16.0324 22.1598 16.0123 22.1268C15.9792 22.0727 15.9641 22.0672 15.9641 22.1092ZM16.1375 22.2396C16.1319 22.2502 16.1439 22.255 16.1642 22.2504C16.215 22.2387 16.2266 22.2205 16.1832 22.2205C16.1636 22.2205 16.143 22.2291 16.1375 22.2396ZM14.4665 23.0959C14.4775 23.0878 14.4803 23.0916 14.4732 23.1051C14.4643 23.1221 14.453 23.1219 14.4292 23.1042C14.4115 23.0911 14.4014 23.072 14.4068 23.0617C14.4122 23.0513 14.4236 23.0579 14.4323 23.0762C14.4409 23.0945 14.4563 23.1034 14.4665 23.0959ZM20.3731 23.1024C20.3567 23.1075 20.33 23.1075 20.3136 23.1024C20.2972 23.0973 20.3106 23.0932 20.3433 23.0932C20.3761 23.0932 20.3894 23.0973 20.3731 23.1024ZM14.977 23.1428C14.9933 23.1478 15.0201 23.1478 15.0364 23.1428C15.0528 23.1377 15.0394 23.1336 15.0067 23.1336C14.974 23.1336 14.9606 23.1377 14.977 23.1428ZM16.6935 23.1428C16.7099 23.1478 16.7367 23.1478 16.753 23.1428C16.7694 23.1377 16.756 23.1336 16.7233 23.1336C16.6906 23.1336 16.6772 23.1377 16.6935 23.1428ZM15.7822 23.1853C15.7553 23.1893 15.7267 23.1846 15.7185 23.1749C15.7099 23.1647 15.7307 23.1616 15.7673 23.1676C15.8259 23.1773 15.8271 23.1787 15.7822 23.1853ZM16.1551 23.167C16.1435 23.1893 16.0264 23.2071 16.0264 23.1866C16.0264 23.1784 16.0551 23.1681 16.0902 23.1637C16.1252 23.1594 16.1563 23.1543 16.1592 23.1524C16.1621 23.1506 16.1602 23.1571 16.1551 23.167ZM16.6298 23.1692C16.624 23.1803 16.5949 23.1882 16.565 23.1867L16.5108 23.1841L16.5703 23.1692C16.603 23.1611 16.6322 23.1532 16.6351 23.1517C16.6379 23.1503 16.6356 23.1581 16.6298 23.1692ZM21.6906 23.4022C21.6743 23.4165 21.6532 23.4223 21.6437 23.4152C21.6343 23.4081 21.6405 23.3991 21.6575 23.395C21.6775 23.3903 21.6849 23.3767 21.6784 23.3564C21.6699 23.3302 21.6726 23.3293 21.6943 23.3507C21.7176 23.3737 21.7172 23.3792 21.6906 23.4022ZM19.6338 23.8496C19.6127 23.8545 19.5783 23.8545 19.5573 23.8496C19.5363 23.8448 19.5535 23.8409 19.5955 23.8409C19.6376 23.8409 19.6548 23.8448 19.6338 23.8496ZM17.2289 23.8897C17.2125 23.8947 17.1858 23.8947 17.1694 23.8897C17.153 23.8846 17.1664 23.8805 17.1991 23.8805C17.2319 23.8805 17.2452 23.8846 17.2289 23.8897ZM18.517 23.9147C18.5054 23.937 18.5322 23.9611 18.5479 23.9425C18.5641 23.9233 18.5611 23.8959 18.5428 23.8959C18.534 23.8959 18.5224 23.9044 18.517 23.9147ZM15.0367 23.9502C15.0204 23.9552 14.9898 23.9554 14.9687 23.9506C14.9475 23.9458 14.9608 23.9416 14.9982 23.9414C15.0356 23.9412 15.0529 23.9451 15.0367 23.9502ZM15.4953 23.9704C15.479 23.9755 15.4522 23.9755 15.4358 23.9704C15.4195 23.9653 15.4329 23.9612 15.4656 23.9612C15.4983 23.9612 15.5117 23.9653 15.4953 23.9704Z" fill="#04048C"/>
<path fill-rule="evenodd" clip-rule="evenodd" d="M15.0245 9.3473C15.0245 9.50208 15.0179 9.59963 15.0075 9.59963C14.9981 9.59963 14.9905 9.65307 14.9905 9.71954C14.9905 9.78549 14.9829 9.84509 14.9735 9.85196C14.9642 9.85882 14.9565 9.89516 14.9565 9.9327C14.9565 9.97025 14.9489 10.0066 14.9395 10.0134C14.9302 10.0203 14.9225 10.0436 14.9225 10.0651C14.9225 10.0867 14.9149 10.1043 14.9055 10.1043C14.8962 10.1043 14.8885 10.1156 14.8885 10.1295C14.8885 10.1434 14.8713 10.1792 14.8503 10.2092C14.8293 10.2391 14.794 10.2913 14.7719 10.3252C14.7498 10.3591 14.7244 10.3869 14.7154 10.3869C14.7065 10.3869 14.6876 10.4006 14.6735 10.4174C14.6594 10.4341 14.6408 10.4427 14.6322 10.4364C14.6236 10.43 14.6166 10.4345 14.6166 10.4462C14.6166 10.458 14.6008 10.4676 14.5816 10.4676C14.5623 10.4676 14.5513 10.4767 14.5571 10.4878C14.5632 10.4996 14.5463 10.508 14.5166 10.508C14.4886 10.508 14.4609 10.5171 14.4551 10.5282C14.4494 10.5393 14.4035 10.5484 14.3532 10.5484C14.3029 10.5484 14.257 10.5575 14.2512 10.5686C14.2454 10.5797 14.1991 10.5888 14.1482 10.5888H14.0557V11.4721C14.0557 12.4938 14.034 12.3944 14.2596 12.4036C14.339 12.4068 14.4169 12.4176 14.4327 12.4276C14.4485 12.4377 14.4732 12.4459 14.4875 12.4459C14.572 12.4459 14.8532 12.6734 14.8549 12.7431C14.8551 12.7517 14.8703 12.7815 14.8885 12.8093C14.9068 12.837 14.9219 12.8802 14.9221 12.9051C14.9224 12.9301 14.9293 12.9506 14.9376 12.9506C14.9547 12.9506 14.9714 13.0458 14.9846 13.218C14.9895 13.2819 15.0005 13.3341 15.009 13.3341C15.0175 13.3341 15.0245 13.4521 15.0245 13.5966V13.859L18.037 13.8539L21.0495 13.8488L21.0542 13.5364C21.0568 13.3646 21.0663 13.2151 21.0754 13.2043C21.0845 13.1935 21.092 13.1502 21.092 13.108C21.092 13.0658 21.0996 13.0313 21.1089 13.0313C21.1183 13.0313 21.1259 13.0103 21.1259 12.9846C21.1259 12.9409 21.1857 12.7709 21.2089 12.7487C21.2147 12.7431 21.2303 12.7136 21.2436 12.6831C21.2568 12.6526 21.277 12.6276 21.2885 12.6276C21.2999 12.6276 21.3133 12.6151 21.3182 12.5999C21.3274 12.5713 21.4611 12.4863 21.4967 12.4863C21.5078 12.4863 21.5168 12.4772 21.5168 12.4661C21.5168 12.455 21.5421 12.4459 21.5729 12.4459C21.6038 12.4459 21.6363 12.4373 21.6452 12.4268C21.654 12.4163 21.7263 12.406 21.8058 12.4038C21.8852 12.4016 21.9674 12.3905 21.9885 12.3792L22.0267 12.3587V11.4737V10.5888H21.9247C21.8681 10.5888 21.8228 10.5798 21.8228 10.5686C21.8228 10.5574 21.7774 10.5484 21.7208 10.5484C21.6642 10.5484 21.6188 10.5394 21.6188 10.5282C21.6188 10.5171 21.5921 10.508 21.5593 10.508C21.5266 10.508 21.4998 10.4989 21.4998 10.4878C21.4998 10.4767 21.4878 10.4676 21.4732 10.4676C21.3862 10.4676 21.1599 10.1852 21.1599 10.0767C21.1599 10.0586 21.1523 10.0437 21.1429 10.0437C21.1336 10.0437 21.1259 10.0216 21.1259 9.99447C21.1259 9.96737 21.1183 9.93957 21.1089 9.9327C21.0996 9.92584 21.092 9.88441 21.092 9.84065C21.092 9.7969 21.085 9.76112 21.0765 9.76112C21.068 9.76112 21.0601 9.61896 21.0588 9.44495C21.0576 9.27105 21.0526 9.12116 21.0478 9.11188C21.0429 9.10259 19.6857 9.09497 18.0317 9.09497H15.0245V9.3473Z" fill="#FEA803"/>
</svg>
