<svg width="274" height="274" viewBox="0 0 274 274" fill="none" xmlns="http://www.w3.org/2000/svg">
<path d="M274 209.555H0V209.692H274V209.555Z" fill="#EBEBEB"/>
<path d="M172.987 213.287H159.035V213.424H172.987V213.287Z" fill="#EBEBEB"/>
<path d="M249.581 216.252H216.52V216.389H249.581V216.252Z" fill="#EBEBEB"/>
<path d="M156.065 213.353H121.908V213.49H156.065V213.353Z" fill="#EBEBEB"/>
<path d="M99.758 217.452H92.6121V217.589H99.758V217.452Z" fill="#EBEBEB"/>
<path d="M139.241 217.452H106.701V217.589H139.241V217.452Z" fill="#EBEBEB"/>
<path d="M49.8186 215.139H28.748V215.276H49.8186V215.139Z" fill="#EBEBEB"/>
<path d="M129.876 185.114H24.0627C23.2338 185.113 22.4393 184.783 21.8536 184.196C21.268 183.609 20.9391 182.814 20.9391 181.985V33.2417C20.9463 32.4175 21.2784 31.6295 21.8633 31.0487C22.4481 30.468 23.2385 30.1414 24.0627 30.14H129.876C130.706 30.14 131.502 30.4697 132.089 31.0565C132.675 31.6433 133.005 32.4392 133.005 33.2691V181.985C133.005 182.815 132.675 183.611 132.089 184.198C131.502 184.785 130.706 185.114 129.876 185.114ZM24.0627 30.2496C23.2701 30.2511 22.5104 30.5669 21.9505 31.1279C21.3906 31.6889 21.0761 32.4491 21.0761 33.2417V181.985C21.0761 182.778 21.3906 183.538 21.9505 184.099C22.5104 184.66 23.2701 184.976 24.0627 184.977H129.876C130.669 184.976 131.429 184.66 131.99 184.099C132.551 183.539 132.867 182.778 132.868 181.985V33.2417C132.867 32.4486 132.551 31.6884 131.99 31.1276C131.429 30.5668 130.669 30.2511 129.876 30.2496H24.0627Z" fill="#EBEBEB"/>
<path d="M248.414 185.114H142.595C141.766 185.113 140.971 184.783 140.384 184.196C139.798 183.61 139.468 182.815 139.466 181.985V33.2417C139.475 32.417 139.808 31.629 140.394 31.0484C140.979 30.4678 141.77 30.1414 142.595 30.14H248.414C249.237 30.1429 250.026 30.47 250.61 31.0506C251.194 31.6312 251.525 32.4185 251.532 33.2417V181.985C251.532 182.813 251.204 183.608 250.619 184.194C250.035 184.781 249.242 185.111 248.414 185.114ZM142.595 30.2496C141.802 30.2511 141.042 30.5668 140.481 31.1276C139.92 31.6884 139.605 32.4486 139.603 33.2417V181.985C139.605 182.778 139.92 183.539 140.481 184.099C141.042 184.66 141.802 184.976 142.595 184.977H248.414C249.207 184.976 249.967 184.66 250.528 184.099C251.089 183.539 251.405 182.778 251.406 181.985V33.2417C251.405 32.4486 251.089 31.6884 250.528 31.1276C249.967 30.5668 249.207 30.2511 248.414 30.2496H142.595Z" fill="#EBEBEB"/>
<path d="M107.386 162.027H70.9988L68.7904 136.545H105.178L107.386 162.027Z" fill="#E6E6E6"/>
<path d="M109.271 162.027H72.884L70.6755 136.545H107.063L109.271 162.027Z" fill="#F0F0F0"/>
<path d="M77.8599 156.553L76.6433 142.014H102.087L103.304 156.553H77.8599Z" fill="white"/>
<path d="M115.568 162.027H111.299V209.555H115.568V162.027Z" fill="#E6E6E6"/>
<path d="M116.916 162.027H113.951V209.555H116.916V162.027Z" fill="#F0F0F0"/>
<path d="M75.5911 167.271H116.916V162.027H75.5911V167.271Z" fill="#F0F0F0"/>
<path d="M77.0488 167.271H72.7799V209.555H77.0488V167.271Z" fill="#E6E6E6"/>
<path d="M78.3969 167.271H75.4323V209.555H78.3969V167.271Z" fill="#F0F0F0"/>
<path d="M46.6622 167.271H42.3933V209.555H46.6622V167.271Z" fill="#E6E6E6"/>
<path d="M48.0102 167.271H45.0455V209.555H48.0102V167.271Z" fill="#F0F0F0"/>
<path d="M88.5513 167.271H84.2823V209.555H88.5513V167.271Z" fill="#E6E6E6"/>
<path d="M89.8939 167.271H86.9292V209.555H89.8939V167.271Z" fill="#F0F0F0"/>
<path d="M75.5912 162.027H42.3933V167.271H75.5912V162.027Z" fill="#E6E6E6"/>
<path d="M199.384 43.5167H70.9714V115.009H199.384V43.5167Z" fill="#E0E0E0"/>
<path d="M206.437 43.5167H71.6182V115.009H206.437V43.5167Z" fill="#F5F5F5"/>
<path d="M204.234 112.806V45.7196L73.8211 45.7196V112.806L204.234 112.806Z" fill="white"/>
<path d="M126.626 112.806L151.248 45.7196H110.614L85.9922 112.806H126.626Z" fill="#F5F5F5"/>
<path d="M165.737 112.806L190.359 45.7196H159.704L135.082 112.806H165.737Z" fill="#F5F5F5"/>
<path d="M240.084 141.274H229.168V209.555H240.084V141.274Z" fill="#E6E6E6"/>
<path d="M237.213 209.555H240.084V204.3H234.204L237.213 209.555Z" fill="#FAFAFA"/>
<path d="M139.439 141.274H128.522V209.555H139.439V141.274Z" fill="#E6E6E6"/>
<path d="M240.084 141.274H136.934V208.136H240.084V141.274Z" fill="#FAFAFA"/>
<path d="M238.133 162.849H138.891V143.965H238.133V162.849ZM139.439 162.301H237.585V144.513H139.439V162.301Z" fill="#E6E6E6"/>
<path d="M220.663 153.133H158.284C155.391 153.133 152.602 150.799 150.612 146.721L150.426 146.332H228.516L228.33 146.721C226.324 150.799 223.584 153.133 220.663 153.133ZM151.325 146.864C153.177 150.497 155.709 152.569 158.284 152.569H220.663C223.25 152.569 225.771 150.497 227.623 146.864H151.325Z" fill="#E6E6E6"/>
<path d="M139.806 209.555H136.934V204.3H142.814L139.806 209.555Z" fill="#FAFAFA"/>
<path d="M238.133 184.128H138.891V165.266H238.133V184.128ZM139.439 183.58H237.585V165.814H139.439V183.58Z" fill="#E6E6E6"/>
<path d="M220.663 174.434H158.284C155.391 174.434 152.602 172.094 150.612 168.022L150.426 167.628H228.516L228.33 168.022C226.324 172.072 223.584 174.434 220.663 174.434ZM151.325 168.176C153.177 171.809 155.709 173.886 158.284 173.886H220.663C223.25 173.886 225.771 171.809 227.623 168.176H151.325Z" fill="#E6E6E6"/>
<path d="M238.133 205.445H138.891V186.561H238.133V205.445ZM139.439 204.897H237.585V187.109H139.439V204.897Z" fill="#E6E6E6"/>
<path d="M220.663 195.729H158.284C155.391 195.729 152.602 193.395 150.612 189.323L150.426 188.928H228.516L228.33 189.323C226.324 193.395 223.584 195.729 220.663 195.729ZM151.325 189.476C153.177 193.11 155.709 195.181 158.284 195.181H220.663C223.25 195.181 225.771 193.11 227.623 189.476H151.325Z" fill="#E6E6E6"/>
<path d="M66.297 150.306V151.632H65.4531L64.7516 162.027H54.4273L53.7314 151.632H52.882V150.306H66.297Z" fill="#E6E6E6"/>
<path d="M62.8994 124.511C62.0555 118.319 53.6985 116.554 43.0947 116.324C33.006 116.11 29.7728 112.543 29.7728 112.543C29.7728 112.543 29.8057 126.993 44.3441 132.232C58.1483 137.197 63.7488 130.714 62.8994 124.511Z" fill="#E6E6E6"/>
<path d="M57.7482 138.545C57.9236 136.003 61.9897 131.323 71.7715 133.449C78.8407 134.989 81.4711 131.323 81.4711 131.323C81.4711 131.323 80.8136 141.669 70.1824 144.776C60.0827 147.73 57.4359 143.028 57.7482 138.545Z" fill="#E6E6E6"/>
<path d="M59.9786 154.207C60.0336 154.208 60.0882 154.196 60.1383 154.174C60.1885 154.151 60.2331 154.117 60.269 154.076C60.9759 153.237 60.395 151.232 59.595 148.453C58.5647 144.891 57.2824 140.452 58.3674 137.236C58.9689 135.537 59.6716 133.875 60.4718 132.26C62.0062 129.016 63.3323 126.232 62.2254 123.284C62.2081 123.237 62.1817 123.194 62.1477 123.157C62.1137 123.12 62.0728 123.091 62.0273 123.07C61.9818 123.049 61.9327 123.038 61.8827 123.036C61.8328 123.035 61.783 123.043 61.7363 123.061C61.6895 123.079 61.6468 123.105 61.6105 123.14C61.5742 123.174 61.5451 123.215 61.5248 123.261C61.5046 123.307 61.4936 123.356 61.4925 123.406C61.4914 123.456 61.5002 123.506 61.5184 123.552C62.5103 126.177 61.3102 128.72 59.7868 131.942C58.9764 133.583 58.2628 135.27 57.6496 136.995C56.4933 140.436 57.8085 145.001 58.8661 148.661C59.4908 150.853 60.1375 153.045 59.6936 153.593C59.6584 153.631 59.6314 153.676 59.6144 153.725C59.5974 153.774 59.5907 153.826 59.5949 153.877C59.599 153.929 59.6138 153.979 59.6383 154.024C59.6629 154.07 59.6966 154.11 59.7374 154.141C59.8074 154.191 59.8929 154.215 59.9786 154.207Z" fill="#E6E6E6"/>
<path d="M137 234.303C195.681 234.303 243.252 231.525 243.252 228.099C243.252 224.673 195.681 221.896 137 221.896C78.3188 221.896 30.7483 224.673 30.7483 228.099C30.7483 231.525 78.3188 234.303 137 234.303Z" fill="#E6E6E6"/>
<path d="M136.978 197.855H59.1621L54.9042 72.7086H132.72L136.978 197.855Z" fill="#407BFF"/>
<path d="M140.864 193.97H63.0475L58.7841 68.8234H136.6L140.864 193.97Z" fill="#407BFF"/>
<path opacity="0.3" d="M140.864 193.97H63.0475L58.7841 68.8234H136.6L140.864 193.97Z" fill="white"/>
<path d="M114.791 120.321C123.123 111.845 122.769 97.9863 113.999 89.3659C105.23 80.7455 91.3671 80.6281 83.0352 89.1037C74.7033 97.5793 75.0578 111.438 83.8269 120.059C92.5961 128.679 106.459 128.797 114.791 120.321Z" fill="#407BFF"/>
<path d="M116.982 104.717C117.094 107.699 116.443 110.661 115.091 113.321C113.632 116.188 111.403 118.591 108.654 120.262C105.905 121.933 102.745 122.804 99.5278 122.779C96.2355 122.762 93.0057 121.878 90.1625 120.218C87.3193 118.558 84.9626 116.179 83.3289 113.321C81.8057 110.701 80.9547 107.746 80.852 104.717C80.7509 102.369 81.1283 100.025 81.9612 97.8272C82.794 95.6294 84.0651 93.6239 85.697 91.9325C87.3289 90.2411 89.2877 88.8991 91.4543 87.9882C93.6209 87.0772 95.9501 86.6162 98.3003 86.6333C103.142 86.6675 107.784 88.5656 111.263 91.9332C114.742 95.3009 116.79 99.8792 116.982 104.717Z" fill="white"/>
<path opacity="0.6" d="M115.08 113.321C113.621 116.188 111.392 118.591 108.643 120.262C105.894 121.933 102.734 122.805 99.5169 122.779C96.2245 122.762 92.9947 121.878 90.1515 120.218C87.3083 118.558 84.9517 116.179 83.318 113.321C87.9525 110.161 93.4365 108.482 99.0456 108.504C104.745 108.516 110.317 110.19 115.08 113.321Z" fill="#407BFF"/>
<path opacity="0.6" d="M104.543 104.267C107.607 101.15 107.476 96.0539 104.252 92.8841C101.027 89.7143 95.9298 89.6711 92.8661 92.7877C89.8024 95.9043 89.9327 101 93.1572 104.17C96.3817 107.34 101.479 107.383 104.543 104.267Z" fill="#407BFF"/>
<path d="M125.229 148.651H75.5912L75.257 138.786H124.895L125.229 148.651Z" fill="white"/>
<path d="M125.832 166.28H76.1885L75.8542 156.416H125.498L125.832 166.28Z" fill="white"/>
<path d="M106.674 157.775L94.7109 159.419C94.5968 159.432 94.4866 159.468 94.3872 159.526C94.2878 159.584 94.2015 159.661 94.1335 159.754C94.0656 159.846 94.0176 159.952 93.9925 160.064C93.9673 160.176 93.9657 160.292 93.9876 160.405L95.5603 168.422C95.6118 168.658 95.7494 168.865 95.9462 169.004C96.1429 169.143 96.3845 169.203 96.6235 169.173L108.586 167.529C108.7 167.515 108.81 167.477 108.909 167.419C109.007 167.36 109.093 167.282 109.16 167.189C109.228 167.096 109.275 166.99 109.3 166.878C109.325 166.766 109.326 166.65 109.304 166.537L107.737 158.52C107.685 158.285 107.548 158.078 107.351 157.94C107.154 157.802 106.912 157.743 106.674 157.775ZM103.238 165.896L101.046 166.187L100.832 163.6C100.606 163.502 100.407 163.352 100.252 163.161C100.096 162.97 99.9889 162.745 99.9388 162.504C99.8986 162.317 99.8979 162.124 99.937 161.937C99.976 161.75 100.054 161.574 100.165 161.419C100.277 161.264 100.42 161.134 100.585 161.038C100.749 160.942 100.933 160.881 101.123 160.86C101.512 160.81 101.906 160.908 102.226 161.134C102.547 161.36 102.771 161.698 102.854 162.082C102.902 162.314 102.887 162.554 102.812 162.778C102.737 163.002 102.604 163.202 102.427 163.359L103.238 165.896Z" fill="#407BFF"/>
<path d="M105.49 157.342C105.279 157.369 105.065 157.316 104.89 157.193C104.716 157.07 104.594 156.887 104.548 156.679L104.394 155.895C104.175 154.826 103.576 153.872 102.707 153.211C101.838 152.55 100.759 152.226 99.6704 152.3C99.1208 152.332 98.5844 152.481 98.0976 152.738C97.6108 152.995 97.185 153.354 96.8492 153.79C96.5134 154.226 96.2753 154.729 96.1513 155.266C96.0272 155.802 96.0201 156.359 96.1303 156.898L96.3056 157.802C96.3261 157.902 96.3253 158.006 96.3035 158.106C96.2817 158.205 96.2392 158.3 96.1789 158.382C96.1185 158.465 96.0416 158.534 95.953 158.585C95.8644 158.636 95.7662 158.668 95.6645 158.679C95.4526 158.708 95.2374 158.656 95.0624 158.533C94.8874 158.41 94.7657 158.225 94.7219 158.016L94.574 157.254C94.4235 156.542 94.4185 155.807 94.5593 155.093C94.7001 154.38 94.9838 153.701 95.3933 153.1C95.8028 152.499 96.3296 151.986 96.9422 151.593C97.5548 151.201 98.2405 150.936 98.958 150.815C100.514 150.554 102.11 150.902 103.416 151.786C104.722 152.671 105.638 154.025 105.972 155.566L106.148 156.465C106.168 156.566 106.167 156.671 106.144 156.772C106.121 156.873 106.077 156.968 106.015 157.051C105.953 157.134 105.874 157.202 105.784 157.252C105.693 157.303 105.593 157.333 105.49 157.342Z" fill="#407BFF"/>
<path d="M117.639 180.095H85.3237L85.11 173.672H117.42L117.639 180.095Z" fill="#407BFF"/>
<path d="M102.049 143.718C102.058 143.953 102.02 144.186 101.937 144.406C101.853 144.625 101.726 144.825 101.563 144.993C101.401 145.162 101.205 145.295 100.989 145.386C100.773 145.477 100.54 145.523 100.306 145.521C99.8227 145.518 99.3594 145.328 99.0117 144.993C98.6639 144.657 98.4583 144.201 98.4373 143.718C98.4276 143.484 98.4656 143.25 98.549 143.031C98.6324 142.812 98.7594 142.612 98.9223 142.444C99.0853 142.275 99.2808 142.141 99.4969 142.05C99.7131 141.96 99.9454 141.914 100.18 141.915C100.663 141.918 101.128 142.107 101.476 142.442C101.824 142.778 102.029 143.235 102.049 143.718Z" fill="#263238"/>
<path d="M94.2561 143.718C94.2666 143.953 94.2291 144.187 94.146 144.406C94.0629 144.626 93.9359 144.826 93.7728 144.995C93.6097 145.164 93.4139 145.297 93.1974 145.388C92.9809 145.478 92.7481 145.524 92.5135 145.521C92.0308 145.517 91.5681 145.328 91.2213 144.992C90.8744 144.657 90.67 144.201 90.6503 143.718C90.6406 143.484 90.6786 143.25 90.762 143.031C90.8454 142.812 90.9724 142.612 91.1354 142.444C91.2983 142.275 91.4938 142.141 91.7099 142.05C91.9261 141.96 92.1585 141.914 92.3929 141.915C92.876 141.918 93.3394 142.107 93.6866 142.443C94.0337 142.779 94.2378 143.236 94.2561 143.718Z" fill="#263238"/>
<path d="M86.5128 143.718C86.5225 143.953 86.4845 144.186 86.4011 144.406C86.3177 144.625 86.1907 144.825 86.0277 144.993C85.8648 145.162 85.6693 145.295 85.4532 145.386C85.237 145.477 85.0046 145.523 84.7702 145.521C84.2871 145.519 83.8237 145.33 83.4765 144.994C83.1294 144.658 82.9253 144.201 82.907 143.718C82.8973 143.484 82.9354 143.25 83.0187 143.031C83.1021 142.812 83.2291 142.612 83.3921 142.444C83.555 142.275 83.7505 142.141 83.9667 142.05C84.1828 141.96 84.4152 141.914 84.6496 141.915C85.1327 141.918 85.5961 142.107 85.9433 142.443C86.2904 142.779 86.4945 143.236 86.5128 143.718Z" fill="#263238"/>
<path d="M109.814 143.719C109.823 143.953 109.785 144.187 109.702 144.406C109.619 144.625 109.492 144.825 109.329 144.993C109.166 145.162 108.97 145.296 108.754 145.386C108.538 145.477 108.306 145.523 108.071 145.521C107.588 145.519 107.125 145.33 106.778 144.994C106.43 144.658 106.226 144.201 106.208 143.719C106.2 143.485 106.239 143.252 106.324 143.034C106.408 142.816 106.536 142.618 106.699 142.451C106.863 142.284 107.058 142.152 107.274 142.062C107.491 141.973 107.722 141.929 107.956 141.932C108.435 141.936 108.895 142.123 109.241 142.455C109.586 142.788 109.791 143.24 109.814 143.719Z" fill="#263238"/>
<path d="M117.579 143.718C117.589 143.953 117.552 144.187 117.469 144.406C117.386 144.626 117.259 144.826 117.096 144.995C116.933 145.164 116.737 145.297 116.52 145.388C116.304 145.478 116.071 145.524 115.836 145.521C115.354 145.517 114.891 145.328 114.544 144.992C114.197 144.657 113.993 144.201 113.973 143.718C113.963 143.484 114.002 143.25 114.085 143.031C114.168 142.812 114.295 142.612 114.458 142.444C114.621 142.275 114.817 142.141 115.033 142.05C115.249 141.96 115.481 141.914 115.716 141.915C116.199 141.918 116.662 142.107 117.009 142.443C117.357 142.779 117.561 143.236 117.579 143.718Z" fill="#263238"/>
<path d="M182.983 95.5056C183.711 96.6783 184.32 97.7963 184.944 98.9635C185.569 100.131 186.134 101.303 186.687 102.504C187.816 104.934 188.751 107.45 189.482 110.028C189.581 110.351 189.652 110.696 189.734 111.03L189.855 111.54L189.915 111.792L189.986 112.209C190.11 113.153 190.052 114.113 189.816 115.036C189.438 116.47 188.862 117.844 188.106 119.119C186.754 121.436 185.119 123.577 183.24 125.492L180.933 123.75C182.091 121.621 183.121 119.425 184.018 117.174C184.418 116.182 184.699 115.146 184.857 114.088C184.907 113.765 184.892 113.435 184.813 113.118L184.594 112.45C184.506 112.176 184.424 111.902 184.32 111.622C183.486 109.362 182.522 107.151 181.432 105.002C180.336 102.81 179.158 100.618 177.979 98.5251L182.983 95.5056Z" fill="#B26634"/>
<path d="M181.519 122.988L178.999 124.319L181.892 127.706C181.892 127.706 183.7 126.484 183.783 124.621L181.519 122.988Z" fill="#B26634"/>
<path d="M175.618 126.407L178.714 128.868L181.892 127.706L178.999 124.319L175.618 126.407Z" fill="#B26634"/>
<path d="M165.03 77.5749C164.97 77.8818 164.756 78.0955 164.559 78.0571C164.362 78.0188 164.247 77.7338 164.307 77.4324C164.367 77.131 164.581 76.8844 164.784 76.9502C164.986 77.0159 165.09 77.268 165.03 77.5749Z" fill="#263238"/>
<path d="M164.784 78.1011C164.232 78.9594 163.564 79.7376 162.8 80.4136C162.98 80.6007 163.199 80.7466 163.441 80.8411C163.683 80.9357 163.943 80.9768 164.203 80.9616L164.784 78.1011Z" fill="#6A2E07"/>
<path d="M163.797 88.8528V85.2579L168.554 85.8059C168.554 85.8059 168.477 88.8967 165.814 89.8063L163.797 88.8528Z" fill="#B26634"/>
<path d="M165.167 82.6714L168.515 83.6359L168.576 85.8333L163.819 85.2579L165.167 82.6714Z" fill="#B26634"/>
<path opacity="0.2" d="M168.515 83.6359L165.167 82.6714L164.515 83.9208C164.551 84.9053 164.858 85.8607 165.404 86.681C165.949 87.5013 166.712 88.1544 167.606 88.5679C168.181 87.7643 168.517 86.8144 168.576 85.8279L168.515 83.6359Z" fill="black"/>
<path d="M166.488 76.1119C166.523 76.1109 166.557 76.1001 166.586 76.0805C166.616 76.061 166.639 76.0336 166.653 76.0016C166.667 75.9695 166.672 75.934 166.667 75.8992C166.662 75.8644 166.648 75.8318 166.625 75.805C166.432 75.5876 166.191 75.4195 165.92 75.3146C165.649 75.2097 165.357 75.1712 165.069 75.2022C165.021 75.2102 164.979 75.2367 164.952 75.2757C164.924 75.3147 164.913 75.3632 164.921 75.4104C164.929 75.458 164.955 75.5005 164.994 75.5292C165.033 75.5578 165.081 75.5702 165.129 75.5639C165.357 75.5414 165.588 75.574 165.802 75.6588C166.015 75.7437 166.205 75.8783 166.356 76.0516C166.373 76.0699 166.393 76.0847 166.416 76.095C166.439 76.1054 166.463 76.1111 166.488 76.1119Z" fill="#263238"/>
<path d="M173.491 83.1207C172.943 85.9429 172.604 89.8502 174.587 91.7298C174.587 91.7298 173.82 94.5904 168.559 94.5904C162.8 94.5904 165.792 92.0805 165.792 92.0805C168.187 91.3353 168.165 88.6117 167.617 86.4197L173.491 83.1207Z" fill="#B26634"/>
<path d="M175.656 93.615C176.171 92.8916 176.149 90.5955 175.601 90.19C174.719 89.5379 170.932 89.3844 165.841 90.5572C166.389 92.782 165.211 93.9438 165.211 93.9438L175.656 93.615Z" fill="#23165A"/>
<path d="M192.786 223.716C192.63 223.771 192.464 223.794 192.299 223.785C192.133 223.775 191.971 223.733 191.822 223.661C191.765 223.608 191.727 223.539 191.711 223.464C191.695 223.388 191.703 223.31 191.734 223.239C191.752 223.18 191.782 223.125 191.822 223.078C191.863 223.032 191.913 222.995 191.97 222.97C192.491 222.718 193.685 223.206 193.74 223.228C193.756 223.235 193.77 223.246 193.78 223.261C193.79 223.275 193.795 223.292 193.795 223.31C193.795 223.328 193.79 223.345 193.781 223.36C193.773 223.376 193.76 223.389 193.745 223.398C193.436 223.534 193.115 223.64 192.786 223.716ZM192.156 223.096C192.12 223.105 192.085 223.118 192.052 223.135C192.018 223.147 191.987 223.168 191.962 223.194C191.938 223.221 191.92 223.253 191.91 223.288C191.86 223.453 191.91 223.507 191.943 223.524C192.151 223.699 192.918 223.524 193.46 223.321C193.048 223.15 192.602 223.074 192.156 223.096Z" fill="#1B0D7A"/>
<path d="M193.724 223.403H193.68C193.241 223.277 192.31 222.614 192.299 222.181C192.298 222.112 192.321 222.046 192.364 221.992C192.407 221.938 192.467 221.9 192.534 221.885C192.599 221.861 192.669 221.851 192.738 221.857C192.807 221.863 192.874 221.884 192.934 221.918C193.45 222.181 193.778 223.244 193.789 223.294C193.797 223.307 193.801 223.322 193.801 223.338C193.801 223.353 193.797 223.368 193.789 223.381C193.781 223.39 193.77 223.396 193.759 223.4C193.748 223.404 193.735 223.405 193.724 223.403ZM192.628 222.039H192.584C192.474 222.077 192.474 222.132 192.474 222.159C192.474 222.417 193.099 222.938 193.57 223.146C193.455 222.839 193.203 222.231 192.869 222.05C192.794 222.016 192.71 222.012 192.633 222.039H192.628Z" fill="#1B0D7A"/>
<path d="M164.323 224.362C163.83 224.362 163.353 224.291 163.194 224.072C163.153 224.013 163.13 223.944 163.13 223.872C163.13 223.8 163.153 223.73 163.194 223.672C163.226 223.618 163.268 223.572 163.317 223.535C163.367 223.498 163.424 223.472 163.485 223.458C164.126 223.283 165.474 224.05 165.529 224.083C165.546 224.091 165.559 224.105 165.567 224.122C165.575 224.139 165.577 224.158 165.573 224.176C165.571 224.195 165.563 224.212 165.55 224.226C165.537 224.24 165.52 224.249 165.501 224.253C165.113 224.324 164.718 224.361 164.323 224.362ZM163.715 223.612C163.657 223.602 163.598 223.602 163.54 223.612C163.502 223.619 163.467 223.634 163.436 223.656C163.405 223.678 163.379 223.705 163.359 223.738C163.293 223.853 163.32 223.908 163.359 223.94C163.54 224.192 164.51 224.198 165.227 224.094C164.759 223.838 164.245 223.674 163.715 223.612Z" fill="#1B0D7A"/>
<path d="M165.496 224.253H165.458C164.992 224.044 164.071 223.211 164.142 222.773C164.142 222.669 164.23 222.543 164.482 222.521C164.572 222.51 164.663 222.518 164.75 222.545C164.837 222.571 164.917 222.615 164.986 222.674C165.337 223.094 165.548 223.614 165.589 224.159C165.589 224.175 165.585 224.19 165.579 224.205C165.572 224.219 165.563 224.231 165.551 224.242C165.534 224.25 165.515 224.254 165.496 224.253ZM164.553 222.691H164.499C164.334 222.691 164.323 222.767 164.323 222.789C164.279 223.052 164.904 223.71 165.381 223.995C165.339 223.555 165.161 223.139 164.871 222.806C164.781 222.729 164.666 222.688 164.548 222.691H164.553Z" fill="#1B0D7A"/>
<path d="M169.727 224.165H165.874L165.49 215.238H169.343L169.727 224.165Z" fill="#B26634"/>
<path d="M198.02 222.379L194.255 223.195L190.468 214.882L194.239 214.065L198.02 222.379Z" fill="#B26634"/>
<path d="M193.888 222.817L198.124 221.902C198.198 221.886 198.275 221.896 198.343 221.93C198.41 221.964 198.465 222.019 198.497 222.088L199.965 225.277C200.004 225.355 200.025 225.44 200.024 225.527C200.024 225.613 200.003 225.698 199.964 225.775C199.924 225.852 199.867 225.919 199.797 225.97C199.726 226.02 199.645 226.053 199.56 226.067C198.08 226.357 197.34 226.428 195.483 226.828C194.337 227.08 191.751 227.711 190.167 228.05C188.583 228.39 188.041 226.872 188.66 226.593C191.427 225.327 192.578 224.214 193.329 223.179C193.465 222.994 193.664 222.865 193.888 222.817Z" fill="#263238"/>
<path d="M165.901 223.716H170.11C170.186 223.716 170.26 223.742 170.32 223.79C170.38 223.838 170.422 223.904 170.439 223.979L171.201 227.404C171.223 227.486 171.226 227.573 171.208 227.657C171.191 227.741 171.154 227.82 171.101 227.887C171.047 227.954 170.979 228.008 170.901 228.044C170.823 228.08 170.738 228.097 170.653 228.094C169.135 228.067 166.943 227.979 165.036 227.979C162.8 227.979 160.876 228.1 158.257 228.1C156.673 228.1 156.235 226.499 156.898 226.351C159.912 225.694 162.378 225.623 164.981 224.017C165.254 223.834 165.573 223.73 165.901 223.716Z" fill="#263238"/>
<path d="M181.481 92.6121C185.092 93.4396 188.057 102.662 188.057 102.662L180.84 108.181C178.967 106.178 177.645 103.723 177.004 101.057C175.727 96.2234 177.788 91.7572 181.481 92.6121Z" fill="#15084A"/>
<path opacity="0.4" d="M180.856 92.1057C184.468 92.9332 187.432 102.156 187.432 102.156L180.215 107.674C178.342 105.672 177.02 103.217 176.379 100.55C175.102 95.7171 177.163 91.2509 180.856 92.1057Z" fill="#15084A"/>
<path d="M162.482 103.611C161.583 104.58 160.685 105.446 159.742 106.351C159.276 106.789 158.805 107.227 158.323 107.649L157.594 108.29L157.413 108.449L157.101 108.701C156.779 108.958 156.423 109.169 156.043 109.326C155.62 109.506 155.165 109.599 154.706 109.6C154.313 109.602 153.923 109.533 153.555 109.397C153.146 109.242 152.774 109.005 152.459 108.701C152.058 108.309 151.763 107.82 151.604 107.282C151.521 107.017 151.468 106.743 151.445 106.466C151.417 106.141 151.417 105.815 151.445 105.49C151.473 105.227 151.506 104.997 151.549 104.783C151.699 104.036 151.912 103.303 152.185 102.591C152.432 101.915 152.715 101.253 153.034 100.607C153.385 99.9115 153.719 99.4019 154.054 98.821C155.411 96.5968 156.961 94.4954 158.684 92.5409C160.39 90.5979 162.271 88.815 164.301 87.2144L166.318 89.2913C164.904 91.1874 163.512 93.2204 162.224 95.2206C160.943 97.2095 159.772 99.2676 158.717 101.386C158.482 101.901 158.169 102.482 158.021 102.898C157.825 103.382 157.655 103.876 157.512 104.378C157.373 104.83 157.269 105.291 157.199 105.759C157.196 105.832 157.196 105.905 157.199 105.978C157.199 106.022 157.199 106.044 157.199 105.929C157.19 105.806 157.166 105.684 157.128 105.567C157.01 105.178 156.792 104.827 156.498 104.548C156.236 104.307 155.928 104.121 155.594 104C155.299 103.888 154.988 103.831 154.673 103.83C154.37 103.826 154.07 103.884 153.791 104C153.696 104.038 153.604 104.084 153.517 104.137L153.725 103.945L154.388 103.342L155.698 102.114C156.564 101.298 157.435 100.427 158.257 99.6156L162.482 103.611Z" fill="#B26634"/>
<path opacity="0.2" d="M178.385 99.3855C180.347 101.325 180.988 104.866 181.125 107.934L180.807 108.181C178.934 106.178 177.612 103.723 176.971 101.057C176.9 100.772 176.834 100.509 176.785 100.197L178.385 99.3855Z" fill="black"/>
<path d="M158.651 96.4481C157.862 100.613 157.369 109.167 159.654 126.1H180.292C180.434 122.938 178.445 107.496 181.498 92.5847C179.217 92.1468 176.911 91.8557 174.593 91.7134C171.673 91.5459 168.745 91.5459 165.825 91.7134C164.86 91.8011 163.907 91.9435 163.085 92.0915C161.992 92.2833 160.982 92.8025 160.191 93.5804C159.399 94.3584 158.862 95.3584 158.651 96.4481Z" fill="#382A73"/>
<path opacity="0.4" d="M158.66 96.8603C157.87 101.025 157.377 109.579 159.662 126.513H180.3C180.443 123.351 178.453 107.908 181.506 92.9969C179.225 92.559 176.919 92.268 174.601 92.1256C171.681 91.9581 168.753 91.9581 165.833 92.1256C164.868 92.2133 163.915 92.3558 163.093 92.5037C162 92.6955 160.99 93.2147 160.199 93.9927C159.407 94.7706 158.87 95.7706 158.66 96.8603Z" fill="#382A73"/>
<path opacity="0.2" d="M161.808 102.624L158.081 101.731C157.966 103.989 157.955 106.783 158.12 110.241C159.835 108.29 162.027 105.244 161.808 102.624Z" fill="black"/>
<path opacity="0.2" d="M165.49 215.238L165.688 219.841H169.546L169.348 215.238H165.49Z" fill="black"/>
<path opacity="0.2" d="M194.239 214.065L190.468 214.882L192.419 219.167L196.19 218.351L194.239 214.065Z" fill="black"/>
<path d="M175.322 78.9998C174.335 82.6933 173.941 84.9072 171.661 86.4416C168.236 88.7761 163.962 86.1018 163.852 82.2001C163.731 78.6764 165.37 73.2238 169.332 72.4786C170.203 72.3152 171.101 72.3762 171.941 72.6558C172.782 72.9355 173.537 73.4245 174.137 74.077C174.736 74.7294 175.159 75.5237 175.366 76.3849C175.574 77.2462 175.558 78.1461 175.322 78.9998Z" fill="#B26634"/>
<path d="M166.674 79.1368C166.488 78.6436 165.638 74.824 166.438 73.8321C167.239 72.8403 176.363 73.5581 177.711 74.8843C179.952 77.0763 180 78.0001 179 81.5001C177.711 84.2661 175.432 85.1713 174.5 85.5001C172.856 86.0481 168.948 86.0032 168.444 84.2661C167.94 82.5289 166.674 79.1368 166.674 79.1368Z" fill="#0C0D0D"/>
<path d="M176.604 70.5387C173.5 69.5 169.5 69.5001 166.5 70C165.5 71.0001 164.429 72.3004 165.195 73.2433C165.962 74.1861 167.044 74.8197 168.241 75.0268C170.951 75.5431 174.742 78.5098 177.5 78.5001C181.084 78.3357 179 72.5 176.604 70.5387Z" fill="#0C0D0D"/>
<path d="M168.428 79.2901C168.354 80.2405 167.969 81.1399 167.332 81.8493C166.488 82.7754 165.611 82.1945 165.463 81.0711C165.332 80.0518 165.606 78.3311 166.636 77.8379C167.666 77.3447 168.499 78.1448 168.428 79.2901Z" fill="#B26634"/>
<path d="M166.97 126.117C166.97 126.117 171.354 155.572 173.749 166.609C176.374 178.692 190.479 218.669 190.479 218.669L197.379 217.172C197.379 217.172 187.515 184.588 185.323 167.694C183.624 154.717 180.286 126.106 180.286 126.106L166.97 126.117Z" fill="#5C49D8"/>
<path d="M188.824 216.372C188.797 216.372 190.112 218.871 190.112 218.871L197.872 217.189L197.22 214.854L188.824 216.372Z" fill="#1B0D7A"/>
<path opacity="0.3" d="M169.737 136.611C174.796 137.603 174.258 156.465 173.65 166.17C172.193 159.309 170.055 146.113 168.598 136.748C168.951 136.574 169.353 136.525 169.737 136.611Z" fill="black"/>
<path d="M159.654 126.117C159.654 126.117 159.106 154.936 159.545 166.669C159.983 178.895 164.252 218.926 164.252 218.926H170.784C170.784 218.926 171.02 179.607 171.332 167.6C171.65 154.514 173.228 126.095 173.228 126.095L159.654 126.117Z" fill="#5C49D8"/>
<path d="M162.997 216.35C162.964 216.35 163.364 219.057 163.364 219.057H171.305L171.524 216.641L162.997 216.35Z" fill="#1B0D7A"/>
<path d="M166.729 97.7304C168.576 102.712 157.72 108.581 157.72 108.581L153.018 102.553C153.018 102.553 156.18 96.2947 160.016 93.478C164.756 90.0036 165.321 93.9383 166.729 97.7304Z" fill="#15084A"/>
<path opacity="0.4" d="M166.711 97.5951C168.558 102.576 157.702 108.445 157.702 108.445L153 102.417C153 102.417 156.162 96.1593 159.998 93.3426C164.738 89.8683 165.303 93.8029 166.711 97.5951Z" fill="#382A73"/>
<path d="M209.265 59.9128C220.188 59.9128 229.042 54.2698 229.042 47.3088C229.042 40.3478 220.188 34.7048 209.265 34.7048C198.342 34.7048 189.488 40.3478 189.488 47.3088C189.488 54.2698 198.342 59.9128 209.265 59.9128Z" fill="#407BFF"/>
<path d="M202.13 53.6548C200.827 53.6506 199.567 53.1873 198.572 52.3465C197.577 51.5056 196.91 50.3409 196.688 49.057C196.47 47.6664 196.784 46.2446 197.567 45.0748C198.35 43.9049 199.545 43.0728 200.913 42.7441C202.036 42.4853 203.213 42.585 204.276 43.0293C205.34 43.4736 206.237 44.2401 206.843 45.221L219.54 42.6016C220.028 42.4947 220.538 42.5759 220.969 42.8288C221.399 43.0818 221.719 43.4879 221.863 43.9661C221.93 44.2175 221.944 44.4799 221.906 44.7371C221.867 44.9943 221.777 45.2409 221.64 45.462C221.503 45.6831 221.323 45.8739 221.109 46.0228C220.896 46.1717 220.655 46.2755 220.4 46.328L220.071 46.3938C220.023 46.4025 219.976 46.4224 219.936 46.4519C219.897 46.4813 219.864 46.5196 219.841 46.5636C219.821 46.6084 219.81 46.657 219.81 46.7061C219.81 46.7553 219.821 46.8038 219.841 46.8486L220.066 47.4295C220.141 47.6178 220.148 47.8264 220.086 48.0195C220.024 48.2125 219.897 48.3779 219.726 48.4871C219.591 48.5704 219.477 48.6832 219.393 48.8171C219.308 48.951 219.256 49.1024 219.238 49.2598C219.222 49.4405 219.149 49.6114 219.03 49.7482C218.911 49.885 218.752 49.9807 218.575 50.0215L218.318 50.0763C218.139 50.1093 217.955 50.0846 217.791 50.0058C217.628 49.927 217.493 49.7981 217.408 49.6379C217.294 49.4468 217.124 49.2959 216.92 49.2063C216.717 49.1167 216.49 49.0929 216.272 49.1381C216.055 49.1834 215.856 49.2954 215.705 49.4587C215.554 49.622 215.458 49.8283 215.43 50.0489C215.415 50.2284 215.343 50.3984 215.224 50.5344C215.106 50.6703 214.948 50.7651 214.772 50.8052L214.515 50.86C214.336 50.8921 214.152 50.867 213.989 50.7883C213.825 50.7095 213.691 50.5812 213.605 50.4216C213.523 50.2857 213.412 50.1692 213.281 50.0803C213.149 49.9913 213 49.932 212.843 49.9064C212.632 49.8811 212.438 49.7797 212.297 49.6213C212.156 49.4629 212.077 49.2583 212.076 49.0461V48.4214C212.074 48.3725 212.061 48.3247 212.039 48.2812C212.016 48.2377 211.985 48.1996 211.946 48.1694C211.908 48.1392 211.863 48.1177 211.816 48.1063C211.768 48.095 211.718 48.094 211.67 48.1035L207.621 48.9365C207.456 50.0584 206.949 51.1022 206.169 51.9259C205.39 52.7495 204.375 53.313 203.264 53.5397C202.891 53.616 202.511 53.6546 202.13 53.6548ZM201.034 43.2428C199.791 43.5331 198.704 44.2836 197.992 45.3431C197.281 46.4026 196.997 47.6925 197.198 48.9529C197.413 50.1256 198.041 51.1824 198.968 51.9321C199.895 52.6819 201.06 53.0752 202.252 53.0407C203.444 53.0063 204.584 52.5465 205.466 51.7444C206.348 50.9424 206.914 49.8511 207.062 48.668V48.4707L211.528 47.5665C211.656 47.5355 211.79 47.5334 211.919 47.5604C212.048 47.5874 212.169 47.6428 212.274 47.7225C212.379 47.8023 212.465 47.9044 212.525 48.0215C212.586 48.1386 212.62 48.2677 212.624 48.3994V49.0242C212.625 49.0985 212.652 49.1702 212.7 49.2271C212.748 49.284 212.814 49.3227 212.887 49.3365C213.127 49.3708 213.355 49.4592 213.556 49.595C213.756 49.7308 213.923 49.9104 214.043 50.1202C214.072 50.1793 214.119 50.2279 214.177 50.2594C214.235 50.2908 214.301 50.3034 214.367 50.2955L214.619 50.2407C214.683 50.2243 214.74 50.1877 214.781 50.1363C214.822 50.085 214.846 50.0217 214.849 49.9558C214.883 49.6146 215.026 49.2933 215.255 49.0382C215.484 48.7832 215.788 48.6076 216.124 48.5368C216.459 48.466 216.808 48.5038 217.121 48.6446C217.434 48.7854 217.694 49.0219 217.863 49.3201C217.891 49.3788 217.937 49.4272 217.994 49.4587C218.051 49.4901 218.116 49.503 218.181 49.4954L218.444 49.4406C218.507 49.4232 218.562 49.3862 218.603 49.3349C218.643 49.2837 218.666 49.2209 218.668 49.1557C218.696 48.9151 218.777 48.6839 218.907 48.4797C219.038 48.2755 219.213 48.1037 219.419 47.9775C219.48 47.9339 219.524 47.8715 219.545 47.8C219.565 47.7285 219.562 47.6521 219.534 47.5829L219.31 47.002C219.263 46.8823 219.243 46.7538 219.252 46.6257C219.26 46.4975 219.296 46.3727 219.358 46.2599C219.419 46.1472 219.505 46.0493 219.608 45.973C219.712 45.8968 219.83 45.844 219.956 45.8184L220.291 45.7471C220.471 45.7085 220.643 45.6339 220.794 45.5276C220.945 45.4213 221.074 45.2856 221.172 45.1285C221.269 44.9714 221.334 44.7963 221.363 44.6135C221.391 44.4307 221.383 44.2441 221.337 44.0648C221.23 43.7199 220.997 43.4282 220.684 43.2483C220.371 43.0684 220.001 43.0136 219.649 43.0948L206.596 45.8074L206.497 45.6375C205.973 44.7039 205.159 43.9663 204.178 43.5363C203.197 43.1062 202.103 43.007 201.061 43.2537L201.034 43.2428ZM202.13 51.6162C201.449 51.6238 200.781 51.4334 200.206 51.0682C199.527 50.6221 199.023 49.9541 198.781 49.1781C198.539 48.4021 198.573 47.5661 198.879 46.8127C199.184 46.0593 199.741 45.4351 200.455 45.0465C201.169 44.6579 201.996 44.5289 202.794 44.6817C203.592 44.8344 204.313 45.2593 204.833 45.8839C205.354 46.5086 205.641 47.2943 205.647 48.1072C205.652 48.9201 205.376 49.7098 204.865 50.3417C204.353 50.9736 203.638 51.4085 202.842 51.5724C202.609 51.6146 202.372 51.6329 202.135 51.6272L202.13 51.6162ZM202.13 45.1443C201.926 45.1455 201.722 45.1657 201.522 45.2046C201.14 45.2859 200.778 45.4416 200.456 45.6629C200.135 45.8841 199.86 46.1665 199.647 46.494C199.435 46.8214 199.289 47.1875 199.218 47.5713C199.147 47.9552 199.152 48.3492 199.234 48.731C199.315 49.1128 199.471 49.4748 199.692 49.7964C199.913 50.1179 200.196 50.3928 200.523 50.6053C200.85 50.8177 201.217 50.9636 201.6 51.0346C201.984 51.1055 202.378 51.1002 202.76 51.0189C203.333 50.8996 203.858 50.6133 204.269 50.196C204.679 49.7788 204.957 49.2494 205.067 48.6744C205.178 48.0995 205.115 47.5048 204.888 46.9653C204.661 46.4258 204.279 45.9657 203.79 45.643C203.305 45.3203 202.734 45.1505 202.152 45.1553L202.13 45.1443Z" fill="white"/>
<path opacity="0.6" d="M193.17 67.3053C196.76 67.3053 199.669 65.4505 199.669 63.1624C199.669 60.8744 196.76 59.0195 193.17 59.0195C189.581 59.0195 186.671 60.8744 186.671 63.1624C186.671 65.4505 189.581 67.3053 193.17 67.3053Z" fill="#407BFF"/>
<path opacity="0.3" d="M182.829 69.0042C184.303 69.0042 185.498 68.2436 185.498 67.3054C185.498 66.3671 184.303 65.6066 182.829 65.6066C181.355 65.6066 180.161 66.3671 180.161 67.3054C180.161 68.2436 181.355 69.0042 182.829 69.0042Z" fill="#407BFF"/>
</svg>
