<svg width="191" height="165" viewBox="0 0 191 165" fill="none" xmlns="http://www.w3.org/2000/svg">
<path opacity="0.4" d="M98.7359 50.4914C88.614 50.2692 74.5479 56.316 69.8062 64.5663C69.1543 65.6798 68.6452 66.8733 68.2914 68.1177L37.3076 85.6389L54.2405 95.5396L80.818 79.9048C87.7555 79.4164 102.013 73.1232 106.461 65.3768C111.206 57.1188 108.859 50.7128 98.7359 50.4905V50.4914Z" fill="url(#paint0_linear)"/>
<path d="M20.5596 93.0169L55.7313 72.3267V94.8706L20.5596 115.339V93.0169Z" fill="#D5CDDF"/>
<path d="M3.62598 105.402L20.558 115.339V93.017L3.62683 83.1155L3.62598 105.402Z" fill="#F8F7F2"/>
<path d="M55.7306 72.3267L39.2325 62.9825L3.62598 83.1155L20.558 93.0161L55.7306 72.3267Z" fill="#0303AD"/>
<path d="M7.91357 83.1531L39.4509 65.8748L51.2252 72.4755L20.7756 90.2723L7.91357 83.1531Z" fill="#9DBAFC"/>
<path d="M38.5693 65.229L38.7078 68.5625L9.24226 85.6608L6.63184 82.4737L38.5693 65.229Z" fill="#0303AD"/>
<path d="M49.1234 74.7966L38.4448 68.8997V64.896L52.1241 71.2357L49.1234 74.7966Z" fill="#0303AD"/>
<path d="M29.7715 80.1134L28.6812 80.7061V50.8198H29.7715V80.1134Z" fill="#F4F8E3"/>
<path d="M29.602 60.9757C43.0901 60.9757 54.0244 49.8172 54.0244 36.0527C54.0244 22.2881 43.0901 11.1296 29.602 11.1296C16.1139 11.1296 5.17969 22.2881 5.17969 36.0527C5.17969 49.8172 16.1139 60.9757 29.602 60.9757Z" fill="#407BFF"/>
<path d="M24.4883 60.9354C37.9764 60.9354 48.9107 49.777 48.9107 36.0124C48.9107 22.2478 37.9764 11.0894 24.4883 11.0894C11.0002 11.0894 0.065918 22.2478 0.065918 36.0124C0.065918 49.777 11.0002 60.9354 24.4883 60.9354Z" fill="#9DBAFC"/>
<path d="M24.6982 111.698V111.63C24.7093 111.375 24.7543 111.122 24.8299 110.878C24.8918 110.678 24.9734 110.484 25.0727 110.3C25.2408 109.988 25.4472 109.699 25.6875 109.442C25.9957 109.114 26.3405 108.824 26.7133 108.577C27.0323 108.36 27.3663 108.168 27.7127 108.001L27.835 107.945C27.9165 107.906 27.9963 107.867 28.0779 107.83L28.229 107.767L28.4566 107.672L28.6247 107.609C28.6977 107.581 28.7716 107.553 28.848 107.526L29.0264 107.466C29.0858 107.446 29.1733 107.415 29.2488 107.392L29.4373 107.336L29.6607 107.268L29.8577 107.217L30.0827 107.157L30.2848 107.111L30.5124 107.059L30.7213 107.016C30.7977 107.002 30.8724 106.986 30.9497 106.973L31.162 106.935C31.2401 106.923 31.3174 106.908 31.3946 106.897C31.4719 106.887 31.539 106.876 31.6112 106.865L31.8455 106.833L32.0646 106.808L32.3015 106.782L32.5223 106.762C32.6021 106.762 32.6811 106.747 32.7609 106.742L32.9842 106.727L33.2237 106.714L33.4479 106.705L33.6899 106.697H34.6316L34.877 106.708L35.1063 106.717C35.1895 106.717 35.271 106.728 35.3542 106.734L35.5809 106.75L35.8272 106.773L36.0539 106.794L36.2985 106.822C36.3732 106.832 36.4496 106.839 36.5243 106.851L36.7655 106.885L36.9888 106.919C37.0703 106.931 37.1502 106.945 37.2308 106.96C37.3106 106.975 37.3777 106.984 37.4516 107L37.6894 107.048C37.7683 107.063 37.8354 107.075 37.9076 107.091L38.1437 107.147L38.356 107.196L38.5903 107.258L38.7984 107.313L39.0293 107.382L39.2314 107.442C39.3087 107.467 39.3851 107.492 39.4624 107.52L39.656 107.584C39.7324 107.61 39.8088 107.64 39.887 107.668L40.0695 107.737C40.1494 107.767 40.2283 107.801 40.3056 107.833L40.4729 107.901L40.7361 108.019C40.7786 108.039 40.8236 108.058 40.8669 108.08C40.9892 108.137 41.1097 108.199 41.2295 108.261L41.2448 108.269C42.0046 108.651 42.6942 109.163 43.2836 109.781C43.6815 110.199 43.9848 110.7 44.1726 111.249C44.2806 111.574 44.3304 111.916 44.3195 112.258V114.749C44.3188 114.94 44.2989 115.131 44.2601 115.318C44.03 116.402 43.1681 117.441 41.6642 118.267C41.5487 118.329 41.4316 118.39 41.3118 118.448L41.2014 118.5C41.1165 118.54 41.0316 118.581 40.9391 118.619C40.8932 118.64 40.8448 118.658 40.7973 118.679C40.7183 118.713 40.641 118.745 40.562 118.776L40.399 118.838L40.1706 118.924L39.9974 118.981C39.9226 119.007 39.8462 119.034 39.7681 119.059L39.5864 119.113L39.3571 119.18C39.2943 119.198 39.2263 119.215 39.166 119.231C39.1049 119.247 39.0132 119.272 38.9359 119.291L38.7372 119.338L38.5062 119.39L38.3016 119.432L38.0672 119.477L37.86 119.514L37.624 119.552L37.4108 119.583C37.3319 119.595 37.2529 119.607 37.1731 119.615L36.9574 119.641L36.7171 119.668L36.4989 119.687C36.419 119.695 36.3375 119.701 36.2577 119.707L36.0369 119.721L35.7941 119.735L35.5716 119.744H34.387L34.1408 119.735L33.9115 119.725L33.6653 119.707C33.5897 119.707 33.5133 119.703 33.4377 119.692C33.3545 119.692 33.2746 119.679 33.1931 119.67L32.9639 119.649L32.7201 119.62L32.4943 119.593L32.2523 119.558L32.0289 119.524L31.7878 119.483L31.5679 119.444L31.3275 119.396L31.1127 119.352C31.032 119.334 30.9531 119.314 30.8733 119.296L30.6635 119.246C30.5828 119.227 30.5039 119.205 30.4258 119.184L30.2203 119.129C30.1413 119.108 30.0632 119.084 29.9842 119.06L29.7872 119L29.5503 118.923L29.3635 118.86C29.2828 118.831 29.2038 118.8 29.1257 118.771L28.9491 118.706C28.8642 118.673 28.7835 118.639 28.7011 118.605C28.6502 118.583 28.5967 118.564 28.5457 118.54C28.4568 118.502 28.369 118.462 28.2825 118.419L28.1594 118.364C28.0319 118.303 27.9059 118.24 27.7815 118.173C26.1843 117.333 25.2043 116.282 24.8536 115.193C24.7735 114.948 24.7253 114.693 24.7101 114.436V111.696L24.6982 111.698V111.698Z" fill="#F8BE09"/>
<g style="mix-blend-mode:multiply">
<path d="M29.9438 116.515V119.506M36.2683 117.161V120.283V117.161ZM34.0563 117.269V120.055V117.269ZM31.9461 116.983V120.032V116.983Z" stroke="#FFDF24" stroke-width="0.541805"/>
</g>
<g style="mix-blend-mode:multiply">
<path d="M28.1512 115.312V118.754V115.312ZM26.5701 114.945V117.821V114.945ZM25.4102 113.192V116.702V113.192Z" fill="#FFCF15"/>
</g>
<path opacity="0.15" d="M38.3196 115.054C38.8877 114.701 39.3386 114.22 39.8201 113.756C40.3779 113.22 40.9834 112.727 41.571 112.223C41.8682 111.97 42.1722 111.723 42.4745 111.476C42.7522 111.688 43.0128 111.923 43.254 112.177H44.3859V114.724C44.3864 114.922 44.3656 115.119 44.3239 115.312C44.0879 116.426 43.1997 117.498 41.6508 118.344C41.5328 118.407 41.4122 118.469 41.2882 118.531L41.1753 118.583C41.0886 118.626 41.0011 118.666 40.9129 118.705L40.766 118.767C40.6853 118.801 40.6055 118.836 40.5232 118.869L40.3559 118.932C40.2778 118.962 40.1994 118.991 40.1207 119.019C40.0612 119.041 40.0026 119.059 39.9423 119.079C39.882 119.099 39.7869 119.133 39.7071 119.159L39.5195 119.215L39.2825 119.284L39.0855 119.336L38.8495 119.398L38.6448 119.445L38.4071 119.501L38.3052 119.52V115.064C38.3102 115.061 38.315 115.058 38.3196 115.054Z" fill="#FFCF15"/>
<g style="mix-blend-mode:multiply">
<path d="M38.2744 116.946V119.759V116.946ZM40.1188 115.837V119.347V115.837ZM41.7542 115.039V118.573V115.039ZM43.2292 114.604V117.365V114.604Z" fill="#FFCF15"/>
</g>
<path d="M44.4696 112.283C44.5567 109.375 40.1528 106.88 34.6332 106.71C29.1136 106.54 24.5685 108.76 24.4814 111.667C24.3943 114.575 28.7982 117.07 34.3178 117.24C39.8374 117.41 44.3825 115.191 44.4696 112.283Z" fill="#FFDF24"/>
<path d="M34.0617 106.671C31.5652 106.671 29.0959 107.17 27.2558 108.176C23.5144 110.218 23.7089 113.599 27.6778 115.691C29.6954 116.752 32.3158 117.286 34.9015 117.286C37.398 117.286 39.8656 116.785 41.7057 115.78C45.4471 113.738 45.2526 110.357 41.2845 108.266C39.267 107.205 36.6465 106.671 34.06 106.671H34.0608H34.0617Z" fill="#FFCF15"/>
<g style="mix-blend-mode:multiply">
<g style="mix-blend-mode:multiply">
<path d="M34.2628 108.373V108.64C36.2949 108.64 38.2199 109.017 39.6838 109.7C41.0934 110.358 41.9052 111.24 41.9171 112.12C41.9171 112.94 41.2445 113.72 40.0082 114.317C38.6801 114.96 36.8706 115.314 34.909 115.314C32.8762 115.314 30.952 114.938 29.4881 114.255C28.0785 113.598 27.2667 112.714 27.2548 111.843C27.2548 111.023 27.9273 110.243 29.1629 109.644C30.4901 109.002 32.3022 108.648 34.2628 108.648V108.373ZM34.2628 108.379C32.348 108.379 30.4604 108.72 29.0508 109.402C26.1849 110.788 26.3301 113.086 29.3734 114.505C30.9189 115.226 32.9203 115.589 34.904 115.589C36.8188 115.589 38.7064 115.249 40.116 114.567C42.9819 113.18 42.8367 110.883 39.7933 109.463C38.2479 108.742 36.2465 108.379 34.2628 108.379Z" fill="#FFDF24"/>
</g>
<g style="mix-blend-mode:multiply">
<path d="M34.2624 108.642C36.2944 108.642 38.2194 109.019 39.6833 109.702C41.0929 110.359 41.9047 111.241 41.9166 112.122C41.9166 112.941 41.2441 113.721 40.0077 114.319C38.6796 114.961 36.8701 115.315 34.9086 115.315C32.8757 115.315 30.9515 114.94 29.4876 114.256C28.078 113.6 27.2662 112.716 27.2543 111.844C27.2543 111.024 27.9269 110.245 29.1624 109.646C30.4896 109.003 32.3017 108.649 34.2624 108.649V108.642ZM34.2624 108.38C32.3475 108.38 30.4599 108.722 29.0503 109.404C26.1844 110.79 26.3296 113.087 29.373 114.507C30.9184 115.228 32.9199 115.59 34.9035 115.59C36.8183 115.59 38.7059 115.251 40.1155 114.569C42.9814 113.182 42.8362 110.885 39.7929 109.464C38.2474 108.743 36.246 108.38 34.2624 108.38Z" fill="#FFDF24"/>
</g>
</g>
<path d="M32.7759 105.691V105.624C32.7869 105.368 32.8311 105.116 32.9066 104.872C32.9695 104.671 33.051 104.478 33.1495 104.295C33.3176 103.982 33.524 103.693 33.7643 103.436C34.0722 103.108 34.4164 102.818 34.7901 102.57C35.1103 102.355 35.4445 102.162 35.7904 101.993L35.9126 101.937L36.1555 101.823L36.3066 101.761L36.5334 101.666L36.7015 101.602C36.7754 101.576 36.8484 101.546 36.9248 101.519L37.1031 101.459L37.3256 101.385L37.515 101.329L37.7383 101.262L37.9353 101.21L38.1595 101.152L38.3624 101.105C38.4388 101.088 38.5127 101.069 38.5891 101.053L38.798 101.011L39.0273 100.965L39.2396 100.929L39.4723 100.891L39.6888 100.86C39.7661 100.849 39.8433 100.837 39.9223 100.828L40.1422 100.802L40.3783 100.776L40.5991 100.755L40.8377 100.735L41.061 100.722L41.3005 100.707L41.5247 100.698L41.7667 100.691H42.7084L42.9546 100.7C43.031 100.7 43.1075 100.7 43.1839 100.71L43.431 100.726L43.6586 100.741L43.904 100.765L44.1307 100.786L44.3752 100.816L44.6011 100.841L44.8431 100.877L45.0665 100.911L45.3076 100.953L45.5284 100.991C45.6091 101.006 45.688 101.023 45.7662 101.04L45.9844 101.083L46.2213 101.139L46.4336 101.188L46.6679 101.25C46.7367 101.269 46.8064 101.286 46.8751 101.306L47.1061 101.375L47.3082 101.435C47.3795 101.456 47.4619 101.486 47.54 101.511L47.7328 101.575L47.9637 101.661L48.1463 101.729C48.227 101.761 48.3051 101.792 48.3832 101.826C48.4393 101.849 48.4945 101.871 48.5497 101.895C48.638 101.932 48.7229 101.972 48.8129 102.011L48.9437 102.071C49.0668 102.13 49.1874 102.19 49.3063 102.252L49.3224 102.261C50.0816 102.643 50.7709 103.155 51.3603 103.773C51.7593 104.193 52.063 104.696 52.2502 105.247C52.3583 105.572 52.408 105.914 52.3972 106.257V108.745C52.3972 108.852 52.3912 108.959 52.3785 109.064C52.3675 109.148 52.3534 109.232 52.336 109.316C52.1067 110.4 51.2449 111.439 49.741 112.264C49.6255 112.327 49.5083 112.387 49.3895 112.447L49.2791 112.498L49.0226 112.617L48.8664 112.678L48.6312 112.777C48.5777 112.798 48.5225 112.816 48.4681 112.837C48.3917 112.866 48.317 112.895 48.2397 112.923L48.0665 112.98C47.9918 113.007 47.9162 113.032 47.8372 113.057C47.7778 113.076 47.7158 113.094 47.6555 113.112L47.4262 113.181L47.2352 113.231L47.0059 113.29C46.9397 113.307 46.8734 113.321 46.8064 113.337C46.7296 113.355 46.6526 113.372 46.5754 113.388L46.3707 113.431L46.1372 113.476C46.0693 113.49 45.9988 113.5 45.9292 113.512L45.6931 113.551L45.4808 113.582L45.2431 113.616L45.0265 113.64L44.7862 113.666C44.7141 113.675 44.641 113.68 44.5689 113.686L44.3268 113.707L44.1061 113.72L43.8632 113.734L43.6407 113.743L43.3979 113.752H42.4562C42.3747 113.752 42.2923 113.752 42.2099 113.741L41.9806 113.733L41.7344 113.716L41.5068 113.7L41.2623 113.678L41.033 113.656L40.7893 113.628L40.5634 113.599L40.3214 113.565L40.0981 113.53L39.8569 113.49L39.6378 113.451C39.5563 113.436 39.4765 113.418 39.3967 113.402C39.3169 113.386 39.2523 113.374 39.1819 113.359L38.9424 113.303L38.7327 113.254L38.4949 113.191L38.2894 113.137L38.0533 113.066C37.9873 113.047 37.9216 113.028 37.8563 113.007C37.7909 112.986 37.6984 112.956 37.6203 112.929L37.4318 112.866C37.352 112.838 37.2727 112.808 37.194 112.777C37.1346 112.756 37.076 112.736 37.0182 112.714L36.7703 112.611L36.6149 112.548L36.3516 112.427L36.2285 112.37C36.0977 112.31 35.9738 112.246 35.8506 112.181C34.2534 111.34 33.2735 110.288 32.9228 109.2C32.8427 108.955 32.7945 108.701 32.7793 108.444V105.701L32.7759 105.691Z" fill="#F9BE06"/>
<g style="mix-blend-mode:multiply">
<path d="M33.4824 107.185V110.697M44.343 111.155V114.276V111.155ZM42.1293 111.261V114.048V111.261ZM40.02 110.976V114.026V110.976ZM38.0169 110.509V113.502V110.509ZM36.2235 109.306V112.748V109.306ZM34.6424 108.94V111.814V108.94Z" stroke="#FFDF24" stroke-width="0.541805"/>
</g>
<path opacity="0.15" d="M46.3921 109.047C46.9593 108.695 47.4111 108.215 47.8917 107.752C48.4504 107.215 49.055 106.72 49.6427 106.217C49.9399 105.963 50.2447 105.717 50.5461 105.47C50.761 105.633 50.9648 105.809 51.1584 105.997C51.2161 106.051 51.2705 106.109 51.324 106.166H52.4567V108.712C52.4573 108.909 52.4365 109.106 52.3947 109.299C52.1587 110.416 51.2705 111.486 49.7216 112.331C49.6027 112.396 49.483 112.466 49.359 112.519L49.2461 112.573L48.9829 112.695L48.836 112.756C48.7561 112.791 48.6763 112.825 48.5931 112.857L48.4267 112.92C48.3494 112.95 48.2713 112.98 48.1915 113.008L48.0131 113.067C47.935 113.095 47.8577 113.121 47.7779 113.146C47.6973 113.172 47.6463 113.184 47.5894 113.203C47.5113 113.228 47.4326 113.251 47.3533 113.272L47.1563 113.325C47.091 113.342 47.0001 113.368 46.9203 113.387C46.8396 113.406 46.7887 113.418 46.7148 113.435L46.477 113.488C46.4448 113.497 46.4091 113.502 46.376 113.508V109.058C46.3816 109.055 46.387 109.051 46.3921 109.047Z" fill="#2F4662"/>
<g style="mix-blend-mode:multiply">
<path d="M51.3024 108.6V111.358M46.3477 110.94V113.752V110.94ZM48.192 109.83V113.342V109.83ZM49.8275 109.032V112.566V109.032Z" stroke="#FFDF24" stroke-width="0.541805"/>
</g>
<path d="M52.5453 106.278C52.6324 103.37 48.2285 100.875 42.7089 100.705C37.1893 100.535 32.6442 102.755 32.5571 105.662C32.47 108.57 36.8739 111.065 42.3935 111.235C47.9131 111.405 52.4582 109.186 52.5453 106.278Z" fill="#FFDF24"/>
<path d="M42.1343 100.664C39.6378 100.664 37.1685 101.165 35.3284 102.17C31.5879 104.212 31.7823 107.593 35.7504 109.684C37.768 110.746 40.3884 111.279 42.9749 111.279C45.4706 111.279 47.9382 110.779 49.7792 109.774C53.5197 107.732 53.3252 104.351 49.3571 102.259C47.3396 101.197 44.7191 100.664 42.1326 100.664H42.1343Z" fill="#FFCF15"/>
<g style="mix-blend-mode:multiply">
<g style="mix-blend-mode:multiply">
<path d="M42.3353 102.367V102.634C44.3673 102.634 46.2932 103.011 47.7563 103.695C49.1658 104.352 49.9776 105.234 49.9895 106.107C49.9895 106.927 49.317 107.707 48.0806 108.304C46.7534 108.948 44.943 109.302 42.9815 109.302C40.9486 109.302 39.0245 108.925 37.5605 108.242C36.1509 107.585 35.34 106.703 35.3273 105.822C35.3273 105.004 36.0006 104.223 37.2353 103.625C38.5634 102.983 40.3746 102.628 42.3353 102.628V102.36V102.366V102.367ZM42.3353 102.36C40.4205 102.36 38.5328 102.7 37.1232 103.383C34.2573 104.769 34.4034 107.066 37.4459 108.487C38.9913 109.208 40.9928 109.57 42.9764 109.57C44.8921 109.57 46.7857 109.23 48.1885 108.547C51.0552 107.161 50.9091 104.864 47.8658 103.445C46.3203 102.723 44.3189 102.359 42.3353 102.359V102.36Z" fill="#FFDF24"/>
</g>
<g style="mix-blend-mode:multiply">
<path d="M42.3353 102.634C44.3673 102.634 46.2932 103.011 47.7563 103.695C49.1658 104.352 49.9776 105.234 49.9895 106.107C49.9895 106.927 49.317 107.707 48.0806 108.304C46.7534 108.948 44.943 109.302 42.9815 109.302C40.9486 109.302 39.0245 108.925 37.5605 108.242C36.1509 107.585 35.34 106.703 35.3273 105.822C35.3273 105.004 36.0006 104.223 37.2353 103.625C38.5634 102.983 40.3746 102.628 42.3353 102.628V102.635V102.634ZM42.3353 102.36C40.4205 102.36 38.5328 102.7 37.1232 103.383C34.2573 104.769 34.4034 107.066 37.4459 108.487C38.9913 109.208 40.9928 109.57 42.9764 109.57C44.8921 109.57 46.7857 109.23 48.1885 108.547C51.0552 107.161 50.9091 104.864 47.8658 103.445C46.3203 102.723 44.3189 102.359 42.3353 102.359V102.36Z" fill="#FFDF24"/>
</g>
</g>
<path d="M14.3394 117.637V117.57C14.3504 117.314 14.3946 117.062 14.471 116.818C14.533 116.617 14.6145 116.423 14.7138 116.238C14.8811 115.927 15.0875 115.638 15.3286 115.38C15.6369 115.053 15.9808 114.763 16.3535 114.515C16.6735 114.3 17.0077 114.108 17.3538 113.94C17.3937 113.92 17.4354 113.902 17.4761 113.883C17.5568 113.845 17.6375 113.805 17.7198 113.77L17.8701 113.707C17.9457 113.674 18.0204 113.642 18.0977 113.612L18.2658 113.548L18.4874 113.466C18.5469 113.444 18.6072 113.425 18.6675 113.405L18.8899 113.33L19.0793 113.274L19.3026 113.208C19.3663 113.189 19.4334 113.174 19.4979 113.156L19.723 113.096L19.9268 113.05L20.1535 112.998L20.3607 112.956C20.4371 112.941 20.5135 112.925 20.5908 112.912L20.8031 112.874L21.0349 112.835L21.2514 112.804L21.4849 112.772L21.7057 112.746C21.784 112.737 21.8624 112.728 21.9409 112.721L22.1634 112.702L22.4012 112.681L22.6253 112.666L22.8648 112.653L23.089 112.645L23.331 112.636H24.2727L24.519 112.646L24.7482 112.657L24.9945 112.673C25.0701 112.673 25.1465 112.682 25.222 112.69L25.4683 112.711L25.695 112.733C25.7765 112.742 25.8581 112.752 25.9379 112.762L26.1655 112.789L26.4075 112.824L26.6308 112.858C26.7123 112.87 26.7904 112.884 26.8711 112.9C26.9509 112.914 27.0197 112.924 27.0927 112.938C27.1666 112.953 27.2515 112.969 27.3305 112.987C27.4095 113.004 27.4765 113.015 27.547 113.031L27.7848 113.086L27.9971 113.136L28.2314 113.197L28.4395 113.252C28.5167 113.274 28.5923 113.298 28.6704 113.321L28.8725 113.381L29.1035 113.457L29.2971 113.523C29.3744 113.549 29.45 113.579 29.5281 113.608C29.6054 113.635 29.6504 113.652 29.7106 113.676L29.9476 113.772L30.114 113.841C30.2023 113.878 30.2872 113.919 30.3772 113.958C30.4214 113.979 30.4664 113.997 30.508 114.019C30.6294 114.077 30.7509 114.137 30.8706 114.199L30.8867 114.208C31.6462 114.59 32.3355 115.101 32.9247 115.72C33.3228 116.14 33.6264 116.644 33.8146 117.194C33.9232 117.525 33.973 117.872 33.9615 118.22V120.693C33.9615 120.799 33.9547 120.906 33.9428 121.012C33.9326 121.097 33.9173 121.18 33.9003 121.263C33.6711 122.347 32.8092 123.388 31.3053 124.212C31.1899 124.275 31.0727 124.335 30.953 124.394L30.8426 124.446C30.7577 124.487 30.6736 124.527 30.587 124.564C30.5411 124.586 30.4927 124.605 30.4452 124.625C30.3662 124.658 30.2889 124.692 30.2082 124.723C30.1565 124.744 30.1013 124.764 30.0469 124.784C29.9705 124.812 29.8958 124.842 29.8185 124.868C29.7616 124.89 29.703 124.907 29.6453 124.928C29.5692 124.954 29.4928 124.98 29.416 125.004L29.2343 125.059L29.005 125.126C28.9413 125.145 28.8742 125.16 28.8122 125.178L28.583 125.238L28.3758 125.278L28.1465 125.331L27.941 125.372L27.7075 125.418L27.5003 125.452L27.2634 125.493L27.0511 125.524C26.9721 125.535 26.8932 125.547 26.8134 125.557L26.5977 125.583L26.3574 125.608L26.1391 125.627L25.8971 125.647L25.6763 125.662L25.4335 125.676C25.3605 125.676 25.2857 125.676 25.2119 125.684L24.969 125.692H24.0273L23.7785 125.68L23.5492 125.669C23.466 125.669 23.3845 125.658 23.303 125.653L23.0737 125.636L22.8291 125.615L22.6016 125.593L22.3579 125.564C22.2823 125.555 22.2067 125.547 22.132 125.536L21.89 125.502L21.665 125.469L21.4247 125.426C21.3508 125.414 21.2772 125.401 21.2039 125.387C21.1308 125.372 21.0442 125.357 20.9653 125.339C20.8863 125.322 20.8209 125.311 20.7496 125.296L20.511 125.24L20.2987 125.191L20.0626 125.129L19.858 125.073L19.6211 125.005L19.4241 124.944L19.188 124.867L19.0003 124.805C18.9197 124.776 18.8415 124.745 18.7626 124.716L18.5859 124.651C18.5019 124.618 18.4212 124.583 18.338 124.55L18.1835 124.485C18.0945 124.447 18.0068 124.407 17.9202 124.364L17.7971 124.309C17.6693 124.248 17.543 124.185 17.4184 124.118C15.822 123.278 14.8412 122.225 14.4888 121.138C14.4096 120.893 14.3622 120.638 14.3478 120.381C14.3465 120.354 14.3465 120.328 14.3478 120.301V117.637H14.3394Z" fill="#F9BE06"/>
<g style="mix-blend-mode:multiply">
<path d="M15.0459 119.135V122.645M25.9065 123.103V126.225V123.103ZM23.6919 123.211V125.997V123.211ZM21.5835 122.925V125.975V122.925ZM19.5804 122.457V125.449V122.457ZM17.7869 121.254V124.697V121.254ZM16.2058 120.888V123.763V120.888Z" stroke="#FFDF24" stroke-width="0.541805"/>
</g>
<path opacity="0.1" d="M27.9538 120.996C28.5227 120.643 28.9745 120.162 29.4551 119.699C30.013 119.162 30.6184 118.668 31.206 118.166C31.5032 117.911 31.8064 117.666 32.1095 117.419C32.3244 117.581 32.5281 117.756 32.7218 117.944C32.7795 118 32.8338 118.056 32.8873 118.115H34.0235V120.661C34.0238 120.858 34.003 121.054 33.9615 121.247C33.7254 122.364 32.8372 123.435 31.2884 124.281C31.1704 124.345 31.0498 124.406 30.9267 124.467L30.8129 124.521C30.7254 124.562 30.6388 124.604 30.5505 124.642L30.4036 124.704L30.1607 124.806L29.9934 124.869L29.7582 124.956C29.6988 124.977 29.6393 124.996 29.5799 125.016C29.5205 125.037 29.4245 125.07 29.3447 125.094L29.1553 125.152L28.9201 125.221L28.7231 125.274L28.487 125.336L28.2824 125.382L28.0446 125.437L27.9419 125.457V121C27.946 120.999 27.9499 120.998 27.9538 120.996Z" fill="#462D64"/>
<g style="mix-blend-mode:multiply">
<path d="M32.8653 120.547V123.305M27.9097 122.887V125.7V122.887ZM29.7549 121.779V125.29V121.779ZM31.3895 120.979V124.514V120.979Z" stroke="#FFDF24" stroke-width="0.541805"/>
</g>
<path d="M34.1073 118.227C34.1944 115.319 29.7905 112.824 24.2709 112.654C18.7513 112.484 14.2062 114.703 14.1191 117.611C14.032 120.519 18.436 123.014 23.9555 123.184C29.4751 123.354 34.0202 121.135 34.1073 118.227Z" fill="#FFDF24"/>
<path d="M23.6952 112.613C21.1987 112.613 18.7311 113.112 16.891 114.118C13.1497 116.16 13.3441 119.542 17.313 121.633C19.3306 122.694 21.9511 123.227 24.5367 123.227C27.0332 123.227 29.5009 122.727 31.341 121.721C35.0823 119.68 34.8879 116.299 30.9198 114.215C28.9022 113.151 26.2817 112.62 23.6952 112.62V112.613Z" fill="#FFCF15"/>
<g style="mix-blend-mode:multiply">
<g style="mix-blend-mode:multiply">
<path d="M23.8978 114.315V114.584C25.9298 114.584 27.8549 114.96 29.3188 115.643C30.7284 116.301 31.5402 117.183 31.5453 118.063C31.552 118.882 30.8744 119.663 29.6381 120.26C28.31 120.902 26.4988 121.256 24.5372 121.256C22.5052 121.256 20.581 120.881 19.118 120.197C17.7084 119.539 16.8966 118.657 16.8847 117.776C16.8847 116.959 17.5572 116.178 18.7919 115.58C20.12 114.937 21.9312 114.584 23.8927 114.584V114.315H23.8978ZM23.8927 114.315C21.9779 114.315 20.0834 114.656 18.6807 115.339C15.8148 116.724 15.96 119.022 19.0033 120.441C20.5488 121.162 22.5502 121.524 24.5321 121.524C26.4487 121.524 28.3414 121.186 29.7459 120.503C32.6109 119.116 32.4657 116.819 29.4232 115.399C27.8769 114.677 25.8695 114.315 23.8927 114.315Z" fill="#FFDF24"/>
</g>
<g style="mix-blend-mode:multiply">
<path d="M23.8978 114.584C25.9298 114.584 27.8549 114.96 29.3188 115.643C30.7284 116.301 31.5402 117.183 31.5453 118.063C31.552 118.882 30.8744 119.663 29.6381 120.26C28.31 120.902 26.4988 121.256 24.5372 121.256C22.5052 121.256 20.581 120.881 19.118 120.197C17.7084 119.539 16.8966 118.657 16.8847 117.776C16.8847 116.959 17.5572 116.178 18.7919 115.58C20.12 114.937 21.9312 114.584 23.8927 114.584H23.8978ZM23.8927 114.315C21.9779 114.315 20.0834 114.656 18.6807 115.339C15.8148 116.724 15.96 119.022 19.0033 120.441C20.5488 121.162 22.5502 121.524 24.5321 121.524C26.4487 121.524 28.3414 121.186 29.7459 120.503C32.6109 119.116 32.4657 116.819 29.4232 115.399C27.8769 114.677 25.8695 114.315 23.8927 114.315Z" fill="#FFDF24"/>
</g>
</g>
<path d="M29.0521 123.067V123C29.0623 122.744 29.1065 122.492 29.1837 122.248C29.2457 122.048 29.3272 121.855 29.4266 121.671C29.5939 121.358 29.8002 121.07 30.0414 120.812C30.3496 120.485 30.6927 120.195 31.0663 119.947C31.3866 119.732 31.7208 119.539 32.0666 119.37L32.1889 119.314L32.4317 119.2L32.5829 119.137C32.6576 119.106 32.7332 119.072 32.8104 119.042L32.9735 118.978L33.1951 118.894L33.3751 118.834L33.5968 118.761C33.6588 118.74 33.7284 118.723 33.7853 118.704L34.0094 118.637L34.2048 118.586L34.4298 118.527C34.4969 118.51 34.5614 118.494 34.6336 118.48C34.7058 118.465 34.7847 118.444 34.8603 118.428L35.0683 118.386L35.2976 118.341L35.5107 118.305L35.7417 118.265L35.9591 118.235L36.1926 118.202L36.4134 118.177L36.6486 118.151L36.8702 118.13L37.108 118.11L37.333 118.096L37.5716 118.082L37.7967 118.073L38.0378 118.066H38.9795L39.2258 118.075C39.3022 118.075 39.3786 118.075 39.455 118.086L39.7013 118.101L39.9297 118.117L40.176 118.139L40.4027 118.161L40.6455 118.19L40.8714 118.217L41.1143 118.251L41.3376 118.286L41.5779 118.327L41.7987 118.366C41.8794 118.381 41.9592 118.398 42.0381 118.414L42.2547 118.458L42.4924 118.513L42.7039 118.563L42.9391 118.624L43.1463 118.681C43.2244 118.703 43.3 118.727 43.3781 118.75C43.4545 118.773 43.5089 118.788 43.5802 118.811C43.6507 118.831 43.7331 118.86 43.8112 118.886L44.0039 118.951L44.2357 119.037L44.4183 119.103L44.6544 119.202C44.7096 119.224 44.7665 119.245 44.8217 119.27L45.084 119.386L45.2157 119.446C45.3379 119.506 45.4585 119.566 45.5766 119.627L45.5935 119.636C46.3526 120.019 47.0417 120.53 47.6315 121.147C48.0295 121.568 48.3331 122.071 48.5214 122.622C48.63 122.947 48.6794 123.289 48.6675 123.632V126.121C48.6665 126.227 48.6602 126.334 48.6488 126.44C48.6378 126.524 48.6237 126.607 48.6063 126.69C48.377 127.775 47.5152 128.814 46.0105 129.64C45.8958 129.703 45.7786 129.763 45.6589 129.821L45.5477 129.873C45.4636 129.913 45.3795 129.953 45.2929 129.992L45.1511 130.051C45.0722 130.085 44.9949 130.118 44.9142 130.15C44.8624 130.172 44.8072 130.19 44.7529 130.211C44.6765 130.24 44.6017 130.269 44.5245 130.297L44.3512 130.354C44.2157 130.402 44.0786 130.446 43.9402 130.486C43.8791 130.503 43.7874 130.532 43.711 130.554L43.5182 130.605L43.2889 130.664C43.2244 130.681 43.1582 130.694 43.0902 130.71C43.0223 130.727 42.9374 130.747 42.861 130.762L42.6555 130.804L42.4211 130.85C42.3532 130.864 42.2903 130.874 42.2139 130.886L41.9779 130.925L41.7647 130.956L41.527 130.989L41.3113 131.014L41.071 131.039C40.9988 131.048 40.9249 131.053 40.8527 131.06L40.6116 131.081L40.3908 131.094L40.1479 131.108L39.9246 131.117L39.6818 131.125H38.7401C38.6577 131.125 38.5762 131.125 38.4938 131.116L38.2645 131.106L38.0183 131.09L37.789 131.073L37.5445 131.051L37.3177 131.029L37.0732 131.002L36.8473 130.973L36.6053 130.939L36.3811 130.904L36.1408 130.864L35.92 130.824L35.6797 130.776L35.464 130.732L35.2263 130.677L35.0148 130.628L34.7788 130.564L34.5733 130.511L34.3372 130.44C34.2712 130.421 34.2055 130.402 34.1402 130.38L33.9033 130.303L33.7165 130.24C33.6358 130.212 33.5569 130.181 33.477 130.151C33.4193 130.13 33.3599 130.11 33.3021 130.087L33.0542 129.985L32.8988 129.922L32.6296 129.8L32.5073 129.744C32.3782 129.682 32.2526 129.619 32.1286 129.554C30.5322 128.713 29.5514 127.662 29.199 126.574C29.1199 126.329 29.0719 126.075 29.0564 125.818V123.075L29.0513 123.067L29.0521 123.067Z" fill="#F9BE06"/>
<g style="mix-blend-mode:multiply">
<path d="M29.7607 124.562V128.074M40.6205 128.531V131.653V128.531ZM38.4059 128.639V131.425V128.639ZM36.2983 128.353V131.402V128.353ZM34.2952 127.886V130.878V127.886ZM32.5018 126.684V130.125V126.684ZM30.9207 126.317V129.19V126.317Z" stroke="#FFDF24" stroke-width="0.541805"/>
</g>
<path opacity="0.1" d="M42.6676 126.423C43.2366 126.071 43.6883 125.591 44.1689 125.128C44.726 124.591 45.3314 124.097 45.9199 123.593C46.2171 123.339 46.5202 123.093 46.8234 122.846C47.0374 123.009 47.242 123.185 47.4348 123.372C47.4934 123.427 47.5469 123.485 47.5995 123.542H48.7357V126.088C48.7357 126.198 48.7297 126.308 48.7178 126.417C48.7068 126.503 48.6924 126.589 48.6745 126.675C48.4376 127.792 47.5494 128.862 46.0014 129.708C45.8825 129.772 45.7619 129.842 45.6388 129.895C45.6015 129.914 45.5624 129.93 45.5259 129.947C45.4376 129.989 45.351 130.031 45.2626 130.071C45.2159 130.093 45.1658 130.111 45.1174 130.132C45.0359 130.167 44.9561 130.201 44.8737 130.233L44.7073 130.296C44.6283 130.325 44.5511 130.356 44.4721 130.385L44.2938 130.443L44.0586 130.522C43.9966 130.543 43.9269 130.56 43.8692 130.579C43.7913 130.604 43.7129 130.627 43.634 130.648L43.437 130.701C43.3586 130.723 43.2799 130.743 43.2009 130.763L42.9954 130.811L42.7577 130.864L42.6558 130.884V126.431C42.66 126.429 42.6639 126.426 42.6676 126.423Z" fill="#462D64"/>
<g style="mix-blend-mode:multiply">
<path d="M47.579 125.977V128.734M42.6226 128.317V131.129V128.317ZM44.4686 127.206V130.718V127.206ZM46.1024 126.409V129.942V126.409Z" stroke="#FFDF24" stroke-width="0.541805"/>
</g>
<path d="M48.8217 123.654C48.9088 120.746 44.5048 118.251 38.9852 118.081C33.4656 117.911 28.9205 120.131 28.8334 123.038C28.7464 125.946 33.1503 128.441 38.6699 128.611C44.1895 128.781 48.7346 126.562 48.8217 123.654Z" fill="#FFDF24"/>
<path d="M38.4092 118.039C35.9127 118.039 33.4451 118.54 31.605 119.544C27.8636 121.586 28.0581 124.968 32.0262 127.059C34.0437 128.121 36.6642 128.654 39.2439 128.654C41.7404 128.654 44.2097 128.155 46.0498 127.149C49.7903 125.107 49.5967 121.725 45.6278 119.634C43.6128 118.574 40.9864 118.039 38.4092 118.039Z" fill="#FFCF15"/>
<g style="mix-blend-mode:multiply">
<g style="mix-blend-mode:multiply">
<path d="M38.611 119.743V120.011C40.643 120.011 42.568 120.388 44.0319 121.071C45.4415 121.728 46.2533 122.61 46.2584 123.491C46.2652 124.31 45.5876 125.09 44.3512 125.688C43.0232 126.331 41.2119 126.685 39.2504 126.685C37.2184 126.685 35.2942 126.309 33.8311 125.626C32.4215 124.968 31.6098 124.086 31.5979 123.205C31.5979 122.387 32.2687 121.606 33.505 121.009C34.8331 120.366 36.6444 120.011 38.6059 120.011V119.743H38.611ZM38.6059 119.743C36.6902 119.743 34.8025 120.084 33.3921 120.766C30.5271 122.153 30.6731 124.449 33.7148 125.87C35.2611 126.591 37.2685 126.953 39.2453 126.953C41.1618 126.953 43.0546 126.613 44.4591 125.931C47.3232 124.543 47.1789 122.247 44.1364 120.827C42.5892 120.106 40.5886 119.743 38.6059 119.743Z" fill="#FFDF24"/>
</g>
<g style="mix-blend-mode:multiply">
<path d="M38.611 120.011C40.643 120.011 42.568 120.388 44.0319 121.071C45.4415 121.728 46.2533 122.61 46.2584 123.491C46.2652 124.31 45.5876 125.09 44.3512 125.688C43.0232 126.331 41.2119 126.685 39.2504 126.685C37.2184 126.685 35.2942 126.309 33.8311 125.626C32.4215 124.968 31.6098 124.086 31.5979 123.205C31.5979 122.387 32.2687 121.606 33.505 121.009C34.8331 120.366 36.6444 120.011 38.6059 120.011H38.611ZM38.6059 119.743C36.6902 119.743 34.8025 120.084 33.3921 120.766C30.5271 122.153 30.6731 124.449 33.7148 125.87C35.2611 126.591 37.2685 126.953 39.2453 126.953C41.1618 126.953 43.0546 126.613 44.4591 125.931C47.3232 124.543 47.1789 122.247 44.1364 120.827C42.5892 120.106 40.5886 119.743 38.6059 119.743Z" fill="#FFDF24"/>
</g>
</g>
<path d="M36.5391 114.653V114.586C36.5493 114.331 36.5934 114.078 36.6707 113.834C36.7327 113.634 36.8142 113.439 36.9135 113.255C37.0812 112.943 37.2882 112.656 37.5292 112.399C37.8374 112.071 38.1813 111.78 38.5541 111.533C38.8737 111.317 39.2076 111.124 39.5535 110.956L39.6758 110.9C39.7573 110.861 39.8372 110.822 39.9204 110.786L40.0698 110.723C40.1462 110.69 40.221 110.659 40.2991 110.628L40.4655 110.565C40.5403 110.536 40.6124 110.509 40.6888 110.482C40.7653 110.454 40.8077 110.441 40.8672 110.422C40.9266 110.401 41.0141 110.37 41.0905 110.348C41.1669 110.324 41.2221 110.31 41.2782 110.292L41.5015 110.224L41.6985 110.173C41.7732 110.153 41.8471 110.131 41.9235 110.114C41.9999 110.097 42.0543 110.082 42.1256 110.066L42.3523 110.015L42.5612 109.972L42.7905 109.928L43.0045 109.89L43.2354 109.853C43.3059 109.841 43.3798 109.832 43.452 109.82L43.6863 109.789L43.9054 109.763L44.1415 109.737L44.364 109.718C44.4387 109.711 44.5211 109.702 44.6017 109.697L44.8251 109.684L45.0654 109.669L45.2895 109.661L45.5298 109.652H46.4724C46.5548 109.652 46.6363 109.652 46.7187 109.663L46.9479 109.671L47.1942 109.689L47.4218 109.704L47.668 109.727L47.8947 109.748L48.1384 109.777C48.214 109.785 48.2896 109.794 48.3652 109.805L48.6063 109.839L48.8313 109.873L49.0716 109.914L49.2924 109.953L49.5302 110.001C49.6083 110.019 49.6754 110.03 49.7476 110.046L49.9845 110.101L50.1968 110.15L50.4311 110.212L50.6383 110.267L50.8693 110.336L51.0722 110.397C51.1427 110.418 51.2268 110.448 51.3032 110.474C51.3796 110.499 51.4348 110.515 51.496 110.538L51.7278 110.622L51.9112 110.691L52.1481 110.787L52.3137 110.856L52.5761 110.974C52.6185 110.994 52.6644 111.013 52.7077 111.034C52.8308 111.092 52.9506 111.153 53.0703 111.215L53.0856 111.224C53.8453 111.605 54.5346 112.117 55.1235 112.735C55.5226 113.155 55.8266 113.657 56.0151 114.209C56.1228 114.534 56.1722 114.876 56.1612 115.219V117.708C56.1599 117.899 56.1394 118.09 56.1 118.277C55.8708 119.361 55.0089 120.401 53.5051 121.227C53.3887 121.289 53.2724 121.35 53.1527 121.409L53.0423 121.46C52.9582 121.5 52.8741 121.54 52.7875 121.579L52.644 121.638C52.5662 121.672 52.4878 121.705 52.4088 121.736L52.2466 121.798L52.0173 121.884L51.8441 121.941L51.6174 122.018L51.4331 122.073L51.2039 122.142L51.0128 122.191C50.9364 122.212 50.86 122.232 50.7835 122.251L50.5848 122.297C50.5076 122.315 50.4311 122.334 50.3539 122.35L50.1484 122.391L49.9157 122.437L49.7068 122.473L49.4707 122.512L49.2593 122.543C49.1795 122.554 49.1005 122.566 49.0198 122.576L48.805 122.602L48.5647 122.627L48.3465 122.646L48.1045 122.668L47.8837 122.681C47.8039 122.681 47.7223 122.692 47.6408 122.695L47.4192 122.703H46.2338L45.9884 122.695L45.7591 122.684L45.5146 122.669L45.2853 122.653L45.0399 122.63L44.8115 122.608L44.5686 122.579L44.341 122.553L44.0999 122.518L43.8766 122.483L43.6345 122.442L43.4155 122.403L43.1752 122.355L42.9595 122.311C42.8797 122.294 42.8007 122.273 42.7209 122.255L42.5103 122.205C42.4307 122.186 42.3514 122.165 42.2725 122.143L42.0687 122.089C41.9896 122.067 41.9109 122.044 41.8327 122.019L41.6357 121.96L41.3987 121.882L41.2119 121.819C41.1296 121.791 41.0506 121.76 40.9725 121.731L40.7958 121.666L40.5479 121.564C40.4969 121.543 40.4443 121.523 40.3925 121.5C40.304 121.462 40.2165 121.421 40.1301 121.378L40.007 121.323C39.8793 121.263 39.7531 121.2 39.6283 121.134C38.0319 120.292 37.0528 119.241 36.7004 118.153C36.6205 117.908 36.5725 117.653 36.5577 117.395V114.654L36.5391 114.653Z" fill="#F9BE06"/>
<g style="mix-blend-mode:multiply">
<path d="M37.2461 116.148V119.659M48.1067 120.117V123.239V120.117ZM45.893 120.223V123.011V120.223ZM43.7837 119.939V122.988V119.939ZM41.7805 119.471V122.464V119.471ZM39.9871 118.268V121.71V118.268ZM38.406 117.902V120.776V117.902Z" stroke="#FFDF24" stroke-width="0.541805"/>
</g>
<path opacity="0.1" d="M50.1557 118.009C50.7246 117.656 51.1764 117.175 51.6561 116.713C52.214 116.177 52.8195 115.683 53.4079 115.178C53.7034 114.925 54.0083 114.68 54.3106 114.432C54.5254 114.594 54.73 114.77 54.9236 114.957C54.9805 115.013 55.034 115.071 55.0884 115.127H56.2245V117.674C56.2233 117.872 56.2022 118.068 56.1617 118.262C55.9239 119.376 55.0366 120.448 53.4877 121.294C53.3697 121.358 53.2491 121.427 53.1269 121.481L53.0122 121.533C52.9256 121.575 52.839 121.617 52.7498 121.655L52.6029 121.717C52.5223 121.752 52.4424 121.786 52.3601 121.819L52.1928 121.882C52.1148 121.912 52.0363 121.941 51.9576 121.969C51.8998 121.99 51.8395 122.009 51.7801 122.029L51.544 122.108L51.3564 122.164L51.1212 122.234L50.9225 122.287L50.6864 122.349L50.4818 122.395L50.244 122.45L50.1421 122.47V118.013C50.1467 118.012 50.1512 118.011 50.1557 118.009Z" fill="#462D64"/>
<g style="mix-blend-mode:multiply">
<path d="M55.0673 117.56V120.32M50.1108 119.901V122.715V119.901ZM51.9552 118.792V122.303V118.792ZM53.5907 117.995V121.529V117.995Z" stroke="#FFDF24" stroke-width="0.541805"/>
</g>
<path d="M56.3075 115.24C56.3946 112.332 51.9907 109.837 46.4711 109.667C40.9515 109.497 36.4064 111.716 36.3193 114.624C36.2322 117.532 40.6361 120.027 46.1557 120.197C51.6753 120.367 56.2204 118.148 56.3075 115.24Z" fill="#FFDF24"/>
<path d="M45.8965 109.626C43.4 109.626 40.9315 110.126 39.0906 111.131C35.3501 113.172 35.5445 116.555 39.5126 118.646C41.5302 119.708 44.1507 120.241 46.7372 120.241C49.2337 120.241 51.7013 119.74 53.5422 118.736C57.2819 116.695 57.0891 113.312 53.1194 111.221C51.1018 110.159 48.483 109.626 45.8948 109.626H45.8965Z" fill="#FFCF15"/>
<g style="mix-blend-mode:multiply">
<g style="mix-blend-mode:multiply">
<path d="M46.0967 111.329V111.597C48.1295 111.597 50.0537 111.974 51.5176 112.656C52.9272 113.314 53.7382 114.196 53.7509 115.076C53.7509 115.896 53.0775 116.676 51.8429 117.273C50.5148 117.917 48.7036 118.271 46.7429 118.271C44.7109 118.271 42.785 117.894 41.3219 117.211C39.9123 116.554 39.1005 115.672 39.0886 114.797C39.0886 113.979 39.7612 113.199 40.9975 112.601C42.3239 111.957 44.1351 111.603 46.0967 111.603V111.329ZM46.0967 111.336C44.181 111.336 42.2933 111.676 40.8846 112.358C38.0179 113.745 38.1639 116.042 41.2073 117.462C42.7527 118.183 44.7542 118.546 46.7369 118.546C48.6526 118.546 50.5462 118.205 51.9499 117.523C54.8157 116.136 54.6697 113.84 51.6263 112.418C50.0809 111.697 48.0794 111.336 46.0967 111.336Z" fill="#FFDF24"/>
</g>
<g style="mix-blend-mode:multiply">
<path d="M46.0962 111.597C48.129 111.597 50.0532 111.975 51.5171 112.657C52.9267 113.315 53.7377 114.197 53.7504 115.077C53.7504 115.897 53.077 116.677 51.8424 117.274C50.5143 117.916 48.7031 118.272 46.7424 118.272C44.7104 118.272 42.7845 117.895 41.3214 117.212C39.9118 116.555 39.1 115.673 39.0882 114.798C39.0882 113.98 39.7607 113.2 40.997 112.602C42.3234 111.958 44.1346 111.604 46.0962 111.604V111.597ZM46.0962 111.336C44.1805 111.336 42.2928 111.677 40.8841 112.359C38.0174 113.746 38.1634 116.043 41.2068 117.463C42.7522 118.183 44.7537 118.547 46.7364 118.547C48.6521 118.547 50.5457 118.206 51.9494 117.524C54.8152 116.137 54.6692 113.84 51.6258 112.419C50.0804 111.698 48.0789 111.336 46.0962 111.336Z" fill="#FFDF24"/>
</g>
</g>
<path d="M23.3643 106.523V106.456C23.3744 106.201 23.4186 105.948 23.4959 105.704C23.5579 105.504 23.6394 105.31 23.7387 105.127C23.906 104.814 24.1124 104.526 24.3535 104.269C24.6618 103.942 25.0048 103.65 25.3776 103.402C25.5797 103.266 25.7954 103.134 26.0272 103.009C26.1427 102.946 26.259 102.886 26.3787 102.826L26.501 102.77L26.7439 102.656L26.895 102.593C26.9697 102.561 27.0445 102.529 27.1226 102.498L27.2907 102.435L27.5123 102.351L27.6924 102.291L27.9148 102.218C27.976 102.197 28.0456 102.18 28.1017 102.161L28.3267 102.094L28.522 102.043L28.747 101.985C28.8149 101.967 28.8786 101.952 28.9508 101.937C29.023 101.923 29.102 101.901 29.1784 101.885L29.3856 101.843L29.6148 101.798L29.828 101.761L30.0598 101.723C30.132 101.711 30.2042 101.701 30.2763 101.693L30.5098 101.658L30.7306 101.633L30.9658 101.607C31.0397 101.599 31.1144 101.594 31.1875 101.587L31.4252 101.568L31.6503 101.554L31.8889 101.539L32.1139 101.531L32.3559 101.523H33.2967C33.3791 101.523 33.4615 101.523 33.543 101.532L33.7723 101.542L34.0185 101.558L34.2478 101.575L34.4924 101.597L34.7199 101.618L34.9628 101.647L35.1903 101.674L35.4315 101.709L35.6548 101.743L35.8951 101.785L36.1159 101.823C36.1966 101.838 36.2764 101.855 36.3554 101.872C36.4344 101.888 36.5014 101.9 36.5719 101.916L36.8097 101.971L37.022 102.021L37.2563 102.082C37.3243 102.101 37.3956 102.118 37.4635 102.139L37.6953 102.208C37.7718 102.23 37.8261 102.246 37.8974 102.268C37.9679 102.289 38.0503 102.318 38.1284 102.344L38.322 102.408C38.3984 102.434 38.4749 102.464 38.553 102.494L38.7355 102.561L38.9716 102.659C39.0268 102.681 39.0837 102.702 39.1389 102.727C39.2264 102.765 39.3121 102.805 39.4021 102.843L39.5329 102.904C39.6552 102.963 39.7758 103.023 39.8938 103.085L39.9108 103.093C40.6701 103.476 41.3596 103.987 41.9496 104.605C42.3477 105.025 42.6511 105.528 42.8386 106.08C42.9463 106.404 42.9958 106.746 42.9847 107.089V109.578C42.9837 109.685 42.9775 109.791 42.966 109.897C42.955 109.981 42.9409 110.065 42.9235 110.148C42.6943 111.232 41.8324 112.271 40.3277 113.097C40.2131 113.16 40.0959 113.22 39.977 113.279L39.8666 113.331C39.7817 113.37 39.6968 113.411 39.6102 113.449L39.4684 113.508C39.3894 113.542 39.3121 113.575 39.2323 113.608L39.071 113.668C38.9945 113.698 38.919 113.727 38.8417 113.754L38.6685 113.811C38.592 113.837 38.5173 113.863 38.4392 113.888L38.2575 113.943L38.0282 114.011L37.8354 114.063L37.607 114.121L37.4075 114.168C37.3311 114.185 37.2546 114.204 37.1782 114.219L36.9727 114.262L36.7392 114.307C36.6713 114.32 36.6008 114.331 36.5312 114.344L36.2951 114.382L36.0828 114.413L35.845 114.447L35.6285 114.471L35.3882 114.497L35.1708 114.518L34.9288 114.538L34.708 114.551L34.4652 114.566L34.2427 114.574L33.999 114.582H33.0581L32.8119 114.574L32.5826 114.563L32.3364 114.547L32.1071 114.531L31.8625 114.508L31.6358 114.487L31.3913 114.459L31.1654 114.431L30.9234 114.396L30.6992 114.362L30.4589 114.32L30.2381 114.282C30.1583 114.267 30.0776 114.25 29.9987 114.233L29.7821 114.189L29.5444 114.134L29.3329 114.085L29.0969 114.021L28.8914 113.967C28.8124 113.945 28.7337 113.922 28.6553 113.897C28.5763 113.873 28.5237 113.859 28.4583 113.838L28.2214 113.76L28.0346 113.697C27.9539 113.669 27.8749 113.638 27.7968 113.609C27.7374 113.587 27.6779 113.567 27.6202 113.544L27.3722 113.443C27.3213 113.421 27.2678 113.401 27.2168 113.378C27.1282 113.34 27.0404 113.3 26.9536 113.257L26.8305 113.201C26.7023 113.139 26.5757 113.076 26.4526 113.012C24.8554 112.17 23.8754 111.119 23.523 110.031C23.4439 109.787 23.3959 109.532 23.3804 109.275V106.533L23.3643 106.524V106.523Z" fill="#F9BE06"/>
<g style="mix-blend-mode:multiply">
<path d="M24.0698 108.018V111.529M34.9304 111.987V115.11V111.987ZM32.7159 112.095V114.882V112.095ZM30.6074 111.808V114.859V111.808ZM28.6043 111.341V114.335V111.341ZM26.8117 110.139V113.582V110.139ZM25.2298 109.773V112.647V109.773Z" stroke="#FFDF24" stroke-width="0.541805"/>
</g>
<path opacity="0.15" d="M36.9787 109.88C37.5476 109.527 37.9993 109.047 38.48 108.584C39.0378 108.047 39.6433 107.553 40.2309 107.049C40.5281 106.796 40.8312 106.55 41.1344 106.302C41.3484 106.465 41.553 106.641 41.7458 106.827C41.8044 106.884 41.8579 106.942 41.9105 106.998H43.0441V109.545C43.0441 109.654 43.0382 109.764 43.0263 109.873C43.0153 109.959 43.0008 110.046 42.9821 110.132C42.7461 111.249 41.8579 112.319 40.3099 113.164C40.191 113.228 40.0704 113.291 39.9473 113.351L39.8344 113.404L39.5711 113.527L39.4242 113.588C39.3444 113.622 39.2637 113.657 39.1814 113.69L39.0141 113.75C38.9351 113.78 38.8578 113.811 38.7789 113.838L38.6005 113.898L38.3653 113.977L38.176 114.033L37.9407 114.102C37.8771 114.122 37.81 114.137 37.7437 114.155L37.5077 114.216L37.303 114.265L37.0653 114.318L36.9634 114.339V109.881C36.9685 109.881 36.9736 109.881 36.9787 109.88Z" fill="#2F4662"/>
<g style="mix-blend-mode:multiply">
<path d="M41.8887 109.432V112.191M36.9331 111.773V114.585V111.773ZM38.7783 110.662V114.175V110.662ZM40.4129 109.866V113.399V109.866Z" stroke="#FFDF24" stroke-width="0.541805"/>
</g>
<path d="M43.1337 107.111C43.2208 104.203 38.8168 101.708 33.2972 101.538C27.7777 101.368 23.2325 103.587 23.1455 106.495C23.0584 109.402 27.4623 111.898 32.9819 112.068C38.5015 112.238 43.0466 110.018 43.1337 107.111Z" fill="#FFDF24"/>
<path d="M32.7212 101.497C30.2247 101.497 27.7571 101.998 25.917 103.002C22.1756 105.043 22.3701 108.425 26.3382 110.517C28.3557 111.579 30.9762 112.112 33.5627 112.112C36.0592 112.112 38.5268 111.61 40.3669 110.606C44.1083 108.565 43.9138 105.183 39.9458 103.091C37.9273 102.03 35.3069 101.496 32.7212 101.496V101.497Z" fill="#FFCF15"/>
<g style="mix-blend-mode:multiply">
<g style="mix-blend-mode:multiply">
<path d="M32.9241 103.199V103.467C34.9561 103.467 36.8812 103.843 38.3451 104.526C39.7547 105.184 40.5665 106.066 40.5784 106.947C40.5784 107.765 39.9075 108.546 38.6703 109.143C37.3431 109.787 35.531 110.141 33.5703 110.141C31.5383 110.141 29.6133 109.764 28.1502 109.081C26.7406 108.424 25.9297 107.542 25.917 106.661C25.917 105.843 26.5886 105.062 27.825 104.464C29.1531 103.821 30.9643 103.467 32.925 103.467V103.199H32.9241ZM32.925 103.199C31.0102 103.199 29.1225 103.539 27.7112 104.221C24.847 105.608 24.9931 107.906 28.0347 109.326C29.581 110.047 31.5884 110.41 33.5652 110.41C35.4818 110.41 37.3745 110.068 38.779 109.386C41.6432 107.999 41.4988 105.703 38.4555 104.283C36.91 103.56 34.9018 103.198 32.925 103.198V103.199Z" fill="#FFDF24"/>
</g>
<g style="mix-blend-mode:multiply">
<path d="M32.9241 103.467C34.9561 103.467 36.8812 103.843 38.3451 104.526C39.7547 105.184 40.5665 106.066 40.5784 106.947C40.5784 107.765 39.9075 108.546 38.6703 109.143C37.3431 109.787 35.531 110.141 33.5703 110.141C31.5383 110.141 29.6133 109.764 28.1502 109.081C26.7406 108.424 25.9297 107.542 25.917 106.661C25.917 105.843 26.5886 105.062 27.825 104.464C29.1531 103.821 30.9643 103.467 32.925 103.467H32.9241ZM32.925 103.199C31.0102 103.199 29.1225 103.539 27.7112 104.221C24.847 105.608 24.9931 107.906 28.0347 109.326C29.581 110.047 31.5884 110.41 33.5652 110.41C35.4818 110.41 37.3745 110.068 38.779 109.386C41.6432 107.999 41.4988 105.703 38.4555 104.283C36.91 103.56 34.9018 103.198 32.925 103.198V103.199Z" fill="#FFDF24"/>
</g>
</g>
<path d="M149.757 86.938L134.002 96.3063L118.171 86.8587L133.847 77.53L149.757 86.938Z" fill="#9DBAFC"/>
<path d="M135.715 78.0865L122.024 86.5814L134.2 94.1228L149.252 84.9138" stroke="#407BFF" stroke-width="0.541805"/>
<g style="mix-blend-mode:multiply" opacity="0.124">
<path d="M128.871 77.7282L144.701 87.4979L150.031 86.938L154.543 83.2858L136.338 71.5366L128.871 77.7282Z" fill="#407BFF"/>
</g>
<path d="M179.204 54.3984L151.792 71.4829L179.204 54.3984Z" fill="#F8F7F2"/>
<path d="M177.286 55.7942L167.961 54.0051L189.241 48.556L180.155 61.325L177.286 55.7942Z" fill="#FF725E"/>
<path d="M175.635 56.6793C173.054 58.7078 161.42 67.3552 157.76 61.2954C154.253 55.4898 164.309 52.6455 164.885 59.049C165.59 66.859 160.476 65.337 155.125 68.9487" stroke="#2C408A" stroke-width="0.464281" stroke-linecap="round" stroke-dasharray="1.19 1.19"/>
<path d="M190.315 47.9456L175.691 56.7316C175.691 56.7316 175.572 56.2432 175.691 56.2432C175.81 56.2432 190.315 47.9473 190.315 47.9473V47.9456Z" fill="#2C408A"/>
<path d="M143.767 66.733L159.664 76.0359L143.807 85.3103L127.897 76.0221L143.767 66.733Z" fill="#9DBAFC"/>
<path d="M128.907 77.6884L143.611 68.8766L155.864 75.9037L140.693 85.0342" stroke="#407BFF" stroke-width="0.541805"/>
<path d="M135.617 84.0797C138.27 84.0797 140.421 82.6578 140.421 80.9038C140.421 79.1498 138.27 77.7279 135.617 77.7279C132.964 77.7279 130.813 79.1498 130.813 80.9038C130.813 82.6578 132.964 84.0797 135.617 84.0797Z" fill="#407BFF"/>
<path d="M143.807 72.8338C144.527 72.8338 145.111 72.4482 145.111 71.9725C145.111 71.4967 144.527 71.1111 143.807 71.1111C143.087 71.1111 142.504 71.4967 142.504 71.9725C142.504 72.4482 143.087 72.8338 143.807 72.8338Z" fill="#F8F7F2"/>
<path d="M145.439 84.3979L149.758 86.9381L143.805 85.3101L145.439 84.3979Z" fill="#407BFF"/>
<path d="M104.906 136.016L72.604 156.088L82.7709 159.334L112.809 140.661" fill="url(#paint1_linear)"/>
<path d="M105.859 122.345V145.189L92.6919 136.253V114.001L105.859 122.345Z" fill="#5983E7"/>
<path d="M111.652 141.36L105.858 145.19V121.604L111.652 122.821V141.36Z" fill="#2C408A"/>
<path d="M74.9351 17.9954L74.5122 112.747L123.128 141.651V46.7394L74.9351 17.9954Z" fill="#4155A0"/>
<path d="M116.336 50.9726V118.515L80.3511 97.4024V30.7501L116.336 50.9726ZM123.128 46.739V141.919L130.526 137.443V42.6405L123.128 46.739Z" fill="#2C408A"/>
<path d="M74.8291 18.2112L123.181 46.7399L130.526 42.6397L81.8584 14.0593L74.8291 18.2112Z" fill="#32427C"/>
<path d="M105.685 103.947L87.1354 93.0176C86.5553 92.674 86.0791 92.1758 85.7585 91.577C85.4378 90.9782 85.285 90.3018 85.3166 89.6212C85.3445 88.9843 85.5331 88.3653 85.8643 87.8236C86.1956 87.2818 86.6584 86.8354 87.2085 86.5271C87.757 86.2207 88.3744 86.0635 89.0006 86.0709C89.6267 86.0783 90.2403 86.25 90.7817 86.5693L109.332 97.4976C109.9 97.8337 110.369 98.3182 110.689 98.9006C111.009 99.483 111.17 100.142 111.154 100.809C111.14 101.453 110.962 102.083 110.636 102.637C110.31 103.191 109.848 103.649 109.296 103.967C108.744 104.284 108.121 104.449 107.488 104.445C106.854 104.441 106.233 104.27 105.685 103.947Z" fill="#5983E7"/>
<path d="M73.1668 129.298L73.3935 163.369C73.3946 163.596 73.4551 163.819 73.5687 164.015C73.6824 164.21 73.8452 164.372 74.0406 164.483C74.438 164.707 74.922 164.697 75.3092 164.454L83.2742 159.458C83.2742 159.458 86.0747 157.607 83.7999 157.003C82.6934 156.707 78.4137 158.05 78.4137 158.05L78.0698 131.966C78.0698 131.966 78.2354 124.771 77.9382 123.897C76.8615 120.785 64.5539 117.753 64.2346 118.298C63.1138 120.213 64.2686 125.075 64.2686 125.075L64.7806 160.865C64.7874 161.169 64.9377 161.451 65.1848 161.621C65.4311 161.792 65.7436 161.83 66.0221 161.723L73.751 157.093C73.751 157.093 74.9483 156.753 74.4244 155.718C73.6067 154.098 69.0833 155.718 69.0833 155.718L69.102 126.91L73.1668 129.298Z" fill="#0303AD"/>
<path d="M96.7577 98.825C95.7582 100.731 97.8412 102.824 99.7424 101.866C101.611 100.928 103.865 99.4624 103.007 98.1936C101.605 96.1263 97.9821 96.6009 96.7916 98.7595L96.7577 98.825Z" fill="#89664E"/>
<path d="M70.2287 96.0389C70.2287 96.0389 70.0173 95.1543 67.339 98.6101C66.6478 99.5025 66.0679 101.122 65.6492 102.609C65.1941 104.228 64.9326 105.692 64.9326 105.879C64.9326 106.243 63.585 118.718 63.585 118.718C63.585 118.718 78.5988 127.48 78.6489 127.228C78.9376 125.755 78.9274 123.724 78.9274 123.724L79.5642 108.335C79.5642 108.335 87.1217 107.698 88.3725 107.599C89.9986 107.465 99.346 102.392 99.346 102.392L97.7581 97.8246L88.2765 101.999C88.2765 101.999 81.3746 102.565 79.9489 100.87C77.5365 97.9977 72.6343 97.8728 72.6343 97.8728L70.2287 96.0389Z" fill="#9DBAFC"/>
<path d="M71.8338 84.6122C71.8338 84.6122 78.576 82.9067 79.4413 86.6227C80.3066 90.3387 79.6315 95.2166 77.0764 96.7869C74.6844 98.2616 74.7973 97.9739 74.7973 97.9739C74.7973 97.9739 74.7685 100.156 72.3874 100.016C70.0056 99.8767 70.082 98.8619 69.4978 94.3621C69.0664 90.9709 68.3166 85.7337 71.8338 84.6114V84.6122Z" fill="#89664E"/>
<path d="M83.9379 85.4875C83.9379 85.4875 83.887 90.1785 75.4906 89.4352C75.4906 89.4352 73.6378 96.3546 70.2616 95.1667C66.8862 93.9789 67.9052 83.2453 67.9052 83.2453L75.9466 80.1194L83.9388 85.4857L83.9379 85.4875Z" fill="#2E2922"/>
<path d="M75.7873 92.9477C75.9225 92.0952 75.3981 91.3007 74.6161 91.1731C73.834 91.0454 73.0905 91.633 72.9553 92.4855C72.8201 93.338 73.3444 94.1325 74.1265 94.2602C74.9085 94.3878 75.6521 93.8002 75.7873 92.9477Z" fill="#997D6A"/>
<path d="M116.062 0.257764L120.176 6.55786C120.232 6.64224 120.265 6.73963 120.272 6.84068C120.28 6.94174 120.262 7.04307 120.22 7.13498C120.178 7.22651 120.113 7.30554 120.033 7.36439C119.952 7.42325 119.857 7.45994 119.759 7.47091L112.402 8.23065C112.301 8.2404 112.199 8.22266 112.106 8.17922C112.014 8.13579 111.934 8.06822 111.876 7.98343C111.817 7.89831 111.782 7.79906 111.773 7.69564C111.764 7.59223 111.783 7.48829 111.826 7.39425L115.07 0.333564C115.113 0.240547 115.179 0.160795 115.263 0.102471C115.346 0.0441473 115.443 0.00934788 115.544 0.00163582C115.645 -0.00607623 115.746 0.0135753 115.837 0.0585802C115.928 0.103585 116.006 0.172326 116.062 0.257764ZM113.303 6.95926L118.69 6.40195L115.668 1.78067L113.303 6.96012V6.95926Z" fill="white"/>
<defs>
<linearGradient id="paint0_linear" x1="33.1079" y1="73.0121" x2="63.8597" y2="73.0121" gradientUnits="userSpaceOnUse">
<stop stop-color="#8290A1"/>
<stop offset="1" stop-color="#8290A1" stop-opacity="0.1"/>
</linearGradient>
<linearGradient id="paint1_linear" x1="59.4599" y1="147.674" x2="99.5974" y2="147.674" gradientUnits="userSpaceOnUse">
<stop stop-color="#8290A1"/>
<stop offset="1" stop-color="#F2F2F2" stop-opacity="0.1"/>
</linearGradient>
</defs>
</svg>
