<svg width="1382" height="75" viewBox="0 0 1382 75" fill="none" xmlns="http://www.w3.org/2000/svg">
<path d="M224.637 30.3752L5.45246 54.5229C2.91827 54.8021 1 56.9433 1 59.4928V69C1 71.7614 3.23857 74 6 74H1376C1378.76 74 1381 71.7614 1381 69V15.7992C1381 13.2462 1379.08 11.1033 1376.54 10.8283L1286.4 1.06202C1286.02 1.02081 1285.64 1.02339 1285.26 1.06971L1046.3 30.216C1045.86 30.2706 1045.4 30.2644 1044.96 30.1977L919.387 11.4093C918.953 11.3445 918.513 11.3369 918.078 11.3867L790.704 25.9608L663.476 40.5182C662.945 40.5789 662.408 40.5543 661.886 40.4452L561.519 19.5018C560.979 19.3892 560.425 19.3666 559.879 19.4347L330.305 48.0476C329.819 48.1082 329.326 48.097 328.843 48.0143L226.028 30.4167C225.568 30.3381 225.1 30.3241 224.637 30.3752Z" fill="#232382" stroke="white" stroke-opacity="0.13"/>
<path d="M224.922 48.2847L5.6762 62.5127C3.04602 62.6834 1 64.8665 1 67.5022V69C1 71.7614 3.23858 74 6 74H1376C1378.76 74 1381 71.7614 1381 69V41.7651C1381 39.1273 1378.95 36.9432 1376.32 36.7752L1285.83 31L1046.03 48.2292C1045.76 48.2483 1045.5 48.2461 1045.23 48.2227L919.121 37.1081C918.863 37.0854 918.604 37.0827 918.346 37.1001L790.704 45.7029L663.149 54.2999C662.834 54.3211 662.517 54.3124 662.203 54.2738L561.191 41.858C560.867 41.8182 560.541 41.8102 560.215 41.8341L330.006 58.7349C329.717 58.7561 329.426 58.7522 329.138 58.7231L225.747 48.2994C225.473 48.2717 225.197 48.2668 224.922 48.2847Z" fill="#23237E" stroke="white" stroke-opacity="0.13"/>
</svg>
