<svg width="946" height="427" viewBox="0 0 946 427" fill="none" xmlns="http://www.w3.org/2000/svg">
<path d="M393.9 -89.2298C787.817 -82.8049 648.565 -84.4449 791.168 -48.5289C933.771 -12.613 808.369 21.8454 857.564 79.8879C906.759 137.93 1011.53 138.941 1022.8 217.117C1034.07 295.293 874.952 425.586 682.367 423.729C489.782 421.872 131.352 317.76 131.352 317.76C-114.635 264.765 -0.0173717 -95.6548 393.9 -89.2298Z" fill="#5F7EEF" fill-opacity="0.09"/>
<path d="M404.9 -143.23C798.817 -136.805 659.565 -138.445 802.168 -102.529C944.771 -66.613 819.369 -32.1546 868.564 25.8879C917.759 83.9303 1022.53 84.9406 1033.8 163.117C1045.07 241.293 885.952 371.586 693.367 369.729C500.782 367.872 142.352 263.76 142.352 263.76C-103.635 210.765 10.9826 -149.655 404.9 -143.23Z" fill="#5F7EEF" fill-opacity="0.09"/>
</svg>
