<svg width="37" height="37" viewBox="0 0 37 37" fill="none" xmlns="http://www.w3.org/2000/svg">
<circle cx="18.4861" cy="22.2503" r="5.13505" fill="#3AF2FF"/>
<path d="M18.4946 6.45107C20.276 6.45107 21.7201 5.00695 21.7201 3.22553C21.7201 1.44412 20.276 0 18.4946 0C16.7132 0 15.269 1.44412 15.269 3.22553C15.269 5.00695 16.7132 6.45107 18.4946 6.45107Z" fill="#040484"/>
<path d="M19.7455 7.22617C19.7302 7.22576 19.715 7.22534 19.6998 7.2251H17.2914C14.8216 7.27152 12.8572 9.31136 12.9036 11.7811C12.9039 11.7964 12.9043 11.8116 12.9047 11.8268V12.5149C12.9047 12.859 13.0337 13.2461 13.4208 13.2461H23.5704C23.9574 13.2461 24.0864 12.859 24.0864 12.5149V11.8268C24.1581 9.3577 22.2146 7.29787 19.7455 7.22617Z" fill="#040484"/>
<path d="M4.51809 21.4174C4.87436 21.4174 5.16321 21.1285 5.16321 20.7722C5.15424 16.7243 6.99075 12.893 10.152 10.3646C10.4221 10.1706 10.4839 9.79444 10.29 9.52436C10.2741 9.50222 10.2567 9.48123 10.238 9.46147C10.0114 9.19023 9.60861 9.15187 9.33491 9.37545C5.88184 12.1508 3.87321 16.3421 3.87305 20.7722C3.87305 21.1286 4.16182 21.4174 4.51809 21.4174Z" fill="#040484"/>
<path d="M22.7526 33.4165C20.0006 34.3193 17.0322 34.3193 14.2803 33.4165C13.9413 33.3068 13.5776 33.4926 13.4678 33.8315C13.4661 33.8365 13.4646 33.8416 13.4631 33.8466C13.3753 34.189 13.5612 34.5422 13.8931 34.6637C15.3793 35.1469 16.9321 35.3936 18.4948 35.3949C20.0893 35.3964 21.6732 35.1349 23.1826 34.6208C23.4991 34.4573 23.6232 34.0681 23.4598 33.7516C23.3264 33.4933 23.0368 33.3562 22.7526 33.4165Z" fill="#040484"/>
<path d="M26.1855 9.88614C26.1882 9.88804 26.191 9.88993 26.1938 9.89182C29.7203 12.3947 31.8192 16.4481 31.8277 20.7726C31.8277 21.1288 32.1166 21.4177 32.4728 21.4177C32.8291 21.4177 33.118 21.1288 33.118 20.7726C33.1061 16.0209 30.7994 11.5676 26.925 8.81667C26.6242 8.635 26.2348 8.70916 26.0219 8.98872C25.8191 9.28177 25.8925 9.68356 26.1855 9.88614Z" fill="#040484"/>
<path d="M5.59272 30.1046C7.37414 30.1046 8.81826 28.6605 8.81826 26.8791C8.81826 25.0977 7.37414 23.6536 5.59272 23.6536C3.81131 23.6536 2.36719 25.0977 2.36719 26.8791C2.36719 28.6605 3.81131 30.1046 5.59272 30.1046Z" fill="#040484"/>
<path d="M6.84264 30.8802C6.82741 30.8798 6.81218 30.8794 6.79696 30.8792H4.38859C1.91881 30.9256 -0.0457004 32.9654 0.000809073 35.4352C0.00105603 35.4504 0.00146761 35.4656 0.0018792 35.4809V36.169C0.0018792 36.5131 0.130871 36.9001 0.517929 36.9001H10.6675C11.0546 36.9001 11.1836 36.5131 11.1836 36.169V35.4809C11.2554 33.0117 9.31184 30.9519 6.84264 30.8802Z" fill="#040484"/>
<path d="M31.3969 30.1046C33.1783 30.1046 34.6225 28.6605 34.6225 26.8791C34.6225 25.0977 33.1783 23.6536 31.3969 23.6536C29.6155 23.6536 28.1714 25.0977 28.1714 26.8791C28.1714 28.6605 29.6155 30.1046 31.3969 30.1046Z" fill="#040484"/>
<path d="M32.6473 30.8802C32.6321 30.8798 32.6169 30.8794 32.6016 30.8792H30.1933C27.7235 30.9256 25.7591 32.9654 25.8055 35.4352C25.8057 35.4504 25.8062 35.4656 25.8066 35.4809V36.169C25.8066 36.5131 25.9356 36.9001 26.3226 36.9001H36.4723C36.8594 36.9001 36.9883 36.5131 36.9883 36.169V35.4809C37.06 33.0117 35.1165 30.9519 32.6473 30.8802Z" fill="#040484"/>
</svg>
