<svg width="32" height="32" viewBox="0 0 32 32" fill="none" xmlns="http://www.w3.org/2000/svg">
<circle cx="15.8862" cy="15.7871" r="15.7871" fill="white"/>
<ellipse cx="15.4957" cy="17.2507" rx="2.35996" ry="2.36573" fill="#FEA803"/>
<path d="M15.4995 9.97202C16.3182 9.97202 16.9819 9.30671 16.9819 8.48601C16.9819 7.66531 16.3182 7 15.4995 7C14.6808 7 14.0171 7.66531 14.0171 8.48601C14.0171 9.30671 14.6808 9.97202 15.4995 9.97202Z" fill="#040484"/>
<path d="M16.0744 10.3291C16.0674 10.3289 16.0604 10.3287 16.0534 10.3286H14.9466C13.8115 10.35 12.9087 11.2898 12.9301 12.4276C12.9302 12.4346 12.9304 12.4416 12.9305 12.4486V12.7656C12.9305 12.9242 12.9898 13.1025 13.1677 13.1025H17.8323C18.0101 13.1025 18.0694 12.9242 18.0694 12.7656V12.4486C18.1024 11.3111 17.2092 10.3621 16.0744 10.3291Z" fill="#040484"/>
<path d="M9.07623 16.867C9.23997 16.867 9.37272 16.7339 9.37272 16.5697C9.36859 14.7048 10.2126 12.9397 11.6655 11.7749C11.7896 11.6856 11.818 11.5122 11.7289 11.3878C11.7216 11.3776 11.7136 11.3679 11.705 11.3588C11.6008 11.2339 11.4157 11.2162 11.2899 11.3192C9.70299 12.5978 8.77986 14.5288 8.77979 16.5697C8.77979 16.7339 8.9125 16.867 9.07623 16.867Z" fill="#040484"/>
<path d="M17.4565 22.3951C16.1917 22.8111 14.8275 22.8111 13.5628 22.3951C13.407 22.3446 13.2398 22.4302 13.1894 22.5863C13.1886 22.5886 13.1879 22.5909 13.1872 22.5933C13.1468 22.751 13.2323 22.9138 13.3848 22.9697C14.0679 23.1923 14.7815 23.306 15.4997 23.3066C16.2325 23.3073 16.9604 23.1868 17.6541 22.9499C17.7996 22.8746 17.8566 22.6953 17.7815 22.5495C17.7202 22.4305 17.5871 22.3673 17.4565 22.3951Z" fill="#040484"/>
<path d="M19.0341 11.5545C19.0354 11.5554 19.0367 11.5562 19.038 11.5571C20.6587 12.7102 21.6232 14.5776 21.6272 16.5699C21.6272 16.734 21.7599 16.8671 21.9237 16.8671C22.0874 16.8671 22.2202 16.734 22.2202 16.5699C22.2147 14.3808 21.1546 12.3292 19.374 11.0618C19.2357 10.9781 19.0568 11.0123 18.9589 11.141C18.8658 11.2761 18.8995 11.4612 19.0341 11.5545Z" fill="#040484"/>
<path d="M9.57028 20.8692C10.389 20.8692 11.0527 20.2039 11.0527 19.3832C11.0527 18.5625 10.389 17.8972 9.57028 17.8972C8.75158 17.8972 8.08789 18.5625 8.08789 19.3832C8.08789 20.2039 8.75158 20.8692 9.57028 20.8692Z" fill="#040484"/>
<path d="M10.1447 21.2266C10.1377 21.2264 10.1307 21.2262 10.1237 21.2261H9.0169C7.88185 21.2475 6.979 22.1872 7.00037 23.325C7.00049 23.3321 7.00067 23.3391 7.00086 23.3461V23.6631C7.00086 23.8216 7.06015 23.9999 7.23803 23.9999H11.9026C12.0805 23.9999 12.1397 23.8216 12.1397 23.6631V23.3461C12.1727 22.2085 11.2795 21.2596 10.1447 21.2266Z" fill="#040484"/>
<path d="M21.4292 20.8692C22.2479 20.8692 22.9116 20.2039 22.9116 19.3832C22.9116 18.5625 22.2479 17.8972 21.4292 17.8972C20.6105 17.8972 19.9468 18.5625 19.9468 19.3832C19.9468 20.2039 20.6105 20.8692 21.4292 20.8692Z" fill="#040484"/>
<path d="M22.0041 21.2266C21.9971 21.2264 21.9901 21.2262 21.9831 21.2261H20.8763C19.7412 21.2475 18.8384 22.1872 18.8597 23.325C18.8599 23.3321 18.86 23.3391 18.8602 23.3461V23.6631C18.8602 23.8216 18.9195 23.9999 19.0974 23.9999H23.762C23.9399 23.9999 23.9992 23.8216 23.9992 23.6631V23.3461C24.0321 22.2085 23.1389 21.2596 22.0041 21.2266Z" fill="#040484"/>
</svg>
