<svg width="32" height="32" viewBox="0 0 32 32" fill="none" xmlns="http://www.w3.org/2000/svg">
<circle cx="15.8862" cy="15.7871" r="15.7871" fill="white"/>
<path d="M13.0098 9.65625C13.0098 11.1209 14.1269 12.3125 15.5 12.3125C16.8731 12.3125 17.9902 11.1209 17.9902 9.65625C17.9902 8.19159 16.8731 7 15.5 7C14.1269 7 13.0098 8.19159 13.0098 9.65625ZM16.9941 9.65625C16.9941 10.535 16.3239 11.25 15.5 11.25C14.6761 11.25 14.0059 10.535 14.0059 9.65625C14.0059 8.77746 14.6761 8.0625 15.5 8.0625C16.3239 8.0625 16.9941 8.77746 16.9941 9.65625Z" fill="#FEA803"/>
<path d="M14.7944 9.65723L15.4987 8.90604L16.2029 9.65723L15.4987 10.4084L14.7944 9.65723Z" fill="#FEA803"/>
<path d="M19.9824 16.5625H20.9785V17.625H19.9824V16.5625Z" fill="#040484"/>
<path d="M20.3613 13.8144C20.3173 13.0023 19.6903 12.3125 18.8688 12.3125H18.1078C17.4588 12.3125 16.9093 12.7466 16.6991 13.375H13.5078C11.5746 13.375 9.92337 14.6872 9.2957 16.5205C8.56274 16.346 7.99609 15.645 7.99609 14.8349V14.4375H7V14.8349C7 16.1739 7.90316 17.275 9.06079 17.5544C9.03748 17.7516 9.02539 17.9524 9.02539 18.1563C9.02539 19.7648 9.78524 21.2285 11.0176 22.1108V24H14.0059V22.9375H17.9902V24H20.9785V22.1192C21.4573 21.772 21.8714 21.3274 22.1956 20.8125H24V16.5625H22.7C22.2969 15.3455 21.4537 14.3546 20.3613 13.8144ZM18.1078 13.375H18.8688C19.2383 13.375 19.4801 13.79 19.3142 14.1438L18.9338 14.9555C18.8475 15.1394 18.681 15.2492 18.4883 15.2492C18.2955 15.2492 18.129 15.1394 18.0428 14.9555L17.6623 14.1438C17.4971 13.7912 17.7369 13.375 18.1078 13.375ZM23.0039 19.75H21.6337L21.4896 20.014C20.9182 21.0612 20.1014 21.4294 19.9824 21.5234V22.9375H18.9863V21.875H13.0098V22.9375H12.0137V21.5113L11.7661 21.3577C10.6737 20.6795 10.0215 19.4827 10.0215 18.1563C10.0215 16.1057 11.5855 14.4375 13.5078 14.4375H16.6991C16.7196 14.4989 16.7436 14.5596 16.7714 14.619L17.1519 15.4307C17.4066 15.9741 17.9187 16.3117 18.4883 16.3117C19.0579 16.3117 19.5699 15.9741 19.8247 15.4307L20.0931 14.8581C20.9572 15.3413 21.5997 16.1977 21.8497 17.227L21.9463 17.625H23.0039V19.75Z" fill="#040484"/>
</svg>
