<svg width="32" height="32" viewBox="0 0 32 32" fill="none" xmlns="http://www.w3.org/2000/svg">
<circle cx="15.8862" cy="15.7871" r="15.7871" fill="white"/>
<path fill-rule="evenodd" clip-rule="evenodd" d="M16.903 7.93251C16.7689 8.05805 16.6636 8.16081 16.6691 8.16081C16.6747 8.16081 16.6686 8.17148 16.6555 8.18454C16.6425 8.1976 16.6277 8.2064 16.6226 8.20406C16.6175 8.20176 16.4544 8.34803 16.26 8.52908C16.0656 8.71017 15.912 8.8583 15.9188 8.8583C15.9255 8.8583 15.9118 8.8717 15.8883 8.88807C15.8649 8.90445 15.686 9.06598 15.4909 9.24707C15.2958 9.42812 15.1291 9.58272 15.1205 9.59063C15.1118 9.59854 14.7344 9.9438 14.2816 10.3579C13.8289 10.7721 13.4651 11.117 13.4733 11.1246C13.4814 11.1321 14.8538 11.1363 16.5231 11.1339L19.558 11.1294L19.8749 10.836C20.2214 10.5151 20.2327 10.4968 20.1409 10.408C20.0845 10.3533 20.0077 10.2291 20.0077 10.1921C20.0077 10.179 19.9995 10.1682 19.9893 10.1682C19.9792 10.1682 19.9709 10.1453 19.9709 10.1172C19.9709 10.0891 19.9627 10.0662 19.9525 10.0662C19.9418 10.0662 19.9341 10.0098 19.9341 9.93108C19.9341 9.85678 19.9424 9.79124 19.9525 9.78546C19.9627 9.77968 19.9709 9.74859 19.9709 9.71639C19.9709 9.6842 19.9792 9.65787 19.9893 9.65787C19.9995 9.65787 20.0077 9.64792 20.0077 9.63575C20.0077 9.60445 20.051 9.52207 20.0675 9.5219C20.0751 9.52182 20.0813 9.51403 20.0813 9.50459C20.0813 9.49515 20.1062 9.46342 20.1365 9.43403C20.222 9.35136 20.2113 9.30751 20.074 9.17673C20.0093 9.1151 19.9513 9.06925 19.9452 9.07487C19.9391 9.08052 19.9341 9.07108 19.9341 9.05394C19.9341 9.0368 19.9294 9.02711 19.9237 9.03246C19.9133 9.04203 19.8641 8.99729 19.396 8.55349C19.267 8.43113 19.1615 8.33514 19.1615 8.34011C19.1615 8.34513 19.0807 8.27177 18.9821 8.1771C18.4405 7.65742 18.4526 7.66563 18.3533 7.75133C18.3216 7.77872 18.2711 7.81121 18.241 7.82354C18.211 7.83583 18.1864 7.85166 18.1864 7.85876C18.1864 7.86582 18.1698 7.8716 18.1496 7.8716C18.1294 7.8716 18.1128 7.87926 18.1128 7.88861C18.1128 7.89797 18.088 7.90563 18.0576 7.90563C18.0272 7.90563 18.0024 7.91328 18.0024 7.92264C18.0024 7.93293 17.9227 7.93965 17.8 7.93965C17.6774 7.93965 17.5977 7.93293 17.5977 7.92264C17.5977 7.91328 17.5728 7.90563 17.5425 7.90563C17.5121 7.90563 17.4873 7.89797 17.4873 7.88861C17.4873 7.87926 17.4707 7.8716 17.4505 7.8716C17.4303 7.8716 17.4137 7.86395 17.4137 7.85459C17.4137 7.84523 17.4055 7.83758 17.3955 7.83758C17.3855 7.83758 17.36 7.82418 17.3388 7.80781C17.3176 7.79143 17.2782 7.76081 17.2512 7.73976C17.1763 7.68136 17.1642 7.688 16.903 7.93251ZM19.5662 14.6254C19.551 14.6345 19.4968 14.642 19.4457 14.6422C19.3946 14.6423 19.3448 14.6498 19.335 14.6589C19.3252 14.6679 19.2898 14.6772 19.2563 14.6796C19.2229 14.6819 19.1914 14.6898 19.1866 14.6971C19.1817 14.7045 19.1632 14.7105 19.1454 14.7105C19.1161 14.7105 18.9988 14.7547 18.9179 14.7962C18.9003 14.8052 18.8734 14.8125 18.8581 14.8125C18.8428 14.8125 18.8303 14.8202 18.8303 14.8295C18.8303 14.8389 18.8137 14.8466 18.7935 14.8466C18.7733 14.8466 18.7567 14.8542 18.7567 14.8636C18.7567 14.8729 18.7459 14.8806 18.7326 14.8806C18.7193 14.8806 18.6907 14.8959 18.669 14.9146C18.6472 14.9333 18.6209 14.9486 18.6104 14.9486C18.6 14.9486 18.5677 14.9716 18.5387 14.9997C18.5097 15.0277 18.4763 15.0507 18.4645 15.0507C18.4347 15.0507 18.1496 15.3225 18.1496 15.351C18.1496 15.3569 18.1248 15.3837 18.0944 15.4105C18.064 15.4373 18.0392 15.4672 18.0392 15.4769C18.0392 15.4865 18.0226 15.5109 18.0024 15.5309C17.9822 15.551 17.9656 15.5775 17.9656 15.5898C17.9656 15.6021 17.9573 15.6121 17.9472 15.6121C17.9371 15.6121 17.9288 15.6274 17.9288 15.6461C17.9288 15.6648 17.9205 15.6801 17.9104 15.6801C17.9003 15.6801 17.892 15.6955 17.892 15.7142C17.892 15.7329 17.8837 15.7482 17.8736 15.7482C17.8635 15.7482 17.8552 15.7635 17.8552 15.7822C17.8552 15.8009 17.847 15.8162 17.8368 15.8162C17.8267 15.8162 17.8184 15.8392 17.8184 15.8673C17.8184 15.8953 17.8102 15.9183 17.8 15.9183C17.7899 15.9183 17.7816 15.9408 17.7816 15.9683C17.7816 15.9958 17.7734 16.0231 17.7632 16.0289C17.7531 16.0347 17.7448 16.0604 17.7448 16.0861C17.7448 16.1117 17.7373 16.1399 17.7281 16.1488C17.6856 16.1897 17.6694 16.7315 17.7052 16.9135C17.7162 16.9697 17.7305 17.0444 17.7371 17.0796C17.7436 17.1147 17.7563 17.1477 17.7653 17.1528C17.7743 17.158 17.7816 17.1772 17.7816 17.1955C17.7816 17.2137 17.7889 17.242 17.7977 17.2582C17.8666 17.3848 17.892 17.4389 17.892 17.4595C17.892 17.4727 17.8987 17.4834 17.907 17.4834C17.9152 17.4834 17.9333 17.5102 17.9472 17.543C17.9611 17.5757 17.9792 17.6025 17.9875 17.6025C17.9957 17.6025 18.0024 17.6141 18.0024 17.6282C18.0024 17.6423 18.0272 17.6779 18.0576 17.7073C18.088 17.7367 18.1128 17.7669 18.1128 17.7746C18.1128 17.8182 18.4576 18.1312 18.5589 18.1796C18.5868 18.1928 18.6095 18.2101 18.6095 18.2178C18.6095 18.2256 18.6204 18.232 18.6337 18.232C18.6469 18.232 18.6756 18.2473 18.6973 18.266C18.719 18.2847 18.7495 18.3 18.7651 18.3C18.7807 18.3 18.7935 18.3077 18.7935 18.317C18.7935 18.3264 18.8101 18.334 18.8303 18.334C18.8505 18.334 18.8671 18.3417 18.8671 18.351C18.8671 18.3604 18.8837 18.3681 18.9039 18.3681C18.9241 18.3681 18.9407 18.3757 18.9407 18.3851C18.9407 18.3944 18.9614 18.4021 18.9867 18.4021C19.012 18.4021 19.0327 18.4097 19.0327 18.4191C19.0327 18.4284 19.0487 18.4361 19.0684 18.4361C19.088 18.4361 19.1092 18.4438 19.1155 18.4531C19.1217 18.4625 19.1548 18.4701 19.189 18.4701C19.2233 18.4701 19.2564 18.4778 19.2626 18.4871C19.2689 18.4965 19.305 18.5042 19.3429 18.5042C19.3807 18.5042 19.4201 18.5119 19.4304 18.5215C19.4429 18.533 19.9588 18.5359 20.9932 18.5301C23.0784 18.5184 23.1801 18.5184 23.6182 18.53L24 18.5401V16.5846C24 14.8171 23.9972 14.628 23.9709 14.6187C23.886 14.5886 23.3011 14.6082 23.2641 14.6424C23.23 14.674 23.2028 14.6764 22.8869 14.6764C22.5711 14.6764 22.5439 14.674 22.5098 14.6424C22.4685 14.6042 19.6291 14.5878 19.5662 14.6254ZM20.2009 15.4837C20.5122 15.5346 20.6837 15.6106 20.8733 15.7816C21.4923 16.3402 21.3316 17.2551 20.5549 17.5945C19.895 17.8829 19.1789 17.5933 18.8899 16.9211C18.6358 16.3304 19.1307 15.6047 19.8698 15.4843C20.0415 15.4563 20.033 15.4563 20.2009 15.4837ZM19.9617 16.1725C19.6048 16.2288 19.4637 16.6442 19.7214 16.8798C19.8399 16.9882 19.9853 17.0331 20.1227 17.0038C20.7158 16.8775 20.561 16.0778 19.9617 16.1725Z" fill="#FE8B38"/>
<path fill-rule="evenodd" clip-rule="evenodd" d="M17.4551 5.00795C17.4222 5.01217 17.3953 5.02276 17.3953 5.03152C17.3953 5.04028 17.3788 5.04747 17.3585 5.04747C17.3383 5.04747 17.3217 5.05512 17.3217 5.06448C17.3217 5.07383 17.3052 5.08149 17.2849 5.08149C17.2647 5.08149 17.2481 5.08914 17.2481 5.0985C17.2481 5.10786 17.2334 5.11551 17.2154 5.11551C17.1974 5.11551 17.1707 5.13082 17.1561 5.14954C17.1416 5.16825 17.1185 5.18356 17.105 5.18356C17.0914 5.18356 15.6358 6.51935 13.8703 8.15196L10.6603 11.1203L9.38704 11.1269C8.16089 11.1332 7.93902 11.1404 7.93902 11.1735C7.93902 11.1819 7.91418 11.1888 7.88383 11.1888C7.85347 11.1888 7.82863 11.1965 7.82863 11.2058C7.82863 11.2152 7.81258 11.2228 7.79294 11.2228C7.7733 11.2228 7.7521 11.2305 7.74584 11.2399C7.73959 11.2492 7.71839 11.2569 7.69875 11.2569C7.67911 11.2569 7.66306 11.2645 7.66306 11.2739C7.66306 11.2832 7.65064 11.2909 7.63546 11.2909C7.62028 11.2909 7.60786 11.2986 7.60786 11.3079C7.60786 11.3173 7.59715 11.3249 7.58399 11.3249C7.57088 11.3249 7.52779 11.3555 7.48828 11.393C7.44877 11.4304 7.4071 11.461 7.39565 11.461C7.38424 11.461 7.36318 11.4821 7.34883 11.5078C7.33443 11.5335 7.29994 11.5749 7.27211 11.5997C7.24428 11.6245 7.22152 11.6553 7.22152 11.6682C7.22152 11.6811 7.20496 11.7027 7.18472 11.7162C7.16448 11.7297 7.14793 11.7543 7.14793 11.771C7.14793 11.7876 7.13965 11.8013 7.12953 11.8013C7.11941 11.8013 7.11113 11.8128 7.11113 11.827C7.11113 11.852 7.10345 11.8701 7.05879 11.9499C7.04711 11.9708 7.03754 12.0144 7.03754 12.0467C7.03754 12.079 7.02926 12.1102 7.01914 12.116C6.99362 12.1306 6.99362 21.0558 7.01914 21.0558C7.02926 21.0558 7.03754 21.0865 7.03754 21.1239C7.03754 21.1613 7.04582 21.1919 7.05594 21.1919C7.06606 21.1919 7.07434 21.2149 7.07434 21.243C7.07434 21.271 7.08262 21.294 7.09273 21.294C7.10285 21.294 7.11113 21.3093 7.11113 21.328C7.11113 21.3467 7.11941 21.362 7.12953 21.362C7.13965 21.362 7.14793 21.3774 7.14793 21.3961C7.14793 21.4148 7.15621 21.4301 7.16632 21.4301C7.17644 21.4301 7.18472 21.4437 7.18472 21.4604C7.18472 21.477 7.20128 21.5017 7.22152 21.5152C7.24175 21.5286 7.25831 21.5464 7.25831 21.5547C7.25831 21.5716 7.49072 21.7873 7.50898 21.7873C7.51546 21.7873 7.53423 21.8007 7.55069 21.8171C7.56721 21.8335 7.60032 21.8572 7.62438 21.8698C7.64843 21.8823 7.69617 21.9072 7.73053 21.9251C7.76489 21.9429 7.80858 21.9575 7.82767 21.9575C7.84675 21.9575 7.8658 21.967 7.87003 21.9787C7.87614 21.9957 9.34684 22 15.1416 22C20.9364 22 22.4071 21.9957 22.4132 21.9787C22.4175 21.967 22.4365 21.9575 22.4556 21.9575C22.4747 21.9575 22.5184 21.9429 22.5527 21.9251C22.5871 21.9072 22.6348 21.8823 22.6589 21.8698C22.6829 21.8572 22.716 21.8335 22.7326 21.8171C22.749 21.8007 22.7678 21.7873 22.7743 21.7873C22.7925 21.7873 23.0249 21.5716 23.0249 21.5547C23.0249 21.5464 23.0415 21.5286 23.0617 21.5152C23.082 21.5017 23.0985 21.477 23.0985 21.4604C23.0985 21.4437 23.1068 21.4301 23.1169 21.4301C23.127 21.4301 23.1353 21.4148 23.1353 21.3961C23.1353 21.3774 23.1436 21.362 23.1537 21.362C23.1638 21.362 23.1721 21.3467 23.1721 21.328C23.1721 21.3093 23.1804 21.294 23.1905 21.294C23.2006 21.294 23.2089 21.271 23.2089 21.243C23.2089 21.2149 23.2172 21.1919 23.2273 21.1919C23.2374 21.1919 23.2457 21.1613 23.2457 21.1239C23.2457 21.0865 23.254 21.0558 23.2641 21.0558C23.2762 21.0558 23.2825 20.6249 23.2825 19.7969V18.538H22.887H22.4914V19.7374C22.4914 20.5256 22.4851 20.9367 22.473 20.9367C22.4629 20.9367 22.4546 20.9559 22.4546 20.9793C22.4546 21.0027 22.4463 21.0218 22.4362 21.0218C22.4261 21.0218 22.4178 21.0335 22.4178 21.0478C22.4178 21.1259 22.1529 21.294 22.0297 21.294C21.9902 21.294 21.9579 21.3017 21.9579 21.311C21.9579 21.3223 19.9556 21.328 15.9879 21.328H10.0179V16.5902V11.8523H16.042C20.0382 11.8523 22.0699 11.858 22.0775 11.8693C22.0837 11.8787 22.1049 11.8863 22.1246 11.8863C22.1442 11.8863 22.1603 11.894 22.1603 11.9033C22.1603 11.9127 22.1726 11.9203 22.1876 11.9203C22.2599 11.9203 22.4546 12.1249 22.4546 12.2008C22.4546 12.215 22.4629 12.2266 22.473 12.2266C22.4851 12.2266 22.4914 12.6377 22.4914 13.4259V14.6253H22.8872H23.283L23.2761 13.3706C23.2695 12.1707 23.2623 11.9714 23.2254 11.9714C23.2163 11.9714 23.2089 11.9522 23.2089 11.9288C23.2089 11.9055 23.2006 11.8863 23.1905 11.8863C23.1804 11.8863 23.1721 11.8672 23.1721 11.8438C23.1721 11.8204 23.1638 11.8013 23.1537 11.8013C23.1436 11.8013 23.1353 11.7876 23.1353 11.771C23.1353 11.7543 23.1188 11.7297 23.0985 11.7162C23.0783 11.7027 23.0617 11.6811 23.0617 11.6682C23.0617 11.6553 23.039 11.6245 23.0111 11.5997C22.9833 11.5749 22.9493 11.5344 22.9355 11.5097C22.9218 11.485 22.889 11.4543 22.8627 11.4416C22.8365 11.4289 22.793 11.3974 22.7662 11.3717C22.7394 11.346 22.7079 11.3249 22.6964 11.3249C22.6849 11.3249 22.6754 11.3173 22.6754 11.3079C22.6754 11.2986 22.665 11.2907 22.6524 11.2905C22.6397 11.2903 22.6087 11.2752 22.5834 11.2569C22.5581 11.2386 22.5188 11.2234 22.496 11.2232C22.4732 11.223 22.4546 11.2152 22.4546 11.2058C22.4546 11.1965 22.4333 11.1888 22.4073 11.1888C22.307 11.1888 22.2965 11.1441 22.3803 11.0738C22.4622 11.0052 22.7354 10.7533 22.8916 10.6024C22.9447 10.551 22.9881 10.4974 22.9881 10.4832C22.9881 10.469 22.9964 10.4573 23.0065 10.4573C23.0167 10.4573 23.0249 10.442 23.0249 10.4233C23.0249 10.4046 23.0332 10.3893 23.0433 10.3893C23.0535 10.3893 23.0617 10.3739 23.0617 10.3552C23.0617 10.3365 23.07 10.3212 23.0801 10.3212C23.0902 10.3212 23.0985 10.3021 23.0985 10.2787C23.0985 10.2553 23.1068 10.2361 23.1169 10.2361C23.127 10.2361 23.1353 10.206 23.1353 10.1691C23.1353 10.1322 23.1436 10.0973 23.1537 10.0915C23.164 10.0857 23.1721 10.0063 23.1721 9.9119C23.1721 9.81051 23.1648 9.7428 23.1537 9.7428C23.1436 9.7428 23.1353 9.71218 23.1353 9.67475C23.1353 9.63732 23.127 9.6067 23.1169 9.6067C23.1068 9.6067 23.0985 9.58374 23.0985 9.55567C23.0985 9.5276 23.0902 9.50463 23.0801 9.50463C23.07 9.50463 23.0617 9.48932 23.0617 9.4706C23.0617 9.45189 23.0535 9.43658 23.0433 9.43658C23.0332 9.43658 23.0249 9.42127 23.0249 9.40256C23.0249 9.38384 23.0167 9.36853 23.0065 9.36853C22.9964 9.36853 22.9881 9.35845 22.9881 9.34608C22.9881 9.32264 22.7795 9.10706 22.6408 8.98729C22.5966 8.94901 22.4167 8.78374 22.2412 8.62C22.0656 8.45626 21.9063 8.30791 21.8871 8.29039C21.8679 8.27283 21.699 8.11683 21.5118 7.94373C21.3246 7.77063 21.1538 7.61276 21.1322 7.5929C21.1106 7.57299 20.9316 7.40747 20.7343 7.22501C20.537 7.04256 20.3683 6.88664 20.3594 6.87856C20.34 6.86104 19.6327 6.20705 19.6097 6.1854C19.2598 5.85588 18.478 5.14954 18.463 5.14954C18.4517 5.14954 18.4247 5.13423 18.4029 5.11551C18.3812 5.0968 18.3526 5.08149 18.3393 5.08149C18.326 5.08149 18.3152 5.07383 18.3152 5.06448C18.3152 5.05512 18.291 5.04747 18.2615 5.04747C18.232 5.04747 18.2044 5.0379 18.2002 5.0262C18.1925 5.00481 17.5945 4.99018 17.4551 5.00795ZM17.9288 5.72795C17.9288 5.7373 17.941 5.74496 17.956 5.74496C18.0074 5.74496 22.3442 9.77155 22.3442 9.81931C22.3442 9.84274 22.3525 9.86188 22.3626 9.86188C22.3727 9.86188 22.381 9.88438 22.381 9.9119C22.381 9.93942 22.3727 9.96668 22.3626 9.97246C22.3525 9.97825 22.3442 9.99781 22.3442 10.0159C22.3442 10.0574 22.1814 10.2217 21.8458 10.5192C21.7809 10.5766 21.6097 10.7355 21.4652 10.8722L21.2024 11.1208H20.3836C19.6011 11.1208 19.5616 11.1223 19.4926 11.1548C19.4214 11.1884 19.3842 11.1888 16.4658 11.1888C13.5622 11.1888 13.4166 11.1863 13.4496 11.1369C13.4564 11.1268 13.1536 11.1208 12.6407 11.1208C12.1898 11.1208 11.8209 11.1173 11.8209 11.1131C11.8209 11.0919 17.6216 5.74496 17.6445 5.74496C17.6592 5.74496 17.6713 5.7373 17.6713 5.72795C17.6713 5.71821 17.7265 5.71094 17.8001 5.71094C17.8736 5.71094 17.9288 5.71821 17.9288 5.72795ZM9.22684 16.5902V21.328H8.7761C8.48786 21.328 8.32536 21.3219 8.32536 21.311C8.32536 21.3017 8.28397 21.294 8.23338 21.294C8.18278 21.294 8.14139 21.2882 8.14139 21.2812C8.14139 21.2741 8.1149 21.2575 8.08256 21.2442C8.01058 21.2148 7.86543 21.0834 7.86543 21.0478C7.86543 21.0335 7.85715 21.0218 7.84703 21.0218C7.83691 21.0218 7.82863 21.0027 7.82863 20.9793C7.82863 20.9559 7.82035 20.9367 7.81024 20.9367C7.798 20.9367 7.79184 19.4737 7.79184 16.5817C7.79184 13.6896 7.798 12.2266 7.81024 12.2266C7.82035 12.2266 7.82863 12.215 7.82863 12.2008C7.82863 12.1216 7.98455 11.9604 8.11407 11.9056C8.14429 11.8928 8.1814 11.8761 8.19658 11.8683C8.21176 11.8606 8.44978 11.8538 8.72551 11.8533L9.22684 11.8523V16.5902ZM19.7594 15.531C19.4426 15.6315 19.2396 15.7572 19.1066 15.9352C19.0821 15.9679 19.057 15.9986 19.0509 16.0032C19.0279 16.0208 18.9223 16.2406 18.9223 16.271C18.9223 16.2884 18.9129 16.3113 18.9015 16.3219C18.8711 16.35 18.8724 16.776 18.9032 16.8624C19.0063 17.1521 19.1576 17.3438 19.4006 17.493C19.4952 17.5511 19.5357 17.5689 19.7318 17.639C19.8318 17.6746 20.2673 17.6688 20.3849 17.6301C20.9502 17.4445 21.2792 16.9728 21.2054 16.4541C21.1695 16.2021 21.1026 16.0645 20.9092 15.8443C20.8263 15.75 20.5732 15.6009 20.4309 15.5626C20.3854 15.5504 20.3291 15.5335 20.3058 15.5251C20.2489 15.5046 19.8285 15.5091 19.7594 15.531ZM20.1549 16.1444C20.3846 16.2013 20.5413 16.3854 20.5413 16.5985C20.5413 16.6443 20.5341 16.6859 20.5253 16.6909C20.5164 16.6959 20.5046 16.7212 20.4989 16.7472C20.4214 17.0996 19.7703 17.1279 19.6095 16.7858C19.5941 16.7531 19.5739 16.7129 19.5646 16.6967C19.4189 16.4413 19.8239 16.0623 20.1549 16.1444Z" fill="#04048C"/>
<path fill-rule="evenodd" clip-rule="evenodd" d="M14.9823 11.1512C15.8154 11.1537 17.1731 11.1537 17.9995 11.1512C18.8259 11.1487 18.1443 11.1467 16.4848 11.1467C14.8254 11.1467 14.1492 11.1487 14.9823 11.1512ZM22.5181 14.6505C22.5708 14.6895 23.2035 14.6895 23.2562 14.6505C23.2907 14.6249 23.2905 14.6246 23.2517 14.642C23.1984 14.6658 22.5759 14.6658 22.5226 14.642C22.4838 14.6246 22.4836 14.6249 22.5181 14.6505ZM19.9344 15.4759C19.8915 15.4838 19.9283 15.4879 20.0447 15.4881C20.1796 15.4883 20.2027 15.4853 20.1459 15.4749C20.0606 15.4593 20.023 15.4595 19.9344 15.4759ZM20.4311 15.5446C20.4463 15.5536 20.4711 15.5611 20.4863 15.5611C20.5108 15.5611 20.5108 15.5592 20.4863 15.5446C20.4711 15.5355 20.4463 15.5281 20.4311 15.5281C20.4066 15.5281 20.4066 15.5299 20.4311 15.5446ZM19.3731 15.6625C19.3124 15.6992 19.2297 15.7621 19.1893 15.8023L19.1157 15.8751L19.2105 15.7958C19.2626 15.7521 19.3475 15.6924 19.399 15.6631C19.4793 15.6174 19.508 15.5956 19.4881 15.5956C19.4855 15.5956 19.4337 15.6257 19.3731 15.6625ZM20.7253 15.6753C20.7606 15.7016 20.831 15.7574 20.8817 15.7992L20.9738 15.8751L20.9025 15.8048C20.8633 15.7661 20.7929 15.7103 20.7462 15.6809C20.6734 15.6352 20.6704 15.6344 20.7253 15.6753ZM19.0427 15.9656C19.0075 16.0101 18.9784 16.0534 18.9782 16.062C18.9779 16.0706 18.9803 16.0744 18.9834 16.0705C19.0459 15.9924 19.1227 15.8848 19.1158 15.8848C19.1109 15.8848 19.078 15.9212 19.0427 15.9656ZM19.8378 16.1922C19.7998 16.2107 19.7688 16.2297 19.7688 16.2344C19.7688 16.2391 19.7957 16.2298 19.8286 16.2138C19.8615 16.1977 19.9215 16.1793 19.962 16.1729L20.0356 16.1613L19.9712 16.1599C19.9357 16.1591 19.8757 16.1737 19.8378 16.1922ZM20.1367 16.1737C20.1722 16.1807 20.2177 16.1918 20.2379 16.1984C20.262 16.2062 20.2588 16.2014 20.2287 16.1843C20.2034 16.1699 20.1579 16.1588 20.1275 16.1595C20.0733 16.1609 20.0734 16.1611 20.1367 16.1737ZM20.2839 16.2133C20.2839 16.2176 20.3143 16.2424 20.3514 16.2686C20.3886 16.2948 20.4132 16.3076 20.4061 16.297C20.3915 16.2752 20.2839 16.2015 20.2839 16.2133ZM18.8788 16.2852C18.8725 16.3005 18.868 16.3257 18.8689 16.3413C18.8697 16.3569 18.8778 16.3471 18.8867 16.3195C18.904 16.2658 18.8979 16.2392 18.8788 16.2852ZM19.6768 16.3101C19.6552 16.3382 19.6408 16.3611 19.6449 16.3611C19.649 16.3611 19.6745 16.3382 19.7015 16.3101C19.7285 16.282 19.7429 16.2591 19.7334 16.2591C19.7239 16.2591 19.6984 16.282 19.6768 16.3101ZM21.2314 16.5805C21.2314 16.6836 21.237 16.7549 21.2439 16.7389C21.2597 16.7023 21.2593 16.4848 21.2433 16.4324C21.2368 16.4107 21.2314 16.4774 21.2314 16.5805ZM20.4942 16.5823C20.4942 16.7118 20.4959 16.7194 20.5113 16.6546C20.5217 16.6102 20.5217 16.5544 20.5113 16.51C20.4959 16.4452 20.4942 16.4528 20.4942 16.5823ZM19.578 16.5015C19.5635 16.5515 19.5656 16.6338 19.5823 16.6731C19.5897 16.6905 19.5956 16.651 19.5956 16.5838C19.5956 16.4515 19.5943 16.4453 19.578 16.5015ZM18.8364 16.5823C18.8364 16.6431 18.8398 16.668 18.8438 16.6376C18.8479 16.6072 18.8479 16.5574 18.8438 16.527C18.8398 16.4966 18.8364 16.5215 18.8364 16.5823ZM20.4313 16.8117C20.4095 16.8443 20.3703 16.8865 20.3442 16.9055C20.318 16.9245 20.3009 16.9439 20.3061 16.9487C20.3173 16.9591 20.4375 16.8389 20.467 16.7879C20.5005 16.73 20.4741 16.7475 20.4313 16.8117ZM18.8676 16.8389C18.8677 16.8615 18.876 16.8915 18.886 16.9055C18.8987 16.9235 18.9006 16.9134 18.8922 16.8715C18.8777 16.7981 18.8672 16.7843 18.8676 16.8389ZM19.6584 16.8359C19.6584 16.8424 19.6874 16.8738 19.7228 16.9055C19.7582 16.9373 19.7872 16.9587 19.7872 16.9531C19.7872 16.9475 19.7582 16.9162 19.7228 16.8834C19.6874 16.8507 19.6584 16.8293 19.6584 16.8359ZM21.2059 16.8403C21.2048 16.8559 21.199 16.8827 21.1932 16.8999C21.1832 16.9294 21.1837 16.9295 21.2037 16.9007C21.2152 16.8841 21.2209 16.8573 21.2163 16.8412C21.2089 16.8149 21.2078 16.8148 21.2059 16.8403ZM19.916 17.0076C19.9311 17.0167 19.9643 17.0235 19.9896 17.0227L20.0356 17.0212L19.9896 17.0076C19.9186 16.9866 19.8808 16.9866 19.916 17.0076ZM20.0999 17.0076L20.0539 17.0212L20.0999 17.0227C20.1252 17.0235 20.1584 17.0167 20.1735 17.0076C20.2087 16.9866 20.1709 16.9866 20.0999 17.0076ZM20.9946 17.25C20.9543 17.3006 20.9423 17.3232 20.967 17.3021C21.0059 17.2689 21.0858 17.1607 21.0715 17.1607C21.0683 17.1608 21.0338 17.2009 20.9946 17.25ZM19.1263 17.3088C19.1864 17.3709 19.2005 17.3835 19.2637 17.4325C19.2936 17.4557 19.2687 17.427 19.2083 17.3687C19.0989 17.2632 19.0413 17.2211 19.1263 17.3088ZM20.6955 17.5066C20.6638 17.5269 20.6224 17.5531 20.6035 17.5649C20.5846 17.5767 20.6027 17.5716 20.6439 17.5534C20.685 17.5353 20.7295 17.5084 20.7427 17.4937C20.7734 17.4595 20.7661 17.4615 20.6955 17.5066ZM19.4376 17.5441C19.4376 17.5565 19.6236 17.6393 19.6389 17.6338C19.6468 17.6309 19.6047 17.6079 19.5454 17.5827C19.4862 17.5575 19.4376 17.5401 19.4376 17.5441ZM20.4587 17.6213C20.4182 17.6393 20.4058 17.6492 20.4311 17.6434C20.4832 17.6314 20.5788 17.5871 20.5507 17.588C20.5406 17.5883 20.4992 17.6033 20.4587 17.6213ZM19.9666 17.7005C20.0096 17.7041 20.0799 17.7041 20.1229 17.7005C20.1659 17.697 20.1308 17.694 20.0447 17.694C19.9587 17.694 19.9236 17.697 19.9666 17.7005ZM22.7179 18.5173C22.8171 18.5204 22.9744 18.5204 23.0675 18.5173C23.1605 18.5142 23.0794 18.5117 22.8872 18.5118C22.6949 18.5118 22.6187 18.5143 22.7179 18.5173Z" fill="#5C85AC"/>
<path fill-rule="evenodd" clip-rule="evenodd" d="M14.9819 11.1851C15.8048 11.1876 17.146 11.1876 17.9623 11.1851C18.7785 11.1827 18.1052 11.1807 16.466 11.1807C14.8268 11.1807 14.1589 11.1827 14.9819 11.1851ZM22.7074 14.6385C22.8111 14.6416 22.9808 14.6416 23.0845 14.6385C23.1882 14.6355 23.1034 14.633 22.8959 14.633C22.6885 14.633 22.6037 14.6355 22.7074 14.6385ZM19.9386 15.506C19.9967 15.5094 20.0919 15.5094 20.1501 15.506C20.2083 15.5026 20.1607 15.4999 20.0443 15.4999C19.928 15.4999 19.8804 15.5026 19.9386 15.506ZM19.7316 15.5275C19.6937 15.5387 19.6921 15.5413 19.7224 15.5425C19.7426 15.5433 19.7716 15.5365 19.7868 15.5275C19.819 15.5082 19.7966 15.5082 19.7316 15.5275ZM20.3019 15.5267C20.3171 15.5362 20.3454 15.5441 20.3648 15.5442C20.4118 15.5446 20.3972 15.5348 20.3295 15.5208C20.2892 15.5125 20.2818 15.5141 20.3019 15.5267ZM19.5179 15.6033C19.4482 15.6356 19.3623 15.6856 19.3268 15.7146C19.2672 15.7632 19.2695 15.7626 19.3568 15.7067C19.4087 15.6735 19.5039 15.6238 19.5683 15.5962C19.6328 15.5686 19.6763 15.5457 19.6651 15.5452C19.6538 15.5448 19.5875 15.5709 19.5179 15.6033ZM20.6882 15.6689C20.6882 15.6731 20.7187 15.698 20.7558 15.7242C20.7929 15.7504 20.8175 15.7631 20.8104 15.7525C20.7959 15.7307 20.6882 15.6571 20.6882 15.6689ZM19.0869 15.9367C19.0649 15.9654 19.0499 15.9916 19.0537 15.995C19.0575 15.9985 19.0791 15.9751 19.1018 15.943C19.1531 15.8707 19.1415 15.8658 19.0869 15.9367ZM21.0562 16.0229C21.0562 16.0377 21.1131 16.1399 21.1214 16.1399C21.1254 16.1399 21.1234 16.1265 21.117 16.1101C21.1037 16.0764 21.0562 16.0082 21.0562 16.0229ZM19.9625 16.1382C19.9402 16.1463 19.9711 16.1513 20.0443 16.1513C20.1176 16.1513 20.1485 16.1463 20.1262 16.1382C20.1065 16.1311 20.0696 16.1253 20.0443 16.1253C20.019 16.1253 19.9822 16.1311 19.9625 16.1382ZM21.1669 16.2689C21.167 16.2868 21.1756 16.313 21.1858 16.327C21.1995 16.3457 21.2012 16.3388 21.1922 16.3015C21.177 16.2389 21.1665 16.2254 21.1669 16.2689ZM21.2115 16.5822C21.2118 16.7724 21.2135 16.7837 21.2277 16.6885C21.2365 16.6287 21.2363 16.5357 21.2272 16.4759C21.2128 16.3806 21.2112 16.3917 21.2115 16.5822ZM18.8571 16.5052C18.8501 16.5657 18.8516 16.6518 18.8606 16.6966C18.8743 16.7655 18.8769 16.7488 18.8778 16.5865C18.879 16.3668 18.8749 16.3509 18.8571 16.5052ZM19.5588 16.49C19.5429 16.5283 19.5449 16.6808 19.5614 16.6901C19.569 16.6944 19.5752 16.6451 19.5752 16.5805C19.5752 16.4521 19.575 16.451 19.5588 16.49ZM20.5135 16.5822C20.5135 16.6459 20.5197 16.6945 20.5273 16.6902C20.545 16.68 20.5448 16.5119 20.527 16.486C20.5195 16.4752 20.5135 16.5185 20.5135 16.5822ZM19.6212 16.8143C19.6212 16.8341 19.7948 16.9905 19.8169 16.9905C19.8242 16.9905 19.7956 16.9632 19.7534 16.9297C19.7112 16.8963 19.6641 16.8524 19.6489 16.8324C19.6337 16.8123 19.6212 16.8041 19.6212 16.8143ZM20.3111 16.9501C20.2807 16.974 20.2725 16.9857 20.2927 16.9763C20.3477 16.9504 20.4057 16.9065 20.3847 16.9066C20.3746 16.9066 20.3415 16.9262 20.3111 16.9501ZM21.1297 16.9991C21.1201 17.0226 21.0994 17.0647 21.0837 17.0927C21.0681 17.1207 21.0594 17.1436 21.0644 17.1436C21.075 17.1436 21.1223 17.062 21.1481 16.9991C21.1578 16.9757 21.1615 16.9565 21.1565 16.9565C21.1514 16.9565 21.1394 16.9757 21.1297 16.9991ZM19.9845 17.0368C20.0174 17.0406 20.0712 17.0406 20.1041 17.0368C20.137 17.0331 20.1101 17.03 20.0443 17.03C19.9786 17.03 19.9517 17.0331 19.9845 17.0368ZM21.001 17.2159C20.9739 17.2501 20.9694 17.262 20.9893 17.2471C21.0194 17.2244 21.0651 17.1606 21.0511 17.1606C21.0476 17.1606 21.025 17.1855 21.001 17.2159ZM19.1192 17.2712C19.1764 17.3392 19.3085 17.4633 19.3084 17.4489C19.3084 17.4447 19.2529 17.3877 19.1852 17.3222C19.1174 17.2567 19.0877 17.2338 19.1192 17.2712ZM20.8666 17.3585C20.8179 17.4014 20.7812 17.4394 20.7849 17.4428C20.7886 17.4462 20.8323 17.411 20.8818 17.3644C20.9949 17.2582 20.9847 17.2543 20.8666 17.3585ZM19.8639 17.6735C19.8872 17.6796 19.9684 17.6846 20.0443 17.6846C20.1202 17.6846 20.2015 17.6796 20.2248 17.6735C20.2482 17.6675 20.167 17.6625 20.0443 17.6625C19.9217 17.6625 19.8405 17.6675 19.8639 17.6735ZM22.7074 18.5343C22.8111 18.5373 22.9808 18.5373 23.0845 18.5343C23.1882 18.5312 23.1034 18.5288 22.8959 18.5288C22.6885 18.5288 22.6037 18.5312 22.7074 18.5343Z" fill="#38569F"/>
<path fill-rule="evenodd" clip-rule="evenodd" d="M14.9728 11.1678C15.8008 11.1703 17.1503 11.1703 17.9716 11.1678C18.7929 11.1653 18.1155 11.1633 16.4662 11.1633C14.8168 11.1633 14.1448 11.1653 14.9728 11.1678ZM22.7177 14.6552C22.8168 14.6583 22.9741 14.6582 23.0672 14.6552C23.1603 14.6521 23.0791 14.6496 22.8869 14.6496C22.6946 14.6496 22.6185 14.6521 22.7177 14.6552Z" fill="#4C74A4"/>
</svg>
