<svg width="302" height="104" viewBox="0 0 302 104" fill="none" xmlns="http://www.w3.org/2000/svg">
<path d="M46.9833 61.8683L3.78943 83.1587C2.08151 84.0006 1 85.7394 1 87.6435V98C1 100.761 3.23857 103 6 103H296C298.761 103 301 100.761 301 98V45.1619C301 43.2459 299.905 41.4984 298.181 40.6627L282.627 33.1229C281.173 32.4182 279.469 32.4593 278.051 33.2331L230.753 59.0444C229.118 59.9363 227.124 59.8462 225.576 58.8104L202.95 43.6645C201.442 42.655 199.506 42.5418 197.891 43.3687L172.675 56.2769L147.967 68.9251C146.092 69.885 143.816 69.5668 142.277 68.1292L125.339 52.3167C123.751 50.8346 121.389 50.5468 119.492 51.6045L75.2965 76.2484C73.5555 77.2192 71.4042 77.0631 69.8215 75.8512L52.2338 62.3833C50.724 61.2272 48.689 61.0276 46.9833 61.8683Z" fill="white" fill-opacity="0.08" stroke="white" stroke-opacity="0.13"/>
<path d="M46.1337 43.9377L3.09173 74.7151C1.77896 75.6538 1 77.1684 1 78.7822V98C1 100.761 3.23857 103 6 103H296C298.761 103 301 100.761 301 98V17.1458C301 15.518 300.208 13.9921 298.876 13.0558L283.364 2.14706C281.553 0.873543 279.12 0.942604 277.384 2.3168L231.533 38.6155C229.565 40.1735 226.747 40.0309 224.946 38.2822L203.558 17.5117C201.799 15.8039 199.062 15.6229 197.094 17.0845L172.675 35.2186L148.868 52.8986C146.646 54.5482 143.508 54.0803 141.864 51.8544L125.779 30.0694C124.087 27.7783 120.826 27.3609 118.612 29.1521L76.1161 63.5283C74.0488 65.2006 71.0343 64.9623 69.2553 62.9861L52.7581 44.6596C51.0554 42.7682 48.2038 42.4574 46.1337 43.9377Z" fill="white" fill-opacity="0.04" stroke="white" stroke-opacity="0.13"/>
</svg>
